<svg width="20" height="11" viewBox="0 0 20 11" fill="none" xmlns="http://www.w3.org/2000/svg">
<path d="M10.1404 10.996C9.93972 10.9759 9.74971 10.8828 9.59778 10.7302L0.795998 1.9496C0.696896 1.85673 0.614998 1.7418 0.555208 1.61166C0.495419 1.48152 0.45895 1.33883 0.447968 1.19209C0.436985 1.04535 0.451725 0.897563 0.491293 0.757528C0.530863 0.617493 0.594467 0.488076 0.678305 0.376983C0.76214 0.265891 0.8645 0.175395 0.979292 0.110885C1.09408 0.046377 1.21894 0.00917412 1.34646 0.00149323C1.47397 -0.00618766 1.60153 0.0158117 1.72152 0.0661781C1.84151 0.116545 1.95149 0.194249 2.0449 0.294665L10.2222 8.44927L18.3996 0.294665C18.493 0.194249 18.6029 0.116545 18.7229 0.0661783C18.8429 0.0158119 18.9705 -0.00618745 19.098 0.00149344C19.2255 0.00917434 19.3504 0.0463772 19.4652 0.110886C19.58 0.175395 19.6823 0.265891 19.7662 0.376984C19.85 0.488076 19.9136 0.617494 19.9532 0.757528C19.9927 0.897563 20.0075 1.04535 19.9965 1.19209C19.9855 1.33883 19.949 1.48152 19.8892 1.61166C19.8294 1.7418 19.7476 1.85673 19.6485 1.9496L10.8467 10.7302C10.7504 10.8268 10.6383 10.9002 10.517 10.9458C10.3956 10.9915 10.2676 11.0086 10.1404 10.996Z" fill="white"/>
</svg>
