<svg width="390" height="331" viewBox="0 0 390 331" fill="none" xmlns="http://www.w3.org/2000/svg">
<path d="M286.36 48L302.584 18V20.304H285.256V14.16H309.592V19.728L294.568 48H286.36ZM326.181 48.528C323.461 48.528 321.157 47.84 319.269 46.464C317.413 45.088 315.989 43.104 314.997 40.512C314.037 37.92 313.557 34.736 313.557 30.96C313.557 27.216 314.037 24.064 314.997 21.504C315.957 18.912 317.381 16.96 319.269 15.648C321.157 14.304 323.461 13.632 326.181 13.632C328.933 13.632 331.237 14.304 333.093 15.648C334.981 16.96 336.405 18.896 337.365 21.456C338.325 24.016 338.805 27.184 338.805 30.96C338.805 34.704 338.309 37.888 337.317 40.512C336.357 43.104 334.949 45.088 333.093 46.464C331.237 47.84 328.933 48.528 326.181 48.528ZM326.181 42.48C328.037 42.48 329.413 41.568 330.309 39.744C331.205 37.888 331.653 34.96 331.653 30.96C331.653 26.96 331.205 24.08 330.309 22.32C329.445 20.56 328.069 19.68 326.181 19.68C324.325 19.68 322.949 20.56 322.053 22.32C321.157 24.08 320.709 26.96 320.709 30.96C320.709 34.96 321.157 37.888 322.053 39.744C322.949 41.568 324.325 42.48 326.181 42.48ZM355.971 49.44L351.315 46.704L370.995 12.72L375.603 15.456L355.971 49.44ZM351.123 34.32C349.267 34.32 347.683 33.904 346.371 33.072C345.059 32.208 344.051 31.008 343.347 29.472C342.675 27.904 342.339 26.064 342.339 23.952C342.339 20.784 343.107 18.272 344.643 16.416C346.211 14.56 348.371 13.632 351.123 13.632C352.947 13.632 354.515 14.064 355.827 14.928C357.171 15.76 358.179 16.944 358.851 18.48C359.555 20.016 359.907 21.84 359.907 23.952C359.907 26.064 359.555 27.904 358.851 29.472C358.179 31.008 357.187 32.208 355.875 33.072C354.563 33.904 352.979 34.32 351.123 34.32ZM351.123 29.712C352.083 29.712 352.819 29.264 353.331 28.368C353.843 27.44 354.099 25.968 354.099 23.952C354.099 21.936 353.827 20.496 353.283 19.632C352.771 18.736 352.051 18.288 351.123 18.288C350.163 18.288 349.427 18.72 348.915 19.584C348.403 20.448 348.147 21.904 348.147 23.952C348.147 26 348.403 27.472 348.915 28.368C349.427 29.264 350.163 29.712 351.123 29.712ZM375.843 48.528C373.987 48.528 372.403 48.112 371.091 47.28C369.779 46.416 368.771 45.2 368.067 43.632C367.395 42.064 367.059 40.224 367.059 38.112C367.059 34.944 367.827 32.448 369.363 30.624C370.931 28.768 373.091 27.84 375.843 27.84C377.699 27.84 379.283 28.256 380.595 29.088C381.907 29.92 382.899 31.104 383.571 32.64C384.275 34.176 384.627 36 384.627 38.112C384.627 40.224 384.275 42.064 383.571 43.632C382.899 45.2 381.907 46.416 380.595 47.28C379.283 48.112 377.699 48.528 375.843 48.528ZM375.843 43.872C376.803 43.872 377.539 43.424 378.051 42.528C378.563 41.6 378.819 40.128 378.819 38.112C378.819 36.096 378.547 34.656 378.003 33.792C377.491 32.896 376.771 32.448 375.843 32.448C374.883 32.448 374.147 32.88 373.635 33.744C373.123 34.608 372.867 36.064 372.867 38.112C372.867 40.192 373.123 41.68 373.635 42.576C374.147 43.44 374.883 43.872 375.843 43.872Z" fill="black"/>
<path d="M389.03 62.0023L265.847 62.4122L210.763 117.376C188.348 95.5047 157.677 82.0227 123.849 82.0227C58.8579 82.0227 5.51764 131.783 0 195.201H6.30034C11.8616 135.303 62.3649 88.4053 123.849 88.4053C189.05 88.4053 241.906 141.145 241.906 206.203C241.906 271.261 189.05 324.001 123.849 324.001C121.843 324.001 119.85 323.951 117.87 323.852V329.974C119.85 330.068 121.843 330.116 123.849 330.116C192.509 330.116 248.17 274.578 248.17 206.068C248.17 171.899 234.323 140.959 211.926 118.525L266.522 64.0497L266.529 64.0428L389.037 63.6352L389.033 62L389.03 62.0023Z" fill="#22252A"/>
<path d="M226.88 206.233C226.88 149.458 180.753 103.433 123.853 103.433V160.235C149.311 160.235 169.947 180.831 169.947 206.233C169.947 231.635 149.309 252.23 123.849 252.23C108.517 252.23 94.9359 244.76 86.5539 233.27L40.5009 266.656C60.5678 294.215 89.7121 309.033 123.851 309.033C180.751 309.033 226.877 263.008 226.877 206.233H226.88Z" fill="#5FC4E9"/>
<path d="M114.548 151.73V113.115C97.7429 114.602 83.0032 120.252 68.7638 130.576C58.525 137.998 50.0511 147.195 43.5787 157.913C37.3243 168.269 33.1884 179.603 31.2834 191.603C29.3784 203.603 29.8029 215.659 32.5434 227.437C34.6802 236.614 38.1598 245.321 42.9269 253.425L74.1827 230.767C70.4094 223.191 68.4447 214.855 68.4447 206.235C68.4447 178.913 88.4083 156.159 114.548 151.732V151.73Z" fill="#BEBEBE"/>
<path d="M123.851 229.604C130.107 229.604 135.99 227.171 140.413 222.758C144.836 218.345 147.273 212.476 147.273 206.233C147.273 199.99 144.836 194.12 140.413 189.707C135.99 185.294 130.107 182.862 123.851 182.862C117.594 182.862 111.712 185.294 107.289 189.707C102.866 194.12 100.428 199.99 100.428 206.233C100.428 212.476 102.866 218.345 107.289 222.758C111.712 227.171 117.594 229.604 123.851 229.604Z" fill="#E24E4F"/>
</svg>
