<svg width="572" height="326" viewBox="0 0 572 326" fill="none" xmlns="http://www.w3.org/2000/svg">
<path fill-rule="evenodd" clip-rule="evenodd" d="M545.907 258.806H520.219C520.219 244.508 531.723 232.915 545.907 232.915C560.091 232.915 571.594 244.508 571.594 258.806H545.907Z" fill="#EBEBEB"/>
<path fill-rule="evenodd" clip-rule="evenodd" d="M464.114 258.806H449C449 250.393 455.766 243.573 464.114 243.573C472.461 243.573 479.228 250.393 479.228 258.806H464.114Z" fill="#EBEBEB"/>
<path fill-rule="evenodd" clip-rule="evenodd" d="M507.304 258.806H474.762C474.762 240.691 489.333 226 507.304 226C525.276 226 539.846 240.684 539.846 258.806H507.304Z" fill="#EBEBEB"/>
<path fill-rule="evenodd" clip-rule="evenodd" d="M96.9068 162.806H71.2193C71.2193 148.508 82.7227 136.915 96.9068 136.915C111.091 136.915 122.594 148.508 122.594 162.806H96.9068Z" fill="#EBEBEB"/>
<path fill-rule="evenodd" clip-rule="evenodd" d="M15.1139 162.806H0C0 154.393 6.7663 147.573 15.1139 147.573C23.4615 147.573 30.2278 154.393 30.2278 162.806H15.1139Z" fill="#EBEBEB"/>
<path fill-rule="evenodd" clip-rule="evenodd" d="M58.3044 162.806H25.7624C25.7624 144.691 40.3333 130 58.3044 130C76.2755 130 90.8465 144.684 90.8465 162.806H58.3044Z" fill="#EBEBEB"/>
<g clip-path="url(#clip0_20_361)">
<path d="M374.623 270.571C374.623 270.571 388.125 176.791 446.517 127.696" stroke="#2BCE8F" stroke-opacity="0.37" stroke-width="18.88" stroke-linecap="round" stroke-linejoin="round"/>
<path d="M439.679 104.601C439.175 112.499 449.034 123.727 449.034 123.727C449.034 123.727 460.245 113.853 460.75 105.954C461.254 98.0557 456.682 95.4993 450.865 95.1236C445.046 94.7503 440.186 96.6995 439.679 104.598V104.601Z" fill="white"/>
<path d="M440.82 148.167C446.469 142.638 446.639 127.68 446.639 127.68C446.639 127.68 431.718 127.493 426.068 133.024C420.419 138.553 422.109 143.522 426.182 147.704C430.254 151.886 435.168 153.698 440.818 148.169L440.82 148.167Z" fill="white"/>
<path d="M425.001 126.406C432.05 129.971 446.222 125.284 446.222 125.284C446.222 125.284 441.56 111.072 434.511 107.509C427.461 103.944 423.32 107.157 420.695 112.376C418.069 117.595 417.951 122.843 425.001 126.408V126.406Z" fill="white"/>
<path d="M467.495 112.738C459.604 112.964 449.364 123.85 449.364 123.85C449.364 123.85 460.21 134.125 468.101 133.896C475.991 133.669 478.108 128.868 477.94 123.025C477.773 117.182 475.383 112.511 467.493 112.74L467.495 112.738Z" fill="white"/>
<path d="M466.392 139.9C463.205 132.658 449.288 127.257 449.288 127.257C449.288 127.257 443.886 141.202 447.075 148.443C450.262 155.685 455.496 155.839 460.83 153.478C466.163 151.118 469.578 147.139 466.392 139.897V139.9Z" fill="white"/>
<path d="M461.252 133.232L453.648 128.601" stroke="#80A89E" stroke-width="4.19" stroke-linecap="round" stroke-linejoin="round"/>
<path d="M452.211 121.199L455.786 117.243" stroke="#80A89E" stroke-width="4.19" stroke-linecap="round" stroke-linejoin="round"/>
<path d="M442.571 115.892L445.197 120.535" stroke="#80A89E" stroke-width="4.19" stroke-linecap="round" stroke-linejoin="round"/>
<path d="M441.753 127.538L436.545 128.648" stroke="#80A89E" stroke-width="4.19" stroke-linecap="round" stroke-linejoin="round"/>
<path d="M446.469 132.804L445.27 138.005" stroke="#80A89E" stroke-width="4.19" stroke-linecap="round" stroke-linejoin="round"/>
<path d="M450.915 131.699C453.954 129.97 455.019 126.098 453.294 123.051C451.569 120.004 447.706 118.936 444.667 120.665C441.627 122.395 440.562 126.267 442.287 129.314C444.013 132.361 447.875 133.429 450.915 131.699Z" fill="#3B9675"/>
<path d="M218.161 113.82C216.365 114.93 213.987 114.368 212.879 112.565L197.331 87.3029C196.223 85.5025 196.787 83.1185 198.583 82.008C200.379 80.8976 202.757 81.4599 203.864 83.2627L219.412 108.525C220.52 110.325 219.957 112.709 218.161 113.82Z" fill="#94BDB0"/>
<path d="M203.633 122.649C201.837 123.76 199.459 123.198 198.352 121.395L182.803 96.1325C181.696 94.3321 182.259 91.9481 184.055 90.8376C185.851 89.7272 188.229 90.2895 189.337 92.0922L204.885 117.355C205.993 119.155 205.429 121.539 203.633 122.649Z" fill="#94BDB0"/>
<path d="M246.16 181.07C246.16 181.07 228.533 145.466 208.767 120.112" stroke="#2BCE8F" stroke-opacity="0.37" stroke-width="18.88" stroke-linecap="round" stroke-linejoin="round"/>
<path d="M224.147 125.107L209.115 134.284C203.603 137.648 196.348 135.881 192.99 130.354L183.631 114.949L218.708 93.5359L228.067 108.941C231.423 114.467 229.66 121.74 224.147 125.107Z" fill="#2BCE8F" fill-opacity="0.37"/>
<path d="M229.863 150.738C227.301 152.323 223.909 151.517 222.328 148.949L208.498 126.479C206.916 123.909 207.72 120.511 210.282 118.926C212.844 117.34 216.235 118.146 217.817 120.714L231.647 143.184C233.228 145.755 232.425 149.152 229.863 150.738Z" fill="#2BCE8F" fill-opacity="0.37"/>
<path d="M211.977 132.155L221.68 126.309L216.271 138.766L211.977 132.155Z" fill="#85B3A3"/>
<path d="M305.416 193.415C304.427 192.409 289.098 108.317 289.098 108.317" stroke="#2BCE8F" stroke-opacity="0.37" stroke-width="18.88" stroke-linecap="round" stroke-linejoin="round"/>
<path d="M307.813 60.8899C305.157 46.9096 290.703 37.9242 275.527 40.8209C260.351 43.7176 250.202 57.4002 252.859 71.3828C254.313 79.038 259.305 85.1953 266.017 88.7252C269.873 91.6314 272.152 95.6788 273.413 98.6794C274.634 101.588 277.271 103.625 280.387 104.074C285.43 104.801 290.036 104.128 294.08 101.652C296.647 100.081 298.214 97.2807 298.256 94.2658C298.296 91.2274 298.895 86.7476 301.49 82.5018C301.565 82.3813 301.629 82.2632 301.688 82.1498C306.802 76.3611 309.293 68.6727 307.816 60.8899H307.813Z" fill="#2BCE8F" fill-opacity="0.37"/>
<path d="M295.228 120.161L286.877 121.756C283.616 122.38 280.438 120.213 279.816 116.943L278.067 107.745C277.874 106.727 278.546 105.734 279.564 105.541L296.083 102.387C297.099 102.193 298.089 102.866 298.282 103.887L300.031 113.085C300.653 116.355 298.492 119.54 295.23 120.164L295.228 120.161Z" fill="#3B9675"/>
<path d="M297.889 108.407L279.83 111.854C276.983 112.397 274.238 110.524 273.696 107.672C273.153 104.818 275.022 102.065 277.867 101.522L295.925 98.0745C298.772 97.5311 301.518 99.4047 302.06 102.257C302.602 105.111 300.733 107.863 297.889 108.407Z" fill="#3B9675"/>
<path d="M289.534 109.898C289.854 109.836 299.112 107.918 299.112 107.918L300.158 113.373L289.534 109.898Z" fill="#2E755C"/>
<path d="M289.519 94.7691C289.597 94.1784 284.982 71.104 284.982 71.104C284.982 71.104 282.206 58.1232 289.807 58.8627C296.927 59.555 291.968 72.2027 283.396 74.5701C282.819 74.7284 281.817 74.9222 281.249 74.9907C272.387 76.0539 263.024 66.0974 269.401 62.7967C276.187 59.2833 278.409 72.3728 278.409 72.3728C278.409 72.3728 282.656 95.5181 282.946 96.0379" stroke="white" stroke-width="4.19" stroke-linecap="round" stroke-linejoin="round"/>
<path d="M329.888 134.331C343.383 142.652 347.578 153.419 348.75 160.833C350.736 151.423 353.1 142.558 355.549 134.515C329.635 119.935 339.808 100.428 339.808 100.428C352.733 108.728 356.885 119.164 358.076 126.567C358.087 126.531 358.099 126.494 358.111 126.458C361.686 115.696 365.488 106.013 368.941 97.9329C344.708 78.2844 358.856 60.5238 358.856 60.5238C370.989 72.1271 372.363 84.229 371.689 91.6645C375.488 83.2131 378.583 77.1881 380.039 74.4426C386.24 49.0858 406.865 45.9504 406.865 45.9504C404.006 70.1802 390.435 74.6363 383.671 75.331C382.523 77.4622 379.155 83.8699 374.904 93.3468C392.554 81.441 408.225 89.1978 408.225 89.1978C391.727 107.797 377.828 103.129 372.085 99.7947C368.71 107.719 365.009 117.177 361.524 127.68C361.163 128.769 360.8 129.886 360.437 131.016C375.825 114.229 393.73 119.127 393.73 119.127C380.044 142.293 364.156 138.149 358.905 135.921C356.343 144.368 353.88 153.729 351.861 163.662C366.77 147.626 384.138 152.035 384.138 152.035C371.663 174.062 355.815 171.518 349.692 169.417C345.841 190.913 344.264 216.02 348.42 238.822C348.599 239.808 348.98 239.838 347.998 240.018C347.802 240.053 347.606 240.056 347.418 240.03C346.666 239.923 346.034 239.347 345.891 238.558C341.613 215.07 343.225 190.653 347.218 168.635C319.833 154.504 329.883 134.333 329.883 134.333L329.888 134.331Z" fill="#2BCE8F" fill-opacity="0.37"/>
<path d="M327.905 326C414.748 326 485.148 320.38 485.148 313.447C485.148 306.514 414.748 300.894 327.905 300.894C241.063 300.894 170.663 306.514 170.663 313.447C170.663 320.38 241.063 326 327.905 326Z" fill="#C7EBDE"/>
<path d="M217.416 313.6H429.024V225.714L217.416 225.714V313.6Z" fill="#3D8F70"/>
<path d="M217.416 313.6H296.189V225.714H217.416V313.6Z" fill="#2BCE8F"/>
<path d="M282.411 233.736L441.734 233.733L402.229 150.525H253.186L282.411 233.736Z" fill="#47AD87"/>
<path d="M253.186 150.525L202.186 234.737L296.187 233.736L253.186 150.525Z" fill="#337A61"/>
<path d="M217.414 234.666L257.148 170.105L289.607 233.735C268.343 242.3 243.707 240.93 217.414 234.666Z" fill="#2BCE8F"/>
<path d="M296.187 233.736H289.607L253.186 162.336L209.113 234.664L202.186 234.737L253.186 150.525L296.187 233.736Z" fill="#7DD4B5"/>
<path d="M239.955 313.608H266.359V267.074H239.955V313.608Z" fill="#2B6954"/>
<path d="M302.951 299.812H354.84V243.286H302.951V299.812Z" fill="#2B6954"/>
<path d="M364.111 299.812H416V243.286H364.111V299.812Z" fill="#2B6954"/>
<path d="M300.121 222.378L424.81 223.963L392.915 160.852L269.595 159.286L300.121 222.378Z" fill="#2E755C"/>
<path d="M306.017 159.747L338.311 222.865L342.122 222.912L308.758 159.782L306.017 159.747Z" fill="#1F4D3D"/>
<path d="M352.174 160.335L384.468 223.451L388.279 223.498L354.915 160.368L352.174 160.335Z" fill="#1F4D3D"/>
<path d="M286.512 193.059L409.74 194.146L408.863 192.407L285.129 190.299L286.512 193.059Z" fill="#1F4D3D"/>
<path d="M397.263 185.285L384.951 163.423L360.619 163.114L397.263 185.285Z" fill="#388A6B"/>
<path d="M418.065 220.209L405.755 198.347L381.42 198.037L418.065 220.209Z" fill="#388A6B"/>
<path d="M359.407 184.48L347.095 162.617L322.763 162.308L359.407 184.48Z" fill="#388A6B"/>
<path d="M376.824 217.952L364.512 196.09L340.178 195.781L376.824 217.952Z" fill="#388A6B"/>
<path d="M315.407 185.363L303.095 163.501L278.763 163.191L315.407 185.363Z" fill="#388A6B"/>
<path d="M331.16 219.966L318.848 198.103L294.514 197.794L331.16 219.966Z" fill="#388A6B"/>
<path d="M261.187 234.335C261.987 228.543 257.951 223.198 252.174 222.396C246.396 221.595 241.064 225.64 240.264 231.432C239.465 237.224 243.5 242.57 249.278 243.371C255.056 244.173 260.387 240.127 261.187 234.335Z" fill="#2B6954"/>
<path d="M185.516 178.242L186.381 179.041C186.94 179.556 187.293 180.255 187.38 181.011L187.734 184.068C187.857 185.134 186.881 185.996 185.841 185.737L182.518 182.299C181.785 181.54 181.333 180.465 181.253 179.291L181.118 177.335C182.638 176.798 184.331 177.148 185.516 178.244V178.242Z" fill="#AB640C"/>
<path d="M192.085 203.62C196.888 197.841 199.704 193.834 204.395 187.92L209.566 188.439C203.527 198.939 202.186 204.459 199.139 207.989C197.81 209.529 195.736 210.221 193.739 209.843C186.603 208.49 191.609 207.103 192.085 203.62Z" fill="#AB640C"/>
<path d="M205.752 190.185L209.518 189.812C210.27 189.737 210.973 189.394 211.493 188.846L213.608 186.622C214.345 185.847 214.081 184.574 213.098 184.156L208.392 184.895C207.352 185.058 206.348 185.642 205.582 186.528L204.305 188.007L205.752 190.188V190.185Z" fill="#AB640C"/>
<path fill-rule="evenodd" clip-rule="evenodd" d="M185.445 183.012C185.445 183.012 193.669 198.075 197.633 205.574L193.9 207.433C192.441 208.811 190.303 207.225 190.303 207.225L181.816 193.626L180.341 191.116L183.774 188.118L185.448 183.012H185.445Z" fill="#AB640C"/>
<path fill-rule="evenodd" clip-rule="evenodd" d="M194.717 200.341C194.717 200.341 196.084 198.658 194.819 197.29C192.344 194.618 187.435 182.046 182.266 179.792L181.272 194.306C181.272 194.306 183.843 204.357 189.344 208.939C190.364 209.787 191.915 209.423 192.504 208.232L194.72 200.341H194.717Z" fill="#5FC4E9"/>
<path fill-rule="evenodd" clip-rule="evenodd" d="M147.481 173.363L181.774 177.162L181.118 194.75L153.366 188.061L147.481 173.363Z" fill="#E24E4F"/>
<path d="M141.54 321.303C160.615 321.303 176.079 319.335 176.079 316.908C176.079 314.481 160.615 312.514 141.54 312.514C122.464 312.514 107 314.481 107 316.908C107 319.335 122.464 321.303 141.54 321.303Z" fill="#C7EBDE"/>
<path fill-rule="evenodd" clip-rule="evenodd" d="M172.115 161.783C172.115 161.783 165.026 159.22 163.696 168.16C162.81 174.121 159.662 176.583 162.011 181.902C164.359 187.218 179.386 177.33 179.386 177.33L177.578 167.121L172.115 161.783Z" fill="black"/>
<path fill-rule="evenodd" clip-rule="evenodd" d="M180.322 312.339C180.322 312.339 173.119 281.349 177.901 269.087L171.078 227.047L191.159 222.843L184.71 312.582L180.324 312.339H180.322Z" fill="#AB640C"/>
<path d="M174.397 320.856C192.859 320.856 207.826 318.952 207.826 316.603C207.826 314.255 192.859 312.35 174.397 312.35C155.934 312.35 140.967 314.255 140.967 316.603C140.967 318.952 155.934 320.856 174.397 320.856Z" fill="#C7EBDE"/>
<path fill-rule="evenodd" clip-rule="evenodd" d="M184.812 311.15L188.679 313.922C189.443 314.607 193.551 315.937 193.551 315.937C193.98 316.788 193.197 317.237 192.526 317.348L180.503 317.095C180.503 317.095 177.713 316.518 180.037 311.155C182.247 312.124 184.286 312.816 184.812 311.148V311.15Z" fill="#494A48"/>
<path fill-rule="evenodd" clip-rule="evenodd" d="M179.577 218.234L174.331 268.628L164.691 312.719L161.919 310.602C161 295.41 156.374 285.638 162.254 267.036L163.708 221.419L171.639 220.124L179.577 218.231V218.234Z" fill="#AB640C"/>
<path fill-rule="evenodd" clip-rule="evenodd" d="M163.015 310.101C164.156 309.995 165.179 310.883 165.28 312.039C165.363 312.988 165.537 314.333 165.893 315.668C165.99 316.032 166.273 317.27 165.973 317.537C165.674 317.801 165.278 317.922 164.908 317.856C164.111 317.714 163.202 317.553 162.641 317.454C162.289 317.393 161.981 317.215 161.761 316.953C161.63 316.795 161.469 316.603 161.302 316.405C160.536 315.488 160.779 314.616 161.085 313.385C161.401 312.112 161.578 310.638 161.578 310.638C162.073 310.295 162.563 310.141 163.013 310.099L163.015 310.101Z" fill="#494A48"/>
<path fill-rule="evenodd" clip-rule="evenodd" d="M181.774 177.162L172.132 176.46L169.506 176.68L159.664 180.616C156.371 182.436 154.981 186.426 156.423 189.921L159.374 201.281C157.156 210.047 156.081 216.171 156.925 225.052C171.33 229.702 178.021 229.468 182.207 222.751C181.597 215.694 183.982 207.977 185.339 201.687C187.953 189.557 186.24 183.894 181.771 177.16L181.774 177.162Z" fill="#5FC4E9"/>
<path fill-rule="evenodd" clip-rule="evenodd" d="M169.07 170.953C169.07 170.953 169.233 174.771 169.367 177.935C169.402 178.778 169.883 179.534 170.626 179.912C171.368 180.293 172.257 180.236 172.947 179.766C173.173 179.612 173.395 179.461 173.605 179.319C174.554 178.674 175.052 177.535 174.887 176.392C174.458 173.462 173.678 168.122 173.678 168.122L169.072 170.953H169.07Z" fill="#AB640C"/>
<path fill-rule="evenodd" clip-rule="evenodd" d="M168.952 173.391L169.263 175.539L171.295 173.602L168.952 173.391Z" fill="#A6C233"/>
<path d="M177.392 176.869C177.392 176.869 180.878 184.529 175.554 185.108C170.23 185.687 166.949 177.71 166.949 177.71L170.772 175.801L177.392 176.869Z" fill="#AB640C"/>
<path fill-rule="evenodd" clip-rule="evenodd" d="M175.511 166.837C175.742 165.741 175.052 164.663 173.97 164.432C172.815 164.184 171.361 163.869 170.208 163.621C169.127 163.39 168.229 164.136 167.835 165.183C167.368 166.419 167.008 169.112 166.98 171.097C166.963 172.217 167.595 173.389 168.674 173.62C169.829 173.869 173.52 173.498 174.293 171.48C174.882 169.942 175.172 168.446 175.511 166.835V166.837Z" fill="#AB640C"/>
<path fill-rule="evenodd" clip-rule="evenodd" d="M177.722 170.171C177.722 170.171 178.528 165.92 176.949 164.224C174.828 161.944 171.887 160.604 168.474 163.208C168.474 163.208 168.578 164.498 172.971 165.899C174.752 166.466 173.529 170.022 177.722 170.171Z" fill="black"/>
<path fill-rule="evenodd" clip-rule="evenodd" d="M175.799 171.449C175.318 172.231 174.411 172.536 173.774 172.132C173.138 171.728 173.011 170.769 173.492 169.989C173.972 169.209 174.88 168.902 175.516 169.306C176.152 169.71 176.28 170.67 175.799 171.449Z" fill="#AB640C"/>
<path fill-rule="evenodd" clip-rule="evenodd" d="M167.868 170.877L169.754 171.243C169.754 171.243 169.471 172.541 168.585 172.257C167.698 171.974 167.868 170.877 167.868 170.877Z" fill="white"/>
<path fill-rule="evenodd" clip-rule="evenodd" d="M185.526 200.799C185.526 200.799 192.278 213.39 192.91 229.645C193.624 248.082 191.993 272.205 191.993 272.205C177.024 274.533 185.653 285.139 148.968 272.902C148.968 272.902 153.319 261.819 153.88 252.675C154.439 243.534 150.529 220.046 159.376 201.283C159.376 201.283 184.001 207.83 185.528 200.801L185.526 200.799Z" fill="#97A7A7"/>
<path fill-rule="evenodd" clip-rule="evenodd" d="M178.382 172.994C178.382 172.994 183.449 176.267 182.775 178.781C182.101 181.295 175.825 188.045 177.524 190.717C179.223 193.392 170.338 188.593 174.135 182.748C177.932 176.902 176.218 174.568 176.218 174.568L178.382 172.994Z" fill="black"/>
<path fill-rule="evenodd" clip-rule="evenodd" d="M147.639 165.464C147.639 165.464 150.036 162.572 146.673 159.78C143.31 156.987 143.161 163.978 143.27 164.063C143.378 164.148 147.637 165.464 147.637 165.464H147.639Z" fill="#6E7366"/>
<path fill-rule="evenodd" clip-rule="evenodd" d="M137.95 166.383C137.95 166.383 138.57 169.942 141.266 169.875C143.963 169.809 143.576 162.045 143.576 162.045L137.95 166.383Z" fill="#475E1C"/>
<path fill-rule="evenodd" clip-rule="evenodd" d="M146.284 167.974C146.284 167.974 145.711 171.827 145.235 175.019C145.108 175.87 144.479 176.569 143.585 176.85C142.692 177.131 141.676 176.952 140.927 176.378C140.682 176.189 140.444 176.007 140.217 175.834C139.19 175.048 138.73 173.819 139.039 172.682C139.831 169.767 141.271 164.458 141.271 164.458L146.286 167.976L146.284 167.974Z" fill="#FFCC99"/>
<path fill-rule="evenodd" clip-rule="evenodd" d="M146.173 170.466L145.596 172.604L143.456 170.353L146.173 170.466Z" fill="#A6C233"/>
<path fill-rule="evenodd" clip-rule="evenodd" d="M139.595 163.657C139.334 162.546 140.008 161.431 141.104 161.166C142.273 160.885 143.748 160.528 144.917 160.245C146.013 159.98 146.946 160.72 147.375 161.776C147.882 163.023 148.318 165.757 148.396 167.782C148.441 168.923 147.828 170.133 146.732 170.398C145.563 170.679 141.792 170.398 140.953 168.359C140.314 166.806 139.979 165.289 139.593 163.657H139.595Z" fill="#FFCC99"/>
<path fill-rule="evenodd" clip-rule="evenodd" d="M137.429 167.109C137.429 167.109 136.501 162.799 138.066 161.029C140.168 158.653 143.133 157.211 146.675 159.78C146.675 159.78 148.603 160.765 142.72 161.998C141.973 162.154 143.329 165.696 142.395 166.083C141.137 166.606 139.515 166.984 137.427 167.109H137.429Z" fill="#949494"/>
<path fill-rule="evenodd" clip-rule="evenodd" d="M139.421 168.363C139.93 169.148 140.863 169.436 141.502 169.008C142.141 168.581 142.247 167.6 141.735 166.816C141.226 166.031 140.293 165.743 139.654 166.171C139.015 166.598 138.909 167.579 139.421 168.363Z" fill="#FFCC99"/>
<path fill-rule="evenodd" clip-rule="evenodd" d="M148.195 312.842C148.195 312.842 140.823 281.51 145.794 269.112L138.841 226.607L158.721 227.973L153.743 313.142L148.198 312.839L148.195 312.842Z" fill="#AB640C"/>
<path fill-rule="evenodd" clip-rule="evenodd" d="M153.828 311.611L156.913 314.475C157.745 315.183 162.073 316.559 162.073 316.559C162.568 317.437 161.787 317.901 161.102 318.016L148.662 317.756C148.662 317.756 145.744 317.159 147.809 311.618C150.154 312.617 153.385 313.336 153.826 311.611H153.828Z" fill="#494A48"/>
<path fill-rule="evenodd" clip-rule="evenodd" d="M159.977 234.617L159.193 270.613L156.284 306.699H141.823C141.823 306.699 142.633 300.423 142.301 298.434C141.971 296.442 139.819 277.559 143.479 268.871L140.086 233.492L159.977 234.617Z" fill="#515151"/>
<path fill-rule="evenodd" clip-rule="evenodd" d="M143.378 268.871L139.984 233.492L146.88 233.87L149.367 259.78C149.831 264.609 149.586 269.457 148.811 274.228C147.276 283.655 148.787 296.794 149.06 298.436C149.39 300.428 148.582 306.701 148.582 306.701H141.721C141.721 306.701 142.532 300.426 142.2 298.436C141.87 296.445 139.718 277.562 143.378 268.874V268.871Z" fill="#414141"/>
<path fill-rule="evenodd" clip-rule="evenodd" d="M121.365 312.781C121.365 312.781 118.051 281.073 124.627 268.527L123.18 225.511L142.881 226.893L126.677 313.076L121.363 312.781H121.365Z" fill="#AB640C"/>
<path fill-rule="evenodd" clip-rule="evenodd" d="M126.955 311.611L129.873 314.432C130.613 315.148 134.761 316.54 134.761 316.54C135.143 317.43 134.302 317.898 133.602 318.014L121.198 317.749C121.198 317.749 118.358 317.144 121.141 311.538C123.357 312.549 126.293 313.352 126.955 311.609V311.611Z" fill="#494A48"/>
<path fill-rule="evenodd" clip-rule="evenodd" d="M143.97 233.615L137.832 270.044L130.248 306.562H115.786C115.786 306.562 117.41 300.213 117.337 298.198C117.264 296.182 117.559 277.073 122.345 268.281L122.951 229.031L143.97 233.615Z" fill="#515151"/>
<path fill-rule="evenodd" clip-rule="evenodd" d="M130.328 205.543L157.338 207.606C161.731 209.222 159.975 234.617 159.975 234.617L142.216 235.441C133.965 235.269 124.205 241.757 123.18 227.973C122.006 212.218 130.328 205.543 130.328 205.543Z" fill="#515151"/>
<path fill-rule="evenodd" clip-rule="evenodd" d="M153.366 175.752L147.479 173.363L139.39 172.354L126.135 176.016C122.562 177.545 123.456 180.872 124.58 184.612L122.913 196.331C119.732 205.113 119.39 211.717 119.343 220.936C133.673 227.205 157.877 227.526 162.872 221.055C163.121 202.609 159.831 187.993 153.366 175.752Z" fill="#E24E4F"/>
<path d="M147.481 173.363C147.481 173.363 150.277 181.599 144.743 181.642C139.209 181.687 136.659 173.146 136.659 173.146L140.785 171.577L147.481 173.361V173.363Z" fill="#FFCC99"/>
<path fill-rule="evenodd" clip-rule="evenodd" d="M115.951 203.544C112.376 204.837 111.796 205.822 112.803 210.122L120.255 231.817L123.321 228.537L121.365 209.714L115.949 203.544H115.951Z" fill="#FFCC99"/>
<path d="M123.324 228.537L123.658 232.455C123.724 233.237 123.51 234.019 123.05 234.654L121.193 237.235C120.545 238.132 119.201 238.106 118.591 237.183L118.447 232.237C118.417 231.146 118.817 230.012 119.574 229.06L120.832 227.474L123.324 228.537Z" fill="#FFCC99"/>
<path fill-rule="evenodd" clip-rule="evenodd" d="M146.993 167.27L145.169 167.867C145.169 167.867 145.61 169.12 146.456 168.727C147.302 168.335 146.996 167.27 146.996 167.27H146.993Z" fill="white"/>
<path fill-rule="evenodd" clip-rule="evenodd" d="M123.913 178.048L111.89 199.488C111.056 200.964 110.766 202.689 111.075 204.357L115.35 227.597L124.547 225.607L122.652 203.544L130.906 182.237L123.915 178.048H123.913Z" fill="#E24E4F"/>
<path d="M124.165 221.182L121.523 203.544L128.735 189.959V189.245" stroke="#CB2E2F" stroke-width="4.93" stroke-linecap="round" stroke-linejoin="round"/>
</g>
<defs>
<clipPath id="clip0_20_361">
<rect width="404" height="326" fill="white" transform="translate(107)"/>
</clipPath>
</defs>
</svg>
