<svg width="342" height="215" viewBox="0 0 342 215" fill="none" xmlns="http://www.w3.org/2000/svg">
<path d="M74.9328 201.827H42.6227V215H74.9328V201.827Z" fill="#2E75A3"/>
<path d="M117.467 175.502H85.1565V215H117.467V175.502Z" fill="#2E75A3"/>
<path d="M160.022 149.178H127.712V215H160.022V149.178Z" fill="#2E75A3"/>
<path d="M202.556 122.854H170.246V215H202.556V122.854Z" fill="#2E75A3"/>
<path d="M245.112 96.5078H212.802V215H245.112V96.5078Z" fill="#2E75A3"/>
<path d="M1.18966 194.867L1.27045 195.358L1.76227 195.279C5.31656 194.709 8.89066 193.963 12.3967 193.109L12.8854 192.99L12.7634 192.502L12.3702 190.929L12.2493 190.445L11.7653 190.565C8.32649 191.414 4.8225 192.132 1.3407 192.697L0.846272 192.778L0.927519 193.272L1.18966 194.867ZM22.6551 190.13H23.3457L23.2825 189.938C26.4974 188.842 29.7489 187.626 32.9616 186.291L33.4218 186.099L33.2321 185.639L32.6204 184.153L32.4285 183.687L31.964 183.883C28.6568 185.275 25.3044 186.516 21.9936 187.627L21.5225 187.785L21.6776 188.257L22.1801 189.786L22.5564 189.663L22.6333 190.13H22.6551ZM42.175 181.552L42.398 181.998L42.8446 181.777C45.9792 180.22 49.1778 178.489 52.3745 176.65L52.8088 176.4L52.5581 175.967L51.7497 174.568L51.4998 174.136L51.0672 174.385C47.9297 176.194 44.7707 177.893 41.6777 179.44L41.2305 179.663L41.4541 180.11L42.175 181.552ZM60.924 170.852L61.8442 172.278V170.832C64.7068 168.988 67.6287 166.981 70.5686 164.893L70.9781 164.602L70.6855 164.194L69.7461 162.884L69.4551 162.477L69.0488 162.768C66.0624 164.904 63.0756 166.932 60.1974 168.807L59.7803 169.079L60.0502 169.497L60.924 170.852ZM78.5544 158.366L79.4519 159.543V158.287C82.1267 156.23 84.9035 154.029 87.7211 151.745L88.1128 151.427L87.7921 151.038L86.7653 149.793L86.4487 149.409L86.0632 149.724C83.2051 152.058 80.3692 154.305 77.6648 156.377L77.2687 156.68L77.5713 157.077L78.5544 158.366ZM94.2576 143.599L95.1859 144.682V145.595L96.0086 144.9C98.4171 142.866 100.944 140.673 103.735 138.252L104.184 137.862L104.563 137.533L104.233 137.155L103.162 135.931L102.834 135.557L102.458 135.883C99.488 138.46 96.8239 140.753 94.313 142.893L93.9313 143.218L94.2576 143.599ZM111.566 130.673L111.898 131.045L112.271 130.715L120.332 123.571L120.707 123.239L120.374 122.864L119.303 121.663L118.972 121.29L118.598 121.621L110.537 128.765L110.162 129.097L110.495 129.472L111.566 130.673ZM127.729 116.426L128.057 116.802L128.434 116.474C131.141 114.115 133.87 111.758 136.599 109.444L136.982 109.119L136.655 108.737L135.607 107.514L135.284 107.138L134.905 107.457C132.149 109.775 129.416 112.136 126.706 114.497L126.328 114.826L126.658 115.203L127.729 116.426ZM143.143 101.276L144.055 102.382V103.28L144.872 102.612C147.751 100.256 150.587 98.0088 153.292 95.9369L153.688 95.6334L153.385 95.2367L152.402 93.9478L152.098 93.549L151.7 93.8545C148.965 95.9549 146.122 98.2078 143.213 100.57L142.822 100.887L143.143 101.276ZM161.21 89.3867L161.558 89.1374L161.886 89.5239C164.873 87.387 167.838 85.3593 170.738 83.4625L171.154 83.1906L170.884 82.7731L170.011 81.4186L169.738 80.9958L169.317 81.2713C166.406 83.1754 163.385 85.2327 160.386 87.378L159.979 87.6691L160.271 88.0759L161.21 89.3867ZM179.185 77.6363L179.329 77.886H179.618H179.64H179.776L179.893 77.8172C183.008 75.9874 186.166 74.2665 189.259 72.6982L189.708 72.4706L189.478 72.0233L188.735 70.5814L188.507 70.1386L188.063 70.3651C184.93 71.9643 181.733 73.7163 178.559 75.5552L178.127 75.8056L178.377 76.2381L179.185 77.6363ZM198.229 67.9045L198.426 68.366L198.887 68.1676C202.176 66.7519 205.507 65.4454 208.816 64.2918L209.285 64.128L209.124 63.6575L208.6 62.1284L208.436 61.6511L207.96 61.819C204.608 63.0021 201.212 64.3169 197.858 65.7637L197.4 65.9609L197.596 66.4189L198.229 67.9045Z" fill="white" stroke="white"/>
<path d="M217.765 31.4593L222.721 74.4042L342 0L217.765 31.4593Z" fill="#50667E"/>
<path d="M229.34 39.2351L271.632 67.6968L342 0L229.34 39.2351Z" fill="white"/>
<path d="M192.005 14.1567L217.766 31.4593L342 0L192.005 14.1567Z" fill="white"/>
<path d="M222.722 74.4043L229.34 39.2351L253.261 55.3209L222.722 74.4043Z" fill="#2A445E"/>
</svg>
