<svg width="236" height="236" viewBox="0 0 236 236" fill="none" xmlns="http://www.w3.org/2000/svg">
<path d="M0 233.689H235.529V235.53H0V233.689Z" fill="#474E5D"/>
<path d="M191 170H221V234H191V170Z" fill="#5FC4E9"/>
<path d="M147.206 145.366H176.647V233.689H147.206V145.366Z" fill="#2991B7"/>
<path d="M103.044 115.925H132.485V233.69H103.044V115.925Z" fill="#5FC4E9"/>
<path d="M58.8824 86.4834H88.3235V233.689H58.8824V86.4834Z" fill="#2991B7"/>
<path d="M14.7206 115.925H44.1618V233.69H14.7206V115.925Z" fill="#5FC4E9"/>
<path d="M0 24.2382L29.4412 53.6793L73.6029 9.51758L161.926 97.8411L206.088 53.6793L235.529 83.1205V93.5262L206.088 64.085L161.926 108.247L73.6029 19.9232L29.4412 64.085L0 34.6438V24.2382Z" fill="#474E5D"/>
<path d="M73.603 29.4412C65.473 29.4412 58.8824 22.8505 58.8824 14.7206C58.8824 6.59063 65.473 0 73.603 0C81.7329 0 88.3235 6.59063 88.3235 14.7206C88.3235 22.8505 81.7329 29.4412 73.603 29.4412Z" fill="#474E5D"/>
<path d="M73.603 22.0809C69.538 22.0809 66.2427 18.7856 66.2427 14.7206C66.2427 10.6557 69.538 7.36035 73.603 7.36035C77.6679 7.36035 80.9633 10.6557 80.9633 14.7206C80.9633 18.7856 77.6679 22.0809 73.603 22.0809Z" fill="#5FC4E9"/>
</svg>
