<svg width="267" height="267" viewBox="0 0 267 267" fill="none" xmlns="http://www.w3.org/2000/svg">
<path d="M16.6876 16.6875V250.313H250.313V16.6875H16.6876ZM248.227 248.227H18.7736V18.7734H248.227V248.227Z" fill="#D8DBE1"/>
<path d="M76.6584 16.6875H74.5725V250.313H76.6584V16.6875Z" fill="#D8DBE1"/>
<path d="M134.543 16.6875H132.457V250.313H134.543V16.6875Z" fill="#D8DBE1"/>
<path d="M192.428 16.6875H190.342V250.313H192.428V16.6875Z" fill="#D8DBE1"/>
<path d="M250.313 209.637H16.6877V211.723H250.313V209.637Z" fill="#D8DBE1"/>
<path d="M250.313 171.047H16.6877V173.133H250.313V171.047Z" fill="#D8DBE1"/>
<path d="M250.313 132.457H16.6877V134.543H250.313V132.457Z" fill="#D8DBE1"/>
<path d="M250.313 93.8672H16.6877V95.9531H250.313V93.8672Z" fill="#D8DBE1"/>
<path d="M250.313 55.2778H16.6877V57.3638H250.313V55.2778Z" fill="#D8DBE1"/>
<path d="M16.6876 16.6875H6.10352e-05L8.34382 0L16.6876 16.6875Z" fill="#474E5D"/>
<path d="M258.657 260.742H6.258V8.34375H10.4299V256.571H258.657V260.742Z" fill="#474E5D"/>
<path d="M250.313 250.312L267 258.656L250.313 267V250.312Z" fill="#474E5D"/>
<path d="M213.668 18.7734L209.439 29.0519L160.096 76.8355L113.152 138.381L74.0249 177.508L18.7736 191.573V195.88L75.6102 181.414L76.163 181.273L116.302 141.135L163.225 79.6099L212.651 31.7428L212.964 31.4403L218.179 18.7734H213.668Z" fill="#24B3C9"/>
<path d="M248.227 48.5239L230.903 94.4928L161.749 132.118L103.186 94.472L44.1543 136.936L18.7736 106.805V113.277L43.4554 142.579L103.322 99.5199L161.572 136.968L234.262 97.4131L248.227 60.3564V48.5239Z" fill="#F93B2A"/>
<path d="M75.0939 187.735C79.7021 187.735 83.4377 183.999 83.4377 179.391C83.4377 174.783 79.7021 171.047 75.0939 171.047C70.4858 171.047 66.7502 174.783 66.7502 179.391C66.7502 183.999 70.4858 187.735 75.0939 187.735Z" fill="#24B3C9"/>
<path d="M43.8048 148.102C48.413 148.102 52.1486 144.366 52.1486 139.758C52.1486 135.15 48.413 131.415 43.8048 131.415C39.1967 131.415 35.4611 135.15 35.4611 139.758C35.4611 144.366 39.1967 148.102 43.8048 148.102Z" fill="#F93B2A"/>
<path d="M103.254 105.34C107.862 105.34 111.598 101.604 111.598 96.9961C111.598 92.388 107.862 88.6523 103.254 88.6523C98.646 88.6523 94.9104 92.388 94.9104 96.9961C94.9104 101.604 98.646 105.34 103.254 105.34Z" fill="#F93B2A"/>
<path d="M161.66 142.887C166.269 142.887 170.004 139.151 170.004 134.543C170.004 129.935 166.269 126.199 161.66 126.199C157.052 126.199 153.317 129.935 153.317 134.543C153.317 139.151 157.052 142.887 161.66 142.887Z" fill="#F93B2A"/>
<path d="M232.582 104.297C237.19 104.297 240.926 100.561 240.926 95.9531C240.926 91.345 237.19 87.6094 232.582 87.6094C227.974 87.6094 224.239 91.345 224.239 95.9531C224.239 100.561 227.974 104.297 232.582 104.297Z" fill="#F93B2A"/>
<path d="M114.727 148.102C119.335 148.102 123.071 144.366 123.071 139.758C123.071 135.15 119.335 131.415 114.727 131.415C110.119 131.415 106.383 135.15 106.383 139.758C106.383 144.366 110.119 148.102 114.727 148.102Z" fill="#24B3C9"/>
<path d="M161.66 86.5664C166.269 86.5664 170.004 82.8308 170.004 78.2227C170.004 73.6145 166.269 69.8789 161.66 69.8789C157.052 69.8789 153.317 73.6145 153.317 78.2227C153.317 82.8308 157.052 86.5664 161.66 86.5664Z" fill="#24B3C9"/>
<path d="M211.202 38.5899C215.81 38.5899 219.545 34.8542 219.545 30.2461C219.545 25.638 215.81 21.9023 211.202 21.9023C206.593 21.9023 202.858 25.638 202.858 30.2461C202.858 34.8542 206.593 38.5899 211.202 38.5899Z" fill="#24B3C9"/>
<path d="M175.579 162.343C172.319 159.084 172.319 153.801 175.579 150.542C178.838 147.283 184.121 147.283 187.38 150.542L218.669 181.831C221.928 185.09 221.928 190.373 218.669 193.632C215.41 196.892 210.127 196.892 206.868 193.632L175.579 162.343Z" fill="#474E5D"/>
<path d="M214.92 195.786L173.42 154.287C172.679 157.071 173.394 160.159 175.574 162.344L206.863 193.633C209.048 195.818 212.135 196.527 214.914 195.786H214.92Z" fill="#2E3544"/>
<path d="M198.102 161.27C194.571 165.582 190.618 169.54 186.301 173.071L190.472 177.243C194.785 173.712 198.743 169.759 202.274 165.441L198.102 161.27Z" fill="#2E3544"/>
<path d="M200.965 199.536C194.446 193.018 194.446 182.453 200.965 175.939C207.483 169.421 218.049 169.421 224.562 175.939L262.109 213.486C268.627 220.005 268.627 230.57 262.109 237.083C255.59 243.602 245.025 243.602 238.512 237.083L200.965 199.536Z" fill="#474E5D"/>
<path d="M261.493 237.666L261.337 237.348C257.264 241.426 246.49 237.254 242.418 233.176L204.871 195.63C200.975 191.734 196.996 181.257 200.209 176.778L199.343 177.821C194.509 184.355 195.051 193.611 200.97 199.535L238.517 237.082C244.832 243.398 254.949 243.59 261.499 237.666H261.493Z" fill="#2E3544"/>
<path d="M200.313 176.627C200.276 176.674 200.245 176.727 200.209 176.779L200.511 176.419C200.443 176.492 200.381 176.56 200.318 176.633L200.313 176.627Z" fill="#F93B2A"/>
<path d="M133.5 191.906C179.582 191.906 216.938 154.55 216.938 108.469C216.938 62.3875 179.582 25.0312 133.5 25.0312C87.4189 25.0312 50.0626 62.3875 50.0626 108.469C50.0626 154.55 87.4189 191.906 133.5 191.906Z" fill="#474E5D"/>
<path d="M133.5 183.563C174.973 183.563 208.594 149.942 208.594 108.469C208.594 66.9961 174.973 33.3755 133.5 33.3755C92.027 33.3755 58.4064 66.9961 58.4064 108.469C58.4064 149.942 92.027 183.563 133.5 183.563Z" fill="#E8EBF0"/>
<path d="M66.7501 108.469C66.7501 68.3984 98.1383 35.6596 137.672 33.4902C136.29 33.412 134.903 33.3755 133.5 33.3755C92.0265 33.3755 58.4064 66.9956 58.4064 108.469C58.4064 149.943 92.0265 183.563 133.5 183.563C134.903 183.563 136.29 183.521 137.672 183.448C98.1383 181.284 66.7501 148.545 66.7501 108.469Z" fill="#D8DBE1"/>
<path d="M131.936 183.542C132.457 183.552 132.979 183.563 133.5 183.563C134.022 183.563 134.543 183.552 135.065 183.542V135.065H203.744C204.135 134.032 204.506 132.989 204.85 131.936H135.065V77.1797H201.778C201.293 76.1211 200.787 75.0781 200.256 74.0508H135.065V33.3959C134.543 33.3855 134.022 33.375 133.5 33.375C132.979 33.375 132.457 33.3855 131.936 33.3959V74.0508H66.7449C66.213 75.0781 65.7072 76.1211 65.2222 77.1797H131.936V131.936H62.1507C62.4949 132.989 62.8651 134.032 63.2562 135.065H131.936V183.542Z" fill="#BFC2C8"/>
<path d="M180.741 50.0986C179.099 48.7689 177.404 47.5069 175.652 46.3179L173.394 48.5029L102.978 140.827L81.3256 162.479C82.8274 163.928 84.3919 165.321 86.0086 166.645L107.697 144.957L178.082 52.6748L180.736 50.1039L180.741 50.0986Z" fill="#24B3C9"/>
<path d="M88.0319 74.9634L59.5328 95.463C59.053 98.2164 58.7245 101.027 58.5524 103.88L88.23 82.5301L175.61 138.704L207.494 121.36C207.926 118.857 208.234 116.317 208.411 113.736L175.876 131.44L88.0371 74.9686L88.0319 74.9634Z" fill="#F93B2A"/>
<path d="M88.1309 91.2593C95.0431 91.2593 100.647 85.6559 100.647 78.7437C100.647 71.8315 95.0431 66.228 88.1309 66.228C81.2187 66.228 75.6153 71.8315 75.6153 78.7437C75.6153 85.6559 81.2187 91.2593 88.1309 91.2593Z" fill="#F93B2A"/>
<path d="M175.74 147.58C182.653 147.58 188.256 141.977 188.256 135.064C188.256 128.152 182.653 122.549 175.74 122.549C168.828 122.549 163.225 128.152 163.225 135.064C163.225 141.977 168.828 147.58 175.74 147.58Z" fill="#F93B2A"/>
<path d="M105.34 155.402C112.252 155.402 117.856 149.799 117.856 142.887C117.856 135.975 112.252 130.371 105.34 130.371C98.4278 130.371 92.8243 135.975 92.8243 142.887C92.8243 149.799 98.4278 155.402 105.34 155.402Z" fill="#24B3C9"/>
<path d="M167.261 41.3794C164.779 43.6687 163.225 46.9437 163.225 50.5836C163.225 57.4933 168.831 63.0993 175.74 63.0993C180.762 63.0993 185.096 60.1372 187.088 55.8663C181.346 50.0152 174.656 45.1028 167.266 41.3794H167.261Z" fill="#24B3C9"/>
</svg>
