<svg width="394" height="269" viewBox="0 0 394 269" fill="none" xmlns="http://www.w3.org/2000/svg">
<path d="M292.36 105L308.584 75V77.304H291.256V71.16H315.592V76.728L300.568 105H292.36ZM332.181 105.528C329.461 105.528 327.157 104.84 325.269 103.464C323.413 102.088 321.989 100.104 320.997 97.512C320.037 94.92 319.557 91.736 319.557 87.96C319.557 84.216 320.037 81.064 320.997 78.504C321.957 75.912 323.381 73.96 325.269 72.648C327.157 71.304 329.461 70.632 332.181 70.632C334.933 70.632 337.237 71.304 339.093 72.648C340.981 73.96 342.405 75.896 343.365 78.456C344.325 81.016 344.805 84.184 344.805 87.96C344.805 91.704 344.309 94.888 343.317 97.512C342.357 100.104 340.949 102.088 339.093 103.464C337.237 104.84 334.933 105.528 332.181 105.528ZM332.181 99.48C334.037 99.48 335.413 98.568 336.309 96.744C337.205 94.888 337.653 91.96 337.653 87.96C337.653 83.96 337.205 81.08 336.309 79.32C335.445 77.56 334.069 76.68 332.181 76.68C330.325 76.68 328.949 77.56 328.053 79.32C327.157 81.08 326.709 83.96 326.709 87.96C326.709 91.96 327.157 94.888 328.053 96.744C328.949 98.568 330.325 99.48 332.181 99.48ZM361.971 106.44L357.315 103.704L376.995 69.72L381.603 72.456L361.971 106.44ZM357.123 91.32C355.267 91.32 353.683 90.904 352.371 90.072C351.059 89.208 350.051 88.008 349.347 86.472C348.675 84.904 348.339 83.064 348.339 80.952C348.339 77.784 349.107 75.272 350.643 73.416C352.211 71.56 354.371 70.632 357.123 70.632C358.947 70.632 360.515 71.064 361.827 71.928C363.171 72.76 364.179 73.944 364.851 75.48C365.555 77.016 365.907 78.84 365.907 80.952C365.907 83.064 365.555 84.904 364.851 86.472C364.179 88.008 363.187 89.208 361.875 90.072C360.563 90.904 358.979 91.32 357.123 91.32ZM357.123 86.712C358.083 86.712 358.819 86.264 359.331 85.368C359.843 84.44 360.099 82.968 360.099 80.952C360.099 78.936 359.827 77.496 359.283 76.632C358.771 75.736 358.051 75.288 357.123 75.288C356.163 75.288 355.427 75.72 354.915 76.584C354.403 77.448 354.147 78.904 354.147 80.952C354.147 83 354.403 84.472 354.915 85.368C355.427 86.264 356.163 86.712 357.123 86.712ZM381.843 105.528C379.987 105.528 378.403 105.112 377.091 104.28C375.779 103.416 374.771 102.2 374.067 100.632C373.395 99.064 373.059 97.224 373.059 95.112C373.059 91.944 373.827 89.448 375.363 87.624C376.931 85.768 379.091 84.84 381.843 84.84C383.699 84.84 385.283 85.256 386.595 86.088C387.907 86.92 388.899 88.104 389.571 89.64C390.275 91.176 390.627 93 390.627 95.112C390.627 97.224 390.275 99.064 389.571 100.632C388.899 102.2 387.907 103.416 386.595 104.28C385.283 105.112 383.699 105.528 381.843 105.528ZM381.843 100.872C382.803 100.872 383.539 100.424 384.051 99.528C384.563 98.6 384.819 97.128 384.819 95.112C384.819 93.096 384.547 91.656 384.003 90.792C383.491 89.896 382.771 89.448 381.843 89.448C380.883 89.448 380.147 89.88 379.635 90.744C379.123 91.608 378.867 93.064 378.867 95.112C378.867 97.192 379.123 98.68 379.635 99.576C380.147 100.44 380.883 100.872 381.843 100.872Z" fill="black"/>
<path d="M389.03 0.00228888L265.847 0.412226L210.763 55.3756C188.348 33.5047 157.677 20.0227 123.849 20.0227C58.8579 20.0227 5.51764 69.7828 0 133.201H6.30034C11.8616 73.3028 62.3649 26.4053 123.849 26.4053C189.05 26.4053 241.906 79.1449 241.906 144.203C241.906 209.261 189.05 262.001 123.849 262.001C121.843 262.001 119.85 261.951 117.87 261.852V267.974C119.85 268.068 121.843 268.116 123.849 268.116C192.509 268.116 248.17 212.578 248.17 144.068C248.17 109.899 234.323 78.9594 211.926 56.5252L266.522 2.04967L266.529 2.0428L389.037 1.63516L389.033 0L389.03 0.00228888Z" fill="#22252A"/>
<path d="M226.88 144.233C226.88 87.458 180.753 41.4331 123.853 41.4331V98.2354C149.311 98.2354 169.947 118.831 169.947 144.233C169.947 169.635 149.309 190.23 123.849 190.23C108.517 190.23 94.9359 182.76 86.5539 171.27L40.5009 204.656C60.5678 232.215 89.7121 247.033 123.851 247.033C180.751 247.033 226.877 201.008 226.877 144.233H226.88Z" fill="#5FC4E9"/>
<path d="M114.548 89.7295V51.1155C97.7429 52.6018 83.0032 58.2516 68.7638 68.5755C58.525 75.9978 50.0511 85.195 43.5787 95.9129C37.3243 106.269 33.1884 117.603 31.2834 129.603C29.3784 141.603 29.8029 153.659 32.5434 165.437C34.6802 174.614 38.1598 183.321 42.9269 191.425L74.1827 168.767C70.4094 161.191 68.4447 152.855 68.4447 144.235C68.4447 116.913 88.4083 94.1586 114.548 89.7318V89.7295Z" fill="#BEBEBE"/>
<path d="M123.851 167.604C130.107 167.604 135.99 165.171 140.413 160.758C144.836 156.345 147.273 150.476 147.273 144.233C147.273 137.99 144.836 132.12 140.413 127.707C135.99 123.294 130.107 120.862 123.851 120.862C117.594 120.862 111.712 123.294 107.289 127.707C102.866 132.12 100.428 137.99 100.428 144.233C100.428 150.476 102.866 156.345 107.289 160.758C111.712 165.171 117.594 167.604 123.851 167.604Z" fill="#E24E4F"/>
</svg>
