<svg width="582" height="242" viewBox="0 0 582 242" fill="none" xmlns="http://www.w3.org/2000/svg">
<path fill-rule="evenodd" clip-rule="evenodd" d="M555.907 165.806H530.219C530.219 151.508 541.723 139.915 555.907 139.915C570.091 139.915 581.594 151.508 581.594 165.806H555.907Z" fill="#EBEBEB"/>
<path fill-rule="evenodd" clip-rule="evenodd" d="M474.114 165.806H459C459 157.393 465.766 150.572 474.114 150.572C482.461 150.572 489.228 157.393 489.228 165.806H474.114Z" fill="#EBEBEB"/>
<path fill-rule="evenodd" clip-rule="evenodd" d="M517.304 165.806H484.762C484.762 147.691 499.333 133 517.304 133C535.276 133 549.846 147.684 549.846 165.806H517.304Z" fill="#EBEBEB"/>
<path d="M353.367 228.442H104.828C96.4117 228.442 89.5918 223.629 89.5918 217.69V33.3963C89.5918 27.5982 96.107 22.8457 104.322 22.6529L362.415 16.5805C371.234 16.3748 378.462 21.483 378.149 27.7053L368.595 218.071C368.303 223.856 361.573 228.442 353.367 228.442Z" fill="#9A9A9A"/>
<path d="M203.045 205.716C248.976 205.716 286.211 168.539 286.211 122.678C286.211 76.8174 248.976 39.64 203.045 39.64C157.115 39.64 119.88 76.8174 119.88 122.678C119.88 168.539 157.115 205.716 203.045 205.716Z" fill="#434955"/>
<path d="M258.179 177.726C288.628 147.325 288.628 98.0336 258.179 67.6319C227.731 37.2302 178.365 37.2302 147.916 67.6319C117.468 98.0336 117.468 147.325 147.916 177.726C178.365 208.128 227.731 208.128 258.179 177.726Z" fill="#2A2A2B"/>
<path d="M221.05 78.4402C221.05 95.406 212.05 115.256 200.951 115.256C189.852 115.256 202.518 92.3377 180.852 78.4402C167.336 69.7708 189.852 53.812 200.951 53.812C212.05 53.812 221.05 61.4743 221.05 78.4402Z" fill="#7A7A7A"/>
<path d="M181.869 162.322C181.869 145.356 190.869 125.506 201.968 125.506C213.067 125.506 200.402 148.425 222.067 162.322C235.583 170.992 213.067 186.95 201.968 186.95C190.869 186.95 181.869 179.288 181.869 162.322Z" fill="#7A7A7A"/>
<path d="M159.456 100.823C176.448 100.823 196.329 109.809 196.329 120.891C196.329 131.973 173.375 119.327 159.456 140.96C150.774 154.454 134.79 131.973 134.79 120.891C134.79 109.809 142.464 100.823 159.456 100.823Z" fill="#7A7A7A"/>
<path d="M243.463 139.94C226.471 139.94 206.591 130.953 206.591 119.871C206.591 108.789 229.544 121.436 243.463 99.8029C252.145 86.3082 268.129 108.789 268.129 119.871C268.129 130.953 260.455 139.94 243.463 139.94Z" fill="#7A7A7A"/>
<path d="M201.651 136.859C210.606 136.859 217.866 129.61 217.866 120.668C217.866 111.727 210.606 104.478 201.651 104.478C192.695 104.478 185.436 111.727 185.436 120.668C185.436 129.61 192.695 136.859 201.651 136.859Z" fill="#CBCBCD"/>
<path d="M241.896 48.2793H167.997V52.0676H241.896V48.2793Z" fill="#434955"/>
<path d="M249.527 55.4617H156.559V59.25H249.527V55.4617Z" fill="#434955"/>
<path d="M257.562 62.7897H148.696V66.578H257.562V62.7897Z" fill="#434955"/>
<path d="M268.15 70.3319H139.117V74.1202H268.15V70.3319Z" fill="#434955"/>
<path d="M271.133 77.3813H134.79V81.1696H271.133V77.3813Z" fill="#434955"/>
<path d="M275.618 84.7051H130.438V88.4934H275.618V84.7051Z" fill="#434955"/>
<path d="M278.751 92.2476H128.528V96.0358H278.751V92.2476Z" fill="#434955"/>
<path d="M281.009 99.7983H125.078V103.587H281.009V99.7983Z" fill="#434955"/>
<path d="M282.095 106.848H125.078V110.636H282.095V106.848Z" fill="#434955"/>
<path d="M282.099 114.176H124.099V117.964H282.099V114.176Z" fill="#434955"/>
<path d="M285.507 121.718H122.022V125.506H285.507V121.718Z" fill="#434955"/>
<path d="M280.923 129.093H124.009V132.882H280.923V129.093Z" fill="#434955"/>
<path d="M282.009 136.143H124.992V139.931H282.009V136.143Z" fill="#434955"/>
<path d="M279.944 143.471H126.069V147.259H279.944V143.471Z" fill="#434955"/>
<path d="M278.751 151.013H128.528V154.801H278.751V151.013Z" fill="#434955"/>
<path d="M274.631 158.345H131.867V162.134H274.631V158.345Z" fill="#434955"/>
<path d="M271.133 165.399H134.79V169.187H271.133V165.399Z" fill="#434955"/>
<path d="M266.605 172.723H139.717V176.511H266.605V172.723Z" fill="#434955"/>
<path d="M259.695 180.265H147.031V184.053H259.695V180.265Z" fill="#434955"/>
<path d="M248.604 187.409H156.091V191.197H248.604V187.409Z" fill="#434955"/>
<path d="M235.162 194.24H171.087V198.028H235.162V194.24Z" fill="#434955"/>
<path d="M328.71 46.0597C332.867 46.0597 336.238 42.6944 336.238 38.5431C336.238 34.3918 332.867 31.0265 328.71 31.0265C324.552 31.0265 321.182 34.3918 321.182 38.5431C321.182 42.6944 324.552 46.0597 328.71 46.0597Z" fill="#878787"/>
<path d="M328.71 43.5525C331.68 43.5525 334.088 41.1485 334.088 38.183C334.088 35.2174 331.68 32.8134 328.71 32.8134C325.74 32.8134 323.332 35.2174 323.332 38.183C323.332 41.1485 325.74 43.5525 328.71 43.5525Z" fill="#242424"/>
<path d="M353.444 46.0595C357.602 46.0595 360.972 42.6942 360.972 38.5429C360.972 34.3917 357.602 31.0264 353.444 31.0264C349.287 31.0264 345.916 34.3917 345.916 38.5429C345.916 42.6942 349.287 46.0595 353.444 46.0595Z" fill="#878787"/>
<path d="M353.444 43.5525C356.414 43.5525 358.822 41.1485 358.822 38.183C358.822 35.2174 356.414 32.8134 353.444 32.8134C350.474 32.8134 348.066 35.2174 348.066 38.183C348.066 41.1485 350.474 43.5525 353.444 43.5525Z" fill="#CBCBCD"/>
<path d="M100.704 108.253C100.468 108.253 100.275 108.061 100.275 107.825V43.1026C100.275 37.2231 104.876 32.3163 110.751 31.9263L165.56 28.2966C165.791 28.2752 166.002 28.4595 166.014 28.6952C166.032 28.9309 165.851 29.1366 165.615 29.1494L110.807 32.7791C105.382 33.1391 101.133 37.6731 101.133 43.0984V107.821C101.133 108.056 100.94 108.249 100.704 108.249V108.253Z" fill="#434955"/>
<path d="M351.663 219.567H301.799C301.563 219.567 301.37 219.374 301.37 219.138C301.37 218.902 301.563 218.71 301.799 218.71H351.663C356.037 218.71 359.586 215.294 359.749 210.932L362.311 141.812C362.32 141.577 362.513 141.392 362.758 141.401C362.994 141.41 363.178 141.607 363.17 141.847L360.608 210.966C360.427 215.791 356.5 219.571 351.667 219.571L351.663 219.567Z" fill="#434955"/>
<path d="M348.393 191.197H309.332C306.447 191.197 304.108 193.532 304.108 196.413V206.462C304.108 209.342 306.447 211.677 309.332 211.677H348.393C351.277 211.677 353.616 209.342 353.616 206.462V196.413C353.616 193.532 351.277 191.197 348.393 191.197Z" fill="#7D7D7D"/>
<path d="M348.393 166.453H309.332C306.447 166.453 304.108 168.788 304.108 171.669V181.718C304.108 184.598 306.447 186.933 309.332 186.933H348.393C351.277 186.933 353.616 184.598 353.616 181.718V171.669C353.616 168.788 351.277 166.453 348.393 166.453Z" fill="#7D7D7D"/>
<path d="M348.393 141.32H309.332C306.447 141.32 304.108 143.655 304.108 146.535V156.584C304.108 159.465 306.447 161.8 309.332 161.8H348.393C351.277 161.8 353.616 159.465 353.616 156.584V146.535C353.616 143.655 351.277 141.32 348.393 141.32Z" fill="#7D7D7D"/>
<path d="M348.238 115.264H309.177C306.292 115.264 303.954 117.599 303.954 120.48V130.529C303.954 133.409 306.292 135.744 309.177 135.744H348.238C351.123 135.744 353.462 133.409 353.462 130.529V120.48C353.462 117.599 351.123 115.264 348.238 115.264Z" fill="#7D7D7D"/>
<path d="M401.788 95.4332C415.265 97.7901 423.66 89.1079 430.325 83.8712C439.128 76.9546 446.39 80.5372 446.39 80.5372L436.802 98.6429C422.746 111.868 408.647 108.606 399.809 104.068C399.741 100.533 400.706 97.5973 401.792 95.4332H401.788Z" fill="white"/>
<path d="M382.951 86.7167L387.384 89.3008C392.698 92.7934 397.47 94.6746 401.788 95.4332C400.702 97.5973 399.736 100.533 399.805 104.068C394.178 101.18 390.68 97.773 390.68 97.773C380.646 91.3063 382.946 86.7167 382.946 86.7167H382.951Z" fill="#E24E4F"/>
<path d="M433.218 211.979L397.024 60.2458L381.534 63.2328L404.492 217.515C404.543 217.858 404.604 218.201 404.668 218.544L405.664 223.704C407.376 232.562 413.612 238.805 419.591 237.653L426.703 236.281C432.682 235.128 436.145 227.016 434.433 218.158L433.437 212.999C433.373 212.656 433.3 212.317 433.218 211.979ZM421.312 227.436C417.342 228.199 413.084 223.416 411.793 216.748C410.505 210.08 412.677 204.055 416.642 203.292C420.613 202.529 424.87 207.312 426.162 213.98C427.45 220.648 425.278 226.673 421.312 227.436Z" fill="#E24E4F"/>
<path d="M394.732 6.44692L400.522 36.3932C400.934 38.5274 400.333 40.7301 398.891 42.3542L391.509 50.6936C389.401 53.0763 385.951 53.7405 383.109 52.3135L373.148 47.3167C371.204 46.3396 369.826 44.5226 369.414 42.3885L363.624 12.4422C362.753 7.92537 356.92 6.46835 354.104 10.1109C347.37 18.8231 344.28 30.4794 346.585 42.3928C350.748 63.9312 370.431 75.5017 391.178 71.5035C411.926 67.5052 425.879 49.4508 421.716 27.9124C419.411 15.9991 412.2 6.32693 402.702 0.74306C398.732 -1.59248 393.861 1.92582 394.736 6.44263L394.732 6.44692Z" fill="#E24E4F"/>
<path d="M391.904 6.9955L397.693 36.9418C398.106 39.0759 397.505 41.2786 396.063 42.9028L388.68 51.2422C386.573 53.6249 383.122 54.2891 380.281 52.8621L370.319 47.8653C368.375 46.8882 366.997 45.0712 366.585 42.9371L360.795 12.9908C359.924 8.47397 354.091 7.01693 351.276 10.6595C344.542 19.3717 341.452 31.028 343.756 42.9414C347.92 64.4798 367.603 76.0503 388.35 72.052C409.097 68.0538 423.05 49.9994 418.887 28.461C416.582 16.5476 409.372 6.87551 399.874 1.29164C395.904 -1.0439 391.032 2.47442 391.908 6.99122L391.904 6.9955Z" fill="#E24E4F"/>
<path d="M430.965 212.411L394.771 60.6786L379.281 63.6655L402.239 217.948C402.29 218.291 402.35 218.634 402.415 218.977L403.41 224.136C405.123 232.994 411.359 239.238 417.338 238.085L424.45 236.714C430.428 235.561 433.892 227.449 432.179 218.591L431.184 213.431C431.119 213.089 431.042 212.75 430.965 212.411ZM419.055 227.873C415.085 228.636 410.827 223.853 409.535 217.185C408.247 210.517 410.419 204.492 414.385 203.729C418.355 202.966 422.613 207.749 423.905 214.417C425.192 221.085 423.02 227.11 419.055 227.873Z" fill="#E24E4F"/>
<path d="M382.371 93.3976C382.208 92.4291 382.491 91.4478 383.131 90.7064C384.376 89.2665 386.53 87.2953 388.088 88.6237C390.414 90.6036 387.865 97.3702 387.865 97.3702L385.285 101.3L385.251 103.807C383.856 102.178 383.024 98.1673 382.367 93.3976H382.371Z" fill="#E24E4F"/>
<path d="M470.803 125.825C472.738 127.968 475.61 129.84 477.636 131.015C474.507 134.73 470.301 138.428 464.76 142.02L463.129 145.499L458.223 139.397C458.223 139.397 467.313 135.09 470.807 125.825H470.803Z" fill="#FED8BE"/>
<path d="M430.325 83.8712C442.896 75.1676 461.489 80.0444 468.695 81.09C471.06 81.4328 473.202 82.6413 474.73 84.4712C480.786 91.7392 494.001 111.581 477.635 131.015C475.61 129.841 472.738 127.968 470.803 125.825C472.665 120.88 472.932 114.52 469.369 106.648C469.232 107.265 469.094 107.887 468.863 108.474C462.614 124.227 461.051 137.494 461.004 140.597C461 141.017 437.703 140.644 437.828 139.851C440.253 124.462 428.96 99.3715 426.188 92.9605C425.99 92.4977 429.806 87.3938 430.325 83.8755V83.8712Z" fill="white"/>
<path d="M457.317 67.8781L458.365 81.1243C458.365 81.1243 450.875 83.2241 445.527 79.303L449.562 67.3596L457.317 67.8781Z" fill="#FED8BE"/>
<path d="M448.961 52.6434C448.776 52.8105 441.12 67.1537 441.12 67.1537L449.416 71.3491L458.699 58.8315C458.699 58.8315 452.017 49.8836 448.961 52.6476V52.6434Z" fill="#FED8BE"/>
<path d="M454.987 59.1101C455.128 59.5001 455.086 59.9286 454.862 60.28L450.553 67.1538C450.489 67.2566 450.412 67.3509 450.317 67.4323C449.811 67.8866 448.085 69.1979 446.806 67.3423C445.716 65.761 444.69 64.3254 443.574 63.7169C442.922 63.3612 442.107 63.6183 441.763 64.274C441.051 65.6239 439.665 68.3708 438.776 70.9892C438.553 71.6449 438.883 72.3605 439.519 72.6305C441.201 73.3505 444.527 74.6532 447.493 75.116C447.982 75.1932 448.467 74.996 448.768 74.6018C450.081 72.8748 453.776 68.0537 455.03 66.8538C456.193 65.7396 458.296 66.2067 459.24 66.4981C459.601 66.6095 459.983 66.5667 460.309 66.3781C461.283 65.8167 462.996 64.4026 461.502 61.9299C461.129 61.3128 461.343 60.5071 461.948 60.1257C463.039 59.4401 464.232 58.133 463.159 55.9603C462.073 53.7619 460.064 53.5305 458.691 53.6719C458.081 53.7362 457.472 53.4062 457.253 52.8363C457.154 52.5834 456.953 52.3649 456.575 52.2792C455.858 52.1206 455.399 51.4564 455.553 50.7407C455.819 49.5151 456.858 48.8809 454.91 47.7624C451.334 45.7097 447.24 49.3951 446.386 52.1078C445.527 54.8204 449.21 55.339 451.742 55.7075C453.605 55.9775 454.588 58.0302 454.983 59.1015L454.987 59.1101Z" fill="#4B4A52"/>
<path d="M453.416 69.3823C453.416 69.3823 455.111 64.7198 457.163 64.9297C459.214 65.1397 460.794 67.2181 458.206 69.468C454.983 72.2663 453.416 69.3823 453.416 69.3823Z" fill="#FED8BE"/>
<path d="M470.073 105.452C472.923 98.0987 472.107 89.1337 472.099 89.048L471.352 89.1208C471.361 89.2108 472.155 98.0002 469.369 105.187L470.069 105.457L470.073 105.452Z" fill="#878787"/>
<path d="M450.21 161.595C450.377 161.595 450.532 161.488 450.579 161.321C451.467 158.154 457.725 154.769 457.785 154.734C457.97 154.636 458.038 154.409 457.94 154.224C457.841 154.04 457.614 153.972 457.429 154.07C457.159 154.216 450.824 157.64 449.854 161.115C449.798 161.317 449.914 161.522 450.115 161.578C450.146 161.587 450.18 161.591 450.21 161.591V161.595Z" fill="#56555A"/>
<path d="M441.789 239.238C441.789 239.131 441.798 239.024 441.828 238.912C443.575 232.51 451.721 228.653 451.721 228.653L454.914 228.962C456.644 234.67 456.343 238.141 456.017 239.688C456.008 239.731 455.995 239.774 455.983 239.812C453.339 239.997 447.909 240.048 441.789 239.238Z" fill="#56555A"/>
<path d="M455.983 239.812C455.832 240.327 455.442 240.721 454.948 240.815C451.18 241.531 445.231 240.785 442.733 240.412C442.184 240.331 441.789 239.812 441.789 239.238C447.909 240.052 453.339 240.001 455.983 239.812Z" fill="#39393E"/>
<path d="M427.939 239.217C431.471 239.182 433.308 238.805 434.257 238.437C434.252 238.788 434.244 239.144 434.227 239.512C434.205 239.907 433.909 240.215 433.548 240.207L414.162 239.718C413.544 239.701 413.196 238.981 413.475 238.42C416.012 238.677 422.48 239.268 427.939 239.221V239.217Z" fill="#515058"/>
<path d="M413.471 238.42C413.496 238.372 413.518 238.321 413.552 238.274C415.308 235.917 419.763 231.241 428.415 229.343L432.553 229.292C432.553 229.292 434.334 232.523 434.257 238.441C433.304 238.809 431.471 239.191 427.939 239.221C422.475 239.272 416.012 238.681 413.475 238.42H413.471Z" fill="#56555A"/>
<path d="M438.368 137.768C438.368 137.768 426.132 182.542 425.411 230.157C425.398 231.027 431.716 231.726 433.338 231.31C433.338 231.31 444.652 170.68 449.828 162.555C449.828 162.555 449.656 209.819 448.167 230.83C448.214 232.441 452.493 232.964 455.987 232.471C455.987 232.471 464.116 179.761 464.463 147.226C464.481 145.551 460.197 138.184 460.197 138.184L438.373 137.773L438.368 137.768Z" fill="#56555A"/>
<path d="M436.081 80.2157C437.008 88.5122 438.566 96.573 440.896 104.355L445.158 104.072L442.441 78.7887C440.386 78.313 438.261 78.8658 436.085 80.22L436.081 80.2157Z" fill="#4C4B55"/>
<path d="M455.686 106.267L461.086 79.5901C462.88 79.1916 465.193 79.843 467.687 80.8543C464.85 90.1536 462.399 98.6944 460.442 106.267H455.686Z" fill="#56555A"/>
<path d="M461.004 140.593L467.082 114.627C467.159 114.126 467.047 113.616 466.773 113.187L461.086 104.351C453.965 103.027 447.09 102.483 440.527 102.95L433.617 111.409C433.321 111.773 433.197 112.245 433.274 112.708L437.939 139.401L461.004 140.593Z" fill="#56555A"/>
<path d="M446.09 51.1907C454.249 38.3731 471.665 51.9835 462.214 62.577C456.189 57.8502 449.497 51.0022 446.09 51.1907Z" fill="#E24E4F"/>
<path d="M446.665 49.7851C432.381 47.921 443.763 54.1648 456.601 58.0345C453.622 54.3319 450.579 51.5036 446.665 49.7851Z" fill="#E24E4F"/>
<path d="M140.827 189.5L141.772 188.605C141.948 188.437 142.227 188.446 142.39 188.622C142.557 188.797 142.548 189.076 142.372 189.239L142.36 189.252L141.424 190.113L141.415 190.122C141.239 190.28 140.969 190.272 140.81 190.096C140.651 189.924 140.66 189.654 140.832 189.496L140.827 189.5Z" fill="white"/>
<path d="M144.076 186.633L145.106 185.841C145.312 185.682 145.609 185.721 145.763 185.926C145.922 186.132 145.883 186.428 145.677 186.582L145.664 186.591L144.643 187.349L144.63 187.358C144.428 187.508 144.136 187.469 143.986 187.263C143.836 187.062 143.875 186.779 144.076 186.625V186.633Z" fill="white"/>
<path d="M147.609 184.118L148.716 183.437C148.952 183.291 149.261 183.364 149.407 183.599C149.553 183.835 149.48 184.144 149.244 184.289L149.227 184.298L148.136 184.949L148.124 184.958C147.892 185.095 147.587 185.022 147.45 184.791C147.312 184.559 147.385 184.264 147.613 184.122L147.609 184.118Z" fill="white"/>
<path d="M151.377 181.967L152.544 181.392C152.806 181.264 153.128 181.371 153.257 181.632C153.386 181.894 153.278 182.215 153.017 182.344C153.017 182.344 153.017 182.344 153.012 182.344L152.995 182.352L151.845 182.896H151.832C151.57 183.025 151.261 182.914 151.137 182.656C151.012 182.399 151.124 182.091 151.377 181.967Z" fill="white"/>
<path d="M155.326 180.18L156.54 179.713C156.832 179.601 157.154 179.747 157.27 180.034C157.381 180.325 157.235 180.647 156.948 180.762C156.948 180.762 156.948 180.762 156.944 180.762H156.926L155.733 181.208H155.72C155.433 181.32 155.115 181.174 155.008 180.887C154.905 180.604 155.047 180.287 155.326 180.18Z" fill="white"/>
<path d="M159.416 178.74L160.665 178.371C160.978 178.277 161.309 178.457 161.403 178.774C161.497 179.087 161.317 179.417 161 179.511C161 179.511 161 179.511 160.995 179.511H160.978L159.751 179.858H159.738C159.429 179.948 159.103 179.768 159.017 179.455C158.931 179.147 159.107 178.83 159.416 178.74Z" fill="white"/>
<path d="M163.605 177.626L164.875 177.356C165.214 177.283 165.545 177.497 165.618 177.835C165.691 178.174 165.476 178.504 165.137 178.577C165.137 178.577 165.137 178.577 165.133 178.577H165.116L163.867 178.83H163.854C163.519 178.898 163.197 178.684 163.128 178.35C163.064 178.02 163.274 177.698 163.605 177.63V177.626Z" fill="white"/>
<path d="M167.867 176.828L169.154 176.648C169.51 176.597 169.841 176.845 169.888 177.201C169.94 177.557 169.691 177.887 169.334 177.934H169.33H169.317L168.055 178.097H168.043C167.691 178.144 167.364 177.895 167.317 177.544C167.27 177.193 167.519 176.871 167.867 176.82V176.828Z" fill="white"/>
<path d="M172.172 176.327L173.468 176.228C173.837 176.203 174.159 176.477 174.184 176.846C174.21 177.214 173.936 177.536 173.566 177.561H173.562H173.549L172.279 177.647H172.266C171.901 177.673 171.584 177.394 171.558 177.03C171.532 176.666 171.807 176.353 172.172 176.323V176.327Z" fill="white"/>
<path d="M176.498 176.096L177.798 176.074C178.176 176.07 178.489 176.37 178.494 176.751C178.498 177.128 178.197 177.441 177.815 177.445H177.811H177.798L176.519 177.454H176.506C176.129 177.454 175.824 177.154 175.82 176.777C175.82 176.404 176.116 176.096 176.489 176.091L176.498 176.096Z" fill="white"/>
<path d="M180.828 176.117L182.125 176.168C182.515 176.186 182.816 176.511 182.798 176.901C182.781 177.291 182.455 177.591 182.064 177.574H182.06H182.047L180.773 177.514H180.76C180.373 177.497 180.077 177.167 180.094 176.781C180.112 176.4 180.438 176.104 180.82 176.117H180.828Z" fill="white"/>
<path d="M185.15 176.37L186.442 176.49C186.837 176.528 187.129 176.88 187.095 177.274C187.056 177.668 186.704 177.96 186.309 177.925H186.305H186.292L185.022 177.797H185.009C184.614 177.754 184.326 177.407 184.369 177.013C184.408 176.623 184.756 176.335 185.15 176.374V176.37Z" fill="white"/>
<path d="M189.451 176.845L190.734 177.03C191.138 177.09 191.421 177.463 191.361 177.865C191.301 178.268 190.927 178.547 190.524 178.491H190.52H190.511L189.249 178.298H189.241C188.841 178.234 188.562 177.861 188.627 177.463C188.687 177.064 189.06 176.79 189.455 176.845H189.451Z" fill="white"/>
<path d="M193.726 177.536L195 177.784C195.412 177.866 195.679 178.26 195.597 178.671C195.515 179.083 195.121 179.348 194.709 179.267H194.704H194.696L193.447 179.014H193.434C193.026 178.928 192.764 178.534 192.846 178.127C192.927 177.724 193.322 177.463 193.726 177.54V177.536Z" fill="white"/>
<path d="M197.958 178.431L199.219 178.735C199.636 178.838 199.889 179.254 199.79 179.67C199.687 180.085 199.271 180.338 198.855 180.24H198.85H198.842L197.601 179.927H197.593C197.181 179.82 196.932 179.404 197.035 178.993C197.138 178.585 197.554 178.337 197.962 178.435L197.958 178.431Z" fill="white"/>
<path d="M202.142 179.507L203.387 179.858C203.807 179.978 204.052 180.411 203.936 180.831C203.816 181.251 203.383 181.495 202.962 181.379H202.958H202.949L201.722 181.024H201.713C201.297 180.899 201.056 180.467 201.177 180.051C201.297 179.635 201.73 179.395 202.147 179.515L202.142 179.507Z" fill="white"/>
<path d="M206.28 180.72L207.511 181.11C207.932 181.242 208.168 181.692 208.031 182.112C207.898 182.532 207.447 182.768 207.026 182.631H207.018L205.799 182.241H205.79C205.37 182.104 205.138 181.654 205.271 181.234C205.404 180.814 205.855 180.582 206.275 180.715L206.28 180.72Z" fill="white"/>
<path d="M210.379 182.065L211.602 182.489C212.022 182.635 212.246 183.094 212.1 183.514C211.954 183.934 211.494 184.156 211.074 184.011H211.07L209.859 183.586H209.855C209.434 183.436 209.215 182.978 209.361 182.562C209.507 182.142 209.966 181.919 210.387 182.069L210.379 182.065Z" fill="white"/>
<path d="M214.439 183.505L215.649 183.955C216.07 184.109 216.284 184.576 216.13 184.996C215.975 185.416 215.507 185.63 215.087 185.476L213.885 185.026H213.881C213.46 184.868 213.25 184.401 213.404 183.981C213.563 183.561 214.027 183.346 214.447 183.505H214.439Z" fill="white"/>
<path d="M218.469 185.022L219.671 185.489C220.091 185.652 220.302 186.128 220.134 186.548C219.971 186.968 219.495 187.178 219.074 187.01L217.881 186.543C217.46 186.376 217.254 185.905 217.417 185.485C217.58 185.065 218.053 184.859 218.473 185.022H218.469Z" fill="white"/>
<path d="M222.469 186.599L223.666 187.079C224.087 187.251 224.293 187.73 224.121 188.15C223.95 188.57 223.469 188.776 223.048 188.605L221.86 188.12C221.439 187.949 221.237 187.469 221.409 187.049C221.581 186.629 222.057 186.428 222.478 186.595L222.469 186.599Z" fill="white"/>
<path d="M226.452 188.215L227.645 188.703C228.07 188.879 228.272 189.363 228.096 189.783C227.92 190.207 227.435 190.409 227.014 190.233L225.825 189.74C225.4 189.565 225.203 189.085 225.375 188.66C225.551 188.236 226.031 188.035 226.456 188.21L226.452 188.215Z" fill="white"/>
<path d="M230.422 189.852L231.611 190.345C232.036 190.52 232.242 191.009 232.061 191.433C231.881 191.857 231.396 192.063 230.971 191.883L229.782 191.386C229.358 191.21 229.156 190.722 229.332 190.297C229.508 189.873 229.997 189.672 230.422 189.847V189.852Z" fill="white"/>
<path d="M234.388 191.489L235.577 191.977C236.006 192.153 236.212 192.646 236.036 193.074C235.86 193.503 235.366 193.708 234.937 193.533L233.744 193.04C233.315 192.864 233.113 192.371 233.289 191.943C233.465 191.514 233.959 191.313 234.383 191.489H234.388Z" fill="white"/>
<path d="M238.358 193.109L239.551 193.588C239.984 193.764 240.195 194.257 240.019 194.69C239.843 195.123 239.349 195.333 238.916 195.157L237.718 194.673C237.285 194.497 237.079 194.004 237.255 193.571C237.431 193.138 237.924 192.933 238.358 193.109Z" fill="white"/>
<path d="M242.341 194.694L243.538 195.161C243.976 195.333 244.195 195.826 244.023 196.267C243.852 196.704 243.358 196.923 242.92 196.751L241.718 196.28C241.281 196.108 241.066 195.616 241.238 195.178C241.409 194.741 241.903 194.527 242.341 194.698V194.694Z" fill="white"/>
<path d="M246.337 196.22L247.538 196.665H247.543C247.989 196.833 248.216 197.325 248.049 197.771C247.886 198.217 247.392 198.444 246.946 198.277L245.736 197.827C245.294 197.66 245.066 197.167 245.234 196.725C245.401 196.284 245.894 196.057 246.337 196.224V196.22Z" fill="white"/>
<path d="M250.354 197.673L251.564 198.093H251.568C252.019 198.251 252.259 198.744 252.105 199.194C251.95 199.644 251.457 199.884 251.006 199.725L249.783 199.297C249.332 199.138 249.096 198.65 249.251 198.2C249.41 197.75 249.899 197.514 250.35 197.668L250.354 197.673Z" fill="white"/>
<path d="M254.401 199.04L255.62 199.43H255.629C256.079 199.575 256.328 200.06 256.187 200.51C256.041 200.96 255.56 201.212 255.109 201.067L253.873 200.677C253.418 200.535 253.169 200.051 253.311 199.597C253.453 199.142 253.938 198.894 254.393 199.035H254.401V199.04Z" fill="white"/>
<path d="M258.479 200.291L259.71 200.642H259.719C260.174 200.775 260.436 201.246 260.307 201.696C260.178 202.151 259.71 202.412 259.255 202.284L258.006 201.932C257.551 201.804 257.285 201.332 257.414 200.878C257.543 200.424 258.015 200.158 258.47 200.287H258.479V200.291Z" fill="white"/>
<path d="M262.59 201.414L263.831 201.722H263.839C264.294 201.838 264.569 202.297 264.453 202.751C264.341 203.205 263.882 203.479 263.427 203.368L262.17 203.059C261.715 202.948 261.436 202.489 261.552 202.035C261.667 201.581 262.122 201.302 262.577 201.418H262.586L262.59 201.414Z" fill="white"/>
<path d="M266.741 202.399L267.99 202.669H267.998C268.453 202.768 268.741 203.214 268.642 203.668C268.543 204.122 268.101 204.409 267.646 204.311L266.38 204.041C265.925 203.946 265.633 203.496 265.732 203.042C265.826 202.588 266.277 202.296 266.732 202.395H266.741V202.399Z" fill="white"/>
<path d="M270.917 203.243L272.174 203.471H272.183C272.638 203.552 272.938 203.985 272.857 204.439C272.775 204.889 272.346 205.193 271.891 205.112L270.616 204.889C270.161 204.808 269.861 204.375 269.938 203.925C270.02 203.471 270.453 203.171 270.904 203.248H270.912L270.917 203.243Z" fill="white"/>
<path d="M275.123 203.946L276.389 204.126H276.397C276.848 204.191 277.161 204.611 277.097 205.061C277.033 205.511 276.616 205.823 276.166 205.759L274.882 205.579C274.427 205.515 274.114 205.099 274.179 204.645C274.243 204.191 274.659 203.878 275.114 203.942H275.123V203.946Z" fill="white"/>
<path d="M279.346 204.495L280.616 204.628H280.625C281.076 204.675 281.402 205.078 281.355 205.528C281.307 205.978 280.908 206.303 280.458 206.256L279.166 206.123C278.715 206.076 278.385 205.673 278.432 205.223C278.479 204.774 278.882 204.444 279.333 204.491H279.342L279.346 204.495Z" fill="white"/>
<path d="M283.591 204.885L284.866 204.97H284.874C285.32 205 285.66 205.386 285.629 205.836C285.599 206.282 285.213 206.62 284.767 206.59L283.471 206.509C283.02 206.479 282.681 206.093 282.711 205.643C282.741 205.193 283.127 204.855 283.578 204.885H283.587H283.591Z" fill="white"/>
<path d="M287.844 205.108L289.123 205.142H289.132C289.578 205.155 289.93 205.523 289.917 205.969C289.904 206.415 289.539 206.766 289.093 206.753L287.797 206.723C287.351 206.715 286.999 206.342 287.007 205.896C287.016 205.451 287.389 205.099 287.836 205.108H287.844Z" fill="white"/>
<path d="M292.102 205.155L293.381 205.133H293.389C293.831 205.125 294.196 205.476 294.201 205.918C294.209 206.359 293.857 206.723 293.415 206.727L292.119 206.753C291.677 206.762 291.312 206.41 291.303 205.969C291.295 205.528 291.647 205.163 292.089 205.155H292.097H292.102Z" fill="white"/>
<path d="M296.355 205.026L297.63 204.953H297.638C298.072 204.928 298.441 205.258 298.467 205.691C298.492 206.119 298.166 206.488 297.737 206.518L296.441 206.603C296.007 206.633 295.63 206.303 295.6 205.871C295.57 205.438 295.9 205.061 296.334 205.031H296.342H296.351L296.355 205.026Z" fill="white"/>
<path d="M300.6 204.713L301.87 204.581H301.883C302.304 204.533 302.677 204.838 302.724 205.258C302.767 205.673 302.467 206.046 302.05 206.093L300.759 206.239C300.338 206.286 299.956 205.986 299.904 205.562C299.853 205.138 300.158 204.761 300.583 204.709H300.591H300.604L300.6 204.713Z" fill="white"/>
<path d="M304.823 204.199L306.085 204.002H306.098C306.506 203.938 306.883 204.216 306.948 204.619C307.012 205.022 306.737 205.399 306.334 205.468L305.051 205.678C304.643 205.746 304.257 205.468 304.188 205.061C304.119 204.653 304.398 204.268 304.806 204.199H304.815H304.827H304.823Z" fill="white"/>
<path d="M309.016 203.475L310.265 203.213H310.278C310.669 203.128 311.051 203.381 311.132 203.771C311.214 204.161 310.965 204.538 310.579 204.623L309.308 204.898C308.913 204.983 308.527 204.735 308.441 204.341C308.355 203.946 308.604 203.561 308.999 203.475H309.008H309.021H309.016Z" fill="white"/>
<path d="M313.162 202.532L314.394 202.206H314.407C314.785 202.104 315.167 202.326 315.265 202.704C315.364 203.076 315.145 203.458 314.772 203.561L313.519 203.903C313.141 204.006 312.75 203.788 312.647 203.406C312.544 203.029 312.763 202.639 313.145 202.536H313.154L313.167 202.532H313.162Z" fill="white"/>
<path d="M317.253 201.362L318.467 200.968H318.48C318.841 200.848 319.223 201.041 319.343 201.401C319.459 201.756 319.266 202.138 318.914 202.258L317.682 202.673C317.321 202.793 316.931 202.601 316.806 202.241C316.686 201.881 316.879 201.491 317.24 201.366H317.244L317.257 201.362H317.253Z" fill="white"/>
<path d="M321.266 199.965L322.454 199.498H322.467C322.806 199.361 323.193 199.528 323.326 199.867C323.459 200.205 323.291 200.587 322.957 200.724L321.751 201.208C321.407 201.345 321.017 201.182 320.879 200.839C320.742 200.497 320.905 200.107 321.248 199.969H321.253L321.266 199.961V199.965Z" fill="white"/>
<path d="M325.188 198.328L326.347 197.793H326.356C326.678 197.638 327.055 197.78 327.206 198.101C327.352 198.418 327.214 198.795 326.901 198.945L325.729 199.507C325.407 199.661 325.017 199.524 324.862 199.202C324.708 198.881 324.845 198.491 325.167 198.337C325.167 198.337 325.167 198.337 325.171 198.337L325.184 198.328H325.188Z" fill="white"/>
<path d="M329.013 196.468L330.137 195.864H330.146C330.438 195.701 330.807 195.808 330.965 196.104C331.12 196.395 331.017 196.755 330.729 196.914L329.596 197.548C329.3 197.715 328.927 197.608 328.759 197.312C328.592 197.017 328.699 196.644 328.995 196.477C328.995 196.477 328.995 196.477 329 196.477L329.013 196.468Z" fill="white"/>
<path d="M332.708 194.368L333.79 193.691L333.798 193.683C334.064 193.516 334.416 193.597 334.579 193.863C334.742 194.124 334.669 194.471 334.408 194.638L333.317 195.345C333.051 195.521 332.691 195.444 332.515 195.178C332.339 194.913 332.416 194.553 332.682 194.377C332.682 194.377 332.682 194.377 332.686 194.377L332.699 194.368H332.708Z" fill="white"/>
<path d="M336.249 192.02L337.275 191.266L337.283 191.257C337.519 191.082 337.854 191.133 338.026 191.369C338.197 191.604 338.15 191.93 337.918 192.106L336.884 192.894C336.644 193.074 336.305 193.031 336.124 192.791C335.944 192.551 335.987 192.213 336.227 192.033C336.227 192.033 336.227 192.033 336.232 192.033L336.245 192.024L336.249 192.02Z" fill="white"/>
<path d="M339.601 189.41L340.562 188.575L340.571 188.566C340.777 188.386 341.09 188.408 341.27 188.613C341.446 188.819 341.429 189.128 341.227 189.308L340.262 190.177C340.056 190.366 339.734 190.349 339.545 190.139C339.356 189.929 339.373 189.612 339.584 189.423C339.584 189.423 339.584 189.423 339.588 189.423L339.601 189.415V189.41Z" fill="white"/>
<path d="M342.721 186.531L343.605 185.613L343.614 185.605C343.79 185.421 344.082 185.416 344.266 185.592C344.446 185.768 344.455 186.055 344.283 186.235L343.399 187.186C343.223 187.375 342.923 187.388 342.734 187.212C342.545 187.036 342.532 186.736 342.708 186.548L342.717 186.535L342.721 186.531Z" fill="white"/>
<path d="M345.558 183.376L346.022 182.794H346.026C346.172 182.601 346.442 182.571 346.631 182.721C346.816 182.866 346.846 183.132 346.704 183.316L346.24 183.916C346.095 184.105 345.82 184.144 345.631 183.994C345.442 183.848 345.404 183.574 345.554 183.385V183.376H345.558Z" fill="white"/>
<path d="M140.827 201.881L141.772 200.985C141.948 200.818 142.227 200.827 142.39 201.002C142.557 201.178 142.548 201.457 142.372 201.619L142.36 201.632L141.424 202.494L141.415 202.502C141.239 202.661 140.969 202.652 140.81 202.476C140.651 202.305 140.66 202.035 140.832 201.877L140.827 201.881Z" fill="white"/>
<path d="M144.076 199.014L145.106 198.221C145.312 198.062 145.609 198.101 145.763 198.307C145.922 198.512 145.883 198.808 145.677 198.962L145.664 198.971L144.643 199.729L144.63 199.738C144.428 199.888 144.137 199.849 143.986 199.644C143.836 199.442 143.875 199.159 144.076 199.005V199.014Z" fill="white"/>
<path d="M147.609 196.503L148.716 195.821C148.952 195.676 149.261 195.749 149.407 195.984C149.553 196.22 149.48 196.528 149.244 196.674L149.227 196.683L148.137 197.334L148.124 197.343C147.892 197.48 147.587 197.407 147.45 197.176C147.313 196.944 147.386 196.648 147.613 196.507L147.609 196.503Z" fill="white"/>
<path d="M151.377 194.351L152.544 193.777C152.806 193.649 153.128 193.756 153.257 194.017C153.386 194.279 153.278 194.6 153.017 194.728C153.017 194.728 153.017 194.728 153.012 194.728L152.995 194.737L151.845 195.281H151.832C151.57 195.41 151.261 195.298 151.137 195.041C151.012 194.784 151.124 194.476 151.377 194.351Z" fill="white"/>
<path d="M155.326 192.56L156.54 192.093C156.832 191.981 157.154 192.127 157.27 192.414C157.381 192.706 157.236 193.027 156.948 193.143C156.948 193.143 156.948 193.143 156.944 193.143H156.926L155.733 193.589H155.72C155.433 193.7 155.115 193.554 155.008 193.267C154.905 192.984 155.047 192.667 155.326 192.56Z" fill="white"/>
<path d="M159.416 191.12L160.665 190.752C160.978 190.657 161.309 190.837 161.403 191.154C161.497 191.467 161.317 191.797 161 191.892C161 191.892 161 191.892 160.995 191.892H160.978L159.751 192.239H159.738C159.429 192.329 159.103 192.149 159.017 191.836C158.931 191.527 159.107 191.21 159.416 191.12Z" fill="white"/>
<path d="M163.605 190.01L164.875 189.74C165.214 189.667 165.545 189.882 165.618 190.22C165.691 190.559 165.476 190.889 165.137 190.962C165.137 190.962 165.137 190.962 165.133 190.962H165.116L163.867 191.214H163.854C163.519 191.283 163.197 191.069 163.128 190.735C163.064 190.405 163.274 190.083 163.605 190.015V190.01Z" fill="white"/>
<path d="M167.867 189.209L169.154 189.029C169.511 188.978 169.841 189.226 169.888 189.582C169.94 189.937 169.691 190.267 169.335 190.315H169.33H169.317L168.056 190.477H168.043C167.691 190.525 167.365 190.276 167.317 189.925C167.27 189.573 167.519 189.252 167.867 189.2V189.209Z" fill="white"/>
<path d="M172.172 188.708L173.468 188.609C173.837 188.583 174.159 188.858 174.184 189.226C174.21 189.595 173.936 189.916 173.566 189.942H173.562H173.549L172.279 190.028H172.266C171.901 190.053 171.584 189.775 171.558 189.41C171.532 189.046 171.807 188.733 172.172 188.703V188.708Z" fill="white"/>
<path d="M176.498 188.48L177.798 188.459C178.176 188.455 178.489 188.755 178.494 189.136C178.498 189.513 178.197 189.826 177.815 189.83H177.811H177.798L176.519 189.839H176.506C176.129 189.839 175.824 189.539 175.82 189.162C175.82 188.789 176.116 188.48 176.489 188.476L176.498 188.48Z" fill="white"/>
<path d="M180.828 188.497L182.125 188.549C182.515 188.566 182.816 188.892 182.798 189.282C182.781 189.672 182.455 189.972 182.064 189.954H182.06H182.047L180.773 189.895H180.76C180.373 189.877 180.077 189.547 180.094 189.162C180.112 188.78 180.438 188.485 180.82 188.497H180.828Z" fill="white"/>
<path d="M185.15 188.755L186.442 188.875C186.837 188.913 187.129 189.265 187.095 189.659C187.056 190.053 186.704 190.345 186.309 190.31H186.305H186.292L185.022 190.182H185.009C184.614 190.139 184.326 189.792 184.369 189.397C184.408 189.007 184.756 188.72 185.15 188.759V188.755Z" fill="white"/>
<path d="M189.451 189.23L190.734 189.415C191.138 189.475 191.421 189.847 191.361 190.25C191.301 190.653 190.927 190.936 190.524 190.876H190.52H190.511L189.249 190.683H189.241C188.841 190.619 188.563 190.246 188.627 189.847C188.687 189.449 189.06 189.175 189.455 189.23H189.451Z" fill="white"/>
<path d="M193.726 189.92L195.001 190.169C195.413 190.25 195.679 190.645 195.597 191.056C195.516 191.467 195.121 191.733 194.709 191.652H194.704H194.696L193.447 191.399H193.434C193.026 191.313 192.764 190.919 192.846 190.512C192.928 190.109 193.322 189.847 193.726 189.925V189.92Z" fill="white"/>
<path d="M197.958 190.816L199.219 191.12C199.636 191.223 199.889 191.639 199.79 192.054C199.687 192.47 199.271 192.723 198.855 192.624H198.85H198.842L197.601 192.312H197.593C197.181 192.204 196.932 191.789 197.035 191.377C197.138 190.97 197.554 190.722 197.962 190.82L197.958 190.816Z" fill="white"/>
<path d="M202.142 191.887L203.387 192.239C203.808 192.359 204.052 192.791 203.936 193.211C203.816 193.631 203.383 193.876 202.962 193.76H202.958H202.949L201.722 193.404H201.713C201.297 193.28 201.056 192.847 201.177 192.431C201.297 192.016 201.73 191.776 202.147 191.896L202.142 191.887Z" fill="white"/>
<path d="M206.28 193.104L207.512 193.494C207.932 193.627 208.168 194.077 208.031 194.497C207.898 194.917 207.447 195.153 207.027 195.016H207.018L205.799 194.626H205.79C205.37 194.489 205.138 194.039 205.271 193.619C205.404 193.199 205.855 192.967 206.275 193.1L206.28 193.104Z" fill="white"/>
<path d="M210.379 194.446L211.602 194.87C212.022 195.016 212.246 195.474 212.1 195.894C211.954 196.314 211.494 196.537 211.074 196.391H211.07L209.859 195.967H209.855C209.434 195.817 209.215 195.358 209.361 194.943C209.507 194.523 209.967 194.3 210.387 194.45L210.379 194.446Z" fill="white"/>
<path d="M214.439 195.886L215.649 196.336C216.07 196.49 216.284 196.957 216.13 197.377C215.975 197.797 215.507 198.011 215.087 197.857L213.885 197.407H213.881C213.46 197.248 213.25 196.781 213.404 196.361C213.563 195.941 214.027 195.727 214.447 195.886H214.439Z" fill="white"/>
<path d="M218.469 197.407L219.671 197.874C220.091 198.037 220.302 198.513 220.134 198.933C219.971 199.353 219.495 199.563 219.074 199.395L217.881 198.928C217.46 198.761 217.254 198.29 217.417 197.87C217.58 197.45 218.053 197.244 218.473 197.407H218.469Z" fill="white"/>
<path d="M222.469 198.984L223.667 199.464C224.087 199.635 224.293 200.115 224.121 200.535C223.95 200.955 223.469 201.161 223.048 200.989L221.86 200.505C221.439 200.334 221.237 199.854 221.409 199.434C221.581 199.014 222.057 198.812 222.478 198.98L222.469 198.984Z" fill="white"/>
<path d="M226.452 200.595L227.645 201.084C228.07 201.259 228.272 201.744 228.096 202.164C227.92 202.588 227.435 202.789 227.014 202.614L225.825 202.121C225.4 201.945 225.203 201.465 225.375 201.041C225.551 200.617 226.031 200.415 226.456 200.591L226.452 200.595Z" fill="white"/>
<path d="M230.422 202.232L231.611 202.725C232.036 202.901 232.242 203.389 232.061 203.814C231.886 204.238 231.396 204.443 230.971 204.263L229.782 203.766C229.358 203.591 229.156 203.102 229.332 202.678C229.508 202.254 229.997 202.052 230.422 202.228V202.232Z" fill="white"/>
<path d="M234.388 203.869L235.577 204.358C236.006 204.533 236.212 205.026 236.036 205.455C235.86 205.883 235.366 206.089 234.937 205.913L233.744 205.421C233.315 205.245 233.113 204.752 233.289 204.323C233.465 203.895 233.959 203.694 234.384 203.869H234.388Z" fill="white"/>
<path d="M238.358 205.489L239.551 205.969C239.985 206.145 240.195 206.638 240.019 207.07C239.843 207.503 239.349 207.713 238.916 207.538L237.718 207.053C237.285 206.878 237.079 206.385 237.255 205.952C237.431 205.519 237.924 205.313 238.358 205.489Z" fill="white"/>
<path d="M242.341 207.075L243.538 207.542C243.976 207.713 244.195 208.206 244.023 208.648C243.852 209.085 243.358 209.303 242.92 209.132L241.718 208.66C241.281 208.489 241.066 207.996 241.238 207.559C241.409 207.122 241.903 206.908 242.341 207.079V207.075Z" fill="white"/>
<path d="M246.337 208.6L247.538 209.046H247.543C247.989 209.213 248.216 209.706 248.049 210.152C247.886 210.597 247.392 210.825 246.946 210.657L245.736 210.203C245.294 210.036 245.066 209.543 245.234 209.102C245.401 208.66 245.895 208.433 246.337 208.6Z" fill="white"/>
<path d="M250.354 210.053L251.564 210.473H251.569C252.019 210.632 252.26 211.125 252.105 211.575C251.95 212.025 251.457 212.264 251.006 212.106L249.783 211.677C249.332 211.519 249.096 211.03 249.251 210.58C249.41 210.13 249.899 209.895 250.35 210.049L250.354 210.053Z" fill="white"/>
<path d="M254.401 211.42L255.62 211.81H255.629C256.079 211.956 256.328 212.44 256.187 212.89C256.041 213.34 255.56 213.593 255.109 213.447L253.873 213.057C253.418 212.916 253.169 212.431 253.311 211.977C253.453 211.523 253.938 211.274 254.393 211.416H254.401V211.42Z" fill="white"/>
<path d="M258.479 212.676L259.71 213.027H259.719C260.174 213.16 260.436 213.631 260.307 214.081C260.178 214.536 259.71 214.797 259.255 214.668L258.006 214.317C257.552 214.188 257.285 213.717 257.414 213.263C257.543 212.809 258.015 212.543 258.47 212.671H258.479V212.676Z" fill="white"/>
<path d="M262.59 213.794L263.831 214.103H263.839C264.294 214.219 264.569 214.677 264.453 215.131C264.341 215.586 263.882 215.86 263.427 215.748L262.17 215.44C261.715 215.328 261.436 214.87 261.552 214.416C261.668 213.961 262.122 213.683 262.577 213.794H262.586H262.59Z" fill="white"/>
<path d="M266.741 214.78L267.99 215.05H267.998C268.453 215.148 268.741 215.594 268.642 216.048C268.543 216.503 268.101 216.79 267.646 216.691L266.38 216.421C265.925 216.327 265.633 215.877 265.732 215.423C265.826 214.968 266.277 214.677 266.732 214.776H266.741V214.78Z" fill="white"/>
<path d="M270.917 215.628L272.174 215.856H272.183C272.638 215.937 272.938 216.37 272.857 216.824C272.775 217.278 272.346 217.578 271.891 217.497L270.616 217.274C270.161 217.193 269.861 216.76 269.938 216.31C270.02 215.856 270.453 215.556 270.904 215.633H270.912L270.917 215.628Z" fill="white"/>
<path d="M275.123 216.327L276.389 216.507H276.397C276.848 216.571 277.161 216.991 277.097 217.441C277.033 217.891 276.616 218.204 276.166 218.14L274.882 217.96C274.427 217.895 274.114 217.48 274.179 217.026C274.243 216.571 274.659 216.258 275.114 216.323H275.123V216.327Z" fill="white"/>
<path d="M279.346 216.875L280.616 217.008H280.625C281.076 217.055 281.402 217.458 281.355 217.908C281.307 218.358 280.908 218.684 280.458 218.637L279.166 218.504C278.715 218.457 278.385 218.054 278.432 217.604C278.479 217.154 278.883 216.824 279.333 216.871H279.342L279.346 216.875Z" fill="white"/>
<path d="M283.591 217.265L284.866 217.351H284.874C285.321 217.381 285.66 217.767 285.63 218.217C285.6 218.662 285.213 219.001 284.767 218.971L283.471 218.89C283.02 218.86 282.681 218.474 282.711 218.024C282.741 217.574 283.127 217.235 283.578 217.265H283.587H283.591Z" fill="white"/>
<path d="M287.844 217.488L289.123 217.522H289.132C289.578 217.535 289.93 217.904 289.917 218.35C289.904 218.795 289.539 219.147 289.093 219.134L287.797 219.104C287.351 219.095 286.999 218.722 287.007 218.277C287.016 217.831 287.389 217.48 287.836 217.488H287.844Z" fill="white"/>
<path d="M292.102 217.535L293.381 217.514H293.389C293.831 217.505 294.196 217.857 294.201 218.298C294.205 218.74 293.857 219.104 293.415 219.108L292.119 219.134C291.677 219.142 291.312 218.791 291.303 218.35C291.295 217.908 291.647 217.544 292.089 217.535H292.098H292.102Z" fill="white"/>
<path d="M296.355 217.407L297.63 217.334H297.638C298.072 217.308 298.441 217.638 298.467 218.071C298.493 218.5 298.166 218.868 297.737 218.898L296.441 218.984C296.007 219.014 295.63 218.684 295.6 218.251C295.57 217.818 295.9 217.441 296.334 217.411H296.342H296.351L296.355 217.407Z" fill="white"/>
<path d="M300.6 217.094L301.87 216.961H301.883C302.304 216.918 302.677 217.218 302.724 217.638C302.767 218.054 302.467 218.427 302.051 218.474L300.759 218.62C300.338 218.667 299.956 218.367 299.905 217.943C299.857 217.523 300.158 217.141 300.583 217.09H300.591H300.604L300.6 217.094Z" fill="white"/>
<path d="M304.823 216.58L306.085 216.383H306.098C306.506 216.318 306.883 216.597 306.948 217C307.012 217.403 306.737 217.78 306.334 217.848L305.051 218.058C304.643 218.127 304.257 217.848 304.188 217.441C304.119 217.034 304.398 216.648 304.806 216.58H304.815H304.827H304.823Z" fill="white"/>
<path d="M309.016 215.856L310.265 215.594H310.278C310.669 215.508 311.051 215.761 311.132 216.151C311.214 216.541 310.965 216.918 310.579 217.004L309.308 217.278C308.913 217.364 308.527 217.115 308.441 216.721C308.355 216.327 308.604 215.941 308.999 215.856H309.008H309.021H309.016Z" fill="white"/>
<path d="M313.162 214.913L314.394 214.587H314.407C314.785 214.484 315.167 214.707 315.265 215.084C315.364 215.457 315.145 215.838 314.772 215.941L313.519 216.284C313.141 216.387 312.75 216.164 312.647 215.787C312.544 215.41 312.763 215.02 313.145 214.917H313.154L313.167 214.913H313.162Z" fill="white"/>
<path d="M317.253 213.743L318.467 213.348H318.48C318.841 213.228 319.223 213.421 319.343 213.781C319.459 214.137 319.266 214.518 318.914 214.638L317.682 215.054C317.321 215.174 316.931 214.981 316.806 214.621C316.686 214.261 316.879 213.871 317.24 213.747H317.244L317.257 213.743H317.253Z" fill="white"/>
<path d="M321.266 212.346L322.454 211.879H322.467C322.806 211.742 323.193 211.909 323.326 212.247C323.459 212.586 323.291 212.967 322.957 213.104L321.751 213.589C321.407 213.726 321.017 213.563 320.879 213.22C320.742 212.877 320.905 212.487 321.248 212.35H321.253L321.266 212.341V212.346Z" fill="white"/>
<path d="M325.188 210.709L326.347 210.173H326.356C326.678 210.019 327.055 210.16 327.206 210.482C327.352 210.799 327.214 211.176 326.901 211.326L325.729 211.887C325.407 212.042 325.017 211.904 324.862 211.583C324.708 211.262 324.845 210.872 325.167 210.717C325.167 210.717 325.167 210.717 325.171 210.717H325.184L325.188 210.709Z" fill="white"/>
<path d="M329.013 208.849L330.137 208.245H330.146C330.438 208.082 330.807 208.189 330.966 208.485C331.12 208.776 331.017 209.136 330.729 209.295L329.596 209.929C329.3 210.096 328.927 209.989 328.759 209.693C328.592 209.397 328.699 209.025 328.996 208.857C328.996 208.857 328.996 208.857 329 208.857L329.013 208.849Z" fill="white"/>
<path d="M332.708 206.753L333.79 206.076H333.798C334.064 205.905 334.416 205.982 334.579 206.248C334.742 206.509 334.669 206.856 334.408 207.023L333.317 207.73C333.051 207.906 332.691 207.829 332.515 207.563C332.339 207.298 332.416 206.938 332.682 206.762H332.687L332.699 206.749L332.708 206.753Z" fill="white"/>
<path d="M336.249 204.405L337.275 203.651L337.283 203.642C337.519 203.466 337.854 203.518 338.026 203.753C338.197 203.989 338.15 204.315 337.918 204.491L336.884 205.279C336.644 205.459 336.305 205.416 336.124 205.176C335.944 204.936 335.987 204.598 336.227 204.418C336.227 204.418 336.227 204.418 336.232 204.418L336.245 204.409L336.249 204.405Z" fill="white"/>
<path d="M339.601 201.795L340.562 200.959L340.571 200.951C340.777 200.771 341.09 200.792 341.27 200.998C341.446 201.204 341.429 201.512 341.227 201.692L340.262 202.562C340.056 202.751 339.734 202.734 339.545 202.524C339.356 202.314 339.373 201.997 339.584 201.808C339.584 201.808 339.584 201.808 339.588 201.808L339.601 201.799V201.795Z" fill="white"/>
<path d="M342.721 198.911L343.605 197.994L343.614 197.985C343.79 197.801 344.082 197.797 344.266 197.973C344.446 198.148 344.455 198.435 344.283 198.615L343.399 199.567C343.223 199.755 342.923 199.768 342.734 199.592C342.545 199.417 342.532 199.117 342.708 198.928L342.717 198.915L342.721 198.911Z" fill="white"/>
<path d="M345.558 195.757L346.022 195.174H346.026C346.172 194.981 346.442 194.951 346.631 195.101C346.816 195.247 346.846 195.513 346.704 195.697L346.241 196.297C346.095 196.486 345.82 196.524 345.631 196.374C345.442 196.228 345.404 195.954 345.554 195.766V195.757H345.558Z" fill="white"/>
<path d="M140.827 214.265L141.772 213.37C141.948 213.203 142.227 213.211 142.39 213.387C142.557 213.563 142.548 213.841 142.372 214.004L142.36 214.017L141.424 214.878L141.415 214.887C141.239 215.045 140.969 215.037 140.81 214.861C140.651 214.69 140.66 214.42 140.832 214.261L140.827 214.265Z" fill="white"/>
<path d="M144.076 211.399L145.106 210.606C145.312 210.447 145.609 210.486 145.763 210.692C145.922 210.897 145.883 211.193 145.677 211.347L145.664 211.356L144.643 212.114L144.63 212.123C144.428 212.273 144.137 212.234 143.986 212.029C143.836 211.827 143.875 211.544 144.076 211.39V211.399Z" fill="white"/>
<path d="M147.609 208.883L148.716 208.202C148.952 208.056 149.261 208.129 149.407 208.365C149.553 208.6 149.48 208.909 149.244 209.055L149.227 209.063L148.137 209.715L148.124 209.723C147.892 209.86 147.587 209.787 147.45 209.556C147.313 209.325 147.386 209.029 147.613 208.887L147.609 208.883Z" fill="white"/>
<path d="M151.377 206.732L152.544 206.158C152.806 206.029 153.128 206.136 153.257 206.398C153.386 206.659 153.278 206.98 153.017 207.109C153.017 207.109 153.017 207.109 153.012 207.109L152.995 207.117L151.845 207.662H151.832C151.57 207.79 151.261 207.679 151.137 207.422C151.012 207.165 151.124 206.856 151.377 206.732Z" fill="white"/>
<path d="M155.326 204.94L156.54 204.473C156.832 204.362 157.154 204.508 157.27 204.795C157.381 205.086 157.236 205.407 156.948 205.523C156.948 205.523 156.948 205.523 156.944 205.523H156.926L155.733 205.969H155.72C155.433 206.08 155.115 205.935 155.008 205.647C154.905 205.365 155.047 205.048 155.326 204.94Z" fill="white"/>
<path d="M159.416 203.501L160.665 203.132C160.978 203.038 161.309 203.218 161.403 203.535C161.497 203.848 161.317 204.178 161 204.272C161 204.272 161 204.272 160.995 204.272H160.978L159.751 204.619H159.738C159.429 204.709 159.103 204.529 159.017 204.216C158.931 203.908 159.107 203.591 159.416 203.501Z" fill="white"/>
<path d="M163.605 202.391L164.875 202.121C165.214 202.048 165.545 202.262 165.618 202.601C165.691 202.939 165.476 203.269 165.137 203.342C165.137 203.342 165.137 203.342 165.133 203.342H165.116L163.867 203.595H163.854C163.519 203.664 163.197 203.449 163.128 203.115C163.064 202.785 163.274 202.464 163.605 202.395V202.391Z" fill="white"/>
<path d="M167.867 201.589L169.154 201.409C169.511 201.358 169.841 201.606 169.888 201.962C169.94 202.318 169.691 202.648 169.335 202.695H169.33H169.317L168.056 202.858H168.043C167.691 202.905 167.365 202.656 167.317 202.305C167.27 201.954 167.519 201.632 167.867 201.581V201.589Z" fill="white"/>
<path d="M172.172 201.092L173.468 200.994C173.837 200.968 174.159 201.242 174.184 201.611C174.21 201.979 173.936 202.301 173.566 202.326H173.562H173.549L172.279 202.412H172.266C171.901 202.438 171.584 202.159 171.558 201.795C171.532 201.431 171.807 201.118 172.172 201.088V201.092Z" fill="white"/>
<path d="M176.498 200.861L177.798 200.839C178.176 200.835 178.489 201.135 178.494 201.517C178.498 201.894 178.197 202.206 177.815 202.211H177.811H177.798L176.519 202.219H176.506C176.129 202.219 175.824 201.919 175.82 201.542C175.82 201.169 176.116 200.861 176.489 200.857L176.498 200.861Z" fill="white"/>
<path d="M180.828 200.878L182.125 200.929C182.515 200.947 182.816 201.272 182.798 201.662C182.781 202.052 182.455 202.352 182.064 202.335H182.06H182.047L180.773 202.275H180.76C180.373 202.258 180.077 201.928 180.094 201.542C180.112 201.161 180.438 200.865 180.82 200.878H180.828Z" fill="white"/>
<path d="M185.15 201.135L186.442 201.255C186.837 201.294 187.129 201.645 187.095 202.039C187.056 202.433 186.704 202.725 186.309 202.691H186.305H186.292L185.022 202.562H185.009C184.614 202.519 184.326 202.172 184.369 201.778C184.408 201.388 184.756 201.101 185.15 201.139V201.135Z" fill="white"/>
<path d="M189.451 201.611L190.734 201.795C191.138 201.855 191.421 202.228 191.361 202.631C191.301 203.033 190.927 203.312 190.524 203.256H190.52H190.511L189.249 203.063H189.241C188.841 202.999 188.563 202.626 188.627 202.228C188.687 201.829 189.06 201.555 189.455 201.611H189.451Z" fill="white"/>
<path d="M193.726 202.301L195.001 202.549C195.413 202.631 195.679 203.025 195.597 203.436C195.516 203.848 195.121 204.113 194.709 204.032H194.704H194.696L193.447 203.779H193.434C193.026 203.693 192.764 203.299 192.846 202.892C192.928 202.489 193.322 202.228 193.726 202.305V202.301Z" fill="white"/>
<path d="M197.958 203.196L199.219 203.501C199.636 203.603 199.889 204.019 199.79 204.435C199.687 204.851 199.271 205.103 198.855 205.005H198.85H198.842L197.601 204.692H197.593C197.181 204.585 196.932 204.169 197.035 203.758C197.138 203.351 197.554 203.102 197.962 203.201L197.958 203.196Z" fill="white"/>
<path d="M202.142 204.268L203.387 204.619C203.808 204.739 204.052 205.172 203.936 205.592C203.816 206.012 203.383 206.256 202.962 206.14H202.958H202.949L201.722 205.785H201.713C201.297 205.66 201.056 205.228 201.177 204.812C201.297 204.396 201.73 204.156 202.147 204.276L202.142 204.268Z" fill="white"/>
<path d="M206.28 205.485L207.512 205.875C207.932 206.008 208.168 206.458 208.031 206.877C207.898 207.297 207.447 207.533 207.027 207.396H207.018L205.799 207.006H205.79C205.37 206.869 205.138 206.419 205.271 205.999C205.404 205.579 205.855 205.348 206.275 205.48L206.28 205.485Z" fill="white"/>
<path d="M210.379 206.826L211.602 207.25C212.022 207.396 212.246 207.855 212.1 208.275C211.954 208.695 211.494 208.917 211.074 208.772H211.07L209.859 208.347H209.855C209.434 208.197 209.215 207.739 209.361 207.323C209.507 206.903 209.967 206.68 210.387 206.83L210.379 206.826Z" fill="white"/>
<path d="M214.439 208.27L215.649 208.72C216.07 208.874 216.284 209.342 216.13 209.762C215.975 210.182 215.507 210.396 215.087 210.241L213.885 209.792H213.881C213.46 209.633 213.25 209.166 213.404 208.746C213.563 208.326 214.027 208.112 214.447 208.27H214.439Z" fill="white"/>
<path d="M218.469 209.787L219.671 210.254C220.091 210.417 220.302 210.893 220.134 211.313C219.971 211.733 219.495 211.943 219.074 211.776L217.881 211.309C217.46 211.142 217.254 210.67 217.417 210.25C217.58 209.83 218.053 209.624 218.473 209.787H218.469Z" fill="white"/>
<path d="M222.469 211.364L223.667 211.844C224.087 212.016 224.293 212.496 224.121 212.916C223.95 213.336 223.469 213.541 223.048 213.37L221.86 212.886C221.439 212.714 221.237 212.234 221.409 211.814C221.581 211.394 222.057 211.193 222.478 211.36L222.469 211.364Z" fill="white"/>
<path d="M226.452 212.98L227.645 213.468C228.07 213.644 228.272 214.128 228.096 214.548C227.92 214.973 227.435 215.174 227.014 214.998L225.825 214.505C225.4 214.33 225.203 213.85 225.375 213.426C225.551 213.001 226.031 212.8 226.456 212.976L226.452 212.98Z" fill="white"/>
<path d="M230.422 214.617L231.611 215.11C232.036 215.285 232.242 215.774 232.061 216.198C231.886 216.623 231.396 216.828 230.971 216.648L229.782 216.151C229.358 215.975 229.156 215.487 229.332 215.063C229.508 214.638 229.997 214.437 230.422 214.613V214.617Z" fill="white"/>
<path d="M234.388 216.254L235.577 216.742C236.006 216.918 236.212 217.411 236.036 217.839C235.86 218.268 235.366 218.474 234.937 218.298L233.744 217.805C233.315 217.629 233.113 217.137 233.289 216.708C233.465 216.28 233.959 216.078 234.384 216.254H234.388Z" fill="white"/>
<path d="M238.358 217.874L239.551 218.354C239.985 218.529 240.195 219.022 240.019 219.455C239.843 219.888 239.349 220.098 238.916 219.922L237.718 219.438C237.285 219.262 237.079 218.769 237.255 218.337C237.431 217.904 237.924 217.698 238.358 217.874Z" fill="white"/>
<path d="M242.341 219.455L243.538 219.922C243.976 220.094 244.195 220.587 244.023 221.028C243.852 221.465 243.358 221.684 242.92 221.512L241.718 221.041C241.281 220.869 241.066 220.377 241.238 219.939C241.409 219.502 241.903 219.288 242.341 219.459V219.455Z" fill="white"/>
<path d="M246.337 220.985L247.538 221.431H247.543C247.989 221.598 248.216 222.091 248.049 222.536C247.886 222.982 247.392 223.209 246.946 223.042L245.736 222.588C245.294 222.421 245.066 221.928 245.234 221.486C245.401 221.045 245.895 220.818 246.337 220.985Z" fill="white"/>
<path d="M250.354 222.438L251.564 222.858H251.569C252.019 223.016 252.26 223.509 252.105 223.959C251.95 224.409 251.457 224.649 251.006 224.491L249.783 224.062C249.332 223.903 249.096 223.415 249.251 222.965C249.41 222.515 249.899 222.279 250.35 222.434L250.354 222.438Z" fill="white"/>
<path d="M254.401 223.801L255.62 224.191H255.629C256.079 224.336 256.328 224.821 256.187 225.271C256.041 225.72 255.56 225.973 255.109 225.828L253.873 225.438C253.418 225.296 253.169 224.812 253.311 224.358C253.453 223.903 253.938 223.655 254.393 223.796H254.401V223.801Z" fill="white"/>
<path d="M258.479 225.056L259.71 225.407H259.719C260.174 225.54 260.436 226.012 260.307 226.462C260.178 226.916 259.71 227.177 259.255 227.049L258.006 226.697C257.552 226.569 257.285 226.097 257.414 225.643C257.543 225.189 258.015 224.923 258.47 225.052H258.479V225.056Z" fill="white"/>
<path d="M262.59 226.175L263.831 226.483H263.839C264.294 226.599 264.569 227.058 264.453 227.512C264.341 227.966 263.882 228.24 263.427 228.129L262.17 227.82C261.715 227.709 261.436 227.25 261.552 226.796C261.663 226.342 262.122 226.063 262.577 226.179H262.586L262.59 226.175Z" fill="white"/>
<path d="M266.741 227.165L267.99 227.435H267.998C268.453 227.533 268.741 227.979 268.642 228.433C268.543 228.887 268.101 229.174 267.646 229.076L266.38 228.806C265.925 228.712 265.633 228.262 265.732 227.807C265.826 227.353 266.277 227.062 266.732 227.16H266.741V227.165Z" fill="white"/>
<path d="M270.917 228.009L272.174 228.236H272.183C272.638 228.317 272.938 228.75 272.857 229.205C272.775 229.654 272.346 229.959 271.891 229.877L270.616 229.654C270.161 229.573 269.861 229.14 269.938 228.69C270.02 228.236 270.453 227.936 270.904 228.013H270.912L270.917 228.009Z" fill="white"/>
<path d="M275.123 228.707L276.389 228.887H276.397C276.848 228.952 277.161 229.372 277.097 229.822C277.033 230.272 276.616 230.584 276.166 230.52L274.882 230.34C274.427 230.276 274.114 229.86 274.179 229.406C274.243 228.952 274.659 228.639 275.114 228.703H275.123V228.707Z" fill="white"/>
<path d="M279.346 229.256L280.616 229.389H280.625C281.076 229.436 281.402 229.839 281.355 230.289C281.307 230.739 280.908 231.064 280.458 231.017L279.166 230.884C278.715 230.837 278.385 230.434 278.432 229.984C278.479 229.534 278.883 229.204 279.333 229.252H279.342L279.346 229.256Z" fill="white"/>
<path d="M283.591 229.646L284.866 229.731H284.874C285.321 229.761 285.66 230.147 285.63 230.597C285.6 231.043 285.213 231.381 284.767 231.351L283.471 231.27C283.02 231.24 282.681 230.854 282.711 230.404C282.741 229.954 283.127 229.616 283.578 229.646H283.587H283.591Z" fill="white"/>
<path d="M287.844 229.869L289.123 229.903H289.132C289.578 229.916 289.93 230.284 289.917 230.73C289.904 231.176 289.539 231.527 289.093 231.514L287.797 231.484C287.351 231.476 286.999 231.103 287.007 230.657C287.016 230.211 287.389 229.86 287.836 229.869H287.844Z" fill="white"/>
<path d="M292.102 229.92L293.381 229.899H293.389C293.831 229.89 294.196 230.241 294.201 230.683C294.205 231.124 293.857 231.488 293.415 231.493L292.119 231.518C291.677 231.527 291.312 231.176 291.303 230.734C291.295 230.293 291.647 229.929 292.089 229.92H292.098H292.102Z" fill="white"/>
<path d="M296.355 229.787L297.63 229.714H297.638C298.072 229.689 298.441 230.019 298.467 230.451C298.493 230.88 298.166 231.248 297.737 231.278L296.441 231.364C296.007 231.394 295.63 231.064 295.6 230.631C295.57 230.199 295.9 229.821 296.334 229.791H296.342H296.351L296.355 229.787Z" fill="white"/>
<path d="M300.6 229.474L301.87 229.342H301.883C302.304 229.299 302.677 229.599 302.724 230.019C302.767 230.434 302.467 230.807 302.051 230.854L300.759 231C300.338 231.047 299.956 230.747 299.905 230.323C299.857 229.903 300.158 229.522 300.583 229.47H300.591H300.604L300.6 229.474Z" fill="white"/>
<path d="M304.823 228.96L306.085 228.763H306.098C306.506 228.699 306.883 228.977 306.948 229.38C307.012 229.783 306.737 230.16 306.334 230.229L305.051 230.439C304.643 230.507 304.257 230.229 304.188 229.822C304.119 229.414 304.398 229.029 304.806 228.96H304.815H304.827H304.823Z" fill="white"/>
<path d="M309.016 228.236L310.265 227.974H310.278C310.669 227.889 311.051 228.142 311.132 228.532C311.214 228.922 310.965 229.299 310.579 229.384L309.308 229.659C308.913 229.744 308.527 229.496 308.441 229.102C308.355 228.707 308.604 228.322 308.999 228.236H309.008H309.021H309.016Z" fill="white"/>
<path d="M313.162 227.293L314.394 226.967H314.407C314.785 226.864 315.167 227.087 315.265 227.464C315.364 227.837 315.145 228.219 314.772 228.322L313.519 228.664C313.141 228.767 312.75 228.544 312.647 228.167C312.544 227.79 312.763 227.4 313.145 227.297H313.154L313.167 227.293H313.162Z" fill="white"/>
<path d="M317.253 226.127L318.467 225.733H318.48C318.841 225.613 319.223 225.806 319.343 226.166C319.459 226.522 319.266 226.903 318.914 227.023L317.682 227.439C317.321 227.559 316.931 227.366 316.806 227.006C316.686 226.646 316.879 226.256 317.24 226.132H317.244L317.257 226.127H317.253Z" fill="white"/>
<path d="M321.266 224.726L322.454 224.259H322.467C322.806 224.122 323.193 224.289 323.326 224.628C323.459 224.966 323.291 225.348 322.957 225.485L321.751 225.969C321.407 226.106 321.017 225.943 320.879 225.6C320.742 225.258 320.905 224.868 321.248 224.73H321.253L321.266 224.722V224.726Z" fill="white"/>
<path d="M325.188 223.089L326.347 222.554H326.356C326.678 222.399 327.055 222.541 327.206 222.862C327.352 223.179 327.214 223.556 326.901 223.706L325.729 224.268C325.407 224.422 325.017 224.285 324.862 223.963C324.708 223.642 324.845 223.252 325.167 223.098C325.167 223.098 325.167 223.098 325.171 223.098L325.184 223.089H325.188Z" fill="white"/>
<path d="M329.013 221.229L330.137 220.625H330.146C330.438 220.462 330.807 220.569 330.966 220.865C331.12 221.156 331.017 221.516 330.729 221.675L329.596 222.309C329.3 222.476 328.927 222.369 328.759 222.073C328.592 221.778 328.699 221.405 328.996 221.238C328.996 221.238 328.996 221.238 329 221.238L329.013 221.229Z" fill="white"/>
<path d="M332.708 219.134L333.79 218.457H333.798C334.064 218.285 334.416 218.362 334.579 218.628C334.742 218.889 334.669 219.237 334.408 219.404L333.317 220.111C333.051 220.287 332.691 220.209 332.515 219.944C332.339 219.678 332.416 219.318 332.682 219.142H332.687L332.699 219.129L332.708 219.134Z" fill="white"/>
<path d="M336.249 216.785L337.275 216.031L337.283 216.023C337.519 215.847 337.854 215.898 338.026 216.134C338.197 216.37 338.15 216.695 337.918 216.871L336.884 217.66C336.644 217.84 336.305 217.797 336.124 217.557C335.944 217.317 335.987 216.978 336.227 216.798H336.232L336.245 216.785H336.249Z" fill="white"/>
<path d="M339.601 214.176L340.562 213.34L340.571 213.331C340.777 213.151 341.09 213.173 341.27 213.378C341.446 213.584 341.429 213.893 341.227 214.073L340.262 214.943C340.056 215.131 339.734 215.114 339.545 214.904C339.356 214.694 339.373 214.377 339.584 214.188H339.588L339.601 214.176Z" fill="white"/>
<path d="M342.721 211.292L343.605 210.374L343.614 210.366C343.79 210.182 344.082 210.177 344.266 210.353C344.446 210.529 344.455 210.816 344.283 210.996L343.399 211.947C343.223 212.136 342.923 212.149 342.734 211.973C342.545 211.797 342.532 211.497 342.708 211.309L342.717 211.296L342.721 211.292Z" fill="white"/>
<path d="M345.558 208.137L346.022 207.555H346.026C346.172 207.362 346.442 207.332 346.631 207.482C346.816 207.627 346.846 207.893 346.704 208.077L346.241 208.677C346.095 208.866 345.82 208.904 345.631 208.754C345.442 208.609 345.404 208.335 345.554 208.146V208.137H345.558Z" fill="white"/>
<path fill-rule="evenodd" clip-rule="evenodd" d="M96.9068 69.8058H71.2193C71.2193 55.5079 82.7227 43.915 96.9068 43.915C111.091 43.915 122.594 55.5079 122.594 69.8058H96.9068Z" fill="#EBEBEB"/>
<path fill-rule="evenodd" clip-rule="evenodd" d="M15.1139 69.8059H0C0 61.3925 6.7663 54.5724 15.1139 54.5724C23.4615 54.5724 30.2278 61.3925 30.2278 69.8059H15.1139Z" fill="#EBEBEB"/>
<path fill-rule="evenodd" clip-rule="evenodd" d="M58.3044 69.8059H25.7624C25.7624 51.6911 40.3333 37 58.3044 37C76.2755 37 90.8465 51.6843 90.8465 69.8059H58.3044Z" fill="#EBEBEB"/>
</svg>
