<svg width="444" height="269" viewBox="0 0 444 269" fill="none" xmlns="http://www.w3.org/2000/svg">
<path fill-rule="evenodd" clip-rule="evenodd" d="M394.905 39.8522H364.446C364.446 22.8989 378.086 9.15292 394.905 9.15292C411.723 9.15292 425.363 22.8989 425.363 39.8522H394.905Z" fill="#EBEBEB"/>
<path fill-rule="evenodd" clip-rule="evenodd" d="M420.76 39.8521H397.52C397.52 26.918 407.925 16.4357 420.76 16.4357C433.595 16.4357 444 26.918 444 39.8521H420.76Z" fill="#EBEBEB"/>
<path fill-rule="evenodd" clip-rule="evenodd" d="M297.921 39.8524H280C280 29.8765 288.023 21.7897 297.921 21.7897C307.819 21.7897 315.842 29.8765 315.842 39.8524H297.921Z" fill="#EBEBEB"/>
<path fill-rule="evenodd" clip-rule="evenodd" d="M349.133 39.8522H310.547C310.547 18.3732 327.824 0.953613 349.133 0.953613C370.441 0.953613 387.719 18.3652 387.719 39.8522H349.133Z" fill="#EBEBEB"/>
<path d="M205.017 269C271.843 269 326.017 214.826 326.017 148C326.017 81.1735 271.843 27 205.017 27C138.19 27 84.0167 81.1735 84.0167 148C84.0167 214.826 138.19 269 205.017 269Z" fill="#5FC4E9"/>
<path d="M321.243 114.354L300.131 151.305L273.211 137.819L232.404 205.813L204.533 177.941L177.646 191.36L137.791 151.555L110.937 178.409L84.1336 152.356C84.0835 150.904 84.0167 149.469 84.0167 148C84.0167 214.825 138.191 269 205.017 269C271.842 269 326.017 214.825 326.017 148C326.017 136.317 324.331 125.035 321.243 114.354Z" fill="#5FC4E9"/>
<mask id="mask0_1_62" style="mask-type:luminance" maskUnits="userSpaceOnUse" x="84" y="27" width="243" height="242">
<path d="M205.017 269C271.843 269 326.017 214.826 326.017 148C326.017 81.1735 271.843 27 205.017 27C138.19 27 84.0167 81.1735 84.0167 148C84.0167 214.826 138.19 269 205.017 269Z" fill="white"/>
</mask>
<g mask="url(#mask0_1_62)">
<path d="M326.217 269.217H83.7996V26.7995H326.217V269.217ZM84.2169 268.783H325.8V27.2001H84.2169V268.783Z" fill="#5FC4E9"/>
<path d="M326.016 255.314H84.0163V255.731H326.016V255.314Z" fill="#5FC4E9"/>
<path d="M326.016 241.912H84.0163V242.33H326.016V241.912Z" fill="#5FC4E9"/>
<path d="M326.016 228.444H84.0163V228.861H326.016V228.444Z" fill="#5FC4E9"/>
<path d="M326.016 215.025H84.0163V215.443H326.016V215.025Z" fill="#5FC4E9"/>
<path d="M326.016 201.557H84.0163V201.974H326.016V201.557Z" fill="#5FC4E9"/>
<path d="M326.016 188.138H84.0163V188.556H326.016V188.138Z" fill="#5FC4E9"/>
<path d="M326.016 174.67H84.0163V175.087H326.016V174.67Z" fill="#5FC4E9"/>
<path d="M326.016 161.268H84.0163V161.685H326.016V161.268Z" fill="#5FC4E9"/>
<path d="M326.016 147.783H84.0163V148.2H326.016V147.783Z" fill="#5FC4E9"/>
<path d="M326.016 134.314H84.0163V134.731H326.016V134.314Z" fill="#5FC4E9"/>
<path d="M326.016 120.912H84.0163V121.33H326.016V120.912Z" fill="#5FC4E9"/>
<path d="M326.016 107.444H84.0163V107.861H326.016V107.444Z" fill="#5FC4E9"/>
<path d="M326.016 94.0255H84.0163V94.4427H326.016V94.0255Z" fill="#5FC4E9"/>
<path d="M326.016 80.5568H84.0163V80.974H326.016V80.5568Z" fill="#5FC4E9"/>
<path d="M326.016 67.1383H84.0163V67.5555H326.016V67.1383Z" fill="#5FC4E9"/>
<path d="M326.016 53.67H84.0163V54.0872H326.016V53.67Z" fill="#5FC4E9"/>
<path d="M326.016 40.2682H84.0163V40.6854H326.016V40.2682Z" fill="#5FC4E9"/>
<path d="M312.748 27H312.331V269H312.748V27Z" fill="#5FC4E9"/>
<path d="M299.346 27H298.929V269H299.346V27Z" fill="#5FC4E9"/>
<path d="M285.878 27H285.461V269H285.878V27Z" fill="#5FC4E9"/>
<path d="M272.46 27H272.042V269H272.46V27Z" fill="#5FC4E9"/>
<path d="M258.991 27H258.574V269H258.991V27Z" fill="#5FC4E9"/>
<path d="M245.572 27H245.155V269H245.572V27Z" fill="#5FC4E9"/>
<path d="M232.104 27H231.687V269H232.104V27Z" fill="#5FC4E9"/>
<path d="M218.702 27H218.285V269H218.702V27Z" fill="#5FC4E9"/>
<path d="M205.234 27H204.816V269H205.234V27Z" fill="#5FC4E9"/>
<path d="M178.346 27H177.929V269H178.346V27Z" fill="#5FC4E9"/>
<path d="M164.878 27H164.461V269H164.878V27Z" fill="#5FC4E9"/>
<path d="M151.46 27H151.042V269H151.46V27Z" fill="#5FC4E9"/>
<path d="M124.572 27H124.155V269H124.572V27Z" fill="#5FC4E9"/>
<path d="M111.104 27H110.687V269H111.104V27Z" fill="#5FC4E9"/>
<path d="M97.7022 27H97.285V269H97.7022V27Z" fill="#5FC4E9"/>
</g>
<path d="M321.243 114.354C320.609 112.167 319.925 110.014 319.174 107.878L298.128 144.712L271.291 131.26L231.386 197.735L205.501 171.849L178.614 185.268L137.757 144.478L110.854 171.382L84.0667 145.346C84.05 146.231 84 147.132 84 148.017C84 149.469 84.0667 150.921 84.1168 152.373L110.92 178.425L137.774 151.572L177.629 191.376L204.516 177.958L232.388 205.83L273.194 137.836L300.114 151.321L321.227 114.37L321.243 114.354Z" fill="white"/>
<path d="M353.121 86.7658L346.979 64.2514L344.575 64.9023L324.481 70.3932C323.146 70.7604 322.362 72.1289 322.729 73.4641C323.096 74.7993 324.464 75.5837 325.8 75.2165L340.069 71.3278L319.19 107.861C319.942 109.998 320.626 112.151 321.26 114.337L344.409 73.7979L348.297 88.0675C348.598 89.1858 349.616 89.9201 350.717 89.9201C350.934 89.9201 351.151 89.8867 351.385 89.8366C352.72 89.4695 353.504 88.1009 353.137 86.7658H353.121Z" fill="#5FC4E9"/>
<path d="M240.866 201.758C240.866 206.714 236.844 210.737 231.887 210.737C226.93 210.737 222.908 206.714 222.908 201.758C222.908 196.801 226.93 192.778 231.887 192.778C236.844 192.778 240.866 196.801 240.866 201.758Z" fill="#FF6D3B"/>
<path d="M236.56 201.758C236.56 204.328 234.474 206.414 231.904 206.414C229.334 206.414 227.247 204.328 227.247 201.758C227.247 199.187 229.334 197.101 231.904 197.101C234.474 197.101 236.56 199.187 236.56 201.758Z" fill="white"/>
<path d="M146.753 148C146.753 152.957 142.731 156.979 137.774 156.979C132.817 156.979 128.795 152.957 128.795 148C128.795 143.043 132.817 139.021 137.774 139.021C142.731 139.021 146.753 143.043 146.753 148Z" fill="#50667E"/>
<path d="M142.447 148C142.447 150.57 140.361 152.657 137.791 152.657C135.221 152.657 133.135 150.57 133.135 148C133.135 145.43 135.221 143.344 137.791 143.344C140.361 143.344 142.447 145.43 142.447 148Z" fill="white"/>
<path fill-rule="evenodd" clip-rule="evenodd" d="M96.9068 227.806H71.2193C71.2193 213.508 82.7227 201.915 96.9068 201.915C111.091 201.915 122.594 213.508 122.594 227.806H96.9068Z" fill="#EBEBEB"/>
<path fill-rule="evenodd" clip-rule="evenodd" d="M118.713 227.806H99.1126C99.1126 216.898 107.888 208.057 118.713 208.057C129.537 208.057 138.312 216.898 138.312 227.806H118.713Z" fill="#EBEBEB"/>
<path fill-rule="evenodd" clip-rule="evenodd" d="M15.1139 227.806H0C0 219.393 6.7663 212.572 15.1139 212.572C23.4615 212.572 30.2278 219.393 30.2278 227.806H15.1139Z" fill="#EBEBEB"/>
<path fill-rule="evenodd" clip-rule="evenodd" d="M58.3044 227.806H25.7624C25.7624 209.691 40.3333 195 58.3044 195C76.2755 195 90.8465 209.684 90.8465 227.806H58.3044Z" fill="#EBEBEB"/>
</svg>
