<svg width="226" height="199" viewBox="0 0 226 199" fill="none" xmlns="http://www.w3.org/2000/svg">
<path d="M113 197.885C175.408 197.885 226 192.96 226 186.885C226 180.81 175.408 175.885 113 175.885C50.5918 175.885 0 180.81 0 186.885C0 192.96 50.5918 197.885 113 197.885Z" fill="#D3D3D3" fill-opacity="0.33"/>
<path d="M163.332 177.69H191.758V107.535H163.332V177.69Z" fill="#5FC4E9"/>
<path d="M121.119 177.69H149.544L149.544 61.6086H121.119L121.119 177.69Z" fill="#5FC4E9"/>
<path d="M78.9036 177.691H107.329L107.329 68.0516H78.9036L78.9036 177.691Z" fill="#5FC4E9"/>
<path d="M36.69 177.691H65.1158L65.1158 32.0449H36.69L36.69 177.691Z" fill="#5FC4E9"/>
<path d="M28.2103 96.4015L15.9265 111.101L68.6224 142.613L97.308 111.487L182.529 158.199L190.434 141.901L94.9389 91.0757L67.0932 119.65L28.2103 96.4015Z" fill="#22252A"/>
<path d="M144.782 154.727L211.862 162.658L167.941 117.603L171.799 143.439L144.782 154.727Z" fill="#22252A"/>
<path d="M189.074 77.4418C185.548 69.3028 176.26 65.4763 168.329 68.8958C160.398 72.3152 156.826 81.6854 160.353 89.8244C163.878 97.9634 173.167 101.79 181.098 98.3704C189.029 94.951 192.601 85.5808 189.074 77.4418Z" fill="#FFB733"/>
<path d="M178.676 95.3393L177.471 92.5562C175.901 93.2 174.076 93.3991 172.838 93.1148L172.682 90.9905C173.935 91.2348 175.558 91.1571 177.061 90.5083C178.967 89.6866 179.767 88.0007 179.086 86.4313C178.43 84.9157 176.977 84.431 174.632 84.461C171.416 84.54 169.175 84.0014 168.137 81.6053C167.147 79.3181 167.979 76.8995 170.269 75.4215L169.064 72.6384L170.728 71.9207L171.886 74.5936C173.521 73.9548 174.813 73.921 175.794 74.0537L175.911 76.1617C175.204 76.0741 173.841 75.9426 172.122 76.6841C170.054 77.5759 169.826 79.1791 170.303 80.2801C170.923 81.713 172.228 82.0011 174.992 81.986C178.259 81.951 180.275 82.7814 181.337 85.2339C182.28 87.4108 181.686 90.0862 179.124 91.747L180.366 94.6129L178.675 95.3418L178.676 95.3393Z" fill="white"/>
<path d="M175.01 57.4926C174.847 57.4926 174.713 57.3599 174.713 57.197V38.0533C174.713 37.8905 174.845 37.7577 175.01 37.7577C175.174 37.7577 175.306 37.8905 175.306 38.0533V57.197C175.306 57.3599 175.173 57.4926 175.01 57.4926Z" fill="#A7C3F9"/>
<path d="M180.943 61.9216C180.78 61.9216 180.647 61.7888 180.647 61.626V42.4822C180.647 42.3194 180.78 42.1866 180.943 42.1866C181.106 42.1866 181.24 42.3194 181.24 42.4822V61.626C181.24 61.7888 181.106 61.9216 180.943 61.9216Z" fill="#A7C3F9"/>
<path d="M169.252 61.9216C169.089 61.9216 168.956 61.7888 168.956 61.626V42.4822C168.956 42.3194 169.089 42.1866 169.252 42.1866C169.415 42.1866 169.548 42.3194 169.548 42.4822V61.626C169.548 61.7888 169.415 61.9216 169.252 61.9216Z" fill="#A7C3F9"/>
<path d="M108.567 48.3266C109.962 39.5701 104.177 31.3735 95.6433 30.0207C87.1109 28.6668 79.0619 34.6689 77.667 43.4254C76.2722 52.1819 82.0575 60.3772 90.5911 61.7312C99.1248 63.0839 107.173 57.083 108.569 48.3266H108.567Z" fill="#FFB733"/>
<path d="M90.1731 57.8771L90.6501 54.8836C88.9791 54.588 87.3319 53.7801 86.4379 52.8782L87.4474 51.0019C88.3739 51.8787 89.7864 52.6803 91.4034 52.9359C93.4537 53.2615 95.0344 52.2658 95.3043 50.5761C95.5642 48.9453 94.5987 47.7591 92.6024 46.5304C89.8454 44.877 88.2421 43.225 88.6539 40.646C89.0456 38.186 91.0481 36.5878 93.7763 36.5652L94.2534 33.5717L96.045 33.856L95.5868 36.7306C97.3106 37.065 98.4192 37.7263 99.1762 38.3639L98.1417 40.2063C97.5918 39.7542 96.5108 38.915 94.6627 38.6219C92.438 38.2687 91.3834 39.4999 91.195 40.6861C90.949 42.2279 91.8956 43.1673 94.2384 44.6328C97.0143 46.35 98.271 48.1299 97.8504 50.7677C97.4776 53.11 95.5391 55.0514 92.4832 55.0827L91.9923 58.1652L90.1731 57.8771Z" fill="white"/>
<path d="M93.4122 19.735C93.249 19.735 93.1159 19.6022 93.1159 19.4394V0.295599C93.1159 0.132769 93.2478 0 93.4122 0C93.5767 0 93.7085 0.132769 93.7085 0.295599V19.4394C93.7085 19.6022 93.5754 19.735 93.4122 19.735Z" fill="#A7C3F9"/>
<path d="M99.3457 24.1651C99.1825 24.1651 99.0494 24.0324 99.0494 23.8695V4.72577C99.0494 4.56294 99.1825 4.43018 99.3457 4.43018C99.5089 4.43018 99.642 4.56294 99.642 4.72577V23.8695C99.642 24.0324 99.5089 24.1651 99.3457 24.1651Z" fill="#A7C3F9"/>
<path d="M87.6545 24.1651C87.4913 24.1651 87.3582 24.0324 87.3582 23.8695V4.72577C87.3582 4.56294 87.4913 4.43018 87.6545 4.43018C87.8177 4.43018 87.9508 4.56294 87.9508 4.72577V23.8695C87.9508 24.0324 87.8177 24.1651 87.6545 24.1651Z" fill="#A7C3F9"/>
<path d="M135.222 140.925C135.222 140.925 134.688 143.439 134.697 144.39C134.706 145.342 134.008 146.27 134.53 146.449C135.052 146.631 135.76 144.942 135.76 144.942C135.76 144.942 136.66 146.656 136.856 147.226C137.052 147.794 137.662 148.722 138.09 148.612C138.52 148.502 137.385 145.835 137.385 145.835C137.385 145.835 138.561 147.987 138.978 147.968C139.395 147.95 138.303 144.994 138.303 144.994C138.303 144.994 139.444 147.35 139.695 147.456C139.946 147.563 140.093 147.246 139.892 146.314C139.69 145.382 139.244 144.481 139.244 144.481C139.244 144.481 140.171 146.077 140.349 146.229C140.527 146.381 140.884 146.462 140.44 145.113C139.995 143.764 138.558 141.003 137.278 139.915L135.222 140.923V140.925Z" fill="#FFA089"/>
<path d="M127.294 105.594C126.347 105.105 125.288 104.617 124.827 103.656C124.121 102.188 125.151 100.308 124.417 98.8539C123.832 97.6966 122.372 97.287 121.512 96.315C120.721 95.4207 120.526 94.1607 119.984 93.0973C118.213 89.6265 113.883 89.5463 110.875 91.2836C110.421 91.5466 109.996 91.851 109.614 92.1904C108.339 93.3303 107.485 95.0024 107.564 96.7096C107.618 97.9033 108.13 99.2009 107.47 100.319C106.861 101.348 105.604 101.63 104.663 102.242C103.652 102.898 102.834 104.032 102.738 105.254C102.624 106.709 103.471 108.282 102.763 109.557C102.257 110.467 101.194 110.818 100.422 111.443C99.5567 112.143 98.9026 113.124 98.6778 114.22C98.2848 116.143 99.3671 118.308 101.289 118.917C102.253 119.221 103.298 119.122 104.291 118.93C106.193 118.561 108.03 117.861 109.694 116.87C111.326 115.898 112.839 114.63 114.684 114.174C116.284 113.778 117.961 114.04 119.61 114.075C121.234 114.11 122.89 113.923 124.463 114.33C125.164 114.512 125.833 114.809 126.54 114.968C127.247 115.128 128.028 115.137 128.653 114.769C129.277 114.402 129.662 113.575 129.352 112.92C129.212 112.623 128.954 112.396 128.794 112.11C128.07 110.817 129.615 109.295 129.401 107.831C129.248 106.777 128.242 106.082 127.294 105.593V105.594ZM107.774 104.44C107.142 105.278 106.142 105.818 105.636 106.737C105.346 107.263 105.243 107.89 105.351 108.48C105.057 107.891 104.762 107.297 104.6 106.66C104.438 106.022 104.418 105.331 104.672 104.723C105.037 103.844 105.896 103.284 106.727 102.817C107.337 102.475 107.78 101.901 108.344 101.572C108.793 102.382 108.285 103.761 107.773 104.44H107.774Z" fill="#0909AA"/>
<path d="M120.465 187.016C120.465 187.016 119.395 195.383 120.146 196.42C120.574 197.013 130.401 199.515 130.871 198.221C131.342 196.927 124.001 194.029 123.787 191.493C123.572 188.956 124.182 186.679 124.182 186.679L120.463 187.016H120.465Z" fill="#FFA089"/>
<path d="M119.906 193.107C124.645 196.425 126.473 195.785 127.156 195.036C129.102 196.358 131.12 197.522 130.866 198.22C130.396 199.514 120.569 197.011 120.141 196.419C119.867 196.041 119.835 194.679 119.907 193.107H119.906Z" fill="#080435"/>
<path d="M105.962 187.016C105.962 187.016 104.893 195.383 105.643 196.42C106.071 197.013 115.898 199.515 116.369 198.221C116.84 196.927 109.499 194.029 109.286 191.493C109.071 188.956 109.681 186.679 109.681 186.679L105.963 187.016H105.962Z" fill="#FFA089"/>
<path d="M105.404 193.107C110.143 196.425 111.971 195.785 112.653 195.036C114.599 196.358 116.616 197.522 116.362 198.22C115.891 199.514 106.064 197.011 105.636 196.419C105.362 196.041 105.331 194.679 105.402 193.107H105.404Z" fill="#080435"/>
<path d="M120.193 97.7779C120.193 97.7779 120.546 97.0728 120.92 97.2945C121.876 97.8631 121.045 98.8764 120.487 99.142L120.193 97.7779Z" fill="#E56D5E"/>
<path d="M113.721 90.5459C111.075 91.0494 109.193 93.4931 109.383 96.1748C109.446 97.0566 109.716 97.867 110.142 98.5684C111.106 100.328 111.898 101.744 112.788 102.737C113.691 103.743 114.206 105.034 114.181 106.383L114.156 107.746C117.446 108.908 118.61 107.195 118.61 107.195L118.226 104.103C121.529 103.29 120.315 97.1743 120.089 95.3506H120.084C120.078 95.283 120.073 95.2141 120.064 95.1452C119.685 92.0928 116.801 89.9597 113.722 90.5459H113.721Z" fill="#FFA089"/>
<path d="M114.011 95.9994C113.441 96.7422 112.965 97.5513 112.492 98.358C111.99 99.2122 111.474 100.117 111.461 101.107C110.516 100.559 109.84 99.6493 109.253 98.7287C108.98 98.3029 108.717 97.8595 108.585 97.3722C108.397 96.6808 108.482 95.9481 108.569 95.2367C108.68 94.3185 108.806 93.3616 109.328 92.5976C109.675 92.0915 110.172 91.707 110.693 91.3839C111.908 90.6273 113.322 90.1526 114.754 90.1739C116.186 90.1965 117.631 90.7451 118.613 91.7847C119.877 93.1249 120.239 95.0538 120.546 96.8675C120.267 96.1335 119.687 95.5611 119.124 95.0125C118.757 94.6555 118.382 94.2935 117.917 94.0768C117.126 93.7073 116.933 93.8326 115.538 93.1224C115.342 94.2885 114.724 95.0701 114.011 95.9982V95.9994Z" fill="#0909AA"/>
<path d="M114.992 98.9692C114.986 98.7112 114.77 98.5083 114.511 98.5145C114.252 98.5221 114.049 98.7362 114.055 98.9943C114.063 99.2523 114.277 99.4552 114.536 99.4489C114.795 99.4427 114.999 99.2272 114.992 98.9692Z" fill="#080435"/>
<path d="M118.963 101.43C118.963 101.43 118.276 100.893 118.053 101C117.829 101.107 117.75 101.414 117.75 101.414C117.75 101.414 117.559 101.156 117.272 101.202C116.984 101.25 116.362 102.337 116.362 102.337C116.362 102.337 117.235 102.583 118.053 102.216C118.87 101.849 118.963 101.429 118.963 101.429V101.43Z" fill="#FA5D63"/>
<path d="M113.171 107.821C113.171 107.821 112.761 105.738 114.149 105.725C114.149 105.725 116.114 106.897 118.412 105.599C118.412 105.599 119.424 105.583 119.326 107.366C119.326 107.366 124.984 109.086 126.87 110.481C128.756 111.875 130.609 121.511 133.731 127.285C136.853 133.059 138.959 137.763 137.854 140.383L135.133 141.374C135.133 141.374 132.496 140.78 129.244 134.098C125.992 127.414 126.123 127.78 126.123 127.78C126.123 127.78 126.562 131.891 125.196 134.033L109.881 134.422C109.881 134.422 107.93 133.449 106.711 126.198C106.711 126.198 103.16 124.61 103.793 117.234C104.338 110.881 108.547 109.184 113.174 107.822L113.171 107.821Z" fill="#FCFCFC"/>
<path d="M130.801 116.337L121.208 114.659C121.08 114.636 120.958 114.721 120.935 114.849L118.581 128.237C118.559 128.365 118.644 128.487 118.772 128.509L128.365 130.189C128.493 130.211 128.615 130.126 128.638 129.998L130.992 116.609C131.014 116.481 130.929 116.359 130.801 116.337Z" fill="#080435"/>
<path d="M124.043 114.672L123.892 115.535L127.959 116.246L128.111 115.383L124.043 114.672Z" fill="#4B49F2"/>
<path d="M126.758 115.153C126.824 114.782 126.575 114.429 126.203 114.364C125.833 114.299 125.478 114.547 125.412 114.918C125.348 115.289 125.596 115.642 125.967 115.707C126.339 115.772 126.692 115.524 126.758 115.153Z" fill="#4B49F2"/>
<path d="M117.303 100.477C117.842 100.327 117.974 99.8923 117.961 99.6519C117.959 99.6093 117.941 99.5717 117.911 99.5429C117.343 99.0043 117.284 98.1188 117.284 98.11C117.279 98.0198 117.201 97.9522 117.111 97.9572C117.022 97.9622 116.952 98.0386 116.957 98.1288C116.959 98.1688 117.018 99.0957 117.631 99.727C117.615 99.8598 117.518 100.162 116.992 100.2C116.9 100.208 116.834 100.286 116.841 100.376C116.847 100.465 116.927 100.534 117.017 100.526C117.122 100.519 117.218 100.501 117.303 100.477Z" fill="#E56D5E"/>
<path d="M125.194 134.033C125.194 134.033 128.202 136.304 128.722 147.593C129.242 158.882 125.283 189.583 125.283 189.583L118.732 189.891C118.732 189.891 119.749 148.76 118.708 148.631C117.667 148.502 110.644 189.635 110.644 189.635L104.662 189.246C104.662 189.246 104.237 148.422 109.881 134.422L125.196 134.033H125.194Z" fill="#100259"/>
<path d="M123.473 121.532C123.473 121.532 125.175 119.603 125.945 119.044C126.714 118.482 127.045 117.369 127.5 117.68C127.957 117.99 127.023 119.565 127.023 119.565C127.023 119.565 128.939 119.26 129.514 119.079C130.089 118.896 131.198 118.831 131.366 119.239C131.533 119.649 128.712 120.332 128.712 120.332C128.712 120.332 130.387 120.044 130.462 120.554C130.522 120.967 128.583 121.57 128.583 121.57C128.583 121.57 129.895 121.284 130.167 121.299C130.495 121.317 130.811 121.765 129.942 122.161C129.072 122.557 128.736 122.63 128.736 122.63C128.736 122.63 129.714 122.507 129.942 122.559C130.171 122.611 130.455 123.087 129.674 123.297C128.299 123.668 125.529 124.156 123.89 123.782L123.473 121.535V121.532Z" fill="#FFA089"/>
<path d="M106.709 126.198C106.709 126.198 116.099 131.888 124.787 123.898L123.976 120.991C123.976 120.991 112.416 122.353 110.368 116.272L106.709 126.198Z" fill="#FCFCFC"/>
<path d="M113.809 128.369C115.243 128.369 116.862 128.152 118.642 127.582C118.678 127.571 118.697 127.532 118.685 127.497C118.674 127.461 118.636 127.442 118.6 127.453C111.363 129.775 106.796 126.183 106.751 126.145C106.722 126.123 106.679 126.125 106.655 126.155C106.631 126.184 106.636 126.227 106.665 126.251C106.7 126.278 109.353 128.369 113.809 128.369Z" fill="#080435"/>
<path d="M119.33 121.149C119.603 121.149 119.765 121.14 119.775 121.14C119.813 121.138 119.842 121.105 119.839 121.069C119.837 121.033 119.805 121.006 119.768 121.006C119.687 121.013 111.853 121.412 110.709 116.258C110.7 116.222 110.664 116.198 110.628 116.207C110.591 116.215 110.567 116.25 110.576 116.287C111.584 120.825 117.625 121.149 119.328 121.149H119.33Z" fill="#080435"/>
<path d="M116.362 102.464C116.377 102.464 116.392 102.459 116.404 102.449C117.4 101.63 118.952 101.533 118.967 101.533C119.004 101.531 119.032 101.499 119.031 101.463C119.028 101.425 118.999 101.397 118.96 101.399C118.895 101.403 117.35 101.498 116.32 102.345C116.291 102.369 116.287 102.411 116.311 102.44C116.325 102.456 116.344 102.465 116.363 102.465L116.362 102.464Z" fill="#080435"/>
<path d="M119.001 98.0485C118.993 97.8106 118.792 97.6239 118.554 97.6314C118.315 97.639 118.128 97.8394 118.136 98.0773C118.143 98.3153 118.344 98.502 118.583 98.4944C118.821 98.4869 119.008 98.2865 119.001 98.0485Z" fill="#080435"/>
<path d="M113.591 97.9646C113.54 97.9759 113.485 97.9646 113.441 97.9308C113.363 97.8694 113.35 97.7567 113.41 97.6791C113.429 97.6553 113.873 97.1054 114.667 96.9714C114.765 96.9551 114.857 97.0202 114.874 97.1179C114.89 97.2156 114.817 97.3108 114.727 97.3246C114.065 97.4373 113.696 97.8957 113.692 97.9008C113.665 97.9346 113.628 97.9571 113.588 97.9659L113.591 97.9646Z" fill="#080435"/>
<path d="M117.543 96.4653C117.494 96.4478 117.454 96.409 117.436 96.3564C117.404 96.2624 117.453 96.1597 117.547 96.1271C117.574 96.1171 118.24 95.8892 118.988 96.2048C119.08 96.2436 119.122 96.3488 119.083 96.4403C119.045 96.5317 118.935 96.5743 118.847 96.5355C118.228 96.2737 117.671 96.4628 117.665 96.4653C117.623 96.4804 117.581 96.4779 117.542 96.4653H117.543Z" fill="#080435"/>
<path d="M114.973 100.48C114.215 100.655 113.455 100.183 113.278 99.4276C113.102 98.671 113.576 97.9133 114.334 97.7366C115.092 97.5613 115.852 98.0335 116.029 98.7888C116.205 99.5453 115.731 100.303 114.973 100.48ZM114.36 97.8469C113.663 98.0084 113.228 98.7049 113.39 99.4C113.552 100.095 114.251 100.53 114.948 100.368C115.645 100.207 116.08 99.5102 115.918 98.8151C115.756 98.1199 115.058 97.6853 114.362 97.8469H114.36Z" fill="#080435"/>
<path d="M119.008 99.5441C118.25 99.7194 117.49 99.2472 117.313 98.4907C117.136 97.7341 117.611 96.9764 118.369 96.7998C119.127 96.6244 119.887 97.0966 120.064 97.8519C120.24 98.6084 119.766 99.3662 119.008 99.5428V99.5441ZM118.395 96.9112C117.699 97.0728 117.263 97.7692 117.425 98.4644C117.587 99.1595 118.285 99.5942 118.982 99.4326C119.679 99.271 120.114 98.5746 119.952 97.8794C119.79 97.1843 119.092 96.7509 118.394 96.9125L118.395 96.9112Z" fill="#080435"/>
<path d="M116.013 98.8426L115.933 98.76C116.687 98.0485 117.39 98.4243 117.397 98.428L117.342 98.5282C117.316 98.5145 116.702 98.1901 116.013 98.8439V98.8426Z" fill="#080435"/>
<path d="M113.304 99.2918L111.08 99.6539L111.099 99.7664L113.323 99.4042L113.304 99.2918Z" fill="#080435"/>
<path d="M111.951 99.8572C111.843 99.6956 111.677 99.5829 111.49 99.5328C111.103 99.4301 110.436 99.3487 110.044 99.8485C109.471 100.581 111.002 102.149 112.196 101.129C112.196 101.129 112.522 100.711 111.951 99.856V99.8572Z" fill="#FFA089"/>
</svg>
