<svg width="440" height="332" viewBox="0 0 440 332" fill="none" xmlns="http://www.w3.org/2000/svg">
<path d="M215.111 235.545H246.979V275.38H215.111V235.545Z" fill="#46DAFF"/>
<path d="M257.222 211.644H290.229V275.38H257.222V211.644Z" fill="#46DAFF"/>
<path d="M300.472 183.19H332.34V275.38H300.472V183.19Z" fill="#46DAFF"/>
<path d="M342.584 154.622H375.59V275.266H342.584V154.622Z" fill="#46DAFF"/>
<path d="M385.834 133.111H417.702V275.38H385.834V133.111Z" fill="#46DAFF"/>
<path d="M339.085 117.853C348.433 117.853 356.333 130.192 360.236 148.609H357.899C354.183 131.735 347.055 120.05 339.085 120.05C327.376 120.05 317.491 145.243 317.491 175.041H315.294C315.294 142.976 325.74 117.853 339.062 117.853H339.085Z" fill="white"/>
<path d="M296.387 144.238C305.712 144.238 313.635 156.578 317.537 175.018H315.2C311.508 158.144 304.38 146.435 296.387 146.435C284.678 146.435 274.816 171.605 274.816 201.426H272.619C272.619 169.362 283.042 144.238 296.387 144.238Z" fill="white"/>
<path d="M230.295 217.926C232.188 190.746 241.77 170.67 253.712 170.67C263.037 170.67 270.983 183.01 274.886 201.426H272.549C268.81 184.553 261.705 172.867 253.735 172.867C243.359 172.867 234.431 192.662 232.538 217.926C232.328 220.544 232.211 223.184 232.188 225.895L231.066 227.812L229.991 225.942C229.991 223.208 230.108 220.52 230.318 217.926H230.295Z" fill="white"/>
<path d="M357.768 138.255C359.661 111.075 369.243 90.9998 381.185 90.9998C390.51 90.9998 398.456 103.34 402.359 121.756H400.022C396.283 104.882 389.178 93.1967 381.208 93.1967C370.832 93.1967 361.904 112.992 360.011 138.255C359.801 140.873 359.684 143.514 359.661 146.225L358.539 148.141L357.464 146.271C357.464 143.537 357.581 140.85 357.791 138.255H357.768Z" fill="white"/>
<path d="M394.939 117.98L403.094 125.964L405.945 114.901L394.939 117.98Z" fill="white"/>
<path d="M15.3546 286.145H428.946V290.539H15.3546V286.145Z" fill="white"/>
<path d="M428.946 15.5884H433.339V290.539H428.946V15.5884Z" fill="white"/>
<path d="M440 15.5885L431.143 0.233887L422.285 15.5885H440Z" fill="white"/>
<path d="M15.3545 279.819L-5.37893e-05 288.676L15.3545 297.534V279.819Z" fill="white"/>
<path fill-rule="evenodd" clip-rule="evenodd" d="M68.1952 286.939C69.9532 290.375 72.4225 293.483 75.5627 296.095C78.6504 298.772 82.1139 300.71 85.7875 301.897C92.4882 304.351 100.708 305.272 110.307 304.049C109.98 294.388 107.761 286.43 104.265 280.213C102.507 276.778 100.038 273.669 96.8974 271.057C93.8098 268.38 90.3463 266.442 86.6726 265.256C79.9719 262.801 71.7517 261.88 62.1533 263.104C62.4806 272.765 64.7034 280.722 68.1952 286.939Z" fill="#2BCE8F"/>
<path d="M133.949 212.696C140.028 212.696 144.962 217.625 144.962 223.697V272.284C144.962 278.356 140.028 283.285 133.949 283.285C127.871 283.285 122.936 278.356 122.936 272.284V223.697C122.936 217.625 127.871 212.696 133.949 212.696Z" fill="#2BCE8F"/>
<path fill-rule="evenodd" clip-rule="evenodd" d="M110.237 103C111.846 103 113.091 104.043 113.158 105.317L122.988 293.58C123.302 299.546 117.275 302.01 112.268 302C106.601 301.989 101.857 298.791 102.003 293.58L107.311 105.317C107.349 104.043 108.628 103 110.233 103H110.237Z" fill="#CCCCCC"/>
<path d="M101.634 96.9347C100.68 93.3215 100.09 88.4123 100.09 81.7954C100.09 64.7062 108.379 43.3658 108.735 42.4615C109.009 41.7913 109.62 41.3391 110.27 41.3391C110.921 41.3391 111.531 41.7913 111.798 42.4615C112.154 43.3698 120.447 64.7062 120.447 81.7954C120.447 88.485 119.845 93.4264 118.871 97.0518C117.812 101 116.033 103.693 113.997 105.134C114.498 105.659 114.874 106.305 115.084 107.024C117.399 105.655 120.928 105.296 125.345 106.495C128.954 107.476 133.505 109.422 139.243 112.728C154.059 121.275 168.414 139.111 169.021 139.874C169.465 140.447 169.55 141.202 169.227 141.763C168.891 142.345 168.204 142.627 167.489 142.526C166.523 142.381 143.879 138.889 129.063 130.342C123.264 126.999 119.279 124.004 116.624 121.351C113.588 118.315 112.146 115.292 112.028 112.728C111.592 112.865 111.123 112.942 110.638 112.942C110.222 112.942 109.822 112.885 109.438 112.785C109.304 115.336 107.862 118.34 104.847 121.351C102.192 124.004 98.2067 126.999 92.4073 130.342C77.5914 138.889 54.9472 142.381 53.9813 142.526C53.266 142.631 52.579 142.349 52.2435 141.763C51.9202 141.202 52.0051 140.447 52.4496 139.874C53.0558 139.111 67.411 121.275 82.2269 112.728C87.9657 109.418 92.5164 107.476 96.1254 106.495C100.438 105.324 103.909 105.639 106.225 106.931C106.399 106.382 106.669 105.877 107.021 105.441C104.758 104.076 102.765 101.238 101.63 96.9428L101.634 96.9347Z" fill="#999999"/>
<path fill-rule="evenodd" clip-rule="evenodd" d="M78.9736 245.429H68.4335C68.4335 239.563 73.1499 234.807 78.9736 234.807C84.7973 234.807 89.5136 239.563 89.5136 245.429H78.9736Z" fill="#EAE3EA"/>
<path fill-rule="evenodd" clip-rule="evenodd" d="M87.9173 245.429H79.8789C79.8789 240.956 83.4798 237.327 87.9173 237.327C92.3548 237.327 95.9557 240.956 95.9557 245.429H87.9173Z" fill="#EAE3EA"/>
<path fill-rule="evenodd" clip-rule="evenodd" d="M45.4175 245.429H39.218C39.218 241.977 41.9944 239.18 45.4175 239.18C48.8406 239.18 51.6171 241.977 51.6171 245.429H45.4175Z" fill="#EAE3EA"/>
<path fill-rule="evenodd" clip-rule="evenodd" d="M63.1352 245.429H49.7863C49.7863 237.997 55.7636 231.973 63.1352 231.973C70.5068 231.973 76.4881 237.997 76.4881 245.429H63.1352Z" fill="#EAE3EA"/>
<path fill-rule="evenodd" clip-rule="evenodd" d="M128.239 319.002C139.066 319.002 147.892 310.181 147.892 299.369C147.892 288.558 139.062 279.737 128.239 279.737C117.416 279.737 108.585 288.558 108.585 299.369C108.585 310.181 117.416 319.002 128.239 319.002Z" fill="#2B9B8F"/>
<path d="M165.08 288.195C164.625 288.195 164.171 288.121 163.726 287.907C162.476 287.314 161.842 285.959 162.154 284.632L170.334 259.669C171.129 257.052 170.003 256.05 167.967 255.809H161.833C160.782 255.809 159.797 255.289 159.238 254.371C158.718 253.526 158.671 252.422 159.163 251.503L173.345 219.07C173.865 218.105 174.888 217.484 176.005 217.484H199.474C200.572 217.484 201.538 218.078 202.106 218.996C202.636 219.915 202.636 221.056 202.077 221.938L188.814 240.061C187.337 242.446 187.933 243.606 190.49 243.615H199.474C200.648 243.615 201.727 244.311 202.219 245.351C202.712 246.418 202.513 247.624 201.727 248.515L167.323 287.211C166.774 287.87 165.941 288.204 165.08 288.204V288.195Z" fill="#FFCC00"/>
<path fill-rule="evenodd" clip-rule="evenodd" d="M144.756 205.34H137.219C137.219 201.146 140.593 197.746 144.756 197.746C148.919 197.746 152.293 201.146 152.293 205.34H144.756Z" fill="#EAE3EA"/>
<path fill-rule="evenodd" clip-rule="evenodd" d="M151.149 205.34H145.403C145.403 202.139 147.977 199.547 151.149 199.547C154.322 199.547 156.896 202.143 156.896 205.34H151.149Z" fill="#EAE3EA"/>
<path fill-rule="evenodd" clip-rule="evenodd" d="M133.428 205.34H123.882C123.882 200.027 128.158 195.716 133.428 195.716C138.698 195.716 142.974 200.023 142.974 205.34H133.428Z" fill="#EAE3EA"/>
</svg>
