<svg width="185" height="159" viewBox="0 0 185 159" fill="none" xmlns="http://www.w3.org/2000/svg">
<g clip-path="url(#clip0_100_4332)">
<g style="mix-blend-mode:screen">
<mask id="mask0_100_4332" style="mask-type:luminance" maskUnits="userSpaceOnUse" x="32" y="28" width="119" height="91">
<path d="M47.1854 111.329V117.073H32.9832V93.1546V77.0849H47.1854V111.329ZM50.2133 93.1546V117.073H64.4155V93.1546V118.228V64.2178H50.2133V93.1546ZM81.643 60.4311H67.4408V93.1546V117.073H81.643V75.732V60.4311ZM98.8746 49.3006H84.6723V93.156V117.074H98.8746V82.6323V49.3019V49.3006ZM116.105 55.9552H101.903V93.1546V117.071H116.105V70.5564V55.9552ZM133.332 43.5634H119.13V93.1546V117.073H133.332V117.798V43.5634ZM150.562 28.3076H136.36V93.156V117.074H150.562V80.9075V28.3076Z" fill="white"/>
</mask>
<g mask="url(#mask0_100_4332)">
<path d="M162.392 27.981H13.5972V28.6329H162.392V27.981Z" fill="#A6A8AB"/>
<path d="M162.392 30.3562H13.5972V31.0081H162.392V30.3562Z" fill="#A6A8AB"/>
<path d="M162.392 32.7317H13.5972V33.3836H162.392V32.7317Z" fill="#A6A8AB"/>
<path d="M162.392 35.1069H13.5972V35.7589H162.392V35.1069Z" fill="#A6A8AB"/>
<path d="M162.392 37.4822H13.5972V38.1341H162.392V37.4822Z" fill="#A6A8AB"/>
<path d="M162.392 39.8577H13.5972V40.5096H162.392V39.8577Z" fill="#A6A8AB"/>
<path d="M162.392 42.2329H13.5972V42.8848H162.392V42.2329Z" fill="#A6A8AB"/>
<path d="M162.392 44.6069H13.5972V45.2589H162.392V44.6069Z" fill="#A6A8AB"/>
<path d="M162.392 46.9824H13.5972V47.6343H162.392V46.9824Z" fill="#A6A8AB"/>
<path d="M162.392 49.3577H13.5972V50.0096H162.392V49.3577Z" fill="#A6A8AB"/>
<path d="M162.392 51.7329H13.5972V52.3848H162.392V51.7329Z" fill="#A6A8AB"/>
<path d="M162.392 54.1084H13.5972V54.7603H162.392V54.1084Z" fill="#A6A8AB"/>
<path d="M162.392 56.4836H13.5972V57.1356H162.392V56.4836Z" fill="#A6A8AB"/>
<path d="M162.392 58.8589H13.5972V59.5108H162.392V58.8589Z" fill="#A6A8AB"/>
<path d="M162.392 61.2344H13.5972V61.8863H162.392V61.2344Z" fill="#A6A8AB"/>
<path d="M162.392 63.6096H13.5972V64.2615H162.392V63.6096Z" fill="#A6A8AB"/>
<path d="M162.392 65.9849H13.5972V66.6368H162.392V65.9849Z" fill="#A6A8AB"/>
<path d="M162.392 68.3604H13.5972V69.0123H162.392V68.3604Z" fill="#A6A8AB"/>
<path d="M162.392 70.7356H13.5972V71.3875H162.392V70.7356Z" fill="#A6A8AB"/>
<path d="M162.392 73.1111H13.5972V73.763H162.392V73.1111Z" fill="#A6A8AB"/>
<path d="M162.392 75.4849H13.5972V76.1368H162.392V75.4849Z" fill="#A6A8AB"/>
<path d="M162.392 77.8604H13.5972V78.5123H162.392V77.8604Z" fill="#A6A8AB"/>
<path d="M162.392 80.2356H13.5972V80.8875H162.392V80.2356Z" fill="#A6A8AB"/>
<path d="M162.392 82.6111H13.5972V83.263H162.392V82.6111Z" fill="#A6A8AB"/>
<path d="M162.392 84.9863H13.5972V85.6382H162.392V84.9863Z" fill="#A6A8AB"/>
<path d="M162.392 87.3616H13.5972V88.0135H162.392V87.3616Z" fill="#A6A8AB"/>
<path d="M162.392 89.7371H13.5972V90.389H162.392V89.7371Z" fill="#A6A8AB"/>
<path d="M162.392 92.1123H13.5972V92.7642H162.392V92.1123Z" fill="#A6A8AB"/>
<path d="M162.392 94.4875H13.5972V95.1395H162.392V94.4875Z" fill="#A6A8AB"/>
<path d="M162.392 96.863H13.5972V97.515H162.392V96.863Z" fill="#A6A8AB"/>
<path d="M162.392 99.2383H13.5972V99.8902H162.392V99.2383Z" fill="#A6A8AB"/>
<path d="M162.392 101.614H13.5972V102.266H162.392V101.614Z" fill="#A6A8AB"/>
<path d="M162.392 103.989H13.5972V104.641H162.392V103.989Z" fill="#A6A8AB"/>
<path d="M162.392 106.363H13.5972V107.015H162.392V106.363Z" fill="#A6A8AB"/>
<path d="M162.392 108.738H13.5972V109.39H162.392V108.738Z" fill="#A6A8AB"/>
<path d="M162.392 111.114H13.5972V111.766H162.392V111.114Z" fill="#A6A8AB"/>
<path d="M162.392 113.489H13.5972V114.141H162.392V113.489Z" fill="#A6A8AB"/>
<path d="M162.392 115.864H13.5972V116.516H162.392V115.864Z" fill="#A6A8AB"/>
</g>
<path d="M151.039 0V4.83963H157.565L105.544 33.819L89.9883 24.1702L13.5063 63.1369L15.5499 67.4826L89.7706 29.6684L105.419 39.3769L160.163 8.87995L157.214 14.58L161.307 16.8743L170.039 0H151.039Z" fill="url(#paint0_linear_100_4332)"/>
</g>
<g style="mix-blend-mode:multiply">
<path d="M92.4994 159C143.585 159 184.999 154.405 184.999 148.737C184.999 143.068 143.585 138.473 92.4994 138.473C41.4134 138.473 0 143.068 0 148.737C0 154.405 41.4134 159 92.4994 159Z" fill="#E6E7E8"/>
</g>
<path d="M105.291 62.0892C105.541 61.7413 119.118 39.163 119.118 39.163C119.645 37.3387 117.667 35.7109 115.409 36.0707C110.519 36.8488 102.68 38.3106 99.6518 37.8525C98.7395 37.7144 98.5926 37.3652 97.082 36.9921C95.4458 36.5885 94.1488 36.2685 92.8092 36.6244C91.0461 37.0931 89.6329 38.6186 89.6329 38.6186C86.7786 41.2223 84.5881 41.622 83.1749 41.5569C78.6844 41.3498 70.1655 36.1344 65.6135 35.9007C65.0833 35.8729 64.4301 35.9153 63.8371 36.2207C62.3572 36.9829 62.2236 38.8895 62.5241 39.965L73.6596 61.9378C73.7024 62.0892 73.7678 62.2312 73.8292 62.3746C59.0166 76.4899 38.9094 103.547 38.9094 119.458C38.9094 133.921 47.8264 151.083 89.299 151.083C130.772 151.083 139.689 133.696 139.689 119.458C139.689 104.172 119.883 76.231 105.291 62.0878V62.0892Z" fill="#2E495A"/>
<path d="M64.9257 35.9194C64.6385 35.9486 64.3447 36.015 64.0548 36.1332C64.33 36.0841 64.6211 36.0124 64.9257 35.9194Z" fill="#383D49"/>
<g style="mix-blend-mode:multiply">
<path d="M105.291 62.0892C105.541 61.7414 119.118 39.1631 119.118 39.1631C119.646 37.3388 117.667 35.711 115.409 36.0708C110.729 36.8156 102.927 38.1673 100.041 37.8818C97.3238 45.0145 92.1387 58.5933 91.9357 58.8748C108.021 74.4651 129.854 105.266 129.854 122.117C129.854 130.878 126.783 140.718 116.123 147.706C134.902 141.957 139.687 129.871 139.687 119.458C139.687 104.172 119.882 76.231 105.29 62.0892H105.291Z" fill="#CBCBCA"/>
</g>
<path d="M105.937 62.7197C105.722 62.51 105.505 62.2949 105.291 62.0877C105.332 62.0306 105.62 61.6721 106.386 60.2939L72.8568 60.351L73.6609 61.9364C73.7036 62.0877 73.7691 62.2298 73.8305 62.3732C73.7116 62.4861 73.5901 62.6042 73.4712 62.7184H105.937V62.7197Z" fill="#F8DC76"/>
<path d="M110.558 67.3602C109.757 66.5331 108.961 65.7231 108.177 64.9358H71.1792C70.3725 65.7245 69.5551 66.5344 68.731 67.3602H110.558Z" fill="#F8DC76"/>
<path d="M73.6956 62.0281C73.7357 62.1449 73.7811 62.2604 73.8305 62.3746C73.7116 62.4875 73.5901 62.6056 73.4712 62.7198H105.937C105.722 62.51 105.505 62.295 105.291 62.0878C105.295 62.0825 105.311 62.0453 105.319 62.0281H73.6956Z" fill="#FAAA1E"/>
<path d="M109.878 66.6685H69.4282C69.1944 66.9008 68.9647 67.1252 68.7296 67.3602H110.556C110.328 67.1239 110.105 66.9021 109.878 66.6685Z" fill="#FAAA1E"/>
<path d="M92.4258 105.072C92.4004 105.06 92.375 105.035 92.363 105.01C92.009 104.796 91.5295 104.483 90.9231 104.068C87.1846 101.62 85.3267 99.5859 85.3267 97.9528C85.3267 96.9729 85.6552 96.1949 86.3124 95.5921C86.9562 95.0026 87.8284 94.7012 88.9276 94.7012C90.4303 94.7012 91.5295 95.1287 92.2241 95.9824C92.932 96.8495 93.2726 98.1931 93.2726 100.039V100.754H101.003V99.9763C101.003 96.0462 100.043 93.1079 98.1237 91.1614C96.8629 89.8748 95.1786 89.0197 93.0896 88.5776V83.5388H85.5097V88.5776C83.426 88.9852 81.723 89.7434 80.3994 90.86C78.3157 92.6179 77.2792 95.1672 77.2792 98.5078C77.2792 101.007 77.8856 103.142 79.1238 104.912C80.3486 106.695 83.2671 109.081 87.8404 112.069C88.0808 112.233 88.396 112.433 88.7874 112.697C91.7432 114.581 93.2085 116.264 93.2085 117.734C93.2085 118.863 92.8545 119.756 92.1479 120.421C91.44 121.086 90.481 121.413 89.2803 121.413C87.6881 121.413 86.5769 120.948 85.9331 120.032C85.2893 119.102 84.9607 117.432 84.9607 115.009V114.356H77.0776C77.0776 114.531 77.0655 114.77 77.0401 115.097C77.0281 115.423 77.0148 115.662 77.0148 115.812C77.0148 119.956 78.0005 123.007 79.9706 124.954C81.3063 126.272 83.1455 127.131 85.4656 127.559V132.514H93.0455V127.535C95.1986 127.121 96.9751 126.333 98.3642 125.156C100.512 123.335 101.586 120.748 101.586 117.408C101.586 113.227 98.5418 109.12 92.4271 105.077L92.4258 105.072Z" fill="white"/>
<mask id="mask1_100_4332" style="mask-type:luminance" maskUnits="userSpaceOnUse" x="38" y="35" width="102" height="117">
<path d="M134.291 136.221C134.516 135.929 134.735 135.636 134.943 135.338C134.952 135.325 134.96 135.313 134.97 135.3C135.393 134.693 135.786 134.079 136.144 133.458C136.154 133.441 136.165 133.424 136.174 133.406C136.329 133.137 136.476 132.865 136.619 132.592C136.677 132.484 136.733 132.375 136.788 132.266C136.92 132.006 137.049 131.744 137.172 131.482C137.212 131.396 137.248 131.31 137.287 131.223C137.495 130.759 137.689 130.293 137.868 129.824C137.931 129.661 137.994 129.497 138.052 129.334C138.131 129.115 138.205 128.896 138.277 128.677C138.341 128.482 138.401 128.285 138.461 128.09C138.521 127.892 138.583 127.696 138.637 127.499C138.738 127.137 138.831 126.774 138.915 126.412C138.954 126.247 138.986 126.084 139.022 125.919C139.077 125.667 139.128 125.416 139.174 125.164C139.205 124.999 139.234 124.834 139.263 124.67C139.312 124.375 139.356 124.08 139.397 123.785C139.412 123.678 139.429 123.57 139.443 123.463C139.494 123.067 139.534 122.671 139.568 122.277C139.579 122.156 139.587 122.037 139.595 121.917C139.618 121.616 139.637 121.316 139.65 121.017C139.655 120.896 139.662 120.775 139.666 120.655C139.681 120.254 139.69 119.855 139.69 119.46C139.69 105.895 124.096 82.3718 110.385 67.3617H110.558C110.329 67.1253 110.106 66.9036 109.879 66.6699C109.309 66.0857 108.738 65.4988 108.177 64.9359H108.12C107.38 64.1644 106.651 63.4302 105.931 62.7199H105.937C105.722 62.5101 105.505 62.295 105.291 62.0879C105.332 62.0294 105.62 61.6709 106.386 60.2954C109.655 54.8994 119.118 39.163 119.118 39.163C119.645 37.3387 117.667 35.7109 115.409 36.0707C110.729 36.8156 102.927 38.1672 100.04 37.8818C100.04 37.8844 100.038 37.8884 100.036 37.891C99.9056 37.8791 99.768 37.8685 99.6518 37.8512C98.7395 37.7131 98.5926 37.3639 97.082 36.9908C95.4458 36.5872 94.1488 36.2672 92.8092 36.6231C91.0461 37.0917 89.6329 38.6173 89.6329 38.6173C86.7786 41.221 84.5881 41.6207 83.1749 41.5556C78.6844 41.3485 70.1655 36.1331 65.6135 35.8994C65.3998 35.8888 65.1647 35.8954 64.9243 35.9193C64.7814 35.934 64.6371 35.9592 64.4902 35.9924C64.2712 36.0428 64.0508 36.1105 63.8371 36.2194C62.3572 36.9815 62.2236 38.8882 62.5241 39.9637L73.6596 61.9365C73.7024 62.0879 73.7678 62.2299 73.8292 62.3733C73.7104 62.4862 73.5888 62.6043 73.47 62.7185H73.474C72.7367 63.4275 71.9874 64.1658 71.2287 64.9345H71.1779C70.3712 65.7232 69.5538 66.5331 68.7297 67.359H68.8926C54.9201 82.1926 38.9094 105.258 38.9094 119.457C38.9094 133.656 47.8264 151.083 89.299 151.083C114.598 151.083 127.769 144.61 134.204 136.331C134.234 136.294 134.262 136.257 134.291 136.22V136.221Z" fill="white"/>
</mask>
<g mask="url(#mask1_100_4332)">
<g style="mix-blend-mode:multiply">
<path d="M152.177 117.558V117.531C152.177 115.098 146.681 113.826 141.251 113.826C138.215 113.826 135.161 114.224 133.056 115C133.056 115 128.502 117.026 128.502 119.526V121.293L127.045 121.805C126.192 121.56 125.293 121.421 124.36 121.421C120.249 121.421 116.735 123.974 115.314 127.566C113.639 127.26 111.741 127.102 109.846 127.102C104.416 127.102 98.9198 128.374 98.9198 130.807V139.733C94.2263 140.009 90.0135 141.249 90.0135 143.379V149.602C90.0135 149.641 90.0309 149.675 90.0336 149.712C90.0443 149.831 90.0616 149.947 90.0977 150.06C90.1298 150.168 90.1818 150.273 90.2379 150.376C90.2553 150.407 90.274 150.439 90.2927 150.469C90.5625 150.91 91.0193 151.318 91.7112 151.679C93.6653 152.695 152.176 151.095 152.176 148.662V145.55C152.176 145.55 152.176 145.549 152.176 145.547V139.324C152.176 139.324 152.176 139.323 152.176 139.322V136.209C152.176 136.209 152.176 136.208 152.176 136.207V129.983C152.176 129.983 152.176 129.982 152.176 129.981V126.87C152.176 126.87 152.176 126.869 152.176 126.867V117.558H152.177Z" fill="#CBCBCA"/>
</g>
<g style="mix-blend-mode:multiply">
<path d="M66.1985 100.786H32.3032C30.528 100.786 29.0748 102.181 29.0748 103.884V148.982C29.0748 150.876 30.6897 152.425 32.6611 152.425H65.8392C67.812 152.425 69.4255 150.876 69.4255 148.982V103.884C69.4255 102.181 67.9723 100.786 66.1972 100.786H66.1985Z" fill="#CBCBCA"/>
</g>
</g>
<path d="M29.075 147.839C29.075 149.679 30.5896 151.184 32.4395 151.184H63.5634C65.4146 151.184 66.9279 149.678 66.9279 147.839V115.122H29.075V147.839Z" fill="#2E495A"/>
<path d="M63.8999 101.011H32.1029C30.4373 101.011 29.075 102.365 29.075 104.021V115.121H66.9292V104.021C66.9292 102.365 65.5669 101.011 63.9013 101.011H63.8999Z" fill="#3E5965"/>
<path d="M63.0171 104.147H32.9872C32.8994 104.147 32.8282 104.218 32.8282 104.305V111.828C32.8282 111.915 32.8994 111.986 32.9872 111.986H63.0171C63.1049 111.986 63.1761 111.915 63.1761 111.828V104.305C63.1761 104.218 63.1049 104.147 63.0171 104.147Z" fill="white"/>
<path d="M39.369 118.298H32.9538C32.8845 118.298 32.8282 118.354 32.8282 118.423V124.342C32.8282 124.411 32.8845 124.467 32.9538 124.467H39.369C39.4384 124.467 39.4946 124.411 39.4946 124.342V118.423C39.4946 118.354 39.4384 118.298 39.369 118.298Z" fill="#5E7680"/>
<path d="M39.369 126.145H32.9538C32.8845 126.145 32.8282 126.201 32.8282 126.27V132.189C32.8282 132.258 32.8845 132.313 32.9538 132.313H39.369C39.4384 132.313 39.4946 132.258 39.4946 132.189V126.27C39.4946 126.201 39.4384 126.145 39.369 126.145Z" fill="#5E7680"/>
<path d="M39.369 133.992H32.9538C32.8845 133.992 32.8282 134.048 32.8282 134.117V140.036C32.8282 140.105 32.8845 140.16 32.9538 140.16H39.369C39.4384 140.16 39.4946 140.105 39.4946 140.036V134.117C39.4946 134.048 39.4384 133.992 39.369 133.992Z" fill="#5E7680"/>
<path d="M47.2628 118.298H40.8476C40.7783 118.298 40.722 118.354 40.722 118.423V124.342C40.722 124.411 40.7783 124.467 40.8476 124.467H47.2628C47.3322 124.467 47.3884 124.411 47.3884 124.342V118.423C47.3884 118.354 47.3322 118.298 47.2628 118.298Z" fill="#5E7680"/>
<path d="M47.2628 126.145H40.8476C40.7783 126.145 40.722 126.201 40.722 126.27V132.189C40.722 132.258 40.7783 132.313 40.8476 132.313H47.2628C47.3322 132.313 47.3884 132.258 47.3884 132.189V126.27C47.3884 126.201 47.3322 126.145 47.2628 126.145Z" fill="#5E7680"/>
<path d="M47.2628 133.992H40.8476C40.7783 133.992 40.722 134.048 40.722 134.117V140.036C40.722 140.105 40.7783 140.16 40.8476 140.16H47.2628C47.3322 140.16 47.3884 140.105 47.3884 140.036V134.117C47.3884 134.048 47.3322 133.992 47.2628 133.992Z" fill="#5E7680"/>
<path d="M55.1566 118.298H48.7414C48.6721 118.298 48.6158 118.354 48.6158 118.423V124.342C48.6158 124.411 48.6721 124.467 48.7414 124.467H55.1566C55.226 124.467 55.2822 124.411 55.2822 124.342V118.423C55.2822 118.354 55.226 118.298 55.1566 118.298Z" fill="#5E7680"/>
<path d="M55.1566 126.145H48.7414C48.6721 126.145 48.6158 126.201 48.6158 126.27V132.189C48.6158 132.258 48.6721 132.313 48.7414 132.313H55.1566C55.226 132.313 55.2822 132.258 55.2822 132.189V126.27C55.2822 126.201 55.226 126.145 55.1566 126.145Z" fill="#5E7680"/>
<path d="M55.1566 133.992H48.7414C48.6721 133.992 48.6158 134.048 48.6158 134.117V140.036C48.6158 140.105 48.6721 140.16 48.7414 140.16H55.1566C55.226 140.16 55.2822 140.105 55.2822 140.036V134.117C55.2822 134.048 55.226 133.992 55.1566 133.992Z" fill="#5E7680"/>
<path d="M39.369 141.839H32.9538C32.8845 141.839 32.8282 141.895 32.8282 141.964V147.883C32.8282 147.952 32.8845 148.008 32.9538 148.008H39.369C39.4384 148.008 39.4946 147.952 39.4946 147.883V141.964C39.4946 141.895 39.4384 141.839 39.369 141.839Z" fill="#5E7680"/>
<path d="M47.2628 141.839H40.8476C40.7783 141.839 40.722 141.895 40.722 141.964V147.883C40.722 147.952 40.7783 148.008 40.8476 148.008H47.2628C47.3322 148.008 47.3884 147.952 47.3884 147.883V141.964C47.3884 141.895 47.3322 141.839 47.2628 141.839Z" fill="#5E7680"/>
<path d="M55.1566 141.839H48.7414C48.6721 141.839 48.6158 141.895 48.6158 141.964V147.883C48.6158 147.952 48.6721 148.008 48.7414 148.008H55.1566C55.226 148.008 55.2822 147.952 55.2822 147.883V141.964C55.2822 141.895 55.226 141.839 55.1566 141.839Z" fill="#5E7680"/>
<path d="M63.0506 126.145H56.6353C56.566 126.145 56.5098 126.201 56.5098 126.27V132.189C56.5098 132.258 56.566 132.313 56.6353 132.313H63.0506C63.1199 132.313 63.1761 132.258 63.1761 132.189V126.27C63.1761 126.201 63.1199 126.145 63.0506 126.145Z" fill="#5E7680"/>
<path d="M63.0506 133.992H56.6353C56.566 133.992 56.5098 134.048 56.5098 134.117V140.036C56.5098 140.105 56.566 140.16 56.6353 140.16H63.0506C63.1199 140.16 63.1761 140.105 63.1761 140.036V134.117C63.1761 134.048 63.1199 133.992 63.0506 133.992Z" fill="#5E7680"/>
<path d="M63.0506 141.839H56.6353C56.566 141.839 56.5098 141.895 56.5098 141.964V147.883C56.5098 147.952 56.566 148.008 56.6353 148.008H63.0506C63.1199 148.008 63.1761 147.952 63.1761 147.883V141.964C63.1761 141.895 63.1199 141.839 63.0506 141.839Z" fill="#5E7680"/>
<path d="M63.0506 118.298H56.6353C56.566 118.298 56.5098 118.354 56.5098 118.423V124.342C56.5098 124.411 56.566 124.467 56.6353 124.467H63.0506C63.1199 124.467 63.1761 124.411 63.1761 124.342V118.423C63.1761 118.354 63.1199 118.298 63.0506 118.298Z" fill="#BC202E"/>
<path d="M36.0632 135.774H36.0525L35.5129 136.063L35.4314 135.745L36.1099 135.384H36.4679V138.471H36.0618V135.773L36.0632 135.774Z" fill="#F1F1F1"/>
<path d="M43.0461 138.471V138.214L43.3761 137.896C44.1681 137.145 44.5274 136.747 44.5314 136.281C44.5314 135.968 44.3791 135.678 43.9157 135.678C43.6338 135.678 43.3988 135.82 43.2558 135.94L43.1223 135.645C43.3373 135.465 43.6432 135.332 44.0011 135.332C44.6703 135.332 44.9521 135.787 44.9521 136.229C44.9521 136.799 44.5368 137.26 43.8823 137.886L43.6338 138.115V138.124H45.0283V138.471H43.0461Z" fill="#F1F1F1"/>
<path d="M51.0388 137.991C51.159 138.067 51.4355 138.186 51.7267 138.186C52.2676 138.186 52.4346 137.845 52.4293 137.587C52.4239 137.156 52.0326 136.97 51.6265 136.97H51.3928V136.657H51.6265C51.9324 136.657 52.3197 136.5 52.3197 136.134C52.3197 135.887 52.1621 135.668 51.7761 135.668C51.5277 135.668 51.2886 135.776 51.155 135.872L51.0455 135.568C51.2071 135.448 51.5237 135.33 51.8576 135.33C52.4693 135.33 52.7458 135.691 52.7458 136.066C52.7458 136.385 52.5548 136.655 52.1728 136.792V136.801C52.5548 136.877 52.866 137.163 52.866 137.595C52.866 138.089 52.4787 138.521 51.7334 138.521C51.3848 138.521 51.0789 138.412 50.9266 138.312L51.0415 137.99L51.0388 137.991Z" fill="#F1F1F1"/>
<path d="M36.4492 130.622V129.782H35.0067V129.506L36.3918 127.535H36.8459V129.454H37.28V129.782H36.8459V130.622H36.4492ZM36.4492 129.454V128.423C36.4492 128.261 36.4546 128.101 36.4639 127.939H36.4492C36.3544 128.119 36.2769 128.252 36.1915 128.394L35.4328 129.443V129.452H36.4492V129.454Z" fill="#F1F1F1"/>
<path d="M44.8986 127.887H43.7139L43.595 128.68C43.6658 128.67 43.7326 128.661 43.8488 128.661C44.0866 128.661 44.327 128.713 44.518 128.827C44.7611 128.965 44.9628 129.231 44.9628 129.62C44.9628 130.223 44.4792 130.674 43.8061 130.674C43.4668 130.674 43.181 130.578 43.0327 130.484L43.1382 130.165C43.2678 130.241 43.5202 130.337 43.8021 130.337C44.1988 130.337 44.538 130.08 44.538 129.668C44.5327 129.269 44.2669 128.984 43.6445 128.984C43.4681 128.984 43.3292 129.004 43.2144 129.017L43.4147 127.535H44.9V127.887H44.8986Z" fill="#F1F1F1"/>
<path d="M52.711 127.83C52.6255 127.825 52.5147 127.83 52.3958 127.848C51.736 127.957 51.3874 128.438 51.3166 128.945H51.3313C51.4795 128.75 51.7373 128.589 52.0806 128.589C52.6309 128.589 53.0169 128.984 53.0169 129.586C53.0169 130.152 52.6295 130.674 51.9844 130.674C51.3393 130.674 50.8865 130.161 50.8865 129.358C50.8865 128.75 51.1069 128.271 51.4127 127.967C51.6705 127.716 52.0138 127.558 52.4065 127.511C52.5307 127.493 52.6362 127.487 52.711 127.487V127.83ZM52.5921 129.61C52.5921 129.168 52.3383 128.903 51.9523 128.903C51.6986 128.903 51.4662 129.059 51.3513 129.282C51.3219 129.33 51.3032 129.391 51.3032 129.467C51.3126 129.976 51.5476 130.35 51.9857 130.35C52.349 130.35 52.5921 130.051 52.5921 129.609V129.61Z" fill="#F1F1F1"/>
<path d="M37.1665 119.689V119.964L35.8148 122.776H35.3793L36.7257 120.045V120.036H35.207V119.689H37.1651H37.1665Z" fill="#F1F1F1"/>
<path d="M43.0074 121.992C43.0074 121.603 43.2425 121.327 43.6245 121.166L43.6192 121.151C43.2759 120.991 43.1277 120.724 43.1277 120.458C43.1277 119.97 43.5431 119.636 44.088 119.636C44.6904 119.636 44.9909 120.012 44.9909 120.396C44.9909 120.658 44.8614 120.938 44.4794 121.118V121.133C44.8667 121.284 45.1058 121.555 45.1058 121.931C45.1058 122.467 44.6423 122.828 44.0493 122.828C43.3988 122.828 43.0074 122.443 43.0074 121.992ZM44.6797 121.973C44.6797 121.598 44.4166 121.418 43.9958 121.299C43.6325 121.404 43.4375 121.641 43.4375 121.935C43.4228 122.248 43.6619 122.524 44.0586 122.524C44.4553 122.524 44.6797 122.292 44.6797 121.973ZM43.523 120.429C43.523 120.739 43.7568 120.904 44.1147 120.999C44.3832 120.908 44.5875 120.719 44.5875 120.438C44.5875 120.191 44.4393 119.935 44.0626 119.935C43.714 119.935 43.523 120.164 43.523 120.429Z" fill="#F1F1F1"/>
<path d="M51.183 122.482C51.2739 122.491 51.3794 122.482 51.5223 122.467C51.7654 122.434 51.9951 122.334 52.1714 122.167C52.3771 121.982 52.5254 121.712 52.5828 121.345H52.5681C52.3958 121.554 52.1474 121.677 51.8375 121.677C51.2792 121.677 50.9199 121.259 50.9199 120.732C50.9199 120.148 51.3447 119.635 51.9804 119.635C52.6162 119.635 53.0076 120.148 53.0076 120.936C53.0076 121.615 52.7778 122.09 52.4733 122.385C52.2342 122.617 51.9043 122.761 51.5704 122.798C51.4181 122.822 51.2846 122.826 51.1844 122.822V122.48L51.183 122.482ZM51.3353 120.705C51.3353 121.09 51.5691 121.361 51.9324 121.361C52.2155 121.361 52.4346 121.223 52.5441 121.038C52.5681 121 52.5828 120.953 52.5828 120.887C52.5828 120.36 52.3865 119.956 51.9471 119.956C51.5891 119.956 51.3353 120.27 51.3353 120.707V120.705Z" fill="#F1F1F1"/>
<path d="M43.8102 146.348C43.8102 146.173 43.9291 146.049 44.096 146.049C44.263 146.049 44.3778 146.173 44.3778 146.348C44.3778 146.523 44.2683 146.648 44.092 146.648C43.925 146.648 43.8102 146.519 43.8102 146.348Z" fill="#F1F1F1"/>
<path d="M37.2146 145.019C37.2146 146.068 36.8233 146.648 36.1354 146.648C35.529 146.648 35.119 146.082 35.1083 145.061C35.1083 144.026 35.5571 143.456 36.1875 143.456C36.8179 143.456 37.2146 144.035 37.2146 145.019ZM35.5277 145.067C35.5277 145.869 35.7761 146.325 36.1581 146.325C36.5882 146.325 36.7939 145.826 36.7939 145.039C36.7939 144.251 36.5976 143.78 36.1635 143.78C35.7961 143.78 35.5277 144.226 35.5277 145.067Z" fill="#F1F1F1"/>
<path d="M50.7183 144.716V144.432H53.1839V144.716H50.7183ZM50.7183 145.648V145.363H53.1839V145.648H50.7183Z" fill="#F1F1F1"/>
<path d="M59.9972 143.791V144.907H61.0764V145.193H59.9972V146.317H59.6913V145.193H58.6121V144.907H59.6913V143.791H59.9972Z" fill="#F1F1F1"/>
<path d="M60.4339 137.032V137.341H59.2532V137.032H60.4339Z" fill="#F1F1F1"/>
<path d="M59.2826 128.324L59.6112 128.818C59.698 128.946 59.7688 129.065 59.8462 129.193H59.8596C59.9357 129.055 60.0132 128.937 60.0893 128.814L60.4139 128.325H60.868L60.0786 129.436L60.8921 130.623H60.4139L60.0746 130.106C59.9838 129.973 59.9077 129.844 59.8262 129.706H59.8168C59.7407 129.844 59.6592 129.967 59.5724 130.106L59.2385 130.623H58.775L59.5965 129.451L58.8138 128.325H59.2826V128.324Z" fill="#F1F1F1"/>
<path d="M60.7918 122.672C60.6396 122.747 60.3337 122.823 59.941 122.823C59.0341 122.823 58.3502 122.253 58.3502 121.203C58.3502 120.153 59.0341 119.522 60.0318 119.522C60.4325 119.522 60.6863 119.607 60.7958 119.664L60.6957 120.002C60.5381 119.926 60.3137 119.869 60.0452 119.869C59.2905 119.869 58.7897 120.348 58.7897 121.189C58.7897 121.972 59.2438 122.475 60.0278 122.475C60.2803 122.475 60.5381 122.423 60.7063 122.342L60.7918 122.67V122.672Z" fill="#F1F1F1"/>
<path d="M144.998 114.526C139.293 114.526 134.663 115.923 134.663 117.643V148.774C134.663 150.494 139.293 151.891 144.998 151.891C150.703 151.891 155.333 150.494 155.333 148.774V117.643C155.333 115.923 150.703 114.526 144.998 114.526Z" fill="#F8DC76"/>
<path d="M144.998 130.57C139.569 130.57 134.072 129.298 134.072 126.866V123.754H135.253C135.253 124.059 135.642 124.437 136.319 124.789C138.085 125.708 141.41 126.279 144.998 126.279C148.586 126.279 151.911 125.708 153.679 124.789C154.356 124.437 154.743 124.06 154.743 123.754H155.924V126.866C155.924 129.298 150.428 130.57 144.998 130.57ZM135.253 125.528V126.866C135.253 127.898 139.049 129.397 144.998 129.397C150.947 129.397 154.743 127.898 154.743 126.866V125.528C154.587 125.631 154.413 125.732 154.226 125.83C152.272 126.846 148.822 127.453 144.998 127.453C141.174 127.453 137.725 126.846 135.771 125.83C135.583 125.732 135.411 125.631 135.253 125.528Z" fill="#FAAA1E"/>
<path d="M144.998 133.685C139.569 133.685 134.072 132.413 134.072 129.981V126.87H135.253C135.253 127.175 135.642 127.554 136.319 127.906C138.085 128.824 141.41 129.394 144.998 129.394C148.586 129.394 151.913 128.823 153.679 127.906C154.356 127.554 154.743 127.177 154.743 126.87H155.924V129.981C155.924 132.413 150.428 133.685 144.998 133.685ZM135.253 128.642V129.981C135.253 131.012 139.049 132.511 144.998 132.511C150.947 132.511 154.743 131.012 154.743 129.981V128.642C154.587 128.746 154.413 128.847 154.226 128.945C152.272 129.961 148.823 130.568 144.998 130.568C141.173 130.568 137.724 129.961 135.771 128.945C135.583 128.847 135.411 128.746 135.253 128.642Z" fill="#FAAA1E"/>
<path d="M144.998 127.454C141.174 127.454 137.725 126.847 135.771 125.832C134.644 125.245 134.072 124.546 134.072 123.755V120.644H135.253C135.253 120.949 135.642 121.328 136.319 121.68C138.085 122.598 141.41 123.168 144.998 123.168C148.586 123.168 151.913 122.597 153.679 121.68C154.356 121.328 154.743 120.951 154.743 120.644H155.924V123.755C155.924 124.546 155.352 125.245 154.225 125.832C152.271 126.847 148.821 127.454 144.997 127.454H144.998ZM135.253 122.417V123.755C135.253 124.06 135.642 124.439 136.319 124.791C138.085 125.709 141.41 126.28 144.998 126.28C148.586 126.28 151.911 125.709 153.679 124.791C154.356 124.439 154.743 124.062 154.743 123.755V122.417C154.587 122.52 154.413 122.621 154.226 122.719C152.272 123.735 148.823 124.342 144.998 124.342C141.173 124.342 137.724 123.735 135.771 122.719C135.583 122.621 135.411 122.52 135.253 122.417Z" fill="#FAAA1E"/>
<path d="M144.998 139.911C139.569 139.911 134.072 138.639 134.072 136.207V133.096H135.253C135.253 133.401 135.642 133.779 136.319 134.131C138.085 135.05 141.41 135.62 144.998 135.62C148.586 135.62 151.913 135.049 153.679 134.131C154.356 133.779 154.743 133.402 154.743 133.096H155.924V136.207C155.924 138.639 150.428 139.911 144.998 139.911ZM135.253 134.868V136.207C135.253 137.238 139.049 138.737 144.998 138.737C150.947 138.737 154.743 137.238 154.743 136.207V134.868C154.587 134.972 154.413 135.073 154.226 135.171C152.272 136.187 148.823 136.793 144.998 136.793C141.173 136.793 137.724 136.187 135.771 135.171C135.583 135.073 135.411 134.972 135.253 134.868Z" fill="#FAAA1E"/>
<path d="M144.998 143.026C139.569 143.026 134.072 141.754 134.072 139.321V136.209H135.253C135.253 136.515 135.642 136.893 136.319 137.245C138.085 138.164 141.41 138.733 144.998 138.733C148.586 138.733 151.913 138.162 153.679 137.245C154.356 136.893 154.743 136.515 154.743 136.209H155.924V139.321C155.924 141.754 150.428 143.026 144.998 143.026ZM135.253 137.983V139.321C135.253 140.353 139.049 141.852 144.998 141.852C150.947 141.852 154.743 140.353 154.743 139.321V137.983C154.587 138.087 154.413 138.188 154.226 138.286C152.272 139.302 148.823 139.908 144.998 139.908C141.173 139.908 137.724 139.302 135.771 138.286C135.583 138.188 135.411 138.087 135.253 137.983Z" fill="#FAAA1E"/>
<path d="M144.998 136.794C141.174 136.794 137.724 136.187 135.771 135.171C134.644 134.584 134.072 133.886 134.072 133.094V129.982H135.253C135.253 130.288 135.642 130.666 136.319 131.018C138.085 131.937 141.41 132.506 144.998 132.506C148.586 132.506 151.911 131.935 153.679 131.018C154.356 130.666 154.743 130.288 154.743 129.982H155.924V133.094C155.924 133.886 155.352 134.584 154.225 135.171C152.271 136.187 148.822 136.794 144.997 136.794H144.998ZM135.253 131.757V133.096C135.253 133.401 135.642 133.78 136.319 134.131C138.085 135.05 141.41 135.62 144.998 135.62C148.586 135.62 151.913 135.049 153.679 134.131C154.356 133.78 154.743 133.402 154.743 133.096V131.757C154.587 131.861 154.413 131.962 154.226 132.06C152.272 133.076 148.822 133.683 144.998 133.683C141.174 133.683 137.725 133.076 135.771 132.06C135.583 131.962 135.411 131.861 135.253 131.757Z" fill="#FAAA1E"/>
<path d="M144.998 149.253C139.569 149.253 134.072 147.981 134.072 145.549V142.438H135.253C135.253 142.743 135.642 143.12 136.319 143.473C138.085 144.392 141.41 144.962 144.998 144.962C148.586 144.962 151.913 144.391 153.679 143.473C154.356 143.122 154.743 142.744 154.743 142.438H155.924V145.549C155.924 147.981 150.428 149.253 144.998 149.253ZM135.253 144.209V145.547C135.253 146.579 139.049 148.078 144.998 148.078C150.947 148.078 154.743 146.579 154.743 145.547V144.209C154.587 144.313 154.413 144.413 154.226 144.512C152.272 145.527 148.823 146.134 144.998 146.134C141.173 146.134 137.724 145.527 135.771 144.512C135.583 144.413 135.411 144.313 135.253 144.209Z" fill="#FAAA1E"/>
<path d="M144.998 152.367C139.569 152.367 134.072 151.095 134.072 148.662V145.55H135.253C135.253 145.855 135.642 146.234 136.319 146.586C138.085 147.504 141.41 148.075 144.998 148.075C148.586 148.075 151.911 147.504 153.679 146.586C154.356 146.234 154.743 145.857 154.743 145.55H155.924V148.662C155.924 151.095 150.428 152.367 144.998 152.367ZM135.253 147.324V148.662C135.253 149.694 139.049 151.193 144.998 151.193C150.947 151.193 154.743 149.694 154.743 148.662V147.324C154.587 147.427 154.413 147.528 154.226 147.627C152.272 148.642 148.822 149.249 144.998 149.249C141.174 149.249 137.725 148.642 135.771 147.627C135.583 147.528 135.411 147.427 135.253 147.324Z" fill="#FAAA1E"/>
<path d="M144.998 146.136C141.174 146.136 137.724 145.529 135.771 144.513C134.644 143.926 134.072 143.228 134.072 142.436V139.324H135.253C135.253 139.63 135.642 140.008 136.319 140.36C138.085 141.279 141.41 141.85 144.998 141.85C148.586 141.85 151.911 141.279 153.679 140.36C154.356 140.008 154.743 139.631 154.743 139.324H155.924V142.436C155.924 143.228 155.352 143.926 154.225 144.512C152.271 145.527 148.822 146.134 144.997 146.134L144.998 146.136ZM135.253 141.098V142.436C135.253 142.742 135.642 143.119 136.319 143.472C138.085 144.391 141.41 144.961 144.998 144.961C148.586 144.961 151.913 144.39 153.679 143.472C154.356 143.12 154.743 142.743 154.743 142.436V141.098C154.587 141.202 154.413 141.303 154.226 141.401C152.272 142.417 148.822 143.023 144.998 143.023C141.174 143.023 137.725 142.417 135.771 141.401C135.583 141.303 135.411 141.202 135.253 141.098Z" fill="#FAAA1E"/>
<path d="M144.998 124.342C141.174 124.342 137.724 123.735 135.771 122.719C134.644 122.132 134.072 121.434 134.072 120.643V117.531H135.253C135.253 117.832 135.651 118.22 136.319 118.566C138.085 119.485 141.41 120.055 144.998 120.055C148.586 120.055 151.911 119.484 153.679 118.566C154.345 118.22 154.743 117.832 154.743 117.531H155.924V120.643C155.924 121.434 155.352 122.132 154.225 122.718C152.271 123.734 148.822 124.341 144.997 124.341L144.998 124.342ZM135.253 119.303V120.643C135.253 120.948 135.642 121.327 136.319 121.678C138.085 122.597 141.41 123.167 144.998 123.167C148.586 123.167 151.913 122.596 153.679 121.678C154.356 121.327 154.743 120.949 154.743 120.643V119.303C154.591 119.405 154.419 119.508 154.226 119.607C152.272 120.623 148.822 121.23 144.998 121.23C141.174 121.23 137.725 120.623 135.771 119.607C135.579 119.506 135.407 119.405 135.253 119.303Z" fill="#FAAA1E"/>
<path d="M144.998 121.23C141.174 121.23 137.725 120.623 135.771 119.607C134.367 118.876 134.072 118.075 134.072 117.531C134.072 115.098 139.569 113.826 144.998 113.826C150.428 113.826 155.924 115.098 155.924 117.531C155.924 118.075 155.629 118.876 154.225 119.607C152.271 120.623 148.821 121.23 144.997 121.23H144.998ZM144.998 115.001C139.049 115.001 135.253 116.5 135.253 117.532C135.253 117.833 135.651 118.221 136.319 118.568C138.085 119.486 141.41 120.056 144.998 120.056C148.586 120.056 151.911 119.485 153.679 118.568C154.345 118.221 154.743 117.833 154.743 117.532C154.743 116.5 150.947 115.001 144.998 115.001Z" fill="#FAAA1E"/>
<path d="M145.753 117.302C145.753 117.302 145.741 117.3 145.738 117.297C145.653 117.281 145.538 117.257 145.391 117.225C144.489 117.038 144.042 116.881 144.042 116.757C144.042 116.681 144.121 116.622 144.279 116.576C144.434 116.531 144.645 116.508 144.91 116.508C145.272 116.508 145.538 116.541 145.705 116.607C145.876 116.673 145.957 116.776 145.957 116.917V116.972H147.82V116.912C147.82 116.61 147.589 116.386 147.126 116.236C146.821 116.138 146.417 116.071 145.913 116.038V115.652H144.086V116.038C143.584 116.07 143.174 116.127 142.854 116.213C142.352 116.348 142.102 116.544 142.102 116.799C142.102 116.99 142.248 117.154 142.547 117.29C142.842 117.427 143.546 117.61 144.648 117.839C144.706 117.851 144.782 117.867 144.877 117.886C145.588 118.031 145.942 118.16 145.942 118.273C145.942 118.359 145.857 118.428 145.687 118.479C145.516 118.529 145.285 118.554 144.997 118.554C144.613 118.554 144.345 118.518 144.19 118.448C144.035 118.376 143.955 118.249 143.955 118.063V118.013H142.056C142.056 118.026 142.053 118.044 142.046 118.07C142.044 118.095 142.04 118.113 142.04 118.124C142.04 118.441 142.277 118.675 142.751 118.825C143.073 118.926 143.517 118.992 144.076 119.024V119.404H145.904V119.023C146.423 118.991 146.851 118.931 147.186 118.841C147.703 118.702 147.962 118.504 147.962 118.248C147.962 117.928 147.229 117.613 145.754 117.302H145.753Z" fill="white"/>
<mask id="mask2_100_4332" style="mask-type:luminance" maskUnits="userSpaceOnUse" x="134" y="117" width="22" height="36">
<path d="M154.226 119.609C152.271 120.624 148.822 121.228 145.001 121.228C141.179 121.228 137.724 120.624 135.77 119.609C134.37 118.874 134.075 118.076 134.075 117.531C134.075 116.924 134.072 116.924 134.072 117.532V126.867C134.072 126.867 134.072 126.869 134.072 126.87V129.981C134.072 129.981 134.072 129.982 134.072 129.984V136.207C134.072 136.207 134.072 136.208 134.072 136.209V139.322C134.072 139.322 134.072 139.323 134.072 139.324V145.547C134.072 145.547 134.072 145.549 134.072 145.55V148.662C134.072 151.095 139.569 152.367 144.998 152.367C150.428 152.367 155.924 151.095 155.924 148.662V145.55C155.924 145.55 155.924 145.549 155.924 145.547V139.324C155.924 139.324 155.924 139.323 155.924 139.322V136.209C155.924 136.209 155.924 136.208 155.924 136.207V129.984C155.924 129.984 155.924 129.982 155.924 129.981V126.87C155.924 126.87 155.924 126.869 155.924 126.867V117.558C155.915 118.104 155.607 118.886 154.225 119.609H154.226Z" fill="white"/>
</mask>
<g mask="url(#mask2_100_4332)">
<g style="mix-blend-mode:multiply" opacity="0.4">
<path d="M143.744 115.001H132.25V153.194H143.744V115.001Z" fill="#F8CF42"/>
</g>
</g>
<path d="M113.595 127.69C107.89 127.69 103.26 129.087 103.26 130.808V146.372C103.26 146.941 103.762 147.47 104.642 147.928C106.425 148.856 109.768 149.484 113.595 149.484C117.422 149.484 120.765 148.856 122.548 147.928C123.428 147.47 123.93 146.941 123.93 146.372V130.808C123.93 129.087 119.3 127.69 113.595 127.69Z" fill="#F8DC76"/>
<path d="M113.595 134.506C109.771 134.506 106.321 133.899 104.368 132.883C102.964 132.152 102.669 131.351 102.669 130.807C102.669 128.374 108.165 127.102 113.595 127.102C119.024 127.102 124.521 128.374 124.521 130.807C124.521 131.35 124.226 132.152 122.822 132.882C120.868 133.898 117.419 134.504 113.595 134.504V134.506ZM113.595 128.277C107.646 128.277 103.85 129.776 103.85 130.808C103.85 131.109 104.248 131.497 104.916 131.844C106.682 132.762 110.007 133.332 113.595 133.332C117.183 133.332 120.508 132.761 122.274 131.844C122.941 131.497 123.34 131.109 123.34 130.808C123.34 129.776 119.544 128.277 113.595 128.277Z" fill="#FAAA1E"/>
<path d="M113.595 143.846C108.165 143.846 102.669 142.574 102.669 140.142V137.03H103.85C103.85 137.335 104.239 137.714 104.916 138.065C106.682 138.984 110.007 139.554 113.595 139.554C117.183 139.554 120.508 138.983 122.274 138.065C122.951 137.714 123.34 137.335 123.34 137.03H124.521V140.142C124.521 142.574 119.024 143.846 113.595 143.846ZM103.85 138.804V140.142C103.85 141.174 107.646 142.673 113.595 142.673C119.544 142.673 123.34 141.174 123.34 140.142V138.804C123.182 138.907 123.01 139.008 122.822 139.106C120.868 140.122 117.419 140.729 113.595 140.729C109.771 140.729 106.321 140.122 104.368 139.106C104.18 139.008 104.008 138.907 103.85 138.804Z" fill="#FAAA1E"/>
<path d="M113.595 146.961C108.165 146.961 102.669 145.689 102.669 143.257V140.145H103.85C103.85 140.45 104.239 140.829 104.916 141.18C106.682 142.099 110.007 142.67 113.595 142.67C117.183 142.67 120.508 142.099 122.274 141.18C122.951 140.829 123.34 140.451 123.34 140.145H124.521V143.257C124.521 145.689 119.024 146.961 113.595 146.961ZM103.85 141.919V143.257C103.85 144.289 107.646 145.788 113.595 145.788C119.544 145.788 123.34 144.289 123.34 143.257V141.919C123.182 142.022 123.01 142.123 122.822 142.221C120.868 143.237 117.419 143.844 113.595 143.844C109.771 143.844 106.321 143.237 104.368 142.221C104.18 142.123 104.008 142.022 103.85 141.919Z" fill="#FAAA1E"/>
<path d="M113.595 140.73C109.771 140.73 106.321 140.123 104.368 139.108C103.241 138.521 102.669 137.822 102.669 137.031V133.92H103.85C103.85 134.226 104.239 134.604 104.916 134.956C106.682 135.875 110.007 136.444 113.595 136.444C117.183 136.444 120.508 135.873 122.274 134.956C122.951 134.604 123.34 134.227 123.34 133.92H124.521V137.031C124.521 137.822 123.949 138.521 122.822 139.108C120.868 140.123 117.419 140.73 113.595 140.73ZM103.85 135.693V137.031C103.85 137.336 104.239 137.715 104.916 138.067C106.682 138.986 110.007 139.555 113.595 139.555C117.183 139.555 120.508 138.984 122.274 138.067C122.951 137.715 123.34 137.336 123.34 137.031V135.693C123.182 135.796 123.01 135.897 122.822 135.995C120.868 137.011 117.419 137.618 113.595 137.618C109.771 137.618 106.321 137.011 104.368 135.995C104.18 135.897 104.008 135.796 103.85 135.693Z" fill="#FAAA1E"/>
<path d="M113.595 150.071C109.771 150.071 106.321 149.464 104.368 148.448C103.241 147.862 102.669 147.163 102.669 146.372V143.261H103.85C103.85 143.566 104.239 143.945 104.916 144.297C106.682 145.215 110.007 145.785 113.595 145.785C117.183 145.785 120.508 145.214 122.274 144.297C122.951 143.945 123.34 143.568 123.34 143.261H124.521V146.372C124.521 147.163 123.949 147.862 122.822 148.448C120.868 149.464 117.419 150.071 113.595 150.071ZM103.85 145.034V146.372C103.85 146.677 104.239 147.056 104.916 147.408C106.682 148.326 110.007 148.897 113.595 148.897C117.183 148.897 120.508 148.326 122.274 147.408C122.951 147.056 123.34 146.679 123.34 146.372V145.034C123.182 145.137 123.01 145.238 122.822 145.336C120.868 146.352 117.419 146.959 113.595 146.959C109.771 146.959 106.321 146.352 104.368 145.336C104.18 145.238 104.008 145.137 103.85 145.034Z" fill="#FAAA1E"/>
<path d="M113.595 137.618C109.771 137.618 106.321 137.011 104.368 135.996C103.241 135.409 102.669 134.71 102.669 133.919V130.808H103.85C103.85 131.11 104.248 131.497 104.916 131.844C106.682 132.763 110.007 133.332 113.595 133.332C117.183 133.332 120.508 132.761 122.274 131.844C122.941 131.497 123.34 131.11 123.34 130.808H124.521V133.919C124.521 134.71 123.949 135.409 122.822 135.996C120.868 137.011 117.419 137.618 113.595 137.618ZM103.85 132.579V133.919C103.85 134.224 104.239 134.603 104.916 134.955C106.682 135.873 110.007 136.443 113.595 136.443C117.183 136.443 120.508 135.872 122.274 134.955C122.951 134.603 123.34 134.226 123.34 133.919V132.579C123.186 132.682 123.015 132.784 122.822 132.883C120.868 133.899 117.419 134.506 113.595 134.506C109.771 134.506 106.321 133.899 104.368 132.883C104.176 132.782 104.004 132.682 103.85 132.579Z" fill="#FAAA1E"/>
<path d="M114.348 130.578C114.348 130.578 114.336 130.576 114.334 130.573C114.248 130.557 114.133 130.533 113.986 130.501C113.085 130.314 112.637 130.157 112.637 130.033C112.637 129.957 112.716 129.899 112.875 129.852C113.03 129.807 113.241 129.784 113.505 129.784C113.867 129.784 114.133 129.818 114.3 129.883C114.471 129.949 114.553 130.053 114.553 130.193V130.248H116.416V130.188C116.416 129.887 116.185 129.662 115.721 129.512C115.417 129.414 115.012 129.348 114.509 129.314V128.928H112.681V129.314C112.179 129.346 111.769 129.403 111.45 129.49C110.948 129.624 110.698 129.82 110.698 130.075C110.698 130.266 110.843 130.43 111.143 130.566C111.438 130.703 112.142 130.886 113.244 131.115C113.301 131.127 113.377 131.143 113.472 131.163C114.184 131.307 114.538 131.436 114.538 131.549C114.538 131.635 114.452 131.704 114.283 131.755C114.112 131.805 113.881 131.83 113.592 131.83C113.209 131.83 112.94 131.795 112.786 131.724C112.631 131.653 112.55 131.525 112.55 131.339V131.289H110.651C110.651 131.302 110.648 131.321 110.642 131.346C110.639 131.371 110.635 131.39 110.635 131.4C110.635 131.718 110.873 131.951 111.347 132.101C111.669 132.202 112.112 132.269 112.672 132.3V132.68H114.499V132.299C115.019 132.267 115.446 132.208 115.781 132.117C116.298 131.978 116.558 131.78 116.558 131.524C116.558 131.204 115.824 130.889 114.35 130.578H114.348Z" fill="white"/>
<mask id="mask3_100_4332" style="mask-type:luminance" maskUnits="userSpaceOnUse" x="102" y="130" width="23" height="21">
<path d="M104.367 132.885C106.322 133.9 109.771 134.504 113.592 134.504C117.414 134.504 120.869 133.9 122.823 132.885C124.223 132.15 124.518 131.352 124.518 130.807C124.518 130.2 124.521 130.2 124.521 130.808V146.39C124.521 148.823 119.024 150.095 113.595 150.095C108.165 150.095 102.669 148.823 102.669 146.39V130.835C102.679 131.38 102.986 132.162 104.368 132.885H104.367Z" fill="white"/>
</mask>
<g mask="url(#mask3_100_4332)">
<g style="mix-blend-mode:multiply" opacity="0.4">
<path d="M126.812 151.648L114.849 151.951V129.177L126.812 128.875V151.648Z" fill="#F8CF42"/>
</g>
</g>
<path d="M104.687 140.262C98.9827 140.262 94.3519 141.659 94.3519 143.379V149.549C94.3519 150.119 94.8541 150.647 95.7343 151.105C97.5175 152.034 100.861 152.662 104.687 152.662C108.514 152.662 111.857 152.034 113.64 151.105C114.521 150.647 115.023 150.119 115.023 149.549V143.379C115.023 141.659 110.392 140.262 104.687 140.262Z" fill="#F8DC76"/>
<path d="M104.689 147.078C100.865 147.078 97.4147 146.472 95.4619 145.456C94.0581 144.724 93.7629 143.924 93.7629 143.379C93.7629 140.947 99.2592 139.675 104.689 139.675C110.118 139.675 115.615 140.947 115.615 143.379C115.615 143.922 115.319 144.724 113.916 145.454C111.961 146.47 108.513 147.077 104.689 147.077V147.078ZM104.689 140.85C98.7397 140.85 94.9437 142.349 94.9437 143.381C94.9437 143.682 95.3417 144.07 96.0095 144.416C97.7753 145.335 101.101 145.905 104.689 145.905C108.276 145.905 111.602 145.334 113.368 144.416C114.034 144.07 114.434 143.682 114.434 143.381C114.434 142.349 110.638 140.85 104.689 140.85Z" fill="#FAAA1E"/>
<path d="M104.689 153.301C100.865 153.301 97.4147 152.695 95.4619 151.679C94.3346 151.092 93.7629 150.394 93.7629 149.602V146.491H94.9437C94.9437 146.797 95.3324 147.175 96.0095 147.527C97.7753 148.446 101.101 149.015 104.689 149.015C108.276 149.015 111.602 148.445 113.368 147.527C114.045 147.175 114.434 146.798 114.434 146.491H115.615V149.602C115.615 150.394 115.043 151.092 113.916 151.679C111.961 152.695 108.513 153.301 104.689 153.301ZM94.9437 148.265V149.604C94.9437 149.909 95.3324 150.287 96.0095 150.639C97.7753 151.558 101.101 152.128 104.689 152.128C108.276 152.128 111.602 151.557 113.368 150.639C114.045 150.287 114.434 149.909 114.434 149.604V148.265C114.276 148.369 114.104 148.47 113.916 148.568C111.961 149.584 108.513 150.191 104.689 150.191C100.865 150.191 97.4147 149.584 95.4619 148.568C95.2736 148.47 95.1013 148.369 94.9437 148.265Z" fill="#FAAA1E"/>
<path d="M104.689 150.191C100.865 150.191 97.4147 149.584 95.4619 148.568C94.3346 147.981 93.7629 147.283 93.7629 146.492V143.381H94.9437C94.9437 143.682 95.3417 144.07 96.0095 144.416C97.7753 145.335 101.101 145.905 104.689 145.905C108.276 145.905 111.602 145.334 113.368 144.416C114.034 144.07 114.434 143.682 114.434 143.381H115.615V146.492C115.615 147.283 115.043 147.981 113.916 148.568C111.961 149.584 108.513 150.191 104.689 150.191ZM94.9437 145.152V146.492C94.9437 146.797 95.3324 147.175 96.0095 147.527C97.7753 148.446 101.101 149.016 104.689 149.016C108.276 149.016 111.602 148.445 113.368 147.527C114.045 147.175 114.434 146.798 114.434 146.492V145.152C114.28 145.254 114.109 145.356 113.916 145.456C111.961 146.472 108.513 147.078 104.689 147.078C100.865 147.078 97.4147 146.472 95.4619 145.456C95.2696 145.355 95.0973 145.254 94.9437 145.152Z" fill="#FAAA1E"/>
<path d="M105.442 143.151C105.442 143.151 105.43 143.148 105.427 143.146C105.342 143.13 105.227 143.106 105.08 143.074C104.179 142.887 103.731 142.73 103.731 142.605C103.731 142.529 103.81 142.471 103.969 142.425C104.124 142.379 104.335 142.357 104.599 142.357C104.961 142.357 105.227 142.39 105.394 142.455C105.565 142.522 105.646 142.625 105.646 142.766V142.82H107.51V142.761C107.51 142.459 107.279 142.235 106.815 142.085C106.511 141.986 106.106 141.92 105.602 141.887V141.5H103.775V141.887C103.273 141.919 102.863 141.976 102.544 142.062C102.041 142.196 101.792 142.393 101.792 142.648C101.792 142.839 101.937 143.002 102.236 143.139C102.532 143.276 103.236 143.459 104.337 143.687C104.395 143.699 104.471 143.715 104.566 143.735C105.278 143.88 105.632 144.009 105.632 144.121C105.632 144.208 105.546 144.277 105.377 144.327C105.206 144.378 104.975 144.403 104.686 144.403C104.303 144.403 104.034 144.367 103.879 144.297C103.724 144.225 103.644 144.098 103.644 143.912V143.861H101.745C101.745 143.874 101.742 143.893 101.736 143.918C101.733 143.944 101.729 143.962 101.729 143.973C101.729 144.29 101.967 144.524 102.441 144.674C102.763 144.775 103.206 144.841 103.766 144.873V145.253H105.593V144.872C106.113 144.84 106.54 144.78 106.875 144.69C107.392 144.55 107.651 144.352 107.651 144.096C107.651 143.776 106.918 143.462 105.443 143.151H105.442Z" fill="white"/>
<mask id="mask4_100_4332" style="mask-type:luminance" maskUnits="userSpaceOnUse" x="93" y="142" width="23" height="12">
<path d="M95.4606 145.457C97.416 146.473 100.865 147.077 104.686 147.077C108.507 147.077 111.963 146.473 113.917 145.457C115.317 144.723 115.612 143.925 115.612 143.379C115.612 142.772 115.615 142.772 115.615 143.381V149.569C115.615 152.002 110.118 153.274 104.689 153.274C99.2592 153.274 93.7629 152.002 93.7629 149.569V143.407C93.7723 143.953 94.0795 144.735 95.4619 145.457H95.4606Z" fill="white"/>
</mask>
<g mask="url(#mask4_100_4332)">
<g style="mix-blend-mode:multiply" opacity="0.4">
<path d="M117.905 154.827L105.943 155.13V141.75L117.905 141.447V154.827Z" fill="#F8CF42"/>
</g>
</g>
<path d="M128.108 136.437C122.404 136.437 117.773 137.833 117.773 139.554V151.984C117.773 152.554 118.275 153.082 119.155 153.541C120.938 154.469 124.282 155.097 128.108 155.097C131.935 155.097 135.278 154.469 137.061 153.541C137.942 153.082 138.444 152.554 138.444 151.984V139.554C138.444 137.833 133.813 136.437 128.108 136.437Z" fill="#F8DC76"/>
<path d="M128.108 143.253C124.284 143.253 120.834 142.646 118.882 141.631C117.478 140.899 117.183 140.098 117.183 139.554C117.183 137.122 122.679 135.85 128.108 135.85C133.538 135.85 139.034 137.122 139.034 139.554C139.034 140.097 138.739 140.899 137.335 141.629C135.381 142.645 131.932 143.252 128.108 143.252V143.253ZM128.108 137.023C122.159 137.023 118.363 138.522 118.363 139.554C118.363 139.855 118.761 140.243 119.429 140.59C121.195 141.508 124.521 142.078 128.108 142.078C131.696 142.078 135.022 141.507 136.788 140.59C137.454 140.243 137.853 139.855 137.853 139.554C137.853 138.522 134.058 137.023 128.108 137.023Z" fill="#FAAA1E"/>
<path d="M128.108 152.594C122.679 152.594 117.183 151.322 117.183 148.889V145.777H118.363C118.363 146.082 118.752 146.461 119.429 146.813C121.195 147.732 124.521 148.301 128.108 148.301C131.696 148.301 135.022 147.73 136.788 146.813C137.465 146.461 137.853 146.082 137.853 145.777H139.034V148.889C139.034 151.322 133.538 152.594 128.108 152.594ZM118.363 147.551V148.889C118.363 149.921 122.159 151.42 128.108 151.42C134.058 151.42 137.853 149.921 137.853 148.889V147.551C137.696 147.655 137.524 147.755 137.335 147.854C135.381 148.869 131.932 149.476 128.108 149.476C124.284 149.476 120.834 148.869 118.882 147.854C118.693 147.755 118.521 147.655 118.363 147.551Z" fill="#FAAA1E"/>
<path d="M128.108 155.709C122.679 155.709 117.183 154.437 117.183 152.004V148.892H118.363C118.363 149.197 118.752 149.576 119.429 149.928C121.195 150.847 124.521 151.417 128.108 151.417C131.696 151.417 135.022 150.847 136.788 149.928C137.465 149.576 137.853 149.199 137.853 148.892H139.034V152.004C139.034 154.437 133.538 155.709 128.108 155.709ZM118.363 150.666V152.004C118.363 153.036 122.159 154.535 128.108 154.535C134.058 154.535 137.853 153.036 137.853 152.004V150.666C137.696 150.77 137.524 150.87 137.335 150.969C135.381 151.984 131.932 152.591 128.108 152.591C124.284 152.591 120.834 151.984 118.882 150.969C118.693 150.87 118.521 150.77 118.363 150.666Z" fill="#FAAA1E"/>
<path d="M128.108 149.476C124.284 149.476 120.834 148.869 118.882 147.854C117.754 147.267 117.183 146.569 117.183 145.777V142.666H118.363C118.363 142.972 118.752 143.35 119.429 143.702C121.195 144.621 124.521 145.19 128.108 145.19C131.696 145.19 135.022 144.619 136.788 143.702C137.465 143.35 137.853 142.973 137.853 142.666H139.034V145.777C139.034 146.569 138.463 147.267 137.335 147.854C135.381 148.869 131.932 149.476 128.108 149.476ZM118.363 144.439V145.777C118.363 146.083 118.752 146.461 119.429 146.813C121.195 147.732 124.521 148.301 128.108 148.301C131.696 148.301 135.022 147.73 136.788 146.813C137.465 146.461 137.853 146.083 137.853 145.777V144.439C137.696 144.542 137.524 144.643 137.335 144.742C135.381 145.757 131.932 146.364 128.108 146.364C124.284 146.364 120.834 145.757 118.882 144.742C118.693 144.643 118.521 144.542 118.363 144.439Z" fill="#FAAA1E"/>
<path d="M128.108 146.364C124.284 146.364 120.834 145.757 118.882 144.741C117.754 144.155 117.183 143.456 117.183 142.665V139.554H118.363C118.363 139.855 118.761 140.243 119.429 140.59C121.195 141.508 124.521 142.078 128.108 142.078C131.696 142.078 135.022 141.507 136.788 140.59C137.454 140.243 137.853 139.855 137.853 139.554H139.034V142.665C139.034 143.456 138.463 144.155 137.335 144.741C135.381 145.757 131.932 146.364 128.108 146.364ZM118.363 141.326V142.666C118.363 142.972 118.752 143.35 119.429 143.702C121.195 144.621 124.521 145.19 128.108 145.19C131.696 145.19 135.022 144.619 136.788 143.702C137.465 143.35 137.853 142.973 137.853 142.666V141.326C137.7 141.429 137.529 141.531 137.335 141.631C135.381 142.646 131.932 143.253 128.108 143.253C124.284 143.253 120.834 142.646 118.882 141.631C118.689 141.53 118.517 141.429 118.363 141.326Z" fill="#FAAA1E"/>
<mask id="mask5_100_4332" style="mask-type:luminance" maskUnits="userSpaceOnUse" x="117" y="139" width="23" height="17">
<path d="M118.882 141.632C120.837 142.648 124.286 143.252 128.107 143.252C131.928 143.252 135.384 142.648 137.338 141.632C138.738 140.898 139.033 140.1 139.033 139.554C139.033 138.947 139.036 138.947 139.036 139.555V152.004C139.036 154.437 133.539 155.709 128.11 155.709C122.68 155.709 117.184 154.437 117.184 152.004V139.582C117.193 140.128 117.501 140.91 118.883 141.632H118.882Z" fill="white"/>
</mask>
<g mask="url(#mask5_100_4332)">
<g style="mix-blend-mode:multiply" opacity="0.4">
<path d="M141.326 157.262L129.364 157.565V137.925L141.326 137.621V157.262Z" fill="#F8CF42"/>
</g>
</g>
<path d="M136.994 133.168C138.152 128.287 135.112 123.397 130.202 122.246C125.293 121.094 120.374 124.116 119.215 128.996C118.057 133.877 121.097 138.767 126.006 139.918C130.916 141.07 135.835 138.048 136.994 133.168Z" fill="#F8DC76"/>
<path d="M128.108 140.756C122.747 140.756 118.385 136.419 118.385 131.09C118.385 125.76 122.747 121.424 128.108 121.424C133.47 121.424 137.832 125.76 137.832 131.09C137.832 136.419 133.47 140.756 128.108 140.756ZM128.108 122.597C123.398 122.597 119.565 126.407 119.565 131.09C119.565 135.773 123.398 139.582 128.108 139.582C132.819 139.582 136.651 135.773 136.651 131.09C136.651 126.407 132.819 122.597 128.108 122.597Z" fill="#FAAA1E"/>
<path d="M128.862 130.508C128.862 130.508 128.85 130.5 128.847 130.496C128.762 130.454 128.647 130.393 128.5 130.31C127.598 129.828 127.151 129.427 127.151 129.106C127.151 128.913 127.23 128.759 127.388 128.641C127.543 128.526 127.754 128.466 128.019 128.466C128.381 128.466 128.647 128.55 128.814 128.718C128.985 128.888 129.066 129.154 129.066 129.516V129.657H130.929V129.504C130.929 128.73 130.698 128.153 130.235 127.769C129.93 127.515 129.526 127.347 129.022 127.26V126.269H127.195V127.26C126.693 127.34 126.283 127.49 125.963 127.709C125.461 128.056 125.211 128.558 125.211 129.215C125.211 129.706 125.357 130.127 125.656 130.475C125.951 130.825 126.655 131.295 127.757 131.884C127.815 131.915 127.891 131.955 127.986 132.007C128.697 132.378 129.051 132.709 129.051 132.999C129.051 133.222 128.966 133.397 128.796 133.527C128.625 133.659 128.394 133.723 128.106 133.723C127.722 133.723 127.454 133.631 127.299 133.45C127.144 133.267 127.064 132.939 127.064 132.461V132.332H125.165C125.165 132.367 125.162 132.413 125.155 132.478C125.153 132.542 125.149 132.59 125.149 132.619C125.149 133.434 125.386 134.036 125.86 134.418C126.182 134.678 126.626 134.847 127.185 134.931V135.907H129.013V134.927C129.532 134.846 129.96 134.69 130.295 134.458C130.812 134.1 131.071 133.591 131.071 132.933C131.071 132.109 130.338 131.301 128.863 130.505L128.862 130.508Z" fill="white"/>
<mask id="mask6_100_4332" style="mask-type:luminance" maskUnits="userSpaceOnUse" x="118" y="121" width="20" height="20">
<path d="M128.108 121.422C122.747 121.422 118.385 125.759 118.385 131.088C118.385 136.418 122.747 140.754 128.108 140.754C133.47 140.754 137.832 136.418 137.832 131.088C137.832 125.759 133.47 121.422 128.108 121.422Z" fill="white"/>
</mask>
<g mask="url(#mask6_100_4332)">
<g style="mix-blend-mode:multiply" opacity="0.4">
<path d="M137.131 143.999L125.5 141.196L131.015 120.996L142.645 123.799L137.131 143.999Z" fill="#F8CF42"/>
</g>
</g>
</g>
<defs>
<linearGradient id="paint0_linear_100_4332" x1="13.5063" y1="33.742" x2="170.039" y2="33.742" gradientUnits="userSpaceOnUse">
<stop stop-color="#67BDE0"/>
<stop offset="0.15" stop-color="#77C4E3"/>
<stop offset="0.45" stop-color="#A2D6EC"/>
<stop offset="0.87" stop-color="#E7F4FA"/>
<stop offset="1" stop-color="white"/>
</linearGradient>
<clipPath id="clip0_100_4332">
<rect width="185" height="159" fill="white"/>
</clipPath>
</defs>
</svg>
