<svg width="145" height="145" viewBox="0 0 145 145" fill="none" xmlns="http://www.w3.org/2000/svg">
<path d="M72.5 145C112.541 145 145 112.541 145 72.5C145 32.4594 112.541 0 72.5 0C32.4594 0 0 32.4594 0 72.5C0 112.541 32.4594 145 72.5 145Z" fill="#22252A"/>
<path d="M47.44 101.36H29.13V104.38H47.44V101.36Z" fill="#FFB733"/>
<path d="M47.44 101.15H29.13V103.86H47.44V101.15Z" fill="#FFD55C"/>
<g style="mix-blend-mode:screen" opacity="0.4">
<path d="M31.17 104.39H30.43V101.15H31.17V104.39ZM33.2 101.15H31.5V104.39H33.2V101.15Z" fill="#FFD880"/>
</g>
<g style="mix-blend-mode:multiply" opacity="0.3">
<path d="M45.97 101.15H46.67V104.39H45.97V101.15ZM41.92 104.39H45.47V101.15H41.92V104.39Z" fill="#FFC550"/>
</g>
<path d="M47.44 98.13H29.13V101.15H47.44V98.13Z" fill="#FFB733"/>
<path d="M47.44 97.91H29.13V100.62H47.44V97.91Z" fill="#FFD55C"/>
<g style="mix-blend-mode:screen" opacity="0.4">
<path d="M31.17 101.15H30.43V97.91H31.17V101.15ZM33.2 97.91H31.5V101.15H33.2V97.91Z" fill="#FFD880"/>
</g>
<g style="mix-blend-mode:multiply" opacity="0.3">
<path d="M45.97 97.91H46.67V101.15H45.97V97.91ZM41.92 101.15H45.47V97.91H41.92V101.15Z" fill="#FFC550"/>
</g>
<path d="M115.89 101.36H97.58V104.38H115.89V101.36Z" fill="#FFB733"/>
<path d="M115.89 101.15H97.58V103.86H115.89V101.15Z" fill="#FFD55C"/>
<g style="mix-blend-mode:screen" opacity="0.4">
<path d="M99.62 104.39H98.88V101.15H99.62V104.39ZM101.65 101.15H99.95V104.39H101.65V101.15Z" fill="#FFD880"/>
</g>
<g style="mix-blend-mode:multiply" opacity="0.3">
<path d="M114.42 101.15H115.12V104.39H114.42V101.15ZM110.36 104.39H113.91V101.15H110.36V104.39Z" fill="#FFC550"/>
</g>
<path d="M115.89 98.13H97.58V101.15H115.89V98.13Z" fill="#FFB733"/>
<path d="M115.89 97.91H97.58V100.62H115.89V97.91Z" fill="#FFD55C"/>
<g style="mix-blend-mode:screen" opacity="0.4">
<path d="M99.62 101.15H98.88V97.91H99.62V101.15ZM101.65 97.91H99.95V101.15H101.65V97.91Z" fill="#FFD880"/>
</g>
<g style="mix-blend-mode:multiply" opacity="0.3">
<path d="M114.42 97.91H115.12V101.15H114.42V97.91ZM110.36 101.15H113.91V97.91H110.36V101.15Z" fill="#FFC550"/>
</g>
<path d="M115.89 94.89H97.58V97.91H115.89V94.89Z" fill="#FFB733"/>
<path d="M115.89 94.67H97.58V97.38H115.89V94.67Z" fill="#FFD55C"/>
<g style="mix-blend-mode:screen" opacity="0.4">
<path d="M99.62 97.91H98.88V94.67H99.62V97.91ZM101.65 94.67H99.95V97.91H101.65V94.67Z" fill="#FFD880"/>
</g>
<g style="mix-blend-mode:multiply" opacity="0.3">
<path d="M114.42 94.67H115.12V97.91H114.42V94.67ZM110.36 97.91H113.91V94.67H110.36V97.91Z" fill="#FFC550"/>
</g>
<path d="M115.89 91.65H97.58V94.67H115.89V91.65Z" fill="#FFB733"/>
<path d="M115.89 91.4301H97.58V94.1401H115.89V91.4301Z" fill="#FFD55C"/>
<g style="mix-blend-mode:screen" opacity="0.4">
<path d="M99.62 94.6701H98.88V91.4301H99.62V94.6701ZM101.65 91.4301H99.95V94.6701H101.65V91.4301Z" fill="#FFD880"/>
</g>
<g style="mix-blend-mode:multiply" opacity="0.3">
<path d="M114.42 91.4301H115.12V94.6701H114.42V91.4301ZM110.36 94.6701H113.91V91.4301H110.36V94.6701Z" fill="#FFC550"/>
</g>
<path d="M115.89 88.41H97.58V91.43H115.89V88.41Z" fill="#FFB733"/>
<path d="M115.89 88.2001H97.58V90.9101H115.89V88.2001Z" fill="#FFD55C"/>
<g style="mix-blend-mode:screen" opacity="0.4">
<path d="M99.62 91.4301H98.88V88.1901H99.62V91.4301ZM101.65 88.2001H99.95V91.4401H101.65V88.2001Z" fill="#FFD880"/>
</g>
<g style="mix-blend-mode:multiply" opacity="0.3">
<path d="M114.42 88.2001H115.12V91.4401H114.42V88.2001ZM110.36 91.4301H113.91V88.1901H110.36V91.4301Z" fill="#FFC550"/>
</g>
<path d="M115.89 85.17H97.58V88.19H115.89V85.17Z" fill="#FFB733"/>
<path d="M115.89 84.96H97.58V87.67H115.89V84.96Z" fill="#FFD55C"/>
<g style="mix-blend-mode:screen" opacity="0.4">
<path d="M99.62 88.2H98.88V84.96H99.62V88.2ZM101.65 84.96H99.95V88.2H101.65V84.96Z" fill="#FFD880"/>
</g>
<g style="mix-blend-mode:multiply" opacity="0.3">
<path d="M114.42 84.96H115.12V88.2H114.42V84.96ZM110.36 88.2H113.91V84.96H110.36V88.2Z" fill="#FFC550"/>
</g>
<path d="M115.89 81.9301H97.58V84.9501H115.89V81.9301Z" fill="#FFB733"/>
<path d="M115.89 81.72H97.58V84.43H115.89V81.72Z" fill="#FFD55C"/>
<g style="mix-blend-mode:screen" opacity="0.4">
<path d="M99.62 84.96H98.88V81.72H99.62V84.96ZM101.65 81.72H99.95V84.96H101.65V81.72Z" fill="#FFD880"/>
</g>
<g style="mix-blend-mode:multiply" opacity="0.3">
<path d="M114.42 81.72H115.12V84.96H114.42V81.72ZM110.36 84.96H113.91V81.72H110.36V84.96Z" fill="#FFC550"/>
</g>
<path d="M115.89 78.7H97.58V81.72H115.89V78.7Z" fill="#FFB733"/>
<path d="M115.89 78.48H97.58V81.19H115.89V78.48Z" fill="#FFD55C"/>
<g style="mix-blend-mode:screen" opacity="0.4">
<path d="M99.62 81.72H98.88V78.48H99.62V81.72ZM101.65 78.48H99.95V81.72H101.65V78.48Z" fill="#FFD880"/>
</g>
<g style="mix-blend-mode:multiply" opacity="0.3">
<path d="M114.42 78.48H115.12V81.72H114.42V78.48ZM110.36 81.72H113.91V78.48H110.36V81.72Z" fill="#FFC550"/>
</g>
<path d="M115.89 75.4601H97.58V78.4801H115.89V75.4601Z" fill="#FFB733"/>
<path d="M115.89 75.2401H97.58V77.9501H115.89V75.2401Z" fill="#FFD55C"/>
<g style="mix-blend-mode:screen" opacity="0.4">
<path d="M99.62 78.4801H98.88V75.2401H99.62V78.4801ZM101.65 75.2401H99.95V78.4801H101.65V75.2401Z" fill="#FFD880"/>
</g>
<g style="mix-blend-mode:multiply" opacity="0.3">
<path d="M114.42 75.2401H115.12V78.4801H114.42V75.2401ZM110.36 78.4801H113.91V75.2401H110.36V78.4801Z" fill="#FFC550"/>
</g>
<path d="M115.89 72.2201H97.58V75.2401H115.89V72.2201Z" fill="#FFB733"/>
<path d="M115.89 72.0001H97.58V74.7101H115.89V72.0001Z" fill="#FFD55C"/>
<g style="mix-blend-mode:screen" opacity="0.4">
<path d="M99.62 75.2401H98.88V72.0001H99.62V75.2401ZM101.65 72.0001H99.95V75.2401H101.65V72.0001Z" fill="#FFD880"/>
</g>
<g style="mix-blend-mode:multiply" opacity="0.3">
<path d="M114.42 72.0001H115.12V75.2401H114.42V72.0001ZM110.36 75.2401H113.91V72.0001H110.36V75.2401Z" fill="#FFC550"/>
</g>
<path d="M115.89 68.9801H97.58V72.0001H115.89V68.9801Z" fill="#FFB733"/>
<path d="M115.89 68.7701H97.58V71.4801H115.89V68.7701Z" fill="#FFD55C"/>
<g style="mix-blend-mode:screen" opacity="0.4">
<path d="M99.62 72.0001H98.88V68.7601H99.62V72.0001ZM101.65 68.7701H99.95V72.0101H101.65V68.7701Z" fill="#FFD880"/>
</g>
<g style="mix-blend-mode:multiply" opacity="0.3">
<path d="M114.42 68.7701H115.12V72.0101H114.42V68.7701ZM110.36 72.0001H113.91V68.7601H110.36V72.0001Z" fill="#FFC550"/>
</g>
<path d="M115.89 65.7401H97.58V68.7601H115.89V65.7401Z" fill="#FFB733"/>
<path d="M115.89 65.53H97.58V68.24H115.89V65.53Z" fill="#FFD55C"/>
<g style="mix-blend-mode:screen" opacity="0.4">
<path d="M99.62 68.77H98.88V65.53H99.62V68.77ZM101.65 65.53H99.95V68.77H101.65V65.53Z" fill="#FFD880"/>
</g>
<g style="mix-blend-mode:multiply" opacity="0.3">
<path d="M114.42 65.53H115.12V68.77H114.42V65.53ZM110.36 68.77H113.91V65.53H110.36V68.77Z" fill="#FFC550"/>
</g>
<path d="M115.89 62.5001H97.58V65.5201H115.89V62.5001Z" fill="#FFB733"/>
<path d="M115.89 62.29H97.58V65H115.89V62.29Z" fill="#FFD55C"/>
<g style="mix-blend-mode:screen" opacity="0.4">
<path d="M99.62 65.53H98.88V62.29H99.62V65.53ZM101.65 62.29H99.95V65.53H101.65V62.29Z" fill="#FFD880"/>
</g>
<g style="mix-blend-mode:multiply" opacity="0.3">
<path d="M114.42 62.29H115.12V65.53H114.42V62.29ZM110.36 65.53H113.91V62.29H110.36V65.53Z" fill="#FFC550"/>
</g>
<path d="M115.89 59.27H97.58V62.29H115.89V59.27Z" fill="#FFB733"/>
<path d="M115.89 59.05H97.58V61.76H115.89V59.05Z" fill="#FFD55C"/>
<g style="mix-blend-mode:screen" opacity="0.4">
<path d="M99.62 62.2901H98.88V59.05H99.62V62.2901ZM101.65 59.05H99.95V62.2901H101.65V59.05Z" fill="#FFD880"/>
</g>
<g style="mix-blend-mode:multiply" opacity="0.3">
<path d="M114.42 59.05H115.12V62.2901H114.42V59.05ZM110.36 62.2901H113.91V59.05H110.36V62.2901Z" fill="#FFC550"/>
</g>
<path d="M70.25 101.36H51.94V104.38H70.25V101.36Z" fill="#FFB733"/>
<path d="M70.25 101.15H51.94V103.86H70.25V101.15Z" fill="#FFD55C"/>
<g style="mix-blend-mode:screen" opacity="0.4">
<path d="M53.99 104.39H53.25V101.15H53.99V104.39ZM56.02 101.15H54.33V104.39H56.02V101.15Z" fill="#FFD880"/>
</g>
<g style="mix-blend-mode:multiply" opacity="0.3">
<path d="M68.79 101.15H69.49V104.39H68.79V101.15ZM64.73 104.39H68.28V101.15H64.73V104.39Z" fill="#FFC550"/>
</g>
<path d="M70.25 98.13H51.94V101.15H70.25V98.13Z" fill="#FFB733"/>
<path d="M70.25 97.91H51.94V100.62H70.25V97.91Z" fill="#FFD55C"/>
<g style="mix-blend-mode:screen" opacity="0.4">
<path d="M53.99 101.15H53.25V97.91H53.99V101.15ZM56.02 97.91H54.33V101.15H56.02V97.91Z" fill="#FFD880"/>
</g>
<g style="mix-blend-mode:multiply" opacity="0.3">
<path d="M68.79 97.91H69.49V101.15H68.79V97.91ZM64.73 101.15H68.28V97.91H64.73V101.15Z" fill="#FFC550"/>
</g>
<path d="M70.25 94.89H51.94V97.91H70.25V94.89Z" fill="#FFB733"/>
<path d="M70.25 94.67H51.94V97.38H70.25V94.67Z" fill="#FFD55C"/>
<g style="mix-blend-mode:screen" opacity="0.4">
<path d="M53.99 97.91H53.25V94.67H53.99V97.91ZM56.02 94.67H54.33V97.91H56.02V94.67Z" fill="#FFD880"/>
</g>
<g style="mix-blend-mode:multiply" opacity="0.3">
<path d="M68.79 94.67H69.49V97.91H68.79V94.67ZM64.73 97.91H68.28V94.67H64.73V97.91Z" fill="#FFC550"/>
</g>
<path d="M70.25 91.65H51.94V94.67H70.25V91.65Z" fill="#FFB733"/>
<path d="M70.25 91.4401H51.94V94.1501H70.25V91.4401Z" fill="#FFD55C"/>
<g style="mix-blend-mode:screen" opacity="0.4">
<path d="M53.99 94.6701H53.25V91.4301H53.99V94.6701ZM56.02 91.4401H54.33V94.6801H56.02V91.4401Z" fill="#FFD880"/>
</g>
<g style="mix-blend-mode:multiply" opacity="0.3">
<path d="M68.79 91.4401H69.49V94.6801H68.79V91.4401ZM64.73 94.6701H68.28V91.4301H64.73V94.6701Z" fill="#FFC550"/>
</g>
<path d="M70.25 88.4101H51.94V91.4301H70.25V88.4101Z" fill="#FFB733"/>
<path d="M70.25 88.2001H51.94V90.9101H70.25V88.2001Z" fill="#FFD55C"/>
<g style="mix-blend-mode:screen" opacity="0.4">
<path d="M53.99 91.4401H53.25V88.2001H53.99V91.4401ZM56.02 88.2001H54.33V91.4401H56.02V88.2001Z" fill="#FFD880"/>
</g>
<g style="mix-blend-mode:multiply" opacity="0.3">
<path d="M68.79 88.2001H69.49V91.4401H68.79V88.2001ZM64.73 91.4401H68.28V88.2001H64.73V91.4401Z" fill="#FFC550"/>
</g>
<path d="M70.25 85.1801H51.94V88.2001H70.25V85.1801Z" fill="#FFB733"/>
<path d="M70.25 84.96H51.94V87.67H70.25V84.96Z" fill="#FFD55C"/>
<g style="mix-blend-mode:screen" opacity="0.4">
<path d="M53.99 88.2H53.25V84.96H53.99V88.2ZM56.02 84.96H54.33V88.2H56.02V84.96Z" fill="#FFD880"/>
</g>
<g style="mix-blend-mode:multiply" opacity="0.3">
<path d="M68.79 84.96H69.49V88.2H68.79V84.96ZM64.73 88.2H68.28V84.96H64.73V88.2Z" fill="#FFC550"/>
</g>
<path d="M93.07 101.36H74.76V104.38H93.07V101.36Z" fill="#FFB733"/>
<path d="M93.07 101.15H74.76V103.86H93.07V101.15Z" fill="#FFD55C"/>
<g style="mix-blend-mode:screen" opacity="0.4">
<path d="M76.8 104.39H76.06V101.15H76.8V104.39ZM78.83 101.15H77.13V104.39H78.83V101.15Z" fill="#FFD880"/>
</g>
<g style="mix-blend-mode:multiply" opacity="0.3">
<path d="M91.6 101.15H92.3V104.39H91.6V101.15ZM87.55 104.39H91.1V101.15H87.55V104.39Z" fill="#FFC550"/>
</g>
<path d="M93.07 98.13H74.76V101.15H93.07V98.13Z" fill="#FFB733"/>
<path d="M93.07 97.91H74.76V100.62H93.07V97.91Z" fill="#FFD55C"/>
<g style="mix-blend-mode:screen" opacity="0.4">
<path d="M76.8 101.15H76.06V97.91H76.8V101.15ZM78.83 97.91H77.13V101.15H78.83V97.91Z" fill="#FFD880"/>
</g>
<g style="mix-blend-mode:multiply" opacity="0.3">
<path d="M91.6 97.91H92.3V101.15H91.6V97.91ZM87.55 101.15H91.1V97.91H87.55V101.15Z" fill="#FFC550"/>
</g>
<path d="M93.07 94.89H74.76V97.91H93.07V94.89Z" fill="#FFB733"/>
<path d="M93.07 94.67H74.76V97.38H93.07V94.67Z" fill="#FFD55C"/>
<g style="mix-blend-mode:screen" opacity="0.4">
<path d="M76.8 97.91H76.06V94.67H76.8V97.91ZM78.83 94.67H77.13V97.91H78.83V94.67Z" fill="#FFD880"/>
</g>
<g style="mix-blend-mode:multiply" opacity="0.3">
<path d="M91.6 94.67H92.3V97.91H91.6V94.67ZM87.55 97.91H91.1V94.67H87.55V97.91Z" fill="#FFC550"/>
</g>
<path d="M93.07 91.65H74.76V94.67H93.07V91.65Z" fill="#FFB733"/>
<path d="M93.07 91.4401H74.76V94.1501H93.07V91.4401Z" fill="#FFD55C"/>
<g style="mix-blend-mode:screen" opacity="0.4">
<path d="M76.8 94.6701H76.06V91.4301H76.8V94.6701ZM78.83 91.4401H77.13V94.6801H78.83V91.4401Z" fill="#FFD880"/>
</g>
<g style="mix-blend-mode:multiply" opacity="0.3">
<path d="M91.6 91.4401H92.3V94.6801H91.6V91.4401ZM87.55 94.6701H91.1V91.4301H87.55V94.6701Z" fill="#FFC550"/>
</g>
<path d="M93.07 88.4101H74.76V91.4301H93.07V88.4101Z" fill="#FFB733"/>
<path d="M93.07 88.2001H74.76V90.9101H93.07V88.2001Z" fill="#FFD55C"/>
<g style="mix-blend-mode:screen" opacity="0.4">
<path d="M76.8 91.4401H76.06V88.2001H76.8V91.4401ZM78.83 88.2001H77.13V91.4401H78.83V88.2001Z" fill="#FFD880"/>
</g>
<g style="mix-blend-mode:multiply" opacity="0.3">
<path d="M91.6 88.2001H92.3V91.4401H91.6V88.2001ZM87.55 91.4401H91.1V88.2001H87.55V91.4401Z" fill="#FFC550"/>
</g>
<path d="M93.07 85.1801H74.76V88.2001H93.07V85.1801Z" fill="#FFB733"/>
<path d="M93.07 84.96H74.76V87.67H93.07V84.96Z" fill="#FFD55C"/>
<g style="mix-blend-mode:screen" opacity="0.4">
<path d="M76.8 88.2H76.06V84.96H76.8V88.2ZM78.83 84.96H77.13V88.2H78.83V84.96Z" fill="#FFD880"/>
</g>
<g style="mix-blend-mode:multiply" opacity="0.3">
<path d="M91.6 84.96H92.3V88.2H91.6V84.96ZM87.55 88.2H91.1V84.96H87.55V88.2Z" fill="#FFC550"/>
</g>
<path d="M93.07 81.9401H74.76V84.9601H93.07V81.9401Z" fill="#FFB733"/>
<path d="M93.07 81.72H74.76V84.43H93.07V81.72Z" fill="#FFD55C"/>
<g style="mix-blend-mode:screen" opacity="0.4">
<path d="M76.8 84.96H76.06V81.72H76.8V84.96ZM78.83 81.72H77.13V84.96H78.83V81.72Z" fill="#FFD880"/>
</g>
<g style="mix-blend-mode:multiply" opacity="0.3">
<path d="M91.6 81.72H92.3V84.96H91.6V81.72ZM87.55 84.96H91.1V81.72H87.55V84.96Z" fill="#FFC550"/>
</g>
<path d="M93.07 78.7H74.76V81.72H93.07V78.7Z" fill="#FFB733"/>
<path d="M93.07 78.48H74.76V81.19H93.07V78.48Z" fill="#FFD55C"/>
<g style="mix-blend-mode:screen" opacity="0.4">
<path d="M76.8 81.72H76.06V78.48H76.8V81.72ZM78.83 78.48H77.13V81.72H78.83V78.48Z" fill="#FFD880"/>
</g>
<g style="mix-blend-mode:multiply" opacity="0.3">
<path d="M91.6 78.48H92.3V81.72H91.6V78.48ZM87.55 81.72H91.1V78.48H87.55V81.72Z" fill="#FFC550"/>
</g>
<path d="M93.07 75.4601H74.76V78.4801H93.07V75.4601Z" fill="#FFB733"/>
<path d="M93.07 75.2501H74.76V77.9601H93.07V75.2501Z" fill="#FFD55C"/>
<g style="mix-blend-mode:screen" opacity="0.4">
<path d="M76.8 78.4801H76.06V75.2401H76.8V78.4801ZM78.83 75.2501H77.13V78.4901H78.83V75.2501Z" fill="#FFD880"/>
</g>
<g style="mix-blend-mode:multiply" opacity="0.3">
<path d="M91.6 75.2501H92.3V78.4901H91.6V75.2501ZM87.55 78.4801H91.1V75.2401H87.55V78.4801Z" fill="#FFC550"/>
</g>
<path d="M93.07 72.2201H74.76V75.2401H93.07V72.2201Z" fill="#FFB733"/>
<path d="M93.07 72.0101H74.76V74.7201H93.07V72.0101Z" fill="#FFD55C"/>
<g style="mix-blend-mode:screen" opacity="0.4">
<path d="M76.8 75.2501H76.06V72.0101H76.8V75.2501ZM78.83 72.0101H77.13V75.2501H78.83V72.0101Z" fill="#FFD880"/>
</g>
<g style="mix-blend-mode:multiply" opacity="0.3">
<path d="M91.6 72.0101H92.3V75.2501H91.6V72.0101ZM87.55 75.2501H91.1V72.0101H87.55V75.2501Z" fill="#FFC550"/>
</g>
<path d="M29.12 87.65C28.1 87.65 27.22 86.92 27.03 85.91C26.82 84.76 27.58 83.64 28.73 83.43C46.79 80.08 66.35 71.26 83.82 58.61C94.95 50.55 104.69 41.41 112.76 31.46C113.17 30.96 113.77 30.67 114.41 30.67C114.9 30.67 115.37 30.84 115.75 31.15C116.19 31.51 116.47 32.02 116.52 32.58C116.58 33.15 116.41 33.7 116.06 34.14C107.76 44.38 97.75 53.77 86.31 62.05C68.34 75.07 48.16 84.14 29.5 87.61C29.37 87.63 29.24 87.65 29.11 87.65H29.12Z" fill="white"/>
<path d="M115.87 48.83C114.78 48.83 113.87 48.01 113.76 46.92L112.53 35.14L100.75 36.37C100.68 36.37 100.6 36.38 100.53 36.38C99.44 36.38 98.53 35.56 98.42 34.47C98.36 33.9 98.53 33.35 98.88 32.91C99.24 32.47 99.75 32.19 100.31 32.13L116.32 30.46L117.99 46.47C118.11 47.64 117.26 48.68 116.1 48.81C116.03 48.81 115.95 48.82 115.88 48.82L115.87 48.83Z" fill="white"/>
</svg>
