<svg width="440" height="288" viewBox="0 0 440 288" fill="none" xmlns="http://www.w3.org/2000/svg">
<g clip-path="url(#clip0_10_129)">
<path d="M206.427 152.82L216.191 163.097L193.404 184.747L183.64 174.47L206.427 152.82Z" fill="#00205A"/>
<path d="M188.521 179.61L183.638 174.47L206.425 152.82L211.308 157.959L188.521 179.61Z" fill="#E24E4F"/>
<path d="M175.442 98.5442C174.788 124.139 184.139 148.456 201.775 167.017C219.411 185.578 243.217 196.16 268.812 196.815C294.408 197.469 318.724 188.118 337.285 170.482C355.846 152.848 366.428 129.038 367.083 103.445C367.737 77.8508 358.386 53.5332 340.75 34.9718C323.116 16.4105 299.308 5.82854 273.713 5.17406C248.117 4.51957 223.801 13.8709 205.24 31.5067C186.679 49.1426 176.097 72.9489 175.442 98.5442ZM218.968 45.9554C249.316 17.1205 297.465 18.3517 326.301 48.7C355.136 79.0482 353.905 127.198 323.557 156.033C293.209 184.868 245.058 183.637 216.224 153.289C187.389 122.941 188.62 74.7902 218.968 45.9554Z" fill="#336699"/>
<path d="M173.778 166.949L200.413 194.982L115.611 275.552L88.976 247.52L173.777 166.948L173.778 166.949Z" fill="#2B2F40"/>
<path d="M102.295 261.536L88.9776 247.52L173.778 166.948L187.096 180.964L102.295 261.536Z" fill="#336699"/>
<path d="M83.166 253.041L109.801 281.074L115.612 275.552L88.9776 247.52L83.166 253.041Z" fill="#E24E4F"/>
<path d="M102.295 261.536L88.9776 247.52L83.166 253.041L96.4835 267.058L102.295 261.536Z" fill="#E24E4F"/>
<path d="M173.778 166.949L200.413 194.982L206.225 189.46L179.59 161.427L173.778 166.949Z" fill="#E24E4F"/>
<path d="M192.906 175.444L179.588 161.427L173.777 166.949L187.094 180.966L192.906 175.444Z" fill="#E24E4F"/>
<path d="M185.499 98.8014C184.289 146.092 221.779 185.549 269.069 186.758C316.36 187.967 355.817 150.478 357.026 103.187C358.236 55.8971 320.746 16.4398 273.456 15.2306C226.165 14.0213 186.708 51.511 185.499 98.8014Z" fill="#00205A"/>
<path d="M273.404 17.2403C227.222 16.0594 188.689 52.6703 187.508 98.8527C186.328 145.035 222.938 183.567 269.121 184.748C315.303 185.929 353.836 149.318 355.017 103.136C356.197 56.9536 319.587 18.4212 273.404 17.2403Z" fill="#E9E9E9"/>
<path d="M261.912 112.369L250.289 112.072L249.466 144.262L261.089 144.559L261.912 112.369Z" fill="#49C8F5"/>
<path d="M261.561 126.079L249.938 125.782L249.466 144.26L261.089 144.557L261.561 126.079Z" fill="#FFCC00"/>
<path d="M261.485 129.057L249.862 128.76L249.466 144.262L261.089 144.559L261.485 129.057Z" fill="#336699"/>
<path d="M261.315 135.725L249.691 135.428L249.466 144.262L261.089 144.559L261.315 135.725Z" fill="#E24E4F"/>
<path d="M231.205 131.882L219.582 131.585L219.278 143.488L230.901 143.786L231.205 131.882Z" fill="#49C8F5"/>
<path d="M231.145 134.23L219.522 133.932L219.326 141.582L230.949 141.88L231.145 134.23Z" fill="#FFCC00"/>
<path d="M231.047 138.054L219.424 137.757L219.278 143.488L230.901 143.786L231.047 138.054Z" fill="#336699"/>
<path d="M230.984 140.519L219.361 140.222L219.278 143.488L230.901 143.786L230.984 140.519Z" fill="#E24E4F"/>
<path d="M247.638 80.5835L236.015 80.2863L234.389 143.876L246.012 144.173L247.638 80.5835Z" fill="#49C8F5"/>
<path d="M247.091 101.956L235.468 101.659L234.947 122.034L246.57 122.331L247.091 101.956Z" fill="#FFCC00"/>
<path d="M246.816 112.712L235.193 112.414L234.694 131.925L246.317 132.222L246.816 112.712Z" fill="#336699"/>
<path d="M246.511 124.662L234.888 124.364L234.389 143.875L246.012 144.172L246.511 124.662Z" fill="#E24E4F"/>
<path d="M278.766 43.3289L267.143 43.0317L264.544 144.646L276.167 144.943L278.766 43.3289Z" fill="#49C8F5"/>
<path d="M277.813 80.5644L266.19 80.2672L264.544 144.646L276.167 144.943L277.813 80.5644Z" fill="#FFCC00"/>
<path d="M277.486 93.379L265.863 93.0818L264.544 144.647L276.167 144.945L277.486 93.379Z" fill="#336699"/>
<path d="M276.855 118.048L265.232 117.75L264.544 144.647L276.167 144.945L276.855 118.048Z" fill="#E24E4F"/>
<path d="M307.381 105.661L295.758 105.364L294.734 145.419L306.357 145.717L307.381 105.661Z" fill="#49C8F5"/>
<path d="M306.945 122.723L295.322 122.426L294.734 145.419L306.357 145.717L306.945 122.723Z" fill="#FFCC00"/>
<path d="M306.85 126.428L295.227 126.131L294.734 145.419L306.357 145.717L306.85 126.428Z" fill="#336699"/>
<path d="M306.638 134.724L295.015 134.427L294.734 145.419L306.357 145.717L306.638 134.724Z" fill="#E24E4F"/>
<path d="M293.209 69.8174L281.586 69.5201L279.655 145.034L291.278 145.331L293.209 69.8174Z" fill="#49C8F5"/>
<path d="M292.56 95.1972L280.937 94.9L280.318 119.095L291.942 119.392L292.56 95.1972Z" fill="#FFCC00"/>
<path d="M292.234 107.97L280.611 107.673L280.018 130.842L291.641 131.139L292.234 107.97Z" fill="#336699"/>
<path d="M291.871 122.161L280.248 121.864L279.655 145.032L291.278 145.329L291.871 122.161Z" fill="#E24E4F"/>
<path d="M322.87 89.9903L311.247 89.6931L309.812 145.803L321.435 146.101L322.87 89.9903Z" fill="#49C8F5"/>
<path d="M322.344 110.551L310.721 110.254L309.812 145.803L321.435 146.101L322.344 110.551Z" fill="#FFCC00"/>
<path d="M322.031 122.806L310.408 122.509L309.812 145.803L321.435 146.101L322.031 122.806Z" fill="#336699"/>
<path d="M321.815 131.25L310.192 130.953L309.812 145.805L321.435 146.102L321.815 131.25Z" fill="#E24E4F"/>
</g>
<path fill-rule="evenodd" clip-rule="evenodd" d="M397.907 237.806H372.219C372.219 223.508 383.723 211.915 397.907 211.915C412.091 211.915 423.594 223.508 423.594 237.806H397.907Z" fill="#EBEBEB"/>
<path fill-rule="evenodd" clip-rule="evenodd" d="M419.713 237.806H400.113C400.113 226.898 408.888 218.057 419.713 218.057C430.537 218.057 439.312 226.898 439.312 237.806H419.713Z" fill="#EBEBEB"/>
<path fill-rule="evenodd" clip-rule="evenodd" d="M316.114 237.806H301C301 229.393 307.766 222.572 316.114 222.572C324.461 222.572 331.228 229.393 331.228 237.806H316.114Z" fill="#EBEBEB"/>
<path fill-rule="evenodd" clip-rule="evenodd" d="M359.304 237.806H326.762C326.762 219.691 341.333 205 359.304 205C377.276 205 391.846 219.684 391.846 237.806H359.304Z" fill="#EBEBEB"/>
<path fill-rule="evenodd" clip-rule="evenodd" d="M96.9068 121.806H71.2193C71.2193 107.508 82.7227 95.9151 96.9068 95.9151C111.091 95.9151 122.594 107.508 122.594 121.806H96.9068Z" fill="#EBEBEB"/>
<path fill-rule="evenodd" clip-rule="evenodd" d="M118.713 121.806H99.1126C99.1126 110.898 107.888 102.057 118.713 102.057C129.537 102.057 138.312 110.898 138.312 121.806H118.713Z" fill="#EBEBEB"/>
<path fill-rule="evenodd" clip-rule="evenodd" d="M15.1139 121.806H0C0 113.393 6.7663 106.572 15.1139 106.572C23.4615 106.572 30.2278 113.393 30.2278 121.806H15.1139Z" fill="#EBEBEB"/>
<path fill-rule="evenodd" clip-rule="evenodd" d="M58.3044 121.806H25.7624C25.7624 103.691 40.3333 89 58.3044 89C76.2755 89 90.8465 103.684 90.8465 121.806H58.3044Z" fill="#EBEBEB"/>
<defs>
<clipPath id="clip0_10_129">
<rect width="280" height="280" fill="white" transform="translate(89.6245 0.466797) rotate(1.46477)"/>
</clipPath>
</defs>
</svg>
