<svg width="133" height="136" viewBox="0 0 133 136" fill="none" xmlns="http://www.w3.org/2000/svg">
<path d="M89.836 18.194C88.6526 17.759 88.0531 16.4344 88.4891 15.2303C88.9251 14.0494 90.2526 13.4512 91.4555 13.8863C96.7265 15.8518 101.748 18.5475 106.357 21.857C134.538 42.1722 140.891 81.5712 120.535 109.694C119.142 111.609 117.631 113.462 116.035 115.217L120.839 122.901C121.29 123.627 121.314 124.563 120.854 125.282C120.442 125.985 119.694 126.404 118.885 126.404H118.721L78.4611 123.588C77.7136 123.522 77.048 123.13 76.6548 122.508C76.2617 121.887 76.1954 121.098 76.4913 120.419L91.6151 83.0822C91.9265 82.2781 92.6739 81.7188 93.5498 81.6566C94.3985 81.5751 95.251 81.9868 95.7026 82.7326L98.0578 86.4771C104.598 72.878 100.561 56.2335 88.0259 47.1869C86.278 45.9478 84.4133 44.8679 82.4863 43.9823C81.3029 43.4618 80.8046 42.0906 81.3224 40.9525C81.844 39.7949 83.2104 39.2783 84.3743 39.7949L89.8438 18.194H89.836Z" fill="#2B9B8F"/>
<path d="M103.994 125.371C103.364 125.787 102.725 126.191 102.079 126.587C72.3803 144.622 33.5217 135.179 15.4471 105.546C14.217 103.518 13.0919 101.413 12.0914 99.2646L3.13004 100.698C2.2814 100.834 1.40943 100.492 0.922819 99.789C0.432318 99.1364 0.338908 98.2896 0.650337 97.54L0.712589 97.3885L18.9351 61.4582C19.2855 60.7978 19.9044 60.3356 20.6324 60.2152C21.3603 60.0948 22.1117 60.3395 22.6255 60.8755L51.2459 89.2702C51.8688 89.8683 52.0945 90.7734 51.8142 91.6047C51.5612 92.4165 50.8527 93.0419 49.9885 93.1662L45.6129 93.8809C55.3101 104.804 71.4771 107.729 84.4909 100.651L76.4834 120.419C76.1875 121.099 76.2537 121.887 76.6468 122.509C77.04 123.13 77.7057 123.522 78.4531 123.588L103.994 125.375V125.371Z" fill="#2BCE8F"/>
<path d="M6.58688 85.813C5.52802 81.0469 5.0297 76.1371 5.09198 71.2195C5.58638 36.5322 34.2729 8.72407 69.0362 9.21739C71.4108 9.25623 73.7972 9.42714 76.1524 9.72624L79.7026 1.39041C80.0413 0.601888 80.7926 0.0464231 81.649 0.0075795C82.4627 -0.0584545 83.2334 0.310561 83.7006 0.974786L83.794 1.11074L104.59 35.6194C104.963 36.268 105.026 37.0371 104.742 37.713C104.457 38.3928 103.85 38.8977 103.122 39.0454L63.8003 48.1192C62.9633 48.3251 62.0757 48.0376 61.5191 47.3579C60.9663 46.7131 60.8145 45.7808 61.1648 44.9806L62.8854 40.906C47.9719 43.3686 36.632 56.222 36.4023 71.6584C36.3945 72.6567 36.4334 73.655 36.5113 74.6494L22.6294 60.8754C22.1155 60.3394 21.3641 60.0947 20.6362 60.2151C19.9082 60.3355 19.2893 60.7939 18.9389 61.4581L6.58688 85.8091V85.813Z" fill="#237E73"/>
</svg>
