<svg width="397" height="405" viewBox="0 0 397 405" fill="none" xmlns="http://www.w3.org/2000/svg">
<path d="M272.715 89.0657V67.6831C262.26 68.3695 253.994 77.0702 253.994 87.7272C253.994 98.3842 262.978 107.84 274.05 107.84C285.121 107.84 293.352 99.5511 294.037 89.0657H272.715Z" fill="#5FC4E9"/>
<path d="M293.078 84.0204C293.078 75.7144 286.37 68.9873 278.088 68.9873V84.0204H293.078Z" fill="white"/>
<path d="M309.147 236.204C307.47 241.318 304.817 245.934 301.275 249.796L328.175 287.498C341.762 275.743 351.533 259.646 355.247 241.318L309.147 236.204Z" fill="#29A4D1"/>
<path d="M281.665 188.411C297.339 191.671 309.232 204.92 310.772 221.205L356.821 226.302C356.821 225.77 356.889 225.255 356.889 224.741C356.889 181.443 323.829 145.937 281.665 142.127V188.411Z" fill="#9DE3FD"/>
<path d="M246.876 199.857C252.027 194.177 258.82 190.024 266.623 188.411V142.127C242.067 144.358 220.677 157.332 207.022 176.312L246.876 199.857Z" fill="#5FC4E9"/>
<path d="M289.074 258.617C284.488 260.642 279.457 261.809 274.135 261.809C253.686 261.809 237.139 245.214 237.139 224.724C237.139 220.536 237.978 216.589 239.244 212.848L199.39 189.303C194.308 200.046 191.381 212.024 191.381 224.724C191.381 270.561 228.429 307.697 274.135 307.697C289.399 307.697 303.637 303.493 315.923 296.268L289.074 258.617Z" fill="#5FC4E9"/>
<path d="M112.478 256.558C102.467 266.597 102.467 282.865 112.478 292.887L141.91 322.404C151.921 332.444 168.143 332.444 178.154 322.404L207.587 292.887C217.597 282.848 217.597 266.58 207.587 256.558L178.154 227.041C168.143 217.001 151.921 217.001 141.91 227.041L112.478 256.558Z" fill="white"/>
<path d="M111.04 186.043H105.735C105.513 186.043 105.291 186.06 105.068 186.077V276.327C105.291 276.327 105.513 276.361 105.735 276.361H111.04C119.836 276.361 126.954 269.222 126.954 260.402V202.003C126.954 193.182 119.836 186.043 111.04 186.043Z" fill="white"/>
<path d="M249.614 235.981C253.823 240.203 253.823 247.05 249.614 251.272L193.486 307.56C189.277 311.781 182.449 311.781 178.239 307.56C174.03 303.338 174.03 296.491 178.239 292.269L234.367 235.981C238.576 231.76 245.404 231.76 249.614 235.981Z" fill="white"/>
<path d="M248.621 198.639C252.831 202.86 252.831 209.708 248.621 213.929L192.494 270.217C188.284 274.439 181.456 274.439 177.247 270.217C173.037 265.996 173.037 259.149 177.247 254.927L233.374 198.639C237.584 194.417 244.412 194.417 248.621 198.639Z" fill="white"/>
<path d="M247.646 161.297C251.855 165.518 251.855 172.365 247.646 176.587L191.518 232.875C187.309 237.097 180.481 237.097 176.271 232.875C172.062 228.654 172.062 221.806 176.271 217.585L232.399 161.297C236.609 157.075 243.436 157.075 247.646 161.297Z" fill="white"/>
<path d="M182.09 382.828V279.021C182.09 268.502 173.585 259.973 163.095 259.973H132.225C121.735 259.973 113.231 268.502 113.231 279.021V382.828H182.09Z" fill="white"/>
<path d="M211.83 88.3276H142.184C133.748 88.3276 126.903 95.192 126.903 103.635V270.732C126.903 279.192 133.748 286.04 142.184 286.04H211.83C220.267 286.04 227.094 279.175 227.094 270.732V103.652C227.094 95.2092 220.267 88.3448 211.83 88.3448V88.3276Z" fill="#1B5E8F"/>
<path d="M163.865 100.152H190.115C190.851 100.152 191.45 100.752 191.45 101.49C191.45 102.228 190.851 102.846 190.115 102.846H163.865C163.129 102.846 162.53 102.245 162.53 101.49C162.53 100.735 163.129 100.152 163.865 100.152Z" fill="white"/>
<path d="M176.99 274.782C172.113 274.782 168.16 270.801 168.16 265.927C168.16 261.053 172.113 257.055 176.99 257.055C181.867 257.055 185.82 261.019 185.82 265.927C185.82 270.835 181.867 274.782 176.99 274.782Z" fill="white"/>
<path d="M220.386 118.428H133.594V247.376H220.386V118.428Z" fill="white"/>
<path d="M176.99 259.767C173.619 259.767 170.864 262.512 170.864 265.91C170.864 269.308 173.619 272.054 176.99 272.054C180.361 272.054 183.116 269.291 183.116 265.91C183.116 262.53 180.378 259.767 176.99 259.767Z" fill="#103754"/>
<path d="M211.83 88.3276H176.391V100.152H190.132C190.868 100.152 191.467 100.752 191.467 101.49C191.467 102.228 190.868 102.846 190.132 102.846H176.391V118.428H220.403V247.376H176.391V257.106C176.597 257.106 176.785 257.038 177.007 257.038C181.884 257.038 185.837 261.002 185.837 265.91C185.837 270.818 181.884 274.765 177.007 274.765C176.802 274.765 176.597 274.713 176.391 274.696V286.04H211.83C220.267 286.04 227.094 279.175 227.094 270.732V103.652C227.094 95.2092 220.267 88.3448 211.83 88.3448V88.3276Z" fill="#103754"/>
<path d="M191.467 101.49C191.467 100.752 190.868 100.152 190.132 100.152H176.391V102.846H190.132C190.868 102.846 191.467 102.245 191.467 101.49Z" fill="#D1ECFB"/>
<path d="M185.837 265.91C185.837 261.002 181.884 257.038 177.007 257.038C176.802 257.038 176.597 257.089 176.391 257.106V259.818C176.597 259.801 176.785 259.749 177.007 259.749C180.395 259.749 183.133 262.495 183.133 265.893C183.133 269.291 180.395 272.036 177.007 272.036C176.802 272.036 176.597 272.002 176.391 271.968V274.679C176.597 274.679 176.785 274.748 177.007 274.748C181.884 274.748 185.837 270.766 185.837 265.893V265.91Z" fill="white"/>
<path d="M220.403 118.428H176.391V247.376H220.403V118.428Z" fill="#D1ECFB"/>
<path d="M183.133 265.91C183.133 262.512 180.395 259.767 177.007 259.767C176.802 259.767 176.596 259.801 176.391 259.835V272.002C176.596 272.02 176.785 272.071 177.007 272.071C180.395 272.071 183.133 269.308 183.133 265.927V265.91Z" fill="#103754"/>
<path d="M186.282 332.855H109.038V372.325H186.282V332.855Z" fill="#1B5E8F"/>
<path d="M106.129 405V340.234H189.191V405" fill="#EF6D6E"/>
<path d="M189.191 340.234H106.129V346.447H189.191V340.234Z" fill="#E24E4F"/>
<path d="M186.265 332.855H147.694V340.217H186.265V332.855Z" fill="#103754"/>
<path d="M189.191 405V346.43H147.694V405" fill="#E24E4F"/>
<path d="M147.694 340.234V346.43H189.191V340.234H186.282H147.694Z" fill="#E24E4F"/>
<path d="M180.276 358.597C180.276 360.793 178.496 362.561 176.323 362.561C174.15 362.561 172.37 360.793 172.37 358.597C172.37 356.4 174.15 354.632 176.323 354.632C178.496 354.632 180.276 356.4 180.276 358.597Z" fill="#103754"/>
<path d="M149.286 203.65C152.593 203.65 155.275 200.961 155.275 197.644C155.275 194.326 152.593 191.637 149.286 191.637C145.978 191.637 143.297 194.326 143.297 197.644C143.297 200.961 145.978 203.65 149.286 203.65Z" fill="#E24E4F"/>
<path d="M147.865 201.677C147.284 201.677 146.702 201.488 146.223 201.076C145.127 200.166 144.973 198.553 145.88 197.455L179.454 156.852C179.916 156.303 180.584 155.96 181.302 155.925C182.004 155.874 182.723 156.148 183.236 156.663L200.263 173.481L245.524 119.939C246.448 118.857 248.057 118.72 249.135 119.647C250.213 120.574 250.35 122.187 249.425 123.268L202.384 178.921C201.922 179.47 201.255 179.796 200.536 179.831C199.835 179.865 199.133 179.59 198.62 179.093L181.61 162.292L149.833 200.733C149.32 201.351 148.601 201.659 147.848 201.659L147.865 201.677Z" fill="#E24E4F"/>
<path d="M248.33 138.781C246.91 138.781 245.764 137.631 245.764 136.207V123.336H232.929C231.509 123.336 230.363 122.187 230.363 120.762C230.363 119.338 231.509 118.188 232.929 118.188H248.33C249.751 118.188 250.897 119.338 250.897 120.762V136.207C250.897 137.631 249.751 138.781 248.33 138.781Z" fill="#E24E4F"/>
<path d="M47.6229 222.527H23.3751C22.1944 222.527 21.2361 221.566 21.2361 220.382V188.772C21.2361 187.587 22.1944 186.626 23.3751 186.626H47.6229C48.8036 186.626 49.7619 187.587 49.7619 188.772V220.382C49.7619 221.566 48.8036 222.527 47.6229 222.527ZM24.6585 219.095H46.3395V190.059H24.6585V219.095Z" fill="white"/>
<path d="M81.847 222.527H57.5992C56.4185 222.527 55.4602 221.566 55.4602 220.382V153.746C55.4602 152.562 56.4185 151.601 57.5992 151.601H81.847C83.0278 151.601 83.986 152.562 83.986 153.746V220.382C83.986 221.566 83.0278 222.527 81.847 222.527ZM58.8826 219.095H80.5636V155.033H58.8826V219.095Z" fill="white"/>
<path d="M116.071 222.527H91.8233C90.6426 222.527 89.6843 221.566 89.6843 220.382V117.124C89.6843 115.94 90.6426 114.979 91.8233 114.979H116.071C117.252 114.979 118.21 115.94 118.21 117.124V220.382C118.21 221.566 117.252 222.527 116.071 222.527ZM93.1067 219.095H114.788V118.411H93.1067V219.095Z" fill="white"/>
</svg>
