<svg width="133" height="133" viewBox="0 0 133 133" fill="none" xmlns="http://www.w3.org/2000/svg">
<path d="M70.4063 66.2647H62.1232V132.529H70.4063V66.2647Z" fill="#474E5D"/>
<path d="M35.3506 132.529L69.8523 72.7747L62.6771 68.6331L25.7863 132.529H35.3506Z" fill="#474E5D"/>
<path d="M97.1788 132.529L62.6771 72.7747L69.8523 68.6331L106.743 132.529H97.1788Z" fill="#474E5D"/>
<path d="M49.6985 107.68L54.482 99.3971H44.9151L40.1342 107.68H49.6985Z" fill="#2E3544"/>
<path d="M87.6143 99.3971H78.0474L82.8308 107.68H92.3952L87.6143 99.3971Z" fill="#2E3544"/>
<path d="M70.4063 99.3971H62.1232V107.68H70.4063V99.3971Z" fill="#2E3544"/>
<path d="M99.397 95.2555H33.1323V103.539H99.397V95.2555Z" fill="#474E5D"/>
<path d="M128.388 0H4.14148V95.2555H128.388V0Z" fill="white"/>
<path d="M132.529 91.114H0V95.2555H132.529V91.114Z" fill="#474E5D"/>
<path d="M120.623 82.0543H11.907V83.0897H120.623V82.0543Z" fill="#D8DBE1"/>
<path d="M120.623 68.0766H11.907V69.112H120.623V68.0766Z" fill="#D8DBE1"/>
<path d="M120.623 54.0989H11.907V55.1343H120.623V54.0989Z" fill="#D8DBE1"/>
<path d="M120.623 40.1212H11.907V41.1566H120.623V40.1212Z" fill="#D8DBE1"/>
<path d="M120.623 26.1435H11.907V27.1789H120.623V26.1435Z" fill="#D8DBE1"/>
<path d="M120.623 12.1658H11.907V13.2012H120.623V12.1658Z" fill="#D8DBE1"/>
<path d="M12.9424 12.1658H11.907V83.0897H12.9424V12.1658Z" fill="#D8DBE1"/>
<path d="M39.8624 12.1658H38.827V83.0897H39.8624V12.1658Z" fill="#D8DBE1"/>
<path d="M66.7825 12.1658H65.7471V83.0897H66.7825V12.1658Z" fill="#D8DBE1"/>
<path d="M93.7025 12.1658H92.6671V83.0897H93.7025V12.1658Z" fill="#D8DBE1"/>
<path d="M120.623 12.1658H119.587V83.0897H120.623V12.1658Z" fill="#D8DBE1"/>
<path d="M128.388 4.14154H4.14148V6.21231H128.388V4.14154Z" fill="#D8DBE1"/>
<path d="M132.529 1.52588e-05H0V4.14156H132.529V1.52588e-05Z" fill="#474E5D"/>
<path d="M11.907 73.2536L39.3447 64.9705L66.2647 50.4751L93.1848 51.7693L120.623 31.0616V83.0897H11.907V73.2536Z" fill="#FFCA10"/>
<path d="M11.907 77.3951L39.3447 71.1828L66.2647 58.7581L93.1848 64.1939L120.623 47.6277V83.0897H11.907V77.3951Z" fill="#E24E4F"/>
<path d="M11.907 79.4659L39.3447 75.3243L66.2647 67.0413L93.1848 74.5478L120.623 64.1939V83.0897H11.907V79.4659Z" fill="#46DAFF"/>
<path d="M32.6146 49.4397C41.7639 49.4397 49.1808 42.0228 49.1808 32.8735C49.1808 23.7243 41.7639 16.3073 32.6146 16.3073C23.4654 16.3073 16.0485 23.7243 16.0485 32.8735C16.0485 42.0228 23.4654 49.4397 32.6146 49.4397Z" fill="#46DAFF"/>
<path d="M32.6146 32.8735L24.3315 18.5257C26.8501 17.0709 29.7078 16.3073 32.6146 16.3073C37.0073 16.3073 41.2239 18.0545 44.3274 21.1607L32.6146 32.8735Z" fill="#E24E4F"/>
<path d="M32.6147 32.8735L44.3275 21.1607C45.865 22.6983 47.0868 24.5257 47.9177 26.5344C48.7511 28.543 49.1782 30.6992 49.1782 32.8735H32.6121H32.6147Z" fill="#FFCA10"/>
</svg>
