<svg width="301" height="180" viewBox="0 0 301 180" fill="none" xmlns="http://www.w3.org/2000/svg">
<path d="M180.864 32.6948C207.783 32.6948 207.395 179.047 240.932 179.047H120.796C154.334 179.047 153.946 32.6948 180.864 32.6948Z" fill="white"/>
<path d="M60.71 0.285645C87.6287 0.285645 87.2404 179.047 120.778 179.047H0.64209C34.1795 179.047 33.7913 0.285645 60.71 0.285645Z" fill="#46DAFF"/>
<path d="M240.932 120.717C267.851 120.717 267.463 179.047 301 179.047H180.864C214.42 179.047 214.013 120.717 240.932 120.717Z" fill="#FFB733"/>
<path d="M216.935 142.921C222.758 163.683 230.061 179.047 240.932 179.047H180.864C200.332 179.047 208.375 159.412 216.935 142.921Z" fill="#FFD55C"/>
<path d="M120.778 68.8577C147.697 68.8577 147.308 179.047 180.846 179.047H60.7101C94.2475 179.047 93.8592 68.8577 120.778 68.8577Z" fill="#474C54"/>
<path d="M93.9147 121.401C100.219 153.33 108.058 179.047 120.778 179.047H60.7101C77.9965 179.047 86.2791 149.78 93.9147 121.401Z" fill="#22252A"/>
<path d="M148.954 126.264C156.257 153.016 164.539 179.047 180.846 179.047H120.778C134.404 179.047 142.428 154.92 148.954 126.264Z" fill="#22252A"/>
</svg>
