<svg width="744" height="267" viewBox="0 0 744 267" fill="none" xmlns="http://www.w3.org/2000/svg">
<g clip-path="url(#clip0_14_117)">
<path d="M392.676 172.933C435.598 172.933 470.393 138.14 470.393 95.222C470.393 52.3034 435.598 17.5111 392.676 17.5111C349.755 17.5111 314.96 52.3034 314.96 95.222C314.96 138.14 349.755 172.933 392.676 172.933Z" fill="#FFB733"/>
<path d="M381.779 70.1101L272.027 260.181H491.523L381.779 70.1101Z" fill="#394D5C"/>
<path d="M381.742 70.1101L326.903 165.142L364.5 144.817L381.742 165.252L395.154 144.817L422.972 141.455L381.742 70.1101Z" fill="white"/>
<path d="M381.742 70.1101L395.154 144.817L423.25 141.623L381.742 70.1101Z" fill="#2E75A3"/>
<path d="M395.154 144.817L398.348 260.181H491.523L423.25 141.623L395.154 144.817Z" fill="#143441"/>
<path opacity="0.15" d="M423.25 141.623L388.313 81.4236L381.779 70.1101L381.757 70.1393L381.742 70.1101L326.903 165.142L272.027 260.181H398.348H491.523L423.25 141.623Z" fill="black"/>
<path d="M536.54 95.2219L441.23 260.291H631.849L536.54 95.2219Z" fill="#394D5C"/>
<path d="M536.51 95.2219L488.885 177.756L521.534 160.099L536.51 177.844L548.154 160.099L572.317 157.183L536.51 95.2219Z" fill="white"/>
<path d="M536.51 95.2219L548.154 160.099L572.558 157.329L536.51 95.2219Z" fill="#2E75A3"/>
<path d="M548.154 160.099L550.931 260.291H631.849L572.558 157.329L548.154 160.099Z" fill="#143441"/>
<path opacity="0.08" d="M572.558 157.329L542.219 105.052L536.54 95.2219L536.525 95.2439L536.51 95.2219L488.885 177.756L441.23 260.291H550.931H631.849L572.558 157.329Z" fill="black"/>
<path d="M300.071 117.681L217.728 260.291H382.407L300.071 117.681Z" fill="#394D5C"/>
<path d="M300.042 117.681L258.9 188.982L287.105 173.729L300.042 189.063L310.107 173.729L330.981 171.208L300.042 117.681Z" fill="white"/>
<path d="M300.042 117.681L310.107 173.729L331.186 171.34L300.042 117.681Z" fill="#2E75A3"/>
<path d="M310.107 173.729L312.504 260.291H382.407L331.186 171.34L310.107 173.729Z" fill="#143441"/>
<path opacity="0.08" d="M331.186 171.34L304.976 126.173L300.071 117.681L300.057 117.703L300.042 117.681L258.9 188.982L217.728 260.291H312.504H382.407L331.186 171.34Z" fill="black"/>
<path d="M509.986 27.0414H482.453V9.99072H509.986L501.091 18.5124L509.986 27.0414Z" fill="#D83B3C"/>
<path d="M468.69 0H465.277V47.6439H468.69V0Z" fill="#995F5B"/>
<path opacity="0.15" d="M638.442 265.385H2.55815C1.14751 265.385 0 264.237 0 262.827C0 261.416 1.14751 260.269 2.55815 260.269H638.442C639.853 260.269 641 261.416 641 262.827C641 264.237 639.853 265.385 638.442 265.385Z" fill="black"/>
<path d="M467.024 42.6302L341.411 260.181H592.636L467.024 42.6302Z" fill="#394D5C"/>
<path d="M466.987 42.6302L404.217 151.409L447.253 128.139L466.987 151.526L482.336 128.139L514.174 124.295L466.987 42.6302Z" fill="white"/>
<path d="M466.987 42.6302L482.336 128.139L514.496 124.485L466.987 42.6302Z" fill="#2E75A3"/>
<path d="M482.336 128.139L485.991 260.181H592.636L514.496 124.485L482.336 128.139Z" fill="#143441"/>
<path d="M496.223 1.46167H468.69V18.5123H496.223V1.46167Z" fill="#E24E4F"/>
<path d="M482.453 27.0413L496.223 18.5123H482.453V27.0413Z" fill="#991D47"/>
<path d="M150.668 262.374C149.879 262.374 149.111 261.943 148.724 261.197C148.161 260.123 148.578 258.8 149.652 258.237L245.707 208.13C246.204 207.867 246.789 207.809 247.33 207.97L280.096 217.419L298.178 187.923C298.368 187.608 298.639 187.345 298.96 187.162L330.104 169.439C330.908 168.986 331.909 169.081 332.611 169.673L371.846 203.095L402.317 150.313C402.595 149.823 403.055 149.465 403.589 149.305L451.763 135.009L446.069 107.917C445.996 107.566 446.01 107.201 446.105 106.857L464.868 42.0237C465.204 40.8617 466.424 40.1893 467.586 40.5255C468.749 40.8617 469.421 42.0749 469.085 43.2442L450.476 107.551L456.47 136.084C456.703 137.202 456.046 138.313 454.949 138.634L405.672 153.258L374.316 207.56C373.987 208.123 373.432 208.51 372.789 208.627C372.145 208.737 371.488 208.562 370.991 208.138L330.923 174.007L301.606 190.692L282.946 221.132C282.427 221.973 281.419 222.367 280.469 222.097L246.942 212.428L151.662 262.125C151.34 262.293 150.989 262.374 150.646 262.374H150.668Z" fill="#CFDFE8"/>
<path d="M149.411 265.538C152.438 265.538 154.892 263.084 154.892 260.057C154.892 257.03 152.438 254.576 149.411 254.576C146.383 254.576 143.929 257.03 143.929 260.057C143.929 263.084 146.383 265.538 149.411 265.538Z" fill="#E24E4F"/>
<path d="M149.411 267C145.581 267 142.467 263.887 142.467 260.057C142.467 256.227 145.581 253.114 149.411 253.114C153.241 253.114 156.354 256.227 156.354 260.057C156.354 263.887 153.241 267 149.411 267ZM149.411 256.037C147.196 256.037 145.391 257.842 145.391 260.057C145.391 262.271 147.196 264.077 149.411 264.077C151.625 264.077 153.431 262.271 153.431 260.057C153.431 257.842 151.625 256.037 149.411 256.037Z" fill="#E4EFF4"/>
<path d="M246.284 216.542C249.312 216.542 251.766 214.088 251.766 211.061C251.766 208.034 249.312 205.58 246.284 205.58C243.257 205.58 240.803 208.034 240.803 211.061C240.803 214.088 243.257 216.542 246.284 216.542Z" fill="#E24E4F"/>
<path d="M246.284 218.004C242.454 218.004 239.341 214.891 239.341 211.061C239.341 207.231 242.454 204.118 246.284 204.118C250.114 204.118 253.228 207.231 253.228 211.061C253.228 214.891 250.114 218.004 246.284 218.004ZM246.284 207.041C244.07 207.041 242.264 208.847 242.264 211.061C242.264 213.276 244.07 215.081 246.284 215.081C248.499 215.081 250.304 213.276 250.304 211.061C250.304 208.847 248.499 207.041 246.284 207.041Z" fill="#E4EFF4"/>
<path d="M280.637 224.582C283.664 224.582 286.118 222.128 286.118 219.1C286.118 216.073 283.664 213.619 280.637 213.619C277.609 213.619 275.155 216.073 275.155 219.1C275.155 222.128 277.609 224.582 280.637 224.582Z" fill="#E24E4F"/>
<path d="M280.637 226.043C276.807 226.043 273.693 222.93 273.693 219.1C273.693 215.271 276.807 212.157 280.637 212.157C284.467 212.157 287.58 215.271 287.58 219.1C287.58 222.93 284.467 226.043 280.637 226.043ZM280.637 215.081C278.422 215.081 276.617 216.886 276.617 219.1C276.617 221.315 278.422 223.12 280.637 223.12C282.851 223.12 284.657 221.315 284.657 219.1C284.657 216.886 282.851 215.081 280.637 215.081Z" fill="#E4EFF4"/>
<path d="M300.042 194.464C303.07 194.464 305.524 192.009 305.524 188.982C305.524 185.955 303.07 183.501 300.042 183.501C297.015 183.501 294.56 185.955 294.56 188.982C294.56 192.009 297.015 194.464 300.042 194.464Z" fill="#E24E4F"/>
<path d="M300.042 195.925C296.212 195.925 293.099 192.812 293.099 188.982C293.099 185.153 296.212 182.039 300.042 182.039C303.872 182.039 306.986 185.153 306.986 188.982C306.986 192.812 303.872 195.925 300.042 195.925ZM300.042 184.963C297.827 184.963 296.022 186.768 296.022 188.982C296.022 191.197 297.827 193.002 300.042 193.002C302.257 193.002 304.062 191.197 304.062 188.982C304.062 186.768 302.257 184.963 300.042 184.963Z" fill="#E4EFF4"/>
<path d="M331.186 178.283C334.213 178.283 336.668 175.828 336.668 172.801C336.668 169.774 334.213 167.32 331.186 167.32C328.158 167.32 325.704 169.774 325.704 172.801C325.704 175.828 328.158 178.283 331.186 178.283Z" fill="#E24E4F"/>
<path d="M331.186 179.744C327.356 179.744 324.242 176.631 324.242 172.801C324.242 168.972 327.356 165.858 331.186 165.858C335.016 165.858 338.129 168.972 338.129 172.801C338.129 176.631 335.016 179.744 331.186 179.744ZM331.186 168.782C328.971 168.782 327.166 170.587 327.166 172.801C327.166 175.016 328.971 176.821 331.186 176.821C333.4 176.821 335.206 175.016 335.206 172.801C335.206 170.587 333.4 168.782 331.186 168.782Z" fill="#E4EFF4"/>
<path d="M372.211 211.061C375.239 211.061 377.693 208.607 377.693 205.58C377.693 202.552 375.239 200.098 372.211 200.098C369.184 200.098 366.729 202.552 366.729 205.58C366.729 208.607 369.184 211.061 372.211 211.061Z" fill="#E24E4F"/>
<path d="M372.211 212.523C368.381 212.523 365.268 209.409 365.268 205.58C365.268 201.75 368.381 198.637 372.211 198.637C376.041 198.637 379.155 201.75 379.155 205.58C379.155 209.409 376.041 212.523 372.211 212.523ZM372.211 201.56C369.997 201.56 368.191 203.365 368.191 205.58C368.191 207.794 369.997 209.599 372.211 209.599C374.426 209.599 376.231 207.794 376.231 205.58C376.231 203.365 374.426 201.56 372.211 201.56Z" fill="#E4EFF4"/>
<path d="M404.948 157.622C407.976 157.622 410.43 155.167 410.43 152.14C410.43 149.113 407.976 146.659 404.948 146.659C401.921 146.659 399.466 149.113 399.466 152.14C399.466 155.167 401.921 157.622 404.948 157.622Z" fill="#E24E4F"/>
<path d="M404.948 159.083C401.118 159.083 398.005 155.97 398.005 152.14C398.005 148.311 401.118 145.197 404.948 145.197C408.778 145.197 411.892 148.311 411.892 152.14C411.892 155.97 408.778 159.083 404.948 159.083ZM404.948 148.121C402.734 148.121 400.928 149.926 400.928 152.14C400.928 154.355 402.734 156.16 404.948 156.16C407.163 156.16 408.968 154.355 408.968 152.14C408.968 149.926 407.163 148.121 404.948 148.121Z" fill="#E4EFF4"/>
<path d="M453.714 142.018C456.741 142.018 459.196 139.564 459.196 136.537C459.196 133.509 456.741 131.055 453.714 131.055C450.687 131.055 448.232 133.509 448.232 136.537C448.232 139.564 450.687 142.018 453.714 142.018Z" fill="#E24E4F"/>
<path d="M453.714 143.48C449.884 143.48 446.77 140.366 446.77 136.537C446.77 132.707 449.884 129.594 453.714 129.594C457.544 129.594 460.658 132.707 460.658 136.537C460.658 140.366 457.544 143.48 453.714 143.48ZM453.714 132.517C451.499 132.517 449.694 134.322 449.694 136.537C449.694 138.751 451.499 140.556 453.714 140.556C455.929 140.556 457.734 138.751 457.734 136.537C457.734 134.322 455.929 132.517 453.714 132.517Z" fill="#E4EFF4"/>
<path d="M448.232 112.945C451.26 112.945 453.714 110.491 453.714 107.464C453.714 104.436 451.26 101.982 448.232 101.982C445.205 101.982 442.75 104.436 442.75 107.464C442.75 110.491 445.205 112.945 448.232 112.945Z" fill="#E24E4F"/>
<path d="M448.232 114.407C444.402 114.407 441.289 111.293 441.289 107.464C441.289 103.634 444.402 100.521 448.232 100.521C452.062 100.521 455.176 103.634 455.176 107.464C455.176 111.293 452.062 114.407 448.232 114.407ZM448.232 103.444C446.018 103.444 444.212 105.249 444.212 107.464C444.212 109.678 446.018 111.483 448.232 111.483C450.447 111.483 452.252 109.678 452.252 107.464C452.252 105.249 450.447 103.444 448.232 103.444Z" fill="#E4EFF4"/>
<path d="M472.498 44.0554C472.644 47.0811 470.305 49.6464 467.279 49.7926C464.254 49.9387 461.688 47.6 461.542 44.5743C461.396 41.5486 463.735 38.9834 466.761 38.8372C469.786 38.691 472.352 41.0297 472.498 44.0554Z" fill="#E24E4F"/>
<path d="M467.024 51.2542C463.34 51.2542 460.263 48.3527 460.087 44.64C459.905 40.8177 462.872 37.5581 466.695 37.3754C468.559 37.2877 470.32 37.9236 471.694 39.1733C473.068 40.4231 473.872 42.1259 473.96 43.9823C474.143 47.8046 471.175 51.0642 467.353 51.2469C467.243 51.2469 467.133 51.2542 467.024 51.2542ZM467.031 40.2915C466.965 40.2915 466.899 40.2915 466.834 40.2915C464.619 40.3938 462.901 42.2794 463.011 44.4939C463.113 46.7083 464.999 48.4112 467.214 48.3162C469.428 48.2139 471.146 46.3283 471.036 44.1138C470.985 43.0395 470.517 42.0528 469.728 41.3293C468.983 40.6496 468.032 40.2842 467.024 40.2842L467.031 40.2915Z" fill="#E4EFF4"/>
<path d="M110.534 196.539C110.534 197.687 109.606 198.615 108.458 198.615C107.311 198.615 106.383 197.687 106.383 196.539C106.383 195.392 107.311 194.464 108.458 194.464C109.606 194.464 110.534 195.392 110.534 196.539Z" fill="white"/>
<path d="M108.458 200.076C106.507 200.076 104.921 198.491 104.921 196.539C104.921 194.588 106.507 193.002 108.458 193.002C110.41 193.002 111.996 194.588 111.996 196.539C111.996 198.491 110.41 200.076 108.458 200.076ZM108.458 195.925C108.122 195.925 107.844 196.203 107.844 196.539C107.844 196.875 108.122 197.153 108.458 197.153C108.795 197.153 109.072 196.875 109.072 196.539C109.072 196.203 108.795 195.925 108.458 195.925Z" fill="#E4EFF4"/>
<path d="M216.2 143.246C217.545 143.246 218.634 142.156 218.634 140.812C218.634 139.468 217.545 138.378 216.2 138.378C214.856 138.378 213.767 139.468 213.767 140.812C213.767 142.156 214.856 143.246 216.2 143.246Z" fill="white"/>
<path d="M190.195 206.435C190.195 207.305 189.486 208.013 188.616 208.013C187.746 208.013 187.038 207.305 187.038 206.435C187.038 205.565 187.746 204.856 188.616 204.856C189.486 204.856 190.195 205.565 190.195 206.435Z" fill="white"/>
<path d="M273.605 136.537C273.605 137.406 272.896 138.115 272.027 138.115C271.157 138.115 270.448 137.406 270.448 136.537C270.448 135.667 271.157 134.958 272.027 134.958C272.896 134.958 273.605 135.667 273.605 136.537Z" fill="white"/>
<path d="M301.621 62.8746C301.621 63.7444 300.912 64.4533 300.042 64.4533C299.172 64.4533 298.463 63.7444 298.463 62.8746C298.463 62.0049 299.172 61.296 300.042 61.296C300.912 61.296 301.621 62.0049 301.621 62.8746Z" fill="white"/>
<path d="M490.917 183.501C490.917 184.371 490.208 185.08 489.338 185.08C488.468 185.08 487.759 184.371 487.759 183.501C487.759 182.631 488.468 181.922 489.338 181.922C490.208 181.922 490.917 182.631 490.917 183.501Z" fill="white"/>
<path d="M441.23 219.1C441.23 219.97 440.521 220.679 439.651 220.679C438.782 220.679 438.073 219.97 438.073 219.1C438.073 218.231 438.782 217.522 439.651 217.522C440.521 217.522 441.23 218.231 441.23 219.1Z" fill="white"/>
<path d="M577.47 101.982C577.47 102.852 576.761 103.561 575.891 103.561C575.022 103.561 574.313 102.852 574.313 101.982C574.313 101.113 575.022 100.404 575.891 100.404C576.761 100.404 577.47 101.113 577.47 101.982Z" fill="white"/>
<path d="M619.183 240.704C619.183 241.574 618.474 242.283 617.604 242.283C616.734 242.283 616.025 241.574 616.025 240.704C616.025 239.834 616.734 239.125 617.604 239.125C618.474 239.125 619.183 239.834 619.183 240.704Z" fill="white"/>
<path d="M394.255 240.704C394.255 241.574 393.546 242.283 392.676 242.283C391.807 242.283 391.098 241.574 391.098 240.704C391.098 239.834 391.807 239.125 392.676 239.125C393.546 239.125 394.255 239.834 394.255 240.704Z" fill="white"/>
<path d="M368.308 148.968C368.308 149.838 367.599 150.547 366.729 150.547C365.86 150.547 365.151 149.838 365.151 148.968C365.151 148.099 365.86 147.39 366.729 147.39C367.599 147.39 368.308 148.099 368.308 148.968Z" fill="white"/>
<path d="M356.27 70.1101C356.27 70.9798 355.561 71.6887 354.692 71.6887C353.822 71.6887 353.113 70.9798 353.113 70.1101C353.113 69.2404 353.822 68.5315 354.692 68.5315C355.561 68.5315 356.27 69.2404 356.27 70.1101Z" fill="white"/>
<path d="M363.572 50.0264C363.572 50.4649 363.221 50.8157 362.783 50.8157C362.344 50.8157 361.993 50.4649 361.993 50.0264C361.993 49.5879 362.344 49.2371 362.783 49.2371C363.221 49.2371 363.572 49.5879 363.572 50.0264Z" fill="white"/>
<path d="M394.255 22.7805C394.255 23.219 393.904 23.5698 393.466 23.5698C393.027 23.5698 392.676 23.219 392.676 22.7805C392.676 22.342 393.027 21.9912 393.466 21.9912C393.904 21.9912 394.255 22.342 394.255 22.7805Z" fill="white"/>
<path d="M435.193 54.872C435.193 55.3105 434.842 55.6613 434.404 55.6613C433.965 55.6613 433.614 55.3105 433.614 54.872C433.614 54.4334 433.965 54.0826 434.404 54.0826C434.842 54.0826 435.193 54.4334 435.193 54.872Z" fill="white"/>
<path d="M474.844 40.0723C474.844 40.5108 474.494 40.8616 474.055 40.8616C473.616 40.8616 473.266 40.5108 473.266 40.0723C473.266 39.6338 473.616 39.283 474.055 39.283C474.494 39.283 474.844 39.6338 474.844 40.0723Z" fill="white"/>
<path d="M531.365 20.6464C531.365 21.0849 531.014 21.4357 530.575 21.4357C530.137 21.4357 529.786 21.0849 529.786 20.6464C529.786 20.2079 530.137 19.8571 530.575 19.8571C531.014 19.8571 531.365 20.2079 531.365 20.6464Z" fill="white"/>
<path d="M525.269 77.4039C525.705 77.4039 526.059 77.0506 526.059 76.6146C526.059 76.1787 525.705 75.8253 525.269 75.8253C524.833 75.8253 524.48 76.1787 524.48 76.6146C524.48 77.0506 524.833 77.4039 525.269 77.4039Z" fill="white"/>
<path d="M505.601 145.497C505.601 145.935 505.25 146.286 504.811 146.286C504.373 146.286 504.022 145.935 504.022 145.497C504.022 145.058 504.373 144.708 504.811 144.708C505.25 144.708 505.601 145.058 505.601 145.497Z" fill="white"/>
<path d="M563.525 128.929C563.525 129.367 563.174 129.718 562.735 129.718C562.297 129.718 561.946 129.367 561.946 128.929C561.946 128.49 562.297 128.139 562.735 128.139C563.174 128.139 563.525 128.49 563.525 128.929Z" fill="white"/>
<path d="M520.153 225.371C520.153 225.809 519.802 226.16 519.363 226.16C518.925 226.16 518.574 225.809 518.574 225.371C518.574 224.932 518.925 224.582 519.363 224.582C519.802 224.582 520.153 224.932 520.153 225.371Z" fill="white"/>
<path d="M590.794 189.063C590.794 189.501 590.444 189.852 590.005 189.852C589.566 189.852 589.216 189.501 589.216 189.063C589.216 188.624 589.566 188.273 590.005 188.273C590.444 188.273 590.794 188.624 590.794 189.063Z" fill="white"/>
<path d="M593.426 242.283C593.426 242.721 593.075 243.072 592.636 243.072C592.198 243.072 591.847 242.721 591.847 242.283C591.847 241.844 592.198 241.493 592.636 241.493C593.075 241.493 593.426 241.844 593.426 242.283Z" fill="white"/>
<path d="M423.762 181.922C423.762 182.361 423.411 182.712 422.972 182.712C422.534 182.712 422.183 182.361 422.183 181.922C422.183 181.484 422.534 181.133 422.972 181.133C423.411 181.133 423.762 181.484 423.762 181.922Z" fill="white"/>
<path d="M479.529 243.869C479.529 244.307 479.179 244.658 478.74 244.658C478.301 244.658 477.951 244.307 477.951 243.869C477.951 243.43 478.301 243.079 478.74 243.079C479.179 243.079 479.529 243.43 479.529 243.869Z" fill="white"/>
<path d="M316.407 242.283C316.407 242.721 316.056 243.072 315.618 243.072C315.179 243.072 314.828 242.721 314.828 242.283C314.828 241.844 315.179 241.493 315.618 241.493C316.056 241.493 316.407 241.844 316.407 242.283Z" fill="white"/>
<path d="M205.39 179.072C205.826 179.072 206.18 178.719 206.18 178.283C206.18 177.847 205.826 177.493 205.39 177.493C204.954 177.493 204.601 177.847 204.601 178.283C204.601 178.719 204.954 179.072 205.39 179.072Z" fill="white"/>
<path d="M142.584 217.332C143.02 217.332 143.374 216.978 143.374 216.542C143.374 216.106 143.02 215.753 142.584 215.753C142.148 215.753 141.795 216.106 141.795 216.542C141.795 216.978 142.148 217.332 142.584 217.332Z" fill="white"/>
<path d="M260.478 112.945C260.478 113.383 260.128 113.734 259.689 113.734C259.251 113.734 258.9 113.383 258.9 112.945C258.9 112.506 259.251 112.156 259.689 112.156C260.128 112.156 260.478 112.506 260.478 112.945Z" fill="white"/>
<path d="M321.289 101.982C321.289 102.421 320.939 102.772 320.5 102.772C320.061 102.772 319.711 102.421 319.711 101.982C319.711 101.544 320.061 101.193 320.5 101.193C320.939 101.193 321.289 101.544 321.289 101.982Z" fill="white"/>
<path d="M89.7838 242.283C89.7838 243.153 89.0749 243.861 88.2051 243.861C87.3353 243.861 86.6264 243.153 86.6264 242.283C86.6264 241.413 87.3353 240.704 88.2051 240.704C89.0749 240.704 89.7838 241.413 89.7838 242.283Z" fill="white"/>
<path d="M339.109 9.99072C339.109 11.3355 338.02 12.4244 336.675 12.4244C335.33 12.4244 334.241 11.3355 334.241 9.99072C334.241 8.64597 335.33 7.55701 336.675 7.55701C338.02 7.55701 339.109 8.64597 339.109 9.99072Z" fill="white"/>
<path d="M526.059 65.3084C527.403 65.3084 528.492 64.2187 528.492 62.8746C528.492 61.5305 527.403 60.4409 526.059 60.4409C524.714 60.4409 523.625 61.5305 523.625 62.8746C523.625 64.2187 524.714 65.3084 526.059 65.3084Z" fill="white"/>
<path d="M567.851 12.3367C567.851 13.6814 566.762 14.7704 565.418 14.7704C564.073 14.7704 562.984 13.6814 562.984 12.3367C562.984 10.9919 564.073 9.90295 565.418 9.90295C566.762 9.90295 567.851 10.9919 567.851 12.3367Z" fill="white"/>
<path d="M580.766 153.843C582.111 153.843 583.2 152.754 583.2 151.409C583.2 150.065 582.111 148.976 580.766 148.976C579.422 148.976 578.333 150.065 578.333 151.409C578.333 152.754 579.422 153.843 580.766 153.843Z" fill="white"/>
<path d="M578.333 216.345C578.333 217.69 577.243 218.779 575.899 218.779C574.554 218.779 573.465 217.69 573.465 216.345C573.465 215 574.554 213.911 575.899 213.911C577.243 213.911 578.333 215 578.333 216.345Z" fill="white"/>
<path fill-rule="evenodd" clip-rule="evenodd" d="M241.907 86.8058H216.219C216.219 72.5079 227.723 60.915 241.907 60.915C256.091 60.915 267.594 72.5079 267.594 86.8058H241.907Z" fill="#EBEBEB"/>
<path fill-rule="evenodd" clip-rule="evenodd" d="M263.713 86.8059H244.113C244.113 75.8977 252.888 67.0573 263.713 67.0573C274.537 67.0573 283.312 75.8977 283.312 86.8059H263.713Z" fill="#EBEBEB"/>
<path fill-rule="evenodd" clip-rule="evenodd" d="M160.114 86.8059H145C145 78.3925 151.766 71.5724 160.114 71.5724C168.461 71.5724 175.228 78.3925 175.228 86.8059H160.114Z" fill="#EBEBEB"/>
<path fill-rule="evenodd" clip-rule="evenodd" d="M203.304 86.8059H170.762C170.762 68.6911 185.333 54 203.304 54C221.276 54 235.846 68.6843 235.846 86.8059H203.304Z" fill="#EBEBEB"/>
</g>
<path fill-rule="evenodd" clip-rule="evenodd" d="M701.907 123.806H676.219C676.219 109.508 687.723 97.915 701.907 97.915C716.091 97.915 727.594 109.508 727.594 123.806H701.907Z" fill="#EBEBEB"/>
<path fill-rule="evenodd" clip-rule="evenodd" d="M723.713 123.806H704.113C704.113 112.898 712.888 104.057 723.713 104.057C734.537 104.057 743.312 112.898 743.312 123.806H723.713Z" fill="#EBEBEB"/>
<path fill-rule="evenodd" clip-rule="evenodd" d="M620.114 123.806H605C605 115.393 611.766 108.572 620.114 108.572C628.461 108.572 635.228 115.393 635.228 123.806H620.114Z" fill="#EBEBEB"/>
<path fill-rule="evenodd" clip-rule="evenodd" d="M663.304 123.806H630.762C630.762 105.691 645.333 91 663.304 91C681.276 91 695.847 105.684 695.847 123.806H663.304Z" fill="#EBEBEB"/>
<defs>
<clipPath id="clip0_14_117">
<rect width="641" height="267" fill="white"/>
</clipPath>
</defs>
</svg>
