<svg width="236" height="199" viewBox="0 0 236 199" fill="none" xmlns="http://www.w3.org/2000/svg">
<path d="M233.689 191.368H189.528V198.728H233.689V191.368Z" fill="#FFCA10"/>
<path d="M204.248 191.368H196.888V198.728H204.248V191.368Z" fill="#FEE79B"/>
<path d="M233.689 191.368H218.969V198.728H233.689V191.368Z" fill="#FFA200"/>
<path d="M233.689 196.888H189.528V198.728H233.689V196.888Z" fill="#FF6C00"/>
<path d="M235.529 184.008H191.368V191.368H235.529V184.008Z" fill="#FFCA10"/>
<path d="M206.088 184.008H198.728V191.368H206.088V184.008Z" fill="#FEE79B"/>
<path d="M235.529 184.008H220.809V191.368H235.529V184.008Z" fill="#FFA200"/>
<path d="M235.529 189.528H191.368V191.368H235.529V189.528Z" fill="#FF6C00"/>
<path d="M230.009 176.647H185.847V184.008H230.009V176.647Z" fill="#FFCA10"/>
<path d="M200.568 176.647H193.208V184.008H200.568V176.647Z" fill="#FEE79B"/>
<path d="M230.009 176.647H215.289V184.008H230.009V176.647Z" fill="#FFA200"/>
<path d="M230.009 182.167H185.847V184.008H230.009V182.167Z" fill="#FF6C00"/>
<path d="M231.849 169.287H187.688V176.647H231.849V169.287Z" fill="#FFCA10"/>
<path d="M202.408 169.287H195.048V176.647H202.408V169.287Z" fill="#FEE79B"/>
<path d="M231.849 169.287H217.129V176.647H231.849V169.287Z" fill="#FFA200"/>
<path d="M231.849 174.807H187.688V176.647H231.849V174.807Z" fill="#FF6C00"/>
<path d="M233.689 161.927H189.528V169.287H233.689V161.927Z" fill="#FFCA10"/>
<path d="M204.248 161.927H196.888V169.287H204.248V161.927Z" fill="#FEE79B"/>
<path d="M233.689 161.927H218.969V169.287H233.689V161.927Z" fill="#FFA200"/>
<path d="M233.689 167.447H189.528V169.287H233.689V167.447Z" fill="#FF6C00"/>
<path d="M228.169 154.566H184.007V161.927H228.169V154.566Z" fill="#FFCA10"/>
<path d="M198.728 154.566H191.368V161.927H198.728V154.566Z" fill="#FEE79B"/>
<path d="M228.169 154.566H213.448V161.927H228.169V154.566Z" fill="#FFA200"/>
<path d="M228.169 160.087H184.007V161.927H228.169V160.087Z" fill="#FF6C00"/>
<path d="M230.009 147.206H185.847V154.566H230.009V147.206Z" fill="#FFCA10"/>
<path d="M200.568 147.206H193.208V154.566H200.568V147.206Z" fill="#FEE79B"/>
<path d="M230.009 147.206H215.289V154.566H230.009V147.206Z" fill="#FFA200"/>
<path d="M230.009 152.726H185.847V154.566H230.009V152.726Z" fill="#FF6C00"/>
<path d="M226.329 139.846H182.167V147.206H226.329V139.846Z" fill="#FFCA10"/>
<path d="M196.888 139.846H189.528V147.206H196.888V139.846Z" fill="#FEE79B"/>
<path d="M226.329 139.846H211.608V147.206H226.329V139.846Z" fill="#FFA200"/>
<path d="M226.329 145.366H182.167V147.206H226.329V145.366Z" fill="#FF6C00"/>
<path d="M226.329 132.485H182.167V139.846H226.329V132.485Z" fill="#FFCA10"/>
<path d="M196.888 132.485H189.528V139.846H196.888V132.485Z" fill="#FEE79B"/>
<path d="M226.329 132.485H211.608V139.846H226.329V132.485Z" fill="#FFA200"/>
<path d="M226.329 138.006H182.167V139.846H226.329V138.006Z" fill="#FF6C00"/>
<path d="M231.849 125.125H187.688V132.486H231.849V125.125Z" fill="#FFCA10"/>
<path d="M202.408 125.125H195.048V132.486H202.408V125.125Z" fill="#FEE79B"/>
<path d="M231.849 125.125H217.129V132.486H231.849V125.125Z" fill="#FFA200"/>
<path d="M231.849 130.646H187.688V132.486H231.849V130.646Z" fill="#FF6C00"/>
<path d="M235.529 117.765H191.368V125.125H235.529V117.765Z" fill="#FFCA10"/>
<path d="M206.088 117.765H198.728V125.125H206.088V117.765Z" fill="#FEE79B"/>
<path d="M235.529 117.765H220.809V125.125H235.529V117.765Z" fill="#FFA200"/>
<path d="M235.529 123.285H191.368V125.125H235.529V123.285Z" fill="#FF6C00"/>
<path d="M231.849 110.405H187.688V117.765H231.849V110.405Z" fill="#FFCA10"/>
<path d="M202.408 110.405H195.048V117.765H202.408V110.405Z" fill="#FEE79B"/>
<path d="M231.849 110.405H217.129V117.765H231.849V110.405Z" fill="#FFA200"/>
<path d="M231.849 115.925H187.688V117.765H231.849V115.925Z" fill="#FF6C00"/>
<path d="M235.529 103.044H191.368V110.404H235.529V103.044Z" fill="#FFCA10"/>
<path d="M206.088 103.044H198.728V110.404H206.088V103.044Z" fill="#FEE79B"/>
<path d="M235.529 103.044H220.809V110.404H235.529V103.044Z" fill="#FFA200"/>
<path d="M235.529 108.564H191.368V110.405H235.529V108.564Z" fill="#FF6C00"/>
<path d="M231.849 95.6841H187.688V103.044H231.849V95.6841Z" fill="#FFCA10"/>
<path d="M202.408 95.6841H195.048V103.044H202.408V95.6841Z" fill="#FEE79B"/>
<path d="M231.849 95.6841H217.129V103.044H231.849V95.6841Z" fill="#FFA200"/>
<path d="M231.849 101.204H187.688V103.044H231.849V101.204Z" fill="#FF6C00"/>
<path d="M230.009 88.3237H185.847V95.684H230.009V88.3237Z" fill="#FFCA10"/>
<path d="M200.568 88.3237H193.208V95.684H200.568V88.3237Z" fill="#FEE79B"/>
<path d="M230.009 88.3237H215.289V95.684H230.009V88.3237Z" fill="#FFA200"/>
<path d="M230.009 93.844H185.847V95.6841H230.009V93.844Z" fill="#FF6C00"/>
<path d="M235.529 80.9634H191.368V88.3237H235.529V80.9634Z" fill="#FFCA10"/>
<path d="M206.088 80.9634H198.728V88.3237H206.088V80.9634Z" fill="#FEE79B"/>
<path d="M235.529 80.9634H220.809V88.3237H235.529V80.9634Z" fill="#FFA200"/>
<path d="M235.529 86.4836H191.368V88.3237H235.529V86.4836Z" fill="#FF6C00"/>
<path d="M171.127 191.368H126.965V198.728H171.127V191.368Z" fill="#FFCA10"/>
<path d="M141.686 191.368H134.325V198.728H141.686V191.368Z" fill="#FEE79B"/>
<path d="M171.127 191.368H156.406V198.728H171.127V191.368Z" fill="#FFA200"/>
<path d="M171.127 196.888H126.965V198.728H171.127V196.888Z" fill="#FF6C00"/>
<path d="M174.807 184.008H130.645V191.368H174.807V184.008Z" fill="#FFCA10"/>
<path d="M145.366 184.008H138.005V191.368H145.366V184.008Z" fill="#FEE79B"/>
<path d="M174.807 184.008H160.086V191.368H174.807V184.008Z" fill="#FFA200"/>
<path d="M174.807 189.528H130.645V191.368H174.807V189.528Z" fill="#FF6C00"/>
<path d="M171.127 176.647H126.965V184.008H171.127V176.647Z" fill="#FFCA10"/>
<path d="M141.686 176.647H134.325V184.008H141.686V176.647Z" fill="#FEE79B"/>
<path d="M171.127 176.647H156.406V184.008H171.127V176.647Z" fill="#FFA200"/>
<path d="M171.127 182.167H126.965V184.008H171.127V182.167Z" fill="#FF6C00"/>
<path d="M165.607 169.287H121.445V176.647H165.607V169.287Z" fill="#FFCA10"/>
<path d="M136.165 169.287H128.805V176.647H136.165V169.287Z" fill="#FEE79B"/>
<path d="M165.607 169.287H150.886V176.647H165.607V169.287Z" fill="#FFA200"/>
<path d="M165.607 174.807H121.445V176.647H165.607V174.807Z" fill="#FF6C00"/>
<path d="M174.807 161.927H130.645V169.287H174.807V161.927Z" fill="#FFCA10"/>
<path d="M145.366 161.927H138.005V169.287H145.366V161.927Z" fill="#FEE79B"/>
<path d="M174.807 161.927H160.086V169.287H174.807V161.927Z" fill="#FFA200"/>
<path d="M174.807 167.447H130.645V169.287H174.807V167.447Z" fill="#FF6C00"/>
<path d="M171.127 154.566H126.965V161.927H171.127V154.566Z" fill="#FFCA10"/>
<path d="M141.686 154.566H134.325V161.927H141.686V154.566Z" fill="#FEE79B"/>
<path d="M171.127 154.566H156.406V161.927H171.127V154.566Z" fill="#FFA200"/>
<path d="M171.127 160.087H126.965V161.927H171.127V160.087Z" fill="#FF6C00"/>
<path d="M174.807 147.206H130.645V154.566H174.807V147.206Z" fill="#FFCA10"/>
<path d="M145.366 147.206H138.005V154.566H145.366V147.206Z" fill="#FEE79B"/>
<path d="M174.807 147.206H160.086V154.566H174.807V147.206Z" fill="#FFA200"/>
<path d="M174.807 152.726H130.645V154.566H174.807V152.726Z" fill="#FF6C00"/>
<path d="M171.127 139.846H126.965V147.206H171.127V139.846Z" fill="#FFCA10"/>
<path d="M141.686 139.846H134.325V147.206H141.686V139.846Z" fill="#FEE79B"/>
<path d="M171.127 139.846H156.406V147.206H171.127V139.846Z" fill="#FFA200"/>
<path d="M171.127 145.366H126.965V147.206H171.127V145.366Z" fill="#FF6C00"/>
<path d="M112.245 191.368H68.0828V198.728H112.245V191.368Z" fill="#FFCA10"/>
<path d="M82.8034 191.368H75.4431V198.728H82.8034V191.368Z" fill="#FEE79B"/>
<path d="M112.245 191.368H97.5239V198.728H112.245V191.368Z" fill="#FFA200"/>
<path d="M112.245 196.888H68.0828V198.728H112.245V196.888Z" fill="#FF6C00"/>
<path d="M108.564 184.008H64.4026V191.368H108.564V184.008Z" fill="#FFCA10"/>
<path d="M79.1232 184.008H71.7629V191.368H79.1232V184.008Z" fill="#FEE79B"/>
<path d="M108.564 184.008H93.8438V191.368H108.564V184.008Z" fill="#FFA200"/>
<path d="M108.564 189.528H64.4026V191.368H108.564V189.528Z" fill="#FF6C00"/>
<path d="M106.724 176.647H62.5625V184.008H106.724V176.647Z" fill="#FFCA10"/>
<path d="M77.2831 176.647H69.9229V184.008H77.2831V176.647Z" fill="#FEE79B"/>
<path d="M106.724 176.647H92.0037V184.008H106.724V176.647Z" fill="#FFA200"/>
<path d="M106.724 182.167H62.5625V184.008H106.724V182.167Z" fill="#FF6C00"/>
<path d="M110.404 169.287H66.2427V176.647H110.404V169.287Z" fill="#FFCA10"/>
<path d="M80.9633 169.287H73.603V176.647H80.9633V169.287Z" fill="#FEE79B"/>
<path d="M110.404 169.287H95.6838V176.647H110.404V169.287Z" fill="#FFA200"/>
<path d="M110.404 174.807H66.2427V176.647H110.404V174.807Z" fill="#FF6C00"/>
<path d="M112.245 161.927H68.0828V169.287H112.245V161.927Z" fill="#FFCA10"/>
<path d="M82.8034 161.927H75.4431V169.287H82.8034V161.927Z" fill="#FEE79B"/>
<path d="M112.245 161.927H97.5239V169.287H112.245V161.927Z" fill="#FFA200"/>
<path d="M112.245 167.447H68.0828V169.287H112.245V167.447Z" fill="#FF6C00"/>
<path d="M108.564 154.566H64.4026V161.927H108.564V154.566Z" fill="#FFCA10"/>
<path d="M79.1232 154.566H71.7629V161.927H79.1232V154.566Z" fill="#FEE79B"/>
<path d="M108.564 154.566H93.8438V161.927H108.564V154.566Z" fill="#FFA200"/>
<path d="M108.564 160.087H64.4026V161.927H108.564V160.087Z" fill="#FF6C00"/>
<path d="M108.564 147.206H64.4026V154.566H108.564V147.206Z" fill="#FFCA10"/>
<path d="M79.1232 147.206H71.7629V154.566H79.1232V147.206Z" fill="#FEE79B"/>
<path d="M108.564 147.206H93.8438V154.566H108.564V147.206Z" fill="#FFA200"/>
<path d="M108.564 152.726H64.4026V154.566H108.564V152.726Z" fill="#FF6C00"/>
<path d="M110.404 139.846H66.2427V147.206H110.404V139.846Z" fill="#FFCA10"/>
<path d="M80.9633 139.846H73.603V147.206H80.9633V139.846Z" fill="#FEE79B"/>
<path d="M110.404 139.846H95.6838V147.206H110.404V139.846Z" fill="#FFA200"/>
<path d="M110.404 145.366H66.2427V147.206H110.404V145.366Z" fill="#FF6C00"/>
<path d="M104.884 132.485H60.7224V139.846H104.884V132.485Z" fill="#FFCA10"/>
<path d="M75.4431 132.485H68.0828V139.846H75.4431V132.485Z" fill="#FEE79B"/>
<path d="M104.884 132.485H90.1636V139.846H104.884V132.485Z" fill="#FFA200"/>
<path d="M104.884 138.006H60.7224V139.846H104.884V138.006Z" fill="#FF6C00"/>
<path d="M110.404 125.125H66.2427V132.486H110.404V125.125Z" fill="#FFCA10"/>
<path d="M80.9633 125.125H73.603V132.486H80.9633V125.125Z" fill="#FEE79B"/>
<path d="M110.404 125.125H95.6838V132.486H110.404V125.125Z" fill="#FFA200"/>
<path d="M110.404 130.646H66.2427V132.486H110.404V130.646Z" fill="#FF6C00"/>
<path d="M114.084 117.765H69.9227V125.125H114.084V117.765Z" fill="#FFCA10"/>
<path d="M84.6434 117.765H77.2831V125.125H84.6434V117.765Z" fill="#FEE79B"/>
<path d="M114.084 117.765H99.3639V125.125H114.084V117.765Z" fill="#FFA200"/>
<path d="M114.084 123.285H69.9227V125.125H114.084V123.285Z" fill="#FF6C00"/>
<path d="M110.404 110.405H66.2427V117.765H110.404V110.405Z" fill="#FFCA10"/>
<path d="M80.9633 110.405H73.603V117.765H80.9633V110.405Z" fill="#FEE79B"/>
<path d="M110.404 110.405H95.6838V117.765H110.404V110.405Z" fill="#FFA200"/>
<path d="M110.404 115.925H66.2427V117.765H110.404V115.925Z" fill="#FF6C00"/>
<path d="M47.8419 190.448H3.68018V197.808H47.8419V190.448Z" fill="#FFCA10"/>
<path d="M18.4008 190.448H11.0405V197.808H18.4008V190.448Z" fill="#FEE79B"/>
<path d="M47.8419 190.448H33.1213V197.808H47.8419V190.448Z" fill="#FFA200"/>
<path d="M47.8419 195.968H3.68018V197.808H47.8419V195.968Z" fill="#FF6C00"/>
<path d="M53.3621 183.087H9.20032V190.448H53.3621V183.087Z" fill="#FFCA10"/>
<path d="M23.921 183.087H16.5607V190.448H23.921V183.087Z" fill="#FEE79B"/>
<path d="M53.3621 183.087H38.6415V190.448H53.3621V183.087Z" fill="#FFA200"/>
<path d="M53.3621 188.608H9.20032V190.448H53.3621V188.608Z" fill="#FF6C00"/>
<path d="M51.5221 175.727H7.36035V183.087H51.5221V175.727Z" fill="#FFCA10"/>
<path d="M22.081 175.727H14.7207V183.087H22.081V175.727Z" fill="#FEE79B"/>
<path d="M51.5221 175.727H36.8015V183.087H51.5221V175.727Z" fill="#FFA200"/>
<path d="M51.5221 181.247H7.36035V183.087H51.5221V181.247Z" fill="#FF6C00"/>
<path d="M44.1618 168.367H0V175.727H44.1618V168.367Z" fill="#FFCA10"/>
<path d="M14.7206 168.367H7.36035V175.727H14.7206V168.367Z" fill="#FEE79B"/>
<path d="M44.1618 168.367H29.4412V175.727H44.1618V168.367Z" fill="#FFA200"/>
<path d="M44.1618 173.887H0V175.727H44.1618V173.887Z" fill="#FF6C00"/>
<path d="M27.2193 105.804H0V98.444H24.3028L86.7273 39.7457L147.413 69.1684L207.358 11.0405H235.529V18.4008H210.339L148.839 78.0376L88.0797 48.578L27.2193 105.804Z" fill="#5FC4E9"/>
<path d="M25.761 116.845C33.891 116.845 40.4816 110.254 40.4816 102.124C40.4816 93.9942 33.891 87.4036 25.761 87.4036C17.631 87.4036 11.0404 93.9942 11.0404 102.124C11.0404 110.254 17.631 116.845 25.761 116.845Z" fill="#5FC4E9"/>
<path d="M87.4035 58.8823C95.5334 58.8823 102.124 52.2917 102.124 44.1618C102.124 36.0318 95.5334 29.4412 87.4035 29.4412C79.2735 29.4412 72.6829 36.0318 72.6829 44.1618C72.6829 52.2917 79.2735 58.8823 87.4035 58.8823Z" fill="#5FC4E9"/>
<path d="M148.126 88.3235C156.256 88.3235 162.846 81.7329 162.846 73.6029C162.846 65.473 156.256 58.8823 148.126 58.8823C139.996 58.8823 133.405 65.473 133.405 73.6029C133.405 81.7329 139.996 88.3235 148.126 88.3235Z" fill="#5FC4E9"/>
<path d="M208.848 29.4412C216.978 29.4412 223.569 22.8505 223.569 14.7206C223.569 6.59063 216.978 0 208.848 0C200.718 0 194.128 6.59063 194.128 14.7206C194.128 22.8505 200.718 29.4412 208.848 29.4412Z" fill="#5FC4E9"/>
<path d="M25.7611 109.485C29.826 109.485 33.1213 106.189 33.1213 102.124C33.1213 98.0592 29.826 94.7639 25.7611 94.7639C21.6961 94.7639 18.4008 98.0592 18.4008 102.124C18.4008 106.189 21.6961 109.485 25.7611 109.485Z" fill="white"/>
<path d="M87.4035 51.5221C91.4685 51.5221 94.7638 48.2268 94.7638 44.1618C94.7638 40.0968 91.4685 36.8015 87.4035 36.8015C83.3385 36.8015 80.0432 40.0968 80.0432 44.1618C80.0432 48.2268 83.3385 51.5221 87.4035 51.5221Z" fill="white"/>
<path d="M148.126 80.9633C152.191 80.9633 155.486 77.6679 155.486 73.603C155.486 69.538 152.191 66.2427 148.126 66.2427C144.061 66.2427 140.766 69.538 140.766 73.603C140.766 77.6679 144.061 80.9633 148.126 80.9633Z" fill="white"/>
<path d="M208.848 22.0809C212.913 22.0809 216.209 18.7856 216.209 14.7206C216.209 10.6557 212.913 7.36035 208.848 7.36035C204.783 7.36035 201.488 10.6557 201.488 14.7206C201.488 18.7856 204.783 22.0809 208.848 22.0809Z" fill="white"/>
</svg>
