<svg width="226" height="199" viewBox="0 0 226 199" fill="none" xmlns="http://www.w3.org/2000/svg">
<path d="M113 198C175.408 198 226 193.075 226 187C226 180.925 175.408 176 113 176C50.5918 176 0 180.925 0 187C0 193.075 50.5918 198 113 198Z" fill="#D3D3D3" fill-opacity="0.33"/>
<path d="M163.332 177.805H191.758V107.651H163.332V177.805Z" fill="#5FC4E9"/>
<path d="M121.119 177.805H149.544L149.544 61.7238H121.119L121.119 177.805Z" fill="#5FC4E9"/>
<path d="M78.9037 177.806H107.329L107.329 68.1668H78.9037L78.9037 177.806Z" fill="#5FC4E9"/>
<path d="M36.69 177.806H65.1158L65.1158 32.1601H36.69L36.69 177.806Z" fill="#5FC4E9"/>
<path d="M28.2103 96.5167L15.9265 111.216L68.6224 142.728L97.308 111.602L182.529 158.314L190.434 142.016L94.9389 91.1909L67.0932 119.765L28.2103 96.5167Z" fill="#E24E4F"/>
<path d="M144.782 154.842L211.862 162.773L167.941 117.718L171.799 143.554L144.782 154.842Z" fill="#E24E4F"/>
<path d="M189.074 77.557C185.548 69.4181 176.26 65.5916 168.329 69.011C160.398 72.4304 156.826 81.8006 160.353 89.9396C163.878 98.0786 173.167 101.905 181.098 98.4857C189.029 95.0662 192.601 85.696 189.074 77.557Z" fill="#FFB733"/>
<path d="M178.676 95.4546L177.471 92.6714C175.901 93.3152 174.076 93.5144 172.838 93.2301L172.682 91.1057C173.935 91.35 175.558 91.2723 177.061 90.6235C178.967 89.8019 179.767 88.1159 179.086 86.5465C178.43 85.031 176.977 84.5462 174.632 84.5763C171.416 84.6552 169.175 84.1166 168.137 81.7205C167.147 79.4334 167.979 77.0147 170.269 75.5367L169.064 72.7536L170.728 72.0359L171.886 74.7088C173.521 74.07 174.813 74.0362 175.794 74.169L175.911 76.277C175.204 76.1893 173.841 76.0578 172.122 76.7993C170.054 77.6911 169.826 79.2943 170.303 80.3953C170.923 81.8282 172.228 82.1163 174.992 82.1013C178.259 82.0662 180.275 82.8966 181.337 85.3491C182.28 87.526 181.686 90.2014 179.124 91.8623L180.366 94.7281L178.675 95.4571L178.676 95.4546Z" fill="white"/>
<path d="M175.01 57.6079C174.847 57.6079 174.713 57.4751 174.713 57.3123V38.1685C174.713 38.0057 174.845 37.8729 175.01 37.8729C175.174 37.8729 175.306 38.0057 175.306 38.1685V57.3123C175.306 57.4751 175.173 57.6079 175.01 57.6079Z" fill="#A7C3F9"/>
<path d="M180.943 62.0368C180.78 62.0368 180.647 61.9041 180.647 61.7412V42.5975C180.647 42.4347 180.78 42.3019 180.943 42.3019C181.106 42.3019 181.24 42.4347 181.24 42.5975V61.7412C181.24 61.9041 181.106 62.0368 180.943 62.0368Z" fill="#A7C3F9"/>
<path d="M169.252 62.0368C169.089 62.0368 168.956 61.9041 168.956 61.7412V42.5975C168.956 42.4347 169.089 42.3019 169.252 42.3019C169.415 42.3019 169.548 42.4347 169.548 42.5975V61.7412C169.548 61.9041 169.415 62.0368 169.252 62.0368Z" fill="#A7C3F9"/>
<path d="M108.567 48.4418C109.962 39.6853 104.177 31.4887 95.6433 30.136C87.1109 28.782 79.0619 34.7841 77.667 43.5406C76.2722 52.2971 82.0575 60.4924 90.5911 61.8464C99.1248 63.1992 107.173 57.1983 108.569 48.4418H108.567Z" fill="#FFB733"/>
<path d="M90.173 57.9923L90.6501 54.9988C88.9791 54.7032 87.3318 53.8953 86.4379 52.9935L87.4473 51.1172C88.3739 51.994 89.7863 52.7956 91.4034 53.0511C93.4537 53.3768 95.0343 52.381 95.3043 50.6913C95.5642 49.0605 94.5987 47.8744 92.6024 46.6456C89.8454 44.9923 88.2421 43.3402 88.6539 40.7612C89.0456 38.3012 91.0481 36.703 93.7763 36.6804L94.2534 33.6869L96.045 33.9712L95.5868 36.8458C97.3106 37.1802 98.4192 37.8416 99.1762 38.4791L98.1417 40.3216C97.5918 39.8694 96.5108 39.0302 94.6627 38.7371C92.438 38.3839 91.3833 39.6151 91.195 40.8013C90.9489 42.3432 91.8956 43.2826 94.2384 44.748C97.0143 46.4653 98.271 48.2451 97.8504 50.883C97.4775 53.2252 95.5391 55.1666 92.4832 55.1979L91.9923 58.2804L90.173 57.9923Z" fill="white"/>
<path d="M93.4123 19.8502C93.249 19.8502 93.116 19.7174 93.116 19.5546V0.410833C93.116 0.248003 93.2478 0.115234 93.4123 0.115234C93.5767 0.115234 93.7086 0.248003 93.7086 0.410833V19.5546C93.7086 19.7174 93.5755 19.8502 93.4123 19.8502Z" fill="#A7C3F9"/>
<path d="M99.3457 24.2804C99.1825 24.2804 99.0494 24.1476 99.0494 23.9848V4.84101C99.0494 4.67818 99.1825 4.54541 99.3457 4.54541C99.5089 4.54541 99.642 4.67818 99.642 4.84101V23.9848C99.642 24.1476 99.5089 24.2804 99.3457 24.2804Z" fill="#A7C3F9"/>
<path d="M87.6545 24.2804C87.4913 24.2804 87.3582 24.1476 87.3582 23.9848V4.84101C87.3582 4.67818 87.4913 4.54541 87.6545 4.54541C87.8177 4.54541 87.9508 4.67818 87.9508 4.84101V23.9848C87.9508 24.1476 87.8177 24.2804 87.6545 24.2804Z" fill="#A7C3F9"/>
<path d="M135.222 141.041C135.222 141.041 134.688 143.554 134.697 144.505C134.706 145.457 134.008 146.385 134.53 146.564C135.052 146.746 135.76 145.057 135.76 145.057C135.76 145.057 136.66 146.771 136.856 147.341C137.052 147.909 137.662 148.838 138.09 148.727C138.52 148.617 137.385 145.951 137.385 145.951C137.385 145.951 138.561 148.102 138.978 148.084C139.395 148.065 138.303 145.109 138.303 145.109C138.303 145.109 139.444 147.465 139.695 147.571C139.946 147.678 140.093 147.361 139.892 146.429C139.69 145.497 139.244 144.597 139.244 144.597C139.244 144.597 140.171 146.192 140.349 146.344C140.527 146.497 140.884 146.577 140.44 145.228C139.995 143.879 138.558 141.118 137.278 140.03L135.222 141.038V141.041Z" fill="#FFA089"/>
<path d="M127.294 105.709C126.347 105.221 125.288 104.732 124.827 103.771C124.121 102.303 125.151 100.423 124.417 98.9692C123.832 97.8118 122.372 97.4022 121.512 96.4303C120.721 95.536 120.526 94.2759 119.984 93.2125C118.213 89.7417 113.883 89.6616 110.875 91.3988C110.42 91.6619 109.996 91.9662 109.614 92.3057C108.339 93.4455 107.485 95.1176 107.564 96.8248C107.618 98.0185 108.13 99.3161 107.47 100.435C106.861 101.463 105.604 101.745 104.663 102.357C103.652 103.014 102.833 104.147 102.738 105.37C102.624 106.824 103.471 108.397 102.763 109.672C102.257 110.583 101.194 110.933 100.422 111.558C99.5567 112.259 98.9025 113.239 98.6778 114.335C98.2848 116.258 99.3671 118.424 101.289 119.032C102.253 119.337 103.298 119.238 104.291 119.045C106.193 118.677 108.03 117.976 109.694 116.986C111.326 116.014 112.839 114.745 114.684 114.289C116.284 113.893 117.961 114.155 119.609 114.19C121.234 114.225 122.89 114.038 124.463 114.446C125.164 114.627 125.833 114.924 126.54 115.083C127.247 115.243 128.028 115.252 128.653 114.884C129.277 114.517 129.662 113.69 129.352 113.035C129.212 112.738 128.954 112.512 128.793 112.225C128.07 110.932 129.615 109.41 129.401 107.946C129.248 106.893 128.242 106.198 127.294 105.708V105.709ZM107.774 104.555C107.142 105.393 106.142 105.933 105.636 106.853C105.346 107.379 105.243 108.005 105.351 108.595C105.057 108.006 104.762 107.413 104.6 106.775C104.438 106.137 104.418 105.446 104.672 104.839C105.037 103.959 105.896 103.399 106.727 102.932C107.337 102.59 107.78 102.017 108.344 101.687C108.793 102.498 108.285 103.877 107.773 104.555H107.774Z" fill="#0909AA"/>
<path d="M120.464 187.131C120.464 187.131 119.395 195.498 120.146 196.535C120.574 197.128 130.4 199.63 130.871 198.337C131.342 197.043 124.001 194.144 123.787 191.608C123.572 189.072 124.182 186.794 124.182 186.794L120.463 187.131H120.464Z" fill="#FFA089"/>
<path d="M119.906 193.223C124.645 196.541 126.473 195.9 127.156 195.151C129.102 196.473 131.12 197.638 130.866 198.335C130.395 199.629 120.569 197.127 120.141 196.534C119.867 196.156 119.835 194.794 119.907 193.223H119.906Z" fill="#080435"/>
<path d="M105.962 187.131C105.962 187.131 104.893 195.498 105.643 196.535C106.071 197.128 115.898 199.63 116.369 198.337C116.84 197.043 109.499 194.144 109.286 191.608C109.071 189.072 109.681 186.794 109.681 186.794L105.963 187.131H105.962Z" fill="#FFA089"/>
<path d="M105.404 193.223C110.143 196.541 111.971 195.9 112.653 195.151C114.599 196.473 116.616 197.638 116.362 198.335C115.891 199.629 106.064 197.127 105.636 196.534C105.362 196.156 105.331 194.794 105.402 193.223H105.404Z" fill="#080435"/>
<path d="M120.193 97.8932C120.193 97.8932 120.546 97.188 120.92 97.4097C121.876 97.9784 121.045 98.9917 120.487 99.2572L120.193 97.8932Z" fill="#E56D5E"/>
<path d="M113.721 90.6611C111.075 91.1646 109.193 93.6083 109.383 96.29C109.446 97.1718 109.716 97.9822 110.142 98.6836C111.106 100.443 111.898 101.859 112.788 102.852C113.691 103.858 114.206 105.149 114.181 106.498L114.156 107.861C117.446 109.023 118.61 107.31 118.61 107.31L118.226 104.219C121.529 103.406 120.315 97.2895 120.089 95.4658H120.084C120.078 95.3982 120.073 95.3293 120.064 95.2604C119.685 92.208 116.801 90.0749 113.722 90.6611H113.721Z" fill="#FFA089"/>
<path d="M114.011 96.1147C113.441 96.8574 112.965 97.6666 112.492 98.4732C111.99 99.3274 111.474 100.232 111.461 101.223C110.516 100.674 109.84 99.7646 109.253 98.844C108.98 98.4181 108.717 97.9747 108.585 97.4875C108.397 96.7961 108.482 96.0633 108.569 95.3519C108.68 94.4338 108.806 93.4768 109.328 92.7128C109.675 92.2068 110.172 91.8222 110.693 91.4991C111.908 90.7426 113.322 90.2678 114.754 90.2891C116.186 90.3117 117.631 90.8603 118.613 91.8999C119.877 93.2401 120.238 95.169 120.546 96.9827C120.267 96.2487 119.687 95.6763 119.124 95.1277C118.757 94.7707 118.382 94.4087 117.917 94.192C117.126 93.8225 116.933 93.9478 115.538 93.2376C115.342 94.4037 114.724 95.1853 114.011 96.1134V96.1147Z" fill="#0909AA"/>
<path d="M114.992 99.0845C114.985 98.8264 114.77 98.6235 114.511 98.6298C114.252 98.6373 114.049 98.8515 114.055 99.1095C114.063 99.3675 114.277 99.5704 114.536 99.5642C114.795 99.5579 114.999 99.3425 114.992 99.0845Z" fill="#080435"/>
<path d="M118.963 101.546C118.963 101.546 118.276 101.008 118.053 101.115C117.829 101.223 117.75 101.529 117.75 101.529C117.75 101.529 117.559 101.271 117.272 101.318C116.984 101.365 116.362 102.452 116.362 102.452C116.362 102.452 117.235 102.698 118.053 102.331C118.87 101.964 118.963 101.544 118.963 101.544V101.546Z" fill="#FA5D63"/>
<path d="M113.171 107.936C113.171 107.936 112.761 105.853 114.149 105.841C114.149 105.841 116.114 107.012 118.412 105.714C118.412 105.714 119.424 105.698 119.326 107.481C119.326 107.481 124.984 109.201 126.87 110.597C128.756 111.991 130.609 121.626 133.731 127.401C136.853 133.175 138.959 137.878 137.854 140.498L135.133 141.489C135.133 141.489 132.496 140.895 129.244 134.213C125.992 127.53 126.123 127.895 126.123 127.895C126.123 127.895 126.562 132.006 125.196 134.148L109.881 134.537C109.881 134.537 107.93 133.564 106.71 126.313C106.71 126.313 103.16 124.725 103.793 117.349C104.338 110.996 108.547 109.299 113.174 107.937L113.171 107.936Z" fill="#FCFCFC"/>
<path d="M130.801 116.452L121.208 114.774C121.08 114.751 120.958 114.836 120.935 114.964L118.581 128.353C118.559 128.48 118.644 128.602 118.772 128.624L128.365 130.304C128.493 130.326 128.615 130.241 128.638 130.114L130.992 116.724C131.014 116.596 130.929 116.475 130.801 116.452Z" fill="#080435"/>
<path d="M124.043 114.788L123.892 115.65L127.959 116.361L128.111 115.499L124.043 114.788Z" fill="#4B49F2"/>
<path d="M126.758 115.268C126.824 114.898 126.575 114.545 126.203 114.479C125.833 114.414 125.478 114.662 125.412 115.033C125.348 115.404 125.596 115.757 125.967 115.822C126.339 115.887 126.692 115.639 126.758 115.268Z" fill="#4B49F2"/>
<path d="M117.303 100.593C117.842 100.442 117.974 100.008 117.961 99.7671C117.958 99.7245 117.941 99.6869 117.911 99.6581C117.343 99.1195 117.284 98.234 117.284 98.2252C117.279 98.135 117.201 98.0674 117.111 98.0724C117.022 98.0774 116.952 98.1538 116.957 98.244C116.959 98.2841 117.018 99.211 117.631 99.8422C117.614 99.975 117.518 100.277 116.992 100.316C116.9 100.323 116.834 100.401 116.841 100.491C116.847 100.58 116.926 100.649 117.017 100.641C117.122 100.634 117.218 100.616 117.303 100.593Z" fill="#E56D5E"/>
<path d="M125.194 134.148C125.194 134.148 128.202 136.419 128.722 147.708C129.242 158.997 125.283 189.698 125.283 189.698L118.732 190.006C118.732 190.006 119.749 148.875 118.708 148.746C117.667 148.617 110.644 189.751 110.644 189.751L104.661 189.361C104.661 189.361 104.237 148.537 109.881 134.537L125.196 134.148H125.194Z" fill="#100259"/>
<path d="M123.473 121.648C123.473 121.648 125.175 119.719 125.945 119.159C126.714 118.598 127.045 117.484 127.5 117.795C127.957 118.105 127.023 119.68 127.023 119.68C127.023 119.68 128.939 119.376 129.514 119.194C130.089 119.011 131.198 118.946 131.366 119.354C131.533 119.764 128.712 120.448 128.712 120.448C128.712 120.448 130.387 120.16 130.462 120.669C130.522 121.083 128.583 121.685 128.583 121.685C128.583 121.685 129.895 121.4 130.167 121.415C130.495 121.432 130.811 121.881 129.942 122.276C129.072 122.672 128.736 122.745 128.736 122.745C128.736 122.745 129.714 122.622 129.942 122.675C130.171 122.726 130.454 123.202 129.674 123.412C128.299 123.783 125.529 124.272 123.889 123.897L123.473 121.65V121.648Z" fill="#FFA089"/>
<path d="M106.709 126.313C106.709 126.313 116.099 132.004 124.787 124.014L123.976 121.107C123.976 121.107 112.415 122.468 110.368 116.387L106.709 126.313Z" fill="#FCFCFC"/>
<path d="M113.809 128.484C115.243 128.484 116.862 128.267 118.641 127.697C118.678 127.686 118.697 127.647 118.685 127.612C118.674 127.576 118.636 127.557 118.6 127.568C111.363 129.89 106.796 126.298 106.751 126.261C106.722 126.238 106.679 126.241 106.655 126.271C106.631 126.299 106.636 126.342 106.665 126.366C106.7 126.393 109.353 128.484 113.809 128.484Z" fill="#080435"/>
<path d="M119.33 121.264C119.603 121.264 119.765 121.256 119.775 121.256C119.813 121.253 119.842 121.22 119.839 121.184C119.837 121.148 119.805 121.121 119.768 121.121C119.687 121.128 111.853 121.527 110.709 116.373C110.7 116.337 110.664 116.313 110.628 116.322C110.591 116.331 110.567 116.366 110.576 116.402C111.584 120.94 117.625 121.264 119.328 121.264H119.33Z" fill="#080435"/>
<path d="M116.362 102.579C116.377 102.579 116.392 102.574 116.404 102.564C117.4 101.745 118.952 101.648 118.967 101.648C119.004 101.646 119.032 101.615 119.031 101.578C119.028 101.541 118.999 101.512 118.96 101.514C118.895 101.518 117.35 101.613 116.32 102.46C116.291 102.484 116.287 102.526 116.311 102.555C116.325 102.571 116.344 102.58 116.363 102.58L116.362 102.579Z" fill="#080435"/>
<path d="M119.001 98.1638C118.993 97.9258 118.792 97.7392 118.554 97.7467C118.315 97.7542 118.128 97.9546 118.136 98.1926C118.143 98.4306 118.344 98.6172 118.582 98.6097C118.821 98.6022 119.008 98.4018 119.001 98.1638Z" fill="#080435"/>
<path d="M113.591 98.0799C113.54 98.0911 113.485 98.0799 113.441 98.046C113.363 97.9847 113.35 97.8719 113.41 97.7943C113.429 97.7705 113.873 97.2206 114.667 97.0866C114.765 97.0703 114.857 97.1355 114.874 97.2332C114.89 97.3308 114.817 97.426 114.727 97.4398C114.065 97.5525 113.696 98.011 113.692 98.016C113.665 98.0498 113.628 98.0723 113.588 98.0811L113.591 98.0799Z" fill="#080435"/>
<path d="M117.543 96.5806C117.494 96.563 117.454 96.5242 117.436 96.4716C117.404 96.3777 117.453 96.275 117.547 96.2424C117.574 96.2324 118.24 96.0044 118.988 96.32C119.08 96.3589 119.122 96.4641 119.083 96.5555C119.045 96.647 118.935 96.6895 118.847 96.6507C118.228 96.3889 117.671 96.5781 117.665 96.5806C117.623 96.5956 117.581 96.5931 117.542 96.5806H117.543Z" fill="#080435"/>
<path d="M114.973 100.595C114.215 100.77 113.455 100.298 113.278 99.5428C113.102 98.7863 113.576 98.0285 114.334 97.8519C115.092 97.6765 115.852 98.1487 116.029 98.904C116.205 99.6605 115.731 100.418 114.973 100.595ZM114.36 97.9621C113.663 98.1237 113.228 98.8201 113.39 99.5152C113.552 100.21 114.251 100.645 114.948 100.483C115.645 100.322 116.08 99.6255 115.918 98.9303C115.756 98.2352 115.058 97.8005 114.361 97.9621H114.36Z" fill="#080435"/>
<path d="M119.008 99.6593C118.25 99.8347 117.49 99.3624 117.313 98.6059C117.136 97.8494 117.611 97.0916 118.369 96.915C119.127 96.7396 119.887 97.2118 120.064 97.9671C120.24 98.7237 119.766 99.4814 119.008 99.658V99.6593ZM118.395 97.0265C117.699 97.188 117.263 97.8845 117.425 98.5796C117.587 99.2748 118.285 99.7094 118.982 99.5478C119.679 99.3862 120.114 98.6898 119.952 97.9947C119.79 97.2995 119.092 96.8661 118.394 97.0277L118.395 97.0265Z" fill="#080435"/>
<path d="M116.013 98.9579L115.933 98.8752C116.687 98.1638 117.39 98.5395 117.397 98.5433L117.342 98.6435C117.316 98.6297 116.702 98.3053 116.013 98.9591V98.9579Z" fill="#080435"/>
<path d="M113.304 99.407L111.08 99.7692L111.099 99.8817L113.323 99.5195L113.304 99.407Z" fill="#080435"/>
<path d="M111.951 99.9725C111.843 99.8109 111.677 99.6981 111.49 99.648C111.103 99.5453 110.436 99.4639 110.044 99.9637C109.471 100.696 111.002 102.265 112.196 101.244C112.196 101.244 112.522 100.827 111.951 99.9712V99.9725Z" fill="#FFA089"/>
</svg>
