<svg width="570" height="340" viewBox="0 0 570 340" fill="none" xmlns="http://www.w3.org/2000/svg">
<path d="M96.0896 327.001C96.0896 334.18 186.8 340 298.703 340C410.606 340 501.306 334.18 501.306 327.001C501.306 319.821 410.596 314.007 298.703 314.007C186.81 314.007 96.0896 319.827 96.0896 327.001Z" fill="#E4E4E4"/>
<path d="M399.097 294.725C397.366 298.738 395.765 302.802 394.467 306.977C393.09 311.406 392.026 315.921 391 320.438C390.918 320.793 391.468 320.948 391.55 320.589C392.558 316.145 393.606 311.707 394.949 307.353C396.247 303.149 397.849 299.049 399.592 295.013C399.733 294.677 399.241 294.39 399.098 294.726L399.097 294.725Z" fill="#E24E4F"/>
<path d="M402.166 288.969C399.752 290.077 398.19 293.008 398.92 295.586C398.94 295.651 399.016 295.69 399.081 295.664C401.568 294.663 402.93 291.635 402.331 289.049C402.312 288.975 402.23 288.938 402.165 288.969H402.166Z" fill="#E24E4F"/>
<path d="M402.883 298.122C400.282 297.591 397.287 299.03 396.355 301.544C396.33 301.609 396.371 301.683 396.436 301.703C399.034 302.366 401.922 300.725 402.969 298.284C402.998 298.217 402.956 298.136 402.883 298.122Z" fill="#E24E4F"/>
<path d="M391.988 300.65C391.201 303.184 392.335 306.305 394.744 307.483C394.807 307.515 394.884 307.483 394.909 307.42C395.827 304.901 394.486 301.863 392.159 300.582C392.093 300.546 392.008 300.58 391.988 300.65Z" fill="#E24E4F"/>
<path d="M398.981 309.666C396.353 309.29 393.451 310.905 392.669 313.468C392.646 313.533 392.691 313.608 392.759 313.62C395.392 314.129 398.179 312.324 399.078 309.824C399.105 309.757 399.057 309.676 398.982 309.666H398.981Z" fill="#E24E4F"/>
<path d="M392.197 275.422C385.588 289.523 381.696 304.899 379.105 320.204C379.026 320.656 379.719 320.851 379.796 320.395C382.378 305.155 386.238 289.828 392.819 275.786C393.015 275.369 392.395 275.005 392.197 275.421V275.422Z" fill="#E24E4F"/>
<path d="M396.072 268.157C393.026 269.559 391.054 273.258 391.978 276.513C392.002 276.598 392.096 276.642 392.18 276.611C395.32 275.354 397.037 271.525 396.281 268.259C396.261 268.167 396.159 268.116 396.071 268.157H396.072Z" fill="#E24E4F"/>
<path d="M397.779 278.232C394.493 277.565 390.716 279.383 389.536 282.555C389.507 282.64 389.557 282.737 389.641 282.754C392.919 283.593 396.568 281.521 397.89 278.442C397.925 278.356 397.873 278.255 397.78 278.232H397.779Z" fill="#E24E4F"/>
<path d="M386.034 274.08C385.037 277.281 386.473 281.22 389.513 282.709C389.591 282.749 389.691 282.709 389.722 282.622C390.883 279.449 389.185 275.611 386.249 273.991C386.168 273.945 386.059 273.987 386.034 274.08Z" fill="#E24E4F"/>
<path d="M394.38 286.985C391.093 286.314 387.316 288.134 386.138 291.307C386.107 291.39 386.157 291.482 386.242 291.507C389.523 292.344 393.169 290.276 394.489 287.192C394.525 287.106 394.471 287.005 394.38 286.986V286.985Z" fill="#E24E4F"/>
<path d="M382.632 282.829C381.64 286.03 383.074 289.971 386.11 291.458C386.192 291.499 386.291 291.456 386.321 291.376C387.482 288.194 385.785 284.362 382.848 282.743C382.768 282.696 382.661 282.738 382.632 282.829Z" fill="#E24E4F"/>
<path d="M391.534 295.588C388.213 295.112 384.55 297.152 383.56 300.388C383.534 300.474 383.589 300.563 383.677 300.581C387.001 301.225 390.516 298.941 391.654 295.786C391.687 295.699 391.627 295.601 391.534 295.588Z" fill="#E24E4F"/>
<path d="M379.56 292.134C378.758 295.388 380.423 299.237 383.545 300.543C383.628 300.574 383.724 300.531 383.747 300.447C384.72 297.206 382.8 293.478 379.773 292.034C379.689 291.993 379.585 292.043 379.56 292.135V292.134Z" fill="#E24E4F"/>
<path d="M388.853 305.814C385.517 305.471 381.935 307.655 381.078 310.928C381.058 311.017 381.114 311.102 381.202 311.118C384.548 311.625 387.974 309.205 388.981 306.005C389.01 305.917 388.947 305.824 388.853 305.814Z" fill="#E24E4F"/>
<path d="M376.751 302.837C376.08 306.124 377.896 309.902 381.069 311.081C381.151 311.112 381.245 311.064 381.268 310.977C382.108 307.702 380.041 304.054 376.957 302.732C376.87 302.694 376.771 302.749 376.751 302.837Z" fill="#E24E4F"/>
<path d="M179.13 317.608C178.8 317.085 178.539 316.521 178.39 315.906C178.014 314.352 178.365 312.589 179.734 311.633C181.044 310.715 182.813 310.839 184.264 311.306C184.941 311.524 185.594 311.816 186.218 312.161C185.607 311.277 185.044 310.358 184.543 309.402C183.7 307.798 182.87 305.613 184.349 304.102C185.486 302.933 187.363 302.957 188.847 303.256C190.802 303.649 192.734 304.526 194.443 305.537C194.908 305.813 195.361 306.106 195.804 306.417C194.49 304.334 193.435 302.089 192.684 299.731C191.705 296.655 190.663 291.867 193.992 289.776C197.314 287.687 201.664 290.411 204.386 292.315C207.696 294.628 210.547 297.528 213.009 300.719C214.955 303.236 216.659 305.926 218.204 308.707C218.204 307.955 218.33 307.222 218.626 306.567C219.636 304.324 222.125 305.77 223.437 306.836C226.728 309.514 228.958 313.425 229.64 317.607H179.129L179.13 317.608Z" fill="#E24E4F"/>
<path d="M202.195 299.764C204.807 305.829 206.642 312.196 207.642 318.724C207.69 319.038 207.208 319.173 207.161 318.857C206.168 312.377 204.358 306.041 201.766 300.017C201.64 299.725 202.069 299.47 202.195 299.765V299.764Z" fill="#1C6F73"/>
<path d="M189.789 306.828C193.318 310.168 196.067 314.229 197.873 318.737C197.994 319.035 197.512 319.164 197.393 318.872C195.619 314.447 192.899 310.46 189.437 307.183C189.203 306.962 189.557 306.607 189.789 306.829V306.828Z" fill="#1C6F73"/>
<path d="M182.817 312.901C184.875 314.228 186.377 316.621 187.638 318.666C187.806 318.94 187.375 319.19 187.206 318.918C186.538 317.832 185.813 316.783 185.019 315.781C184.298 314.874 183.548 313.967 182.566 313.334C182.297 313.159 182.548 312.726 182.817 312.901Z" fill="#1C6F73"/>
<path d="M221.852 309.452C222.895 312.465 223.474 315.606 223.577 318.794C223.589 319.117 223.088 319.117 223.079 318.794C222.975 315.651 222.402 312.557 221.369 309.584C221.264 309.278 221.746 309.15 221.852 309.451V309.452Z" fill="#1C6F73"/>
<path d="M208.875 308.431C208.237 310.295 207.512 312.127 206.709 313.923C206.579 314.218 206.148 313.963 206.276 313.671C207.065 311.913 207.77 310.121 208.392 308.298C208.498 307.994 208.978 308.127 208.875 308.431Z" fill="#1C6F73"/>
<path d="M185.828 313.31C185.89 314.197 185.878 315.082 185.798 315.969C185.769 316.284 185.27 316.289 185.3 315.969C185.379 315.082 185.392 314.197 185.331 313.31C185.309 312.991 185.807 312.991 185.828 313.31Z" fill="#1C6F73"/>
<path d="M221.551 313.306C222.052 313.908 222.55 314.51 223.051 315.11C223.255 315.354 222.903 315.709 222.699 315.462C222.198 314.862 221.697 314.261 221.199 313.662C220.992 313.417 221.344 313.062 221.551 313.308V313.306Z" fill="#1C6F73"/>
<mask id="mask0_20_564" style="mask-type:luminance" maskUnits="userSpaceOnUse" x="317" y="100" width="44" height="44">
<path d="M360.122 121.714C360.122 133.585 350.495 143.204 338.625 143.204C326.756 143.204 317.129 133.585 317.129 121.714C317.129 109.844 326.752 100.225 338.625 100.225C350.499 100.225 360.122 109.847 360.122 121.714Z" fill="white"/>
</mask>
<g mask="url(#mask0_20_564)">
<path d="M360.122 121.714C360.122 133.585 350.495 143.204 338.625 143.204C326.756 143.204 317.129 133.585 317.129 121.714C317.129 109.844 326.752 100.225 338.625 100.225C350.499 100.225 360.122 109.847 360.122 121.714Z" fill="white"/>
<path d="M335.824 129.703C333.757 130.595 331.58 129.65 329.447 129.597C328.515 129.572 327.573 129.688 326.718 130.071C326.386 130.221 326.085 130.414 325.794 130.625C325.704 130.343 325.624 130.057 325.559 129.767C325.283 128.548 325.218 127.261 325.494 126.035C325.778 124.776 326.453 123.676 327.055 122.551C327.795 121.165 328.155 119.867 328.045 118.29C327.949 116.964 327.873 115.666 328.094 114.347C328.466 112.124 329.57 110.007 331.469 108.727C333.998 107.023 336.776 107.865 339.557 108.28C339.738 108.307 338.447 121.96 337.039 128.978C336.658 129.257 336.261 129.514 335.823 129.704L335.824 129.703Z" fill="#14232F"/>
<path d="M330.628 130.16C327.692 135.097 329.508 140.513 329.508 140.513C336.729 142.714 344.777 141.608 344.777 141.608C345.223 132.832 348.721 130.069 348.721 130.069C344.157 129.31 342.228 128.146 341.963 127.872C341.963 127.872 341.66 124.651 341.535 122.622C341.535 122.622 340.764 121.772 340.705 120.456C340.584 120.474 337.32 111.242 335.864 111.289C332.684 111.391 332.093 112.951 331.465 114.731C330.98 115.744 330.952 116.753 330.681 118.349C330.119 121.685 330.723 124.663 332.338 126C333.172 126.69 334.681 126.561 335.606 126.208L335.638 128.87L330.627 130.159L330.628 130.16Z" fill="#FDA78C"/>
<path d="M335.661 126.139C336.67 125.797 337.646 125.297 338.373 124.504C338.499 124.366 338.722 124.551 338.595 124.687C337.833 125.519 336.82 126.052 335.764 126.409C335.589 126.47 335.485 126.201 335.66 126.139H335.661Z" fill="#F5816C"/>
<path d="M342.686 144.04C348.109 143.799 353.506 143.427 358.895 143.743C357.937 140.921 356.968 138.265 356.002 135.802C354.148 131.073 350.829 130.694 350.829 130.694L347.596 129.97C346.488 132.632 345.831 134.165 344.331 136.039C339.656 141.872 332.733 140.667 331.759 136.924C331.307 135.195 331.409 131.329 332.163 129.774L330.844 130.115C330.844 130.115 330.848 130.109 330.848 130.102L329.652 130.425C326.98 131.242 325.945 134.298 324.936 136.353C324.465 137.321 323.699 139.855 322.886 142.703C328.66 144.95 336.843 144.3 342.687 144.039L342.686 144.04Z" fill="#3A8F92"/>
<path d="M333.012 109.146C335.272 107.716 338.224 107.596 340.763 108.269C343.364 108.958 345.284 110.619 346.553 112.956C347.838 115.325 348.506 117.977 349.895 120.296C350.623 121.508 351.493 122.682 352.152 123.939C352.789 125.155 352.572 126.61 351.725 127.69C351.629 127.815 351.537 127.942 351.448 128.071C350.753 129.085 350.212 130.288 349.151 130.981C348.096 131.668 346.787 131.702 345.574 131.81C344.398 131.912 342.951 132.061 342.05 132.91C341.474 133.454 341.135 134.071 340.353 134.351C340.336 134.356 340.317 134.358 340.299 134.365C340.301 134.291 340.306 134.217 340.306 134.145C340.288 132.585 339.636 131.199 339.29 129.706C339.009 128.473 339.149 127.391 339.397 126.169C339.738 124.506 339.762 123.12 338.474 121.857C337.645 121.047 336.73 120.359 335.989 119.458C335.251 118.562 334.642 117.562 334.169 116.506C333.178 114.304 332.834 109.256 333.009 109.148L333.012 109.146Z" fill="#14232F"/>
</g>
<path d="M338.624 143.633C326.533 143.633 316.697 133.801 316.697 121.714C316.697 109.628 326.533 99.7959 338.624 99.7959C350.716 99.7959 360.552 109.63 360.552 121.714C360.552 133.799 350.714 143.633 338.624 143.633ZM338.624 100.656C327.01 100.656 317.557 110.102 317.557 121.714C317.557 133.327 327.008 142.775 338.624 142.775C350.24 142.775 359.69 133.328 359.69 121.714C359.69 110.101 350.239 100.656 338.624 100.656Z" fill="#3A8F92"/>
<mask id="mask1_20_564" style="mask-type:luminance" maskUnits="userSpaceOnUse" x="274" y="72" width="41" height="42">
<path d="M314.975 93.05C314.975 104.333 305.827 113.476 294.544 113.476C283.26 113.476 274.112 104.333 274.112 93.05C274.112 81.7673 283.261 72.623 294.544 72.623C305.826 72.623 314.975 81.7684 314.975 93.05Z" fill="white"/>
</mask>
<g mask="url(#mask1_20_564)">
<path d="M314.975 93.05C314.975 104.333 305.827 113.476 294.544 113.476C283.26 113.476 274.112 104.333 274.112 93.05C274.112 81.7673 283.261 72.623 294.544 72.623C305.826 72.623 314.975 81.7684 314.975 93.05Z" fill="white"/>
<path d="M292.677 117.309C299.13 117.269 312.445 113.215 307.364 107.204C303.471 102.602 297.062 101.059 295.754 100.574L289.375 100.027C284.038 101.041 280.006 102.76 278.287 103.939C276.149 105.404 266.129 117.474 292.677 117.309Z" fill="#398FB9"/>
<path d="M295.754 100.574L295.79 98.3931C296.721 98.7494 298.243 98.8875 299.085 98.1961C300.722 96.8609 301.35 93.8625 300.804 90.4915C300.544 88.8832 300.519 87.8679 300.034 86.8424C299.558 85.2828 297.979 84.3456 294.694 84.904C293.243 85.1518 290.808 92.5791 290.688 92.5608C290.62 93.8859 289.84 94.7398 289.84 94.7398C289.699 96.7807 289.375 100.027 289.375 100.027C292.006 101.098 295.754 100.574 295.754 100.574Z" fill="#A76B63"/>
<path d="M295.729 98.3381C294.713 97.9838 293.73 97.4741 292.996 96.6689C292.889 96.545 292.692 96.7075 292.802 96.8273C293.564 97.667 294.581 98.2061 295.641 98.5747C295.792 98.6275 295.882 98.393 295.729 98.3381Z" fill="#8B5348"/>
<path d="M287.166 87.5133C286.886 88.8232 286.987 90.2101 287.383 91.5108C288.081 93.7842 289.747 95.7966 289.486 98.2873C289.477 98.4 289.616 98.4447 289.692 98.3797C290.463 97.7451 291.108 96.9795 291.578 96.0911C292.023 95.2493 292.194 94.37 292.431 93.4593C292.58 92.8775 292.905 92.514 293.188 92.0154C293.371 91.6936 293.358 91.3544 293.374 90.993C293.42 89.9279 293.529 88.8668 293.701 87.8149C294.653 86.6442 296.73 86.7132 298.023 87.1194C299.232 87.4971 300.545 88.1916 301.818 87.6484C302.931 87.1732 303.762 85.8421 304.173 84.7587C304.332 84.3454 304.611 83.4864 304.379 83.0549C304.242 82.8072 303.946 82.8803 303.683 82.9737C303.974 82.4843 304.142 81.9553 304.182 81.3715C304.186 81.2831 304.079 81.2131 304.001 81.2608C303.324 81.673 302.503 81.9238 301.719 81.673C300.925 81.4161 300.63 80.8282 300.241 80.154C299.787 79.358 299.009 78.7996 298.126 78.5549C296.397 78.0746 294.718 78.8788 293.614 80.1825C292.835 79.6982 291.772 79.6768 290.905 79.885C289.73 80.1672 288.702 80.8861 288.003 81.8639C286.8 83.5352 286.67 85.5953 287.163 87.5123L287.166 87.5133Z" fill="#14232F"/>
<path d="M291.552 92.5679C291.998 93.3508 292.776 93.7437 293.294 93.4502C293.809 93.1578 293.871 92.2866 293.429 91.5048C292.986 90.726 292.288 90.4732 291.773 90.7677C291.253 91.0631 291.109 91.7881 291.553 92.5689L291.552 92.5679Z" fill="#A76B63"/>
<path d="M288.69 100.162C289.49 100.801 292.396 101.936 292.832 102.154C293.232 102.347 293.63 102.585 293.817 102.997C294.232 102.399 294.557 101.759 294.817 101.084C295.564 101.529 296.303 102 297.021 102.498C297.153 101.983 297.161 101.421 297.054 100.916C296.916 100.558 296.156 99.9787 295.771 99.671C295.203 99.8934 294.93 99.9391 294.655 100.505C294.487 100.28 294.244 100.056 294.244 100.056C293.853 99.9289 289.477 98.9775 289.477 98.9775C289.225 99.2964 288.691 100.161 288.691 100.161L288.69 100.162Z" fill="#88CEFC"/>
</g>
<path d="M294.543 113.885C283.051 113.885 273.702 104.536 273.702 93.0495C273.702 81.5628 283.051 72.2134 294.543 72.2134C306.035 72.2134 315.383 81.5597 315.383 93.0495C315.383 104.539 306.034 113.885 294.543 113.885ZM294.543 73.0297C283.5 73.0297 274.517 82.0095 274.517 93.0495C274.517 104.089 283.5 113.067 294.543 113.067C305.586 113.067 314.566 104.087 314.566 93.0495C314.566 82.0116 305.584 73.0297 294.543 73.0297Z" fill="#398FB9"/>
<mask id="mask2_20_564" style="mask-type:luminance" maskUnits="userSpaceOnUse" x="336" y="25" width="45" height="45">
<path d="M336.679 47.5114C336.679 59.5007 346.401 69.2177 358.393 69.2177C370.384 69.2177 380.105 59.4997 380.105 47.5114C380.105 35.5231 370.384 25.8062 358.393 25.8062C346.401 25.8062 336.679 35.5241 336.679 47.5114Z" fill="white"/>
</mask>
<g mask="url(#mask2_20_564)">
<path d="M336.679 47.5114C336.679 59.5007 346.401 69.2177 358.393 69.2177C370.384 69.2177 380.105 59.4997 380.105 47.5114C380.105 35.5231 370.384 25.8062 358.393 25.8062C346.401 25.8062 336.679 35.5241 336.679 47.5114Z" fill="white"/>
<path d="M348.037 48.2099C348.251 46.9722 347.557 45.9568 347.593 44.7465C347.622 43.8672 347.99 43.0986 348.552 42.4366C349.353 41.4883 350.355 40.7541 350.653 39.4839C350.769 39.0016 350.738 38.5346 350.662 38.0756L353.397 37.8787C355.091 39.1275 356.43 41.2121 357.248 42.8224C358.148 44.6013 358.746 46.5204 359.159 48.4637C359.555 50.3046 359.716 52.2703 358.973 54.0482C357.605 57.3197 353.153 58.2619 350.137 56.7978C348.719 56.1124 347.595 54.8148 347.205 53.2745C346.738 51.4398 347.741 49.9695 348.038 48.2089L348.037 48.2099Z" fill="#14232F"/>
<path d="M345.363 70.1298C345.799 64.0133 347.236 59.2868 349.148 56.5342C350.887 54.0324 354.404 52.5499 356.394 51.7864L363.284 51.23C370.412 53.347 373.216 57.4693 374.134 62.5441C374.452 64.2966 374.764 67.3467 375.012 70.1633H350.54C348.817 70.1339 347.089 70.1247 345.364 70.1288L345.363 70.1298Z" fill="#FFBD66"/>
<path d="M362.562 51.0896C362.562 51.0896 362.164 47.9531 361.973 45.9783C361.973 45.9783 361.194 45.1711 361.097 43.8856C357.655 34.0814 352.264 36.0826 351.884 38.5905C351.442 39.5937 351.445 40.5817 351.236 42.1473C350.792 45.428 351.48 48.3166 353.099 49.5696C353.936 50.2164 355.405 50.0438 356.297 49.6732L356.393 51.7861C356.393 51.7861 357.828 52.503 362.561 51.0886L362.562 51.0896Z" fill="#A76B63"/>
<path d="M356.371 49.6071C357.407 49.3624 358.415 48.9603 359.216 48.2424C359.349 48.1267 359.5 48.3562 359.37 48.4709C358.552 49.1989 357.516 49.6182 356.461 49.864C356.294 49.9025 356.2 49.6467 356.371 49.6071Z" fill="#8B5348"/>
<path d="M351.385 40.8588C351.385 40.8588 352.256 38.3682 353.132 37.5041C354.639 38.1062 355.345 40.0537 355.933 41.3675C356.363 42.3331 357.032 42.986 357.944 43.5018C359.149 44.1821 360.563 44.6573 361.133 46.0382C361.783 47.6181 360.761 48.9502 359.954 50.2143C358.82 52.0014 358.588 54.2758 360.081 55.9501C361.598 57.6457 364.048 57.5899 365.945 56.5928C366.543 56.2801 367.09 55.8323 367.749 55.6475C368.428 55.4485 369.12 55.6658 369.806 55.6008C370.687 55.5196 371.387 54.9439 371.776 54.1681C372.219 53.2817 372.178 52.2765 371.894 51.3465C371.501 50.0539 370.552 49.0243 370.14 47.7511C369.681 46.3428 370.244 44.8786 370.008 43.446C369.856 42.5352 369.384 41.7473 368.798 41.0467C368.097 40.207 367.263 39.4922 366.57 38.6464C365.741 37.6392 365.476 36.4827 364.967 35.314C364.084 33.2741 360.206 30.028 355.261 32.7005C353.603 32.3684 351.899 32.9573 351.111 34.4357C349.981 36.5395 350.662 38.7621 351.385 40.8588Z" fill="#14232F"/>
<path d="M362.053 70.2877C362.007 70.2785 361.958 70.2704 361.908 70.2704C361.861 70.2704 361.824 70.2775 361.78 70.2826C361.661 66.4974 361.837 62.7091 362.489 58.9665C362.519 58.7928 362.787 58.8436 362.76 59.0172C362.109 62.7446 361.936 66.5146 362.054 70.2867L362.053 70.2877Z" fill="#FFA53D"/>
<path d="M347.25 70.1298H346.974C346.885 63.4843 348.682 59.5711 349.578 58.0471C349.616 57.9791 349.7 57.9598 349.767 57.9994C349.832 58.038 349.856 58.1233 349.818 58.1892C348.931 59.691 347.162 63.5493 347.249 70.1298H347.25Z" fill="#FFA53D"/>
</g>
<path d="M336.246 47.5111C336.246 35.3045 346.183 25.3723 358.393 25.3723C370.603 25.3723 380.541 35.3045 380.541 47.5111C380.541 59.7177 370.605 69.6499 358.393 69.6499C346.18 69.6499 336.246 59.7188 336.246 47.5111ZM337.114 47.5111C337.114 59.2395 346.659 68.7838 358.393 68.7838C370.126 68.7838 379.672 59.2405 379.672 47.5111C379.672 35.7817 370.128 26.2404 358.393 26.2404C346.657 26.2404 337.114 35.7828 337.114 47.5111Z" fill="#FFBD66"/>
<mask id="mask3_20_564" style="mask-type:luminance" maskUnits="userSpaceOnUse" x="290" y="29" width="38" height="37">
<path d="M327.138 47.5112C327.138 57.6952 318.88 65.951 308.691 65.951C298.502 65.951 290.248 57.6962 290.248 47.5112C290.248 37.3261 298.504 29.0713 308.691 29.0713C318.878 29.0713 327.138 37.3282 327.138 47.5112Z" fill="white"/>
</mask>
<g mask="url(#mask3_20_564)">
<path d="M327.137 47.5107C327.137 57.6947 318.88 65.9505 308.691 65.9505C298.502 65.9505 290.248 57.6957 290.248 47.5107C290.248 37.3256 298.504 29.0708 308.691 29.0708C318.878 29.0708 327.137 37.3277 327.137 47.5107Z" fill="white"/>
<path d="M310.098 53.5073L310.064 51.57C310.9 51.8553 312.257 51.9314 312.983 51.2908C314.396 50.048 314.856 47.3644 314.263 44.3894C313.98 42.9679 313.928 42.0632 313.461 41.1687C312.992 39.7979 311.557 39.0131 308.656 39.6203C307.373 39.8853 305.449 46.5633 305.339 46.5511C305.326 47.7289 304.66 48.5158 304.66 48.5158C304.594 50.3353 304.414 53.2311 304.414 53.2311C306.783 54.0952 310.098 53.5073 310.098 53.5073Z" fill="#FDA78C"/>
<path d="M310.009 51.5222C309.089 51.243 308.202 50.8186 307.527 50.1261C307.424 50.0236 307.259 50.1718 307.36 50.2764C308.06 50.9963 308.983 51.44 309.935 51.7365C310.07 51.7791 310.143 51.5659 310.009 51.5222Z" fill="#F5816C"/>
<path d="M314.199 66.3461C316.631 66.2568 319.059 66.2223 321.491 66.2141C321.108 63.9966 320.676 62.0207 320.21 60.7546C318.906 57.2069 316.455 55.7184 310.622 53.9882L310.259 52.6155H304.085L303.541 53.9964C299.546 55.6219 295.549 55.7184 293.086 59.8367C292.295 61.1597 291.195 63.8565 290.213 67.0345C298.095 65.9969 306.272 66.6304 314.2 66.3461H314.199Z" fill="#88CEFC"/>
<path d="M303.584 54.2648C305.902 54.343 308.226 54.3268 310.547 54.3055C310.685 54.3014 310.687 54.0933 310.547 54.0933C308.226 54.1146 305.902 54.1298 303.584 54.0547C303.442 54.0465 303.442 54.2608 303.584 54.2648Z" fill="#65BCEB"/>
<path d="M315.779 39.6436C316.244 38.1875 314.954 36.5934 314.128 36.5193C313.503 36.4655 313.408 35.6959 312.763 35.2643C312.389 35.0145 311.04 34.7962 310.285 35.0846C309.776 35.2775 309.392 35.4968 308.937 35.8634C307.837 35.3324 306.686 35.3923 305.485 35.7141C304.265 36.0451 302.952 36.5762 302.419 37.821C302.309 38.0708 302.241 38.3358 302.231 38.6059C302.215 38.9927 302.371 39.3562 302.371 39.739C302.369 40.1736 302.106 40.5066 301.943 40.8945C301.834 41.1463 301.753 41.4133 301.723 41.6875C301.626 42.5556 302.028 43.3851 302.692 43.907C302.697 45.0026 302.846 46.1073 303.197 47.1318C303.432 47.809 303.911 48.338 304.159 48.999C304.425 49.7128 304.444 50.4855 304.462 51.2338C304.463 51.2998 304.531 51.3689 304.604 51.3425C306.6 50.5678 307.025 48.3929 306.874 46.4688C307.133 46.2505 307.413 46.0433 307.637 45.7865C307.935 45.4362 308.082 45.0016 308.136 44.5487C308.203 44.0289 308.151 43.4989 308.112 42.977C308.077 42.4693 308.039 41.9606 308 41.456C308.695 42.9181 310.507 43.507 311.905 42.6368C312.288 42.4033 312.934 41.3879 313.375 41.4407C314.918 41.6184 315.417 40.7828 315.782 39.6425L315.779 39.6436Z" fill="#402013"/>
<path d="M306.112 46.5295C306.529 47.2058 307.231 47.5327 307.686 47.2565C308.135 46.9783 308.164 46.2026 307.74 45.5243C307.322 44.842 306.693 44.641 306.245 44.9212C305.796 45.1994 305.689 45.8492 306.111 46.5295H306.112Z" fill="#FDA78C"/>
</g>
<path d="M308.691 66.3177C298.317 66.3177 289.876 57.8811 289.876 47.5113C289.876 37.1414 298.317 28.7048 308.691 28.7048C319.064 28.7048 327.505 37.1435 327.505 47.5113C327.505 57.879 319.064 66.3177 308.691 66.3177ZM308.691 29.443C298.722 29.443 290.618 37.5476 290.618 47.5113C290.618 57.4749 298.722 65.5836 308.691 65.5836C318.659 65.5836 326.768 57.4749 326.768 47.5113C326.768 37.5476 318.659 29.443 308.691 29.443Z" fill="#88CEFC"/>
<mask id="mask4_20_564" style="mask-type:luminance" maskUnits="userSpaceOnUse" x="362" y="75" width="37" height="37">
<path d="M362.4 93.0504C362.4 102.979 370.448 111.019 380.378 111.019C390.308 111.019 398.356 102.979 398.356 93.0504C398.356 83.1223 390.307 75.0786 380.378 75.0786C370.449 75.0786 362.4 83.1253 362.4 93.0504Z" fill="white"/>
</mask>
<g mask="url(#mask4_20_564)">
<path d="M362.4 93.0504C362.4 102.979 370.448 111.019 380.378 111.019C390.308 111.019 398.356 102.979 398.356 93.0504C398.356 83.1223 390.307 75.0786 380.378 75.0786C370.449 75.0786 362.4 83.1253 362.4 93.0504Z" fill="white"/>
<path d="M366.97 112.86C366.08 111.041 364.98 105.862 366.674 104.385C368.361 102.916 370.429 101.995 372.455 101.118C374.455 100.251 376.354 99.5989 378.776 98.9288L384.379 98.7024C387.105 99.1857 389.598 99.9289 392.034 100.808C393.221 101.236 394.787 101.744 395.8 102.514C397.848 104.079 396.282 107.465 395.92 112.173C382.419 114.313 375.963 114.026 366.972 112.858L366.97 112.86Z" fill="#E24E4F"/>
<path d="M384.408 99.1628C384.408 99.1628 384.22 96.2913 384.155 94.485C384.155 94.485 383.491 93.7103 383.47 92.5355C383.362 92.5477 381.689 86.1936 380.397 86.1997C377.565 86.2139 376.198 86.5531 375.39 87.2181C374.933 88.1086 374.88 89.0061 374.603 90.4155C374.02 93.3752 374.489 96.0375 375.895 97.265C376.619 97.9007 377.963 97.8215 378.8 97.5311L378.767 99.4582C378.767 99.4582 382.057 100.03 384.409 99.1617L384.408 99.1628Z" fill="#FDA78C"/>
<path d="M378.861 97.4839C379.768 97.2006 380.646 96.7741 381.317 96.0837C381.42 95.9791 381.579 96.1385 381.478 96.2451C380.78 96.9599 379.867 97.4067 378.92 97.7001C378.78 97.7438 378.722 97.5275 378.861 97.4828V97.4839Z" fill="#F5816C"/>
<path d="M371.943 88.9796C371.303 89.7249 371.832 90.9129 372.839 90.9047C372.876 91.2114 373.118 91.4601 373.431 91.5058C373.773 91.5576 374.293 91.3545 374.488 91.0814C374.488 91.0814 374.819 89.2609 374.92 88.6679C375.094 88.7349 375.181 88.7349 375.376 88.7339C376.047 88.7217 376.628 88.2587 376.859 87.6465C377.07 88.0729 377.432 88.4293 377.924 88.4861C378.313 88.5329 378.708 88.3562 378.94 88.0516C379.013 88.5532 379.266 89.0294 379.717 89.2923C379.905 89.3959 380.109 89.4558 380.322 89.467C380.14 90.2793 380.659 91.452 381.771 91.3586C381.62 92.1831 381.846 92.9029 382.741 93.0654C382.306 93.5304 382.14 94.2046 382.38 94.8088C382.493 95.0849 382.671 95.3286 382.904 95.5134C383.032 95.6139 383.165 95.6739 383.304 95.749C383.443 95.8282 383.438 95.8922 383.517 96.0374C383.757 96.5064 384.409 96.7349 384.865 96.4293C385.242 96.1724 385.367 95.6759 385.219 95.2667C386.059 95.3012 386.643 94.5377 386.416 93.7274C386.921 93.7518 387.398 93.4787 387.647 93.0228C387.943 92.4836 387.847 91.8439 387.569 91.32C387.871 91.2855 388.134 91.057 388.199 90.7331C388.24 90.5544 388.214 90.3859 388.152 90.2305C388.76 89.6721 388.739 88.6049 387.946 88.1166C388.868 87.4281 388.441 86.1569 387.758 85.4157C388.412 84.5852 387.684 83.5668 386.805 83.2794C386.686 83.2378 386.582 83.2378 386.51 83.1454C386.462 83.0733 386.458 82.8997 386.417 82.8032C386.318 82.594 386.165 82.4174 385.979 82.2783C385.642 82.0285 385.243 81.9412 384.834 81.9168C384.653 81.535 384.318 81.2335 383.893 81.1157C383.702 81.0659 383.547 81.0974 383.356 81.0832C382.712 81.0456 382.732 80.9857 382.405 80.672C382.126 80.3988 381.798 80.1968 381.413 80.1034C381.039 80.0089 380.637 80.0313 380.271 80.1602C380.094 80.2272 379.916 80.3166 379.76 80.4293C379.65 80.5085 379.454 80.7908 379.342 80.8294C379.028 80.937 378.502 80.3958 378.179 80.3156C377.869 80.2415 377.549 80.2536 377.252 80.3694C376.942 80.4882 376.8 80.6852 376.572 80.9055C376.366 81.1065 376.452 81.0862 376.102 81.0964C375.816 81.1025 375.534 81.0812 375.247 81.1248C374.506 81.2345 373.797 81.6376 373.517 82.3696C373.448 82.5494 373.438 82.7139 373.418 82.9037C373.378 83.1931 373.498 83.0702 373.226 83.2347C372.954 83.3992 372.715 83.5373 372.537 83.8226C372.233 84.311 372.279 84.8786 372.552 85.3436C372.071 85.6817 371.904 86.36 372.249 86.9113C371.796 87.0271 371.401 87.3632 371.318 87.8495C371.238 88.3237 371.521 88.7918 371.944 88.9796H371.943Z" fill="#14232F"/>
<path d="M383.304 92.4714C382.881 93.1476 382.189 93.4725 381.739 93.2014C381.291 92.9252 381.259 92.1546 381.678 91.4783C382.092 90.8021 382.715 90.6011 383.163 90.8772C383.609 91.1534 383.712 91.7931 383.304 92.4724V92.4714Z" fill="#FDA78C"/>
</g>
<path d="M362.038 93.0508C362.038 82.9409 370.268 74.7166 380.378 74.7166C390.489 74.7166 398.716 82.9409 398.716 93.0508C398.716 103.161 390.486 111.381 380.378 111.381C370.271 111.381 362.038 103.158 362.038 93.0508ZM362.755 93.0508C362.755 102.762 370.664 110.666 380.378 110.666C390.093 110.666 397.994 102.763 397.994 93.0508C397.994 83.339 390.092 75.4354 380.378 75.4354C370.665 75.4354 362.755 83.3379 362.755 93.0508Z" fill="#E24E4F"/>
<path d="M406.309 165.595L394.536 174.038L373.283 144.412L385.057 135.969L406.309 165.595Z" fill="#398FB9"/>
<path d="M391.175 144.501C391.175 144.501 386.97 149.479 379.399 152.942L376.379 148.725L388.154 140.284L391.175 144.501Z" fill="#20759E"/>
<path d="M383.663 147.947C347.169 174.106 296.19 165.71 270.021 129.225C243.851 92.7524 252.255 41.7907 288.748 15.6331C325.241 -10.5306 376.221 -2.12855 402.388 34.3512C428.553 70.8248 420.15 121.791 383.663 147.948V147.947ZM293.667 22.4918C260.951 45.9364 253.432 91.6152 276.876 124.318C300.333 157.009 346.031 164.53 378.742 141.082C411.447 117.644 418.983 71.967 395.522 39.2665C372.068 6.57406 326.377 -0.948706 293.666 22.4928L293.667 22.4918Z" fill="#398FB9"/>
<path d="M489.434 289.02L484.799 292.337C481.311 294.84 476.444 294.04 473.954 290.552L392.397 176.865C389.89 173.38 390.694 168.52 394.185 166.016L398.82 162.697C402.315 160.188 407.176 160.99 409.677 164.482L491.222 278.164C493.733 281.66 492.93 286.517 489.434 289.02Z" fill="#14232F"/>
<path d="M274.068 126.886C298.736 161.277 346.799 169.201 381.217 144.539C415.613 119.873 423.541 71.827 398.866 37.4247C374.196 3.03765 326.124 -4.88111 291.715 19.7738C257.316 44.4439 249.39 92.4925 274.068 126.885V126.886ZM293.667 22.4919C326.378 -0.950664 372.069 6.57312 395.523 39.2655C418.983 71.9661 411.448 117.643 378.743 141.081C346.031 164.53 300.334 157.008 276.877 124.317C253.433 91.6142 260.952 45.9364 293.668 22.4909L293.667 22.4919Z" fill="#20759E"/>
<path opacity="0.35" d="M276.876 124.318C300.333 157.009 346.031 164.53 378.742 141.083C411.447 117.644 418.983 71.9674 395.522 39.2668C372.068 6.57439 326.377 -0.948377 293.666 22.4931C260.95 45.9377 253.431 91.6165 276.875 124.319L276.876 124.318Z" fill="white"/>
<path opacity="0.7" d="M294.198 42.1646C308.676 25.3097 329.755 17.4681 350.384 19.0236C327.886 13.9875 303.396 21.1731 287.357 39.8425C264.21 66.7697 267.289 107.493 294.238 130.612C294.972 131.245 295.753 131.779 296.505 132.369C272.947 107.692 271.494 68.5781 294.199 42.1646H294.198Z" fill="white"/>
<path d="M438.599 322.096L433.847 322.242L432.268 310.643L438.608 310.544L438.599 322.096Z" fill="#FDA78C"/>
<path d="M427.087 326.17C426.989 327.965 430.051 327.889 431.573 327.942C433.479 328.014 436.598 327.977 438.037 327.004C439.453 326.046 438.744 322.272 438.597 321.165C438.597 321.165 435.308 321.888 433.721 321.325C433.049 321.77 432.19 322.116 431.477 322.482C430.527 322.965 429.572 323.446 428.705 324.074C428 324.577 427.141 325.244 427.087 326.17Z" fill="#14232F"/>
<path d="M467.563 319.898L462.911 320.886L459.283 309.754L465.511 308.526L467.563 319.898Z" fill="#FDA78C"/>
<path d="M456.963 325.957C457.188 327.74 460.185 327.117 461.691 326.901C463.585 326.634 466.646 326.037 467.888 324.819C469.11 323.623 467.736 320.04 467.394 318.975C467.394 318.975 464.289 320.277 462.623 320.005C462.038 320.561 461.258 321.058 460.619 321.547C459.772 322.189 458.918 322.833 458.177 323.603C457.574 324.232 456.846 325.033 456.962 325.957H456.963Z" fill="#14232F"/>
<path d="M432.135 151.381C432.05 152.971 431.804 159.208 433.029 162.411C434.266 165.639 437.327 165.144 437.327 165.144C437.447 165.834 437.384 167.507 437.384 167.507C440.37 168.264 445.239 167.387 445.239 167.387C444.451 165.239 444.902 160.361 444.902 160.361C441.222 153.281 432.135 151.381 432.135 151.381Z" fill="#FDA78C"/>
<path d="M450.991 143.737C451.226 143.726 451.462 143.743 451.696 143.824C451.914 143.881 452.016 143.63 451.896 143.474C450.488 141.66 448.32 141.094 446.152 140.77C446.273 140.692 446.304 140.516 446.154 140.421C444.171 139.143 441.904 139.343 439.753 139.966C439.739 139.909 439.705 139.863 439.63 139.836C438.118 139.311 436.487 139.413 435.05 140.102C434.309 140.457 433.637 140.965 433.111 141.596C432.445 142.388 432.146 143.375 431.296 144.014C429.987 144.995 429.422 146.156 429.674 147.848C429.895 149.357 430.817 150.562 432.102 151.277C432.31 151.896 432.442 152.542 432.485 153.197C432.531 153.965 432.371 154.776 432.593 155.523C432.748 156.038 433.122 156.558 433.688 156.645C433.901 156.675 434.115 156.641 434.301 156.556C434.593 157.227 434.979 157.825 435.618 158.306C436.644 159.083 437.769 159.694 438.766 160.528C439.818 161.414 440.571 162.491 441.423 163.56C442.156 164.493 443.032 165.27 444.215 165.544C444.372 165.579 444.511 165.446 444.469 165.285C444.423 165.098 444.389 164.912 444.367 164.725C444.462 164.813 444.563 164.899 444.658 164.987C444.793 165.106 445.011 165.025 445.016 164.837C445.068 162.99 446.603 161.876 447.856 160.75C448.862 159.845 449.599 158.854 449.985 157.542C450.544 155.66 450.697 153.611 450.621 151.59C450.724 151.733 450.82 151.879 450.908 152.031C451.004 152.197 451.23 152.145 451.291 151.985C451.466 151.49 451.634 150.997 451.795 150.501C451.931 150.09 452.074 149.673 452.169 149.251C452.234 149.435 452.501 149.408 452.562 149.232C453.237 147.232 452.582 145.071 450.995 143.737H450.991Z" fill="#14232F"/>
<path d="M436.189 157.621C435.907 158.723 435.081 159.466 434.351 159.276C433.62 159.089 433.256 158.039 433.543 156.936C433.826 155.834 434.598 155.295 435.328 155.486C436.058 155.673 436.472 156.516 436.189 157.621Z" fill="#FDA78C"/>
<path d="M464.251 211.894C466.258 208.801 464.253 198.866 463.677 196.96H457.597V216.62C459.572 216.034 463.136 213.614 464.251 211.894Z" fill="#FDA78C"/>
<path d="M468.086 315.117C467.658 309.822 464.31 286.74 462.856 281.456C460.014 271.101 460.638 245.949 460.014 237.944L420.221 236.756C418.866 245.949 419.806 259.671 420.824 269.956C421.965 281.456 425.446 302.377 431.965 317.857L439.525 317.668C440.126 302.896 440.025 288.132 441.55 273.424C441.552 273.4 443.361 279.451 445.835 285.564C449.098 293.637 459.042 313.349 460.733 316.775L468.087 315.116L468.086 315.117Z" fill="#3C4141"/>
<path d="M420.17 198.267C419.993 208.973 418.063 242.405 418.041 242.653C418.041 242.653 427.373 241.018 437.065 242.653C451.629 245.107 461.13 242.653 461.13 242.653C461.513 230.794 461.332 213.744 460.418 201.915C461.467 201.401 465.287 199.699 465.287 199.699C463.72 188.968 462.801 182.266 458.549 176.572C455.509 172.501 448.932 169.793 446.629 168.698C446.629 168.698 445.912 167.467 445.512 166.719L436.519 166.628C436.355 166.637 435.682 168.72 435.682 168.72C429.609 170.506 423.617 172.892 420.22 177.827C415.174 185.152 411.632 190.759 411.632 190.759C415.128 194.212 416.979 195.942 420.169 198.268L420.17 198.267Z" fill="#E24E4F"/>
<path d="M441.55 273.424C442.341 266.438 442.968 259.433 443.42 252.415C443.434 252.198 443.108 252.206 443.094 252.415C442.64 259.433 442.014 266.438 441.218 273.424C441.191 273.638 441.522 273.636 441.55 273.424Z" fill="#1C6F73"/>
<path d="M460.638 201.845C460.517 194.35 459.554 186.903 457.763 179.624C457.712 179.419 457.398 179.507 457.449 179.711C459.232 186.962 460.189 194.38 460.308 201.845C460.312 202.056 460.644 202.056 460.638 201.845Z" fill="#2BCE8F"/>
<path d="M427.39 228.227C431.13 221.359 434.196 214.147 436.55 206.688C436.615 206.488 436.3 206.402 436.235 206.601C433.889 214.033 430.833 221.213 427.105 228.059C427.007 228.245 427.291 228.413 427.39 228.226V228.227Z" fill="#2BCE8F"/>
<path d="M433.545 219.427C432.661 225.405 430.656 231.155 427.615 236.377C427.509 236.562 427.795 236.724 427.898 236.541C430.95 231.294 432.975 225.52 433.861 219.513C433.893 219.309 433.578 219.217 433.545 219.428V219.427Z" fill="#2BCE8F"/>
<path d="M413.122 192.219C413.122 192.219 411.921 193.584 409.595 196.979C408.46 196.135 405.153 192.535 400.986 188.586C401.104 187.754 401.223 186.92 401.34 186.086C401.423 185.524 401.504 184.963 401.581 184.405C401.642 183.99 401.79 183.506 401.724 183.088C401.69 182.859 401.533 182.625 401.281 182.6C401.021 182.568 400.884 182.791 400.765 182.983C400.226 183.865 399.152 185.508 398.714 185.062C396.999 183.306 393.968 179.053 393.968 179.053C393.096 180.445 393.036 182.495 393.922 184.862C394.594 186.652 396.782 189.411 397.029 189.654C398.853 193.878 404.046 203.919 406.115 206.09C407.732 207.784 409.713 208.552 412.34 208.329C416.254 207.99 422.338 201.108 422.788 200.466L413.123 192.218L413.122 192.219Z" fill="#FDA78C"/>
<path d="M429.799 172.448C433.098 176.548 433.336 182.273 432.139 187.199C430.818 192.639 427.762 197.493 424.733 202.125C424.619 202.303 424.345 202.119 424.459 201.941C427.284 197.624 430.103 193.151 431.545 188.149C433.011 183.075 433.013 176.972 429.553 172.661C429.418 172.5 429.669 172.281 429.798 172.448H429.799Z" fill="#2BCE8F"/>
<path d="M422.996 200.596C423.7 201.111 423.67 201.151 424.371 201.667C424.475 201.741 424.571 201.812 424.673 201.888C424.746 201.94 424.782 202.028 424.734 202.111C424.697 202.183 424.578 202.227 424.51 202.172C423.811 201.656 423.835 201.619 423.133 201.102C423.036 201.028 422.933 200.954 422.832 200.883C422.765 200.828 422.725 200.742 422.773 200.656C422.812 200.587 422.927 200.544 422.996 200.595V200.596Z" fill="#2BCE8F"/>
<path d="M304.391 289.151H351.254C353.876 289.151 356 287.028 356 284.407V283.112C356 280.489 353.876 278.365 351.254 278.365H304.391C301.772 278.365 299.646 280.489 299.646 283.112V284.407C299.646 287.028 301.771 289.151 304.391 289.151Z" fill="#23323F"/>
<path d="M356.491 329.956C356.184 329.956 355.881 329.711 355.814 329.412L346.618 288.038C346.552 287.739 346.747 287.494 347.054 287.494H348.163C348.47 287.494 348.774 287.739 348.841 288.038L358.031 329.412C358.097 329.711 357.902 329.956 357.595 329.956H356.491Z" fill="#23323F"/>
<path d="M317.991 213.507C317.499 212.56 317.306 211.873 317.669 210.775C317.795 210.402 317.877 210.177 317.951 209.773C318.06 209.202 317.936 208.97 317.838 208.435C317.73 207.821 317.751 207.199 317.89 206.594C318.045 205.92 318.536 205.433 318.725 204.815C318.882 204.317 318.43 203.633 318.31 203.134C318.144 202.449 318.102 201.737 318.184 201.038C318.29 200.153 318.771 199.368 318.878 198.492C319.049 197.106 319.253 195.963 320.248 194.887C320.926 194.152 321.769 193.931 321.83 192.787C321.87 192.073 321.878 191.442 322.113 190.754C323.011 188.094 327.157 186.628 329.781 187.207L331.312 219.044C331.147 219.046 328.049 219.211 327.885 219.194C327.535 219.154 327.146 218.918 326.813 218.905C326.301 218.887 325.972 219.394 325.574 219.684C325.004 220.099 324.354 220.42 323.651 220.505C323.142 220.568 322.623 220.518 322.148 220.325C321.45 220.04 321.033 219.384 320.311 219.13C319.752 218.936 319.18 218.987 318.673 218.631C318.28 218.356 317.974 217.951 317.782 217.515C317.53 216.936 317.488 216.294 317.599 215.674C317.736 214.922 318.36 214.219 317.99 213.505L317.991 213.507Z" fill="#402013"/>
<path d="M287.297 248.315C288.796 246.447 291.354 244.709 293.721 244.246C296.928 243.618 300.034 245.432 303.193 245.775C305.876 245.493 318.923 245.434 326.136 244.323L328.767 252.137C325.021 252.204 307.77 250.783 303.482 249.998C302.545 250.106 299.489 251.456 297.019 250.559C296.498 250.371 296.038 250.11 295.554 249.849C294.785 249.428 293.975 249.739 293.154 249.941C291.718 250.296 290.331 250.945 288.875 251.188C288.155 251.311 286.829 251.403 286.424 250.614C286.031 249.85 286.857 248.87 287.296 248.316L287.297 248.315Z" fill="#F5816C"/>
<path d="M306.896 324.668L301.942 324.821L299.289 312.628H306.907L306.896 324.668Z" fill="#FDA78C"/>
<path d="M294.903 328.911C294.8 330.779 297.991 330.699 299.576 330.756C301.563 330.826 304.813 330.792 306.311 329.776C307.789 328.776 307.047 324.852 306.897 323.696C306.897 323.696 303.468 324.45 301.812 323.861C301.109 324.323 300.22 324.689 299.474 325.068C298.486 325.57 297.489 326.07 296.588 326.723C295.856 327.253 294.956 327.944 294.903 328.912V328.911Z" fill="#14232F"/>
<path d="M291.048 324.949L286.096 324.851L284.067 312.538L291.674 312.928L291.048 324.949Z" fill="#FDA78C"/>
<path d="M278.855 328.577C278.657 330.436 281.849 330.52 283.428 330.659C285.409 330.832 288.654 330.962 290.205 330.024C291.73 329.099 291.193 325.14 291.098 323.979C291.098 323.979 287.637 324.556 286.012 323.885C285.289 324.312 284.38 324.63 283.616 324.971C282.606 325.423 281.583 325.872 280.649 326.476C279.893 326.97 278.96 327.614 278.855 328.577Z" fill="#14232F"/>
<path d="M307.214 317.497L299.647 317.672C298.768 312.752 293.53 296.468 293.416 295.953C293.473 299.763 291.674 317.497 291.674 317.497H284.438C283.036 307.339 280.703 293.642 282.45 281.452C283.91 271.266 288.614 269.887 298.952 267.045C304.182 265.607 316.12 262.504 320.952 261.955L320.885 257.195L349.288 259.154C350.06 268.561 350.622 277.449 345.493 281.031C340.254 284.694 305.461 284.308 305.461 284.308C308.54 293.387 307.214 305.916 307.214 317.497Z" fill="#398FB9"/>
<path d="M322.411 231.233C324.07 220.93 330.9 213.842 330.9 213.842L338.475 211.88C342.965 211.827 347.97 215.266 349.242 217.504C351.64 221.711 352.106 226.844 349.353 238.079C346.802 248.477 352.325 257.195 350.609 267.846C350.609 267.846 338.066 272.795 320.149 261.69C320.149 261.69 321.676 235.787 322.41 231.234L322.411 231.233Z" fill="#88CEFC"/>
<path d="M338.966 212.157C338.966 212.157 337.562 207.368 337.23 204.919C337.23 204.919 336.215 203.954 336.028 202.362C331.251 190.325 324.639 193.087 324.291 196.23C323.792 197.503 323.846 198.73 323.661 200.694C323.276 204.803 324.276 208.364 326.362 209.843C327.436 210.604 329.255 210.314 330.349 209.807L330.9 213.842C330.9 213.842 333.141 214.158 338.967 212.158L338.966 212.157Z" fill="#FDA78C"/>
<path d="M330.445 209.689C331.699 209.337 332.923 208.794 333.867 207.878C334.054 207.696 334.339 207.982 334.154 208.159C333.157 209.122 331.871 209.706 330.549 210.074C330.3 210.143 330.197 209.756 330.445 209.689Z" fill="#F5816C"/>
<path d="M297.667 250.537C298.046 251.341 299.375 251.29 300.097 251.194C301.561 251 302.968 250.398 304.415 250.097C305.24 249.92 306.064 249.635 306.815 250.082C307.289 250.362 307.744 250.638 308.257 250.844C310.695 251.825 313.793 250.576 314.732 250.503C318.992 251.433 339.389 254.938 343.108 252.451C346.462 250.21 346.973 237.175 347.474 234.951C349.396 226.374 351.019 220.131 347.082 216.561C345.021 214.688 339.323 212.635 337.417 223.877C336.856 227.182 337.278 229.95 336.895 233.262C336.534 236.407 335.986 240.608 335.536 243.743C328.38 244.501 317.28 246.079 314.588 246.273C311.445 245.822 308.401 243.902 305.174 244.421C302.795 244.805 300.179 246.452 298.616 248.269C298.157 248.806 297.298 249.761 297.665 250.537H297.667Z" fill="#FDA78C"/>
<path d="M298.808 268.237C296.679 268.643 294.627 269.512 293.323 271.315C292.073 273.044 291.686 275.242 291.58 277.33C291.285 283.162 292.659 289.076 293.56 294.803C293.601 295.056 293.216 295.165 293.177 294.911C292.221 288.855 290.611 282.405 291.261 276.237C291.467 274.308 291.977 272.354 293.208 270.812C294.571 269.099 296.598 268.252 298.7 267.85C298.951 267.802 299.059 268.19 298.807 268.237H298.808Z" fill="#20759E"/>
<path d="M326.882 188.621C329.343 186.391 332.963 185.51 336.331 186.203C339.787 186.91 342.008 189.808 343.351 192.877C343.706 193.693 343.98 194.542 344.35 195.352C344.813 196.376 345.479 197.111 346.275 197.89C347.516 199.107 347.785 200.19 347.846 201.86C347.893 203.181 348.76 203.377 349.182 204.416C349.424 205.01 349.432 205.604 349.3 206.222C349.119 207.062 348.888 207.515 349.326 208.397C349.465 208.678 349.658 208.916 349.772 209.213C350.019 209.868 350.001 210.607 349.694 211.243C349.411 211.83 348.903 212.273 348.292 212.498C348.034 212.595 347.534 212.578 347.35 212.768C347.232 212.895 347.203 213.483 347.121 213.661C346.608 214.769 345.465 215.396 344.284 215.294C344.582 216.224 344.423 217.227 343.686 217.935C343.287 218.314 342.868 218.409 342.38 218.593C341.806 218.807 341.956 219.148 341.724 219.718C341.046 221.396 338.78 222.39 337.379 220.877C336.822 220.277 336.466 219.687 335.669 219.302C335.186 219.071 334.751 218.883 334.358 218.505C333.558 217.735 333.199 216.635 333.375 215.541C333.434 215.188 333.905 214.412 333.825 214.1C333.738 213.769 333.295 213.457 333.19 213.052C332.948 212.101 333.317 211.152 333.995 210.481C334.214 210.264 334.462 210.073 334.725 209.908C334.913 209.785 335.61 209.581 335.705 209.413C335.86 209.146 335.465 208.39 335.426 208.038C335.323 207.073 335.608 206.144 336.182 205.398C335.15 205.662 334.045 205.449 333.261 204.643C332.818 204.183 332.524 203.583 332.433 202.951C332.389 202.668 332.5 202.32 332.293 202.097C332.124 201.913 331.55 201.768 331.341 201.622C330.212 200.826 329.795 199.594 329.806 198.269C329.812 197.558 329.337 197.203 329.01 196.563C328.548 195.652 327.159 194.293 326.192 193.84L326.882 188.621Z" fill="#402013"/>
<path d="M330.372 241.446C330.474 236.63 331.704 231.966 332.951 227.343C333.018 227.097 333.405 227.203 333.338 227.452C332.1 232.038 330.871 236.667 330.772 241.446C330.766 241.703 330.363 241.705 330.372 241.446Z" fill="#65BCEB"/>
<path d="M329.08 235.532C328.805 230.856 329.101 226.175 329.96 221.568C330.006 221.316 330.393 221.425 330.347 221.676C329.495 226.247 329.208 230.894 329.48 235.533C329.497 235.792 329.097 235.79 329.08 235.533V235.532Z" fill="#65BCEB"/>
<path d="M319.594 252.255H241.812C241.504 252.255 241.255 252.504 241.255 252.812V254.832C241.255 255.14 241.504 255.389 241.812 255.389H319.594C319.901 255.389 320.15 255.14 320.15 254.832V252.812C320.15 252.504 319.901 252.255 319.594 252.255Z" fill="#23323F"/>
<path d="M285.137 228.717L290.552 250.706H308.691V252.241H251.423L245.715 229.058C245.608 228.634 245.906 228.218 246.316 228.218H284.537C284.817 228.218 285.065 228.42 285.137 228.717Z" fill="#14232F"/>
<path d="M265.789 241.541C266.27 242.387 267.348 242.684 268.198 242.203C269.047 241.72 269.341 240.641 268.86 239.794C268.379 238.945 267.298 238.651 266.451 239.133C265.601 239.613 265.305 240.692 265.789 241.541Z" fill="#30617A"/>
<path d="M326.981 329.956C326.674 329.956 326.37 329.711 326.304 329.412L309.759 254.951C309.693 254.653 309.888 254.408 310.195 254.408H311.299C311.606 254.408 311.911 254.653 311.977 254.951L328.523 329.412C328.589 329.711 328.394 329.956 328.087 329.956H326.98H326.981Z" fill="#23323F"/>
<path d="M234.187 329.956C233.88 329.956 233.684 329.711 233.751 329.412L250.294 254.951C250.36 254.653 250.665 254.408 250.972 254.408H252.076C252.383 254.408 252.579 254.653 252.512 254.951L235.97 329.412C235.904 329.711 235.6 329.956 235.293 329.956H234.186H234.187Z" fill="#23323F"/>
<path d="M251.179 108.851H237.063C236.801 98.0115 232.363 88.1869 225.308 80.922L229.852 76.3804C230.093 76.1407 230.093 75.7518 229.852 75.5132C229.611 75.2726 229.224 75.2726 228.985 75.5132L224.439 80.0559C217.173 73.0012 207.347 68.5682 196.503 68.3052V54.1948C196.503 53.6303 196.047 53.1724 195.481 53.1724C194.915 53.1724 194.459 53.6303 194.459 54.1948V68.3052C183.616 68.5692 173.789 73.0012 166.522 80.0559L161.975 75.5132C161.738 75.2726 161.352 75.2726 161.11 75.5132C160.87 75.7518 160.87 76.1407 161.11 76.3804L165.657 80.922C158.598 88.1859 154.164 98.0105 153.9 108.85H139.783C139.22 108.85 138.76 109.307 138.76 109.871C138.76 110.434 139.22 110.893 139.783 110.893H153.9C154.164 121.732 158.599 131.556 165.657 138.822L161.11 143.366C160.87 143.604 160.87 143.993 161.11 144.231C161.232 144.351 161.388 144.412 161.542 144.412C161.697 144.412 161.858 144.351 161.975 144.231L166.522 139.69C173.789 146.745 183.616 151.18 194.459 151.44V165.551C194.459 166.113 194.917 166.572 195.481 166.572C196.045 166.572 196.503 166.113 196.503 165.551V151.44C207.346 151.18 217.173 146.745 224.439 139.69L228.985 144.231C229.106 144.351 229.262 144.412 229.418 144.412C229.573 144.412 229.733 144.351 229.852 144.231C230.093 143.992 230.093 143.604 229.852 143.366L225.308 138.822C232.363 131.556 236.801 121.732 237.063 110.893H251.179C251.745 110.893 252.201 110.436 252.201 109.871C252.201 109.305 251.745 108.85 251.179 108.85V108.851ZM195.48 149.004C173.897 149.004 156.336 131.448 156.336 109.873C156.336 88.2976 173.897 70.7451 195.48 70.7451C217.063 70.7451 234.621 88.2986 234.621 109.873C234.621 131.447 217.06 149.004 195.48 149.004Z" fill="#224A5F"/>
<path d="M199.73 155.216C199.625 155.216 199.534 155.138 199.525 155.031C199.515 154.921 199.599 154.82 199.711 154.812C200.117 154.77 200.523 154.73 200.928 154.679C201.041 154.668 201.142 154.746 201.156 154.857C201.167 154.967 201.086 155.07 200.975 155.085C200.569 155.137 200.158 155.179 199.751 155.215H199.731L199.73 155.216ZM191.147 155.211H191.128C190.715 155.169 190.308 155.124 189.902 155.076C189.788 155.061 189.71 154.961 189.724 154.848C189.737 154.737 189.838 154.652 189.95 154.667C190.355 154.719 190.758 154.764 191.167 154.802C191.28 154.811 191.363 154.912 191.353 155.023C191.343 155.13 191.252 155.21 191.149 155.21L191.147 155.211ZM202.167 154.923C202.069 154.925 201.982 154.851 201.968 154.749C201.948 154.638 202.025 154.534 202.138 154.517C202.543 154.46 202.947 154.395 203.347 154.324C203.457 154.304 203.561 154.38 203.582 154.489C203.6 154.602 203.526 154.706 203.415 154.726C203.012 154.798 202.607 154.863 202.197 154.924H202.166L202.167 154.923ZM188.712 154.914C188.701 154.914 188.691 154.914 188.681 154.911C188.274 154.849 187.864 154.786 187.461 154.713C187.353 154.692 187.277 154.586 187.296 154.477C187.315 154.366 187.421 154.292 187.532 154.311C187.932 154.378 188.334 154.446 188.738 154.504C188.851 154.522 188.927 154.628 188.912 154.739C188.896 154.838 188.81 154.912 188.711 154.912L188.712 154.914ZM204.587 154.5C204.492 154.5 204.404 154.431 204.385 154.337C204.364 154.224 204.433 154.117 204.545 154.093C204.945 154.013 205.343 153.928 205.738 153.832C205.849 153.804 205.959 153.876 205.984 153.984C206.011 154.095 205.942 154.209 205.83 154.232C205.431 154.324 205.031 154.413 204.627 154.493C204.613 154.495 204.599 154.495 204.586 154.499L204.587 154.5ZM186.29 154.483C186.279 154.483 186.265 154.483 186.248 154.479C185.847 154.394 185.444 154.305 185.046 154.212C184.934 154.188 184.864 154.079 184.892 153.968C184.92 153.86 185.028 153.787 185.137 153.818C185.533 153.909 185.93 153.994 186.33 154.079C186.442 154.103 186.515 154.209 186.492 154.321C186.471 154.416 186.385 154.484 186.289 154.484L186.29 154.483ZM206.978 153.942C206.887 153.942 206.805 153.883 206.78 153.792C206.754 153.681 206.816 153.567 206.927 153.54C207.324 153.437 207.716 153.332 208.106 153.214C208.216 153.181 208.325 153.246 208.358 153.355C208.391 153.466 208.325 153.576 208.218 153.609C207.827 153.721 207.428 153.83 207.028 153.937C207.012 153.939 206.996 153.941 206.978 153.941V153.942ZM183.903 153.923C183.885 153.923 183.865 153.92 183.848 153.92C183.452 153.81 183.054 153.703 182.661 153.585C182.551 153.555 182.487 153.442 182.522 153.331C182.551 153.222 182.666 153.163 182.773 153.191C183.164 153.309 183.557 153.418 183.953 153.519C184.059 153.548 184.126 153.659 184.095 153.771C184.072 153.859 183.989 153.922 183.902 153.922L183.903 153.923ZM209.337 153.257C209.249 153.257 209.17 153.204 209.141 153.118C209.107 153.006 209.167 152.895 209.276 152.859C209.663 152.736 210.05 152.608 210.434 152.473C210.541 152.432 210.656 152.487 210.694 152.598C210.73 152.703 210.676 152.82 210.569 152.855C210.183 152.992 209.795 153.122 209.399 153.248C209.38 153.257 209.357 153.257 209.337 153.257ZM181.541 153.231C181.52 153.231 181.497 153.227 181.476 153.222C181.085 153.094 180.693 152.963 180.303 152.822C180.197 152.789 180.143 152.672 180.181 152.563C180.216 152.459 180.335 152.403 180.442 152.443C180.825 152.573 181.213 152.706 181.603 152.83C181.711 152.865 181.77 152.982 181.733 153.089C181.706 153.176 181.627 153.23 181.541 153.23V153.231ZM211.655 152.446C211.575 152.446 211.495 152.398 211.464 152.314C211.424 152.211 211.478 152.092 211.583 152.052C211.963 151.903 212.344 151.755 212.719 151.598C212.824 151.558 212.947 151.608 212.987 151.709C213.03 151.812 212.978 151.931 212.875 151.974C212.497 152.131 212.114 152.286 211.729 152.432C211.706 152.444 211.681 152.446 211.656 152.446H211.655ZM179.215 152.41C179.193 152.412 179.167 152.407 179.141 152.398C178.757 152.248 178.374 152.095 177.994 151.937C177.889 151.895 177.84 151.774 177.884 151.672C177.926 151.567 178.048 151.518 178.152 151.562C178.529 151.716 178.908 151.873 179.291 152.016C179.395 152.055 179.447 152.174 179.406 152.278C179.376 152.36 179.299 152.41 179.215 152.41ZM213.921 151.51C213.843 151.51 213.766 151.464 213.734 151.388C213.687 151.284 213.734 151.168 213.837 151.119C214.208 150.954 214.58 150.782 214.944 150.608C215.045 150.561 215.167 150.602 215.216 150.706C215.268 150.805 215.222 150.931 215.119 150.976C214.751 151.153 214.378 151.325 214.005 151.492C213.978 151.504 213.949 151.509 213.923 151.509L213.921 151.51ZM176.946 151.464C176.915 151.464 176.889 151.459 176.858 151.447C176.483 151.28 176.11 151.108 175.739 150.925C175.637 150.88 175.595 150.756 175.642 150.653C175.693 150.551 175.818 150.508 175.915 150.556C176.284 150.736 176.656 150.908 177.026 151.076C177.132 151.122 177.178 151.243 177.132 151.345C177.099 151.422 177.024 151.464 176.947 151.464H176.946ZM216.13 150.454C216.055 150.454 215.983 150.414 215.946 150.345C215.895 150.243 215.934 150.119 216.038 150.069C216.397 149.882 216.758 149.692 217.113 149.498C217.211 149.444 217.336 149.48 217.391 149.58C217.444 149.677 217.409 149.799 217.311 149.857C216.95 150.052 216.588 150.245 216.224 150.434C216.193 150.448 216.161 150.453 216.131 150.453L216.13 150.454ZM174.727 150.399C174.697 150.399 174.665 150.388 174.63 150.373C174.266 150.185 173.901 149.993 173.542 149.794C173.446 149.736 173.406 149.614 173.46 149.515C173.516 149.417 173.642 149.38 173.741 149.435C174.097 149.635 174.458 149.824 174.821 150.011C174.919 150.062 174.961 150.185 174.908 150.289C174.873 150.356 174.803 150.399 174.728 150.399H174.727ZM218.278 149.28C218.207 149.28 218.139 149.244 218.102 149.178C218.045 149.08 218.077 148.953 218.177 148.898C218.528 148.692 218.876 148.483 219.221 148.269C219.318 148.209 219.443 148.241 219.502 148.334C219.562 148.429 219.533 148.56 219.438 148.614C219.087 148.832 218.733 149.046 218.378 149.249C218.346 149.268 218.314 149.279 218.278 149.279V149.28ZM172.571 149.208C172.539 149.211 172.502 149.204 172.468 149.183C172.112 148.974 171.76 148.76 171.411 148.543C171.315 148.483 171.285 148.358 171.347 148.261C171.406 148.17 171.531 148.137 171.627 148.198C171.975 148.415 172.322 148.624 172.676 148.833C172.775 148.889 172.805 149.015 172.749 149.112C172.71 149.175 172.645 149.208 172.572 149.208H172.571ZM220.363 147.989C220.299 147.989 220.232 147.954 220.191 147.895C220.13 147.802 220.158 147.674 220.251 147.613C220.591 147.388 220.927 147.161 221.259 146.929C221.352 146.866 221.482 146.887 221.547 146.98C221.612 147.072 221.59 147.2 221.496 147.263C221.157 147.499 220.819 147.728 220.474 147.953C220.441 147.975 220.4 147.989 220.364 147.989H220.363ZM170.486 147.909C170.449 147.909 170.407 147.899 170.373 147.876C170.028 147.65 169.69 147.417 169.352 147.181C169.259 147.118 169.239 146.992 169.301 146.898C169.368 146.805 169.494 146.781 169.586 146.848C169.918 147.083 170.259 147.312 170.597 147.538C170.691 147.599 170.719 147.726 170.655 147.82C170.618 147.879 170.551 147.91 170.486 147.91V147.909ZM222.374 146.587C222.313 146.587 222.249 146.559 222.21 146.504C222.142 146.414 222.163 146.285 222.253 146.215C222.581 145.973 222.906 145.731 223.227 145.48C223.316 145.411 223.441 145.426 223.514 145.512C223.581 145.603 223.566 145.734 223.478 145.802C223.155 146.056 222.828 146.301 222.498 146.545C222.462 146.571 222.417 146.584 222.375 146.587H222.374ZM168.472 146.501C168.429 146.501 168.388 146.487 168.352 146.46C168.021 146.213 167.691 145.964 167.369 145.713C167.277 145.641 167.264 145.511 167.333 145.426C167.406 145.336 167.533 145.317 167.623 145.389C167.944 145.641 168.266 145.89 168.595 146.132C168.685 146.2 168.703 146.328 168.635 146.419C168.598 146.473 168.536 146.501 168.472 146.501ZM224.309 145.081C224.25 145.081 224.191 145.052 224.15 145.004C224.078 144.913 224.091 144.787 224.179 144.716C224.495 144.456 224.802 144.193 225.112 143.925C225.194 143.852 225.325 143.861 225.399 143.946C225.475 144.031 225.466 144.159 225.381 144.234C225.069 144.505 224.756 144.771 224.439 145.033C224.402 145.063 224.356 145.079 224.31 145.081H224.309ZM166.54 144.983C166.494 144.983 166.449 144.97 166.408 144.938C166.093 144.675 165.778 144.406 165.47 144.134C165.387 144.059 165.377 143.93 165.451 143.847C165.527 143.764 165.656 143.753 165.739 143.829C166.047 144.097 166.357 144.361 166.67 144.621C166.757 144.692 166.767 144.821 166.698 144.908C166.655 144.957 166.6 144.981 166.54 144.983ZM229.589 139.955C229.542 139.955 229.492 139.938 229.454 139.906C229.371 139.831 229.362 139.701 229.435 139.616C229.703 139.312 229.966 139.001 230.228 138.688C230.3 138.599 230.433 138.589 230.518 138.661C230.605 138.734 230.615 138.862 230.542 138.949C230.282 139.264 230.013 139.578 229.742 139.887C229.704 139.933 229.646 139.955 229.589 139.955ZM161.276 139.845C161.216 139.845 161.159 139.822 161.118 139.776C160.85 139.465 160.584 139.15 160.325 138.832C160.251 138.745 160.262 138.617 160.349 138.547C160.438 138.475 160.567 138.485 160.638 138.574C160.898 138.888 161.161 139.2 161.428 139.506C161.502 139.592 161.493 139.72 161.409 139.796C161.371 139.828 161.322 139.846 161.277 139.846L161.276 139.845ZM231.161 138.067C231.116 138.067 231.07 138.051 231.033 138.024C230.943 137.951 230.928 137.825 230.999 137.736C231.249 137.414 231.498 137.091 231.741 136.764C231.81 136.674 231.938 136.653 232.027 136.72C232.12 136.79 232.138 136.916 232.069 137.009C231.826 137.338 231.576 137.664 231.319 137.991C231.283 138.039 231.222 138.067 231.163 138.067H231.161ZM159.713 137.952C159.651 137.952 159.591 137.926 159.551 137.874C159.3 137.552 159.051 137.224 158.806 136.894C158.74 136.803 158.759 136.676 158.85 136.607C158.938 136.54 159.066 136.559 159.137 136.652C159.379 136.976 159.625 137.301 159.872 137.622C159.945 137.711 159.926 137.839 159.839 137.911C159.803 137.939 159.76 137.953 159.714 137.953L159.713 137.952ZM232.627 136.095C232.586 136.095 232.543 136.085 232.506 136.058C232.414 135.994 232.394 135.868 232.459 135.775C232.692 135.44 232.92 135.106 233.147 134.765C233.209 134.669 233.337 134.643 233.431 134.708C233.522 134.768 233.551 134.895 233.489 134.988C233.259 135.331 233.029 135.673 232.792 136.012C232.75 136.065 232.689 136.095 232.626 136.095H232.627ZM158.258 135.978C158.191 135.978 158.13 135.95 158.088 135.891C157.853 135.556 157.622 135.216 157.396 134.872C157.334 134.777 157.361 134.652 157.455 134.589C157.549 134.528 157.675 134.554 157.738 134.65C157.962 134.989 158.19 135.324 158.421 135.657C158.485 135.75 158.464 135.878 158.374 135.942C158.337 135.964 158.294 135.977 158.257 135.977L158.258 135.978ZM233.984 134.046C233.944 134.046 233.908 134.035 233.874 134.014C233.779 133.956 233.751 133.831 233.809 133.733C234.025 133.387 234.238 133.038 234.446 132.685C234.499 132.588 234.628 132.556 234.723 132.613C234.82 132.67 234.853 132.795 234.795 132.893C234.588 133.248 234.374 133.6 234.155 133.948C234.119 134.01 234.053 134.045 233.985 134.045L233.984 134.046ZM156.908 133.933C156.84 133.933 156.773 133.897 156.735 133.834C156.519 133.488 156.305 133.136 156.101 132.782C156.041 132.682 156.076 132.56 156.174 132.502C156.272 132.443 156.396 132.477 156.453 132.576C156.657 132.928 156.867 133.275 157.081 133.619C157.14 133.717 157.113 133.844 157.016 133.902C156.984 133.924 156.946 133.934 156.909 133.934L156.908 133.933ZM235.228 131.925C235.194 131.925 235.161 131.916 235.13 131.9C235.032 131.847 234.994 131.72 235.05 131.622C235.246 131.266 235.437 130.905 235.627 130.542C235.678 130.442 235.8 130.404 235.901 130.454C236.002 130.504 236.042 130.628 235.99 130.729C235.799 131.096 235.605 131.459 235.41 131.82C235.369 131.886 235.302 131.925 235.229 131.925H235.228ZM155.673 131.816C155.602 131.816 155.531 131.78 155.493 131.71C155.297 131.35 155.106 130.987 154.918 130.622C154.867 130.524 154.904 130.398 155.007 130.347C155.108 130.295 155.23 130.336 155.282 130.436C155.467 130.8 155.657 131.158 155.853 131.513C155.905 131.613 155.872 131.735 155.772 131.792C155.742 131.808 155.706 131.817 155.674 131.817L155.673 131.816ZM236.355 129.74C236.326 129.74 236.295 129.734 236.266 129.72C236.164 129.671 236.124 129.548 236.17 129.446C236.347 129.079 236.52 128.709 236.689 128.336C236.735 128.233 236.857 128.189 236.959 128.233C237.062 128.279 237.108 128.401 237.062 128.502C236.891 128.88 236.718 129.251 236.538 129.624C236.506 129.696 236.433 129.739 236.355 129.739V129.74ZM154.553 129.636C154.479 129.636 154.406 129.594 154.37 129.521C154.194 129.152 154.022 128.778 153.855 128.405C153.81 128.302 153.856 128.18 153.957 128.136C154.065 128.09 154.184 128.138 154.228 128.24C154.395 128.61 154.566 128.981 154.74 129.346C154.79 129.448 154.747 129.57 154.644 129.619C154.617 129.634 154.586 129.638 154.554 129.638L154.553 129.636ZM237.367 127.493C237.338 127.493 237.311 127.491 237.286 127.48C237.181 127.436 237.131 127.314 237.176 127.212C237.331 126.835 237.484 126.456 237.631 126.073C237.671 125.969 237.789 125.915 237.897 125.959C238.003 125.996 238.053 126.116 238.011 126.222C237.866 126.607 237.711 126.989 237.552 127.369C237.516 127.447 237.442 127.493 237.366 127.493H237.367ZM153.559 127.401C153.479 127.401 153.401 127.354 153.37 127.276C153.212 126.896 153.062 126.515 152.913 126.13C152.872 126.025 152.927 125.905 153.031 125.865C153.137 125.828 153.256 125.878 153.295 125.983C153.442 126.365 153.592 126.743 153.746 127.119C153.791 127.224 153.739 127.344 153.638 127.384C153.61 127.397 153.587 127.401 153.559 127.401ZM238.25 125.198C238.228 125.198 238.204 125.194 238.183 125.185C238.074 125.148 238.019 125.031 238.056 124.924C238.194 124.539 238.324 124.152 238.452 123.763C238.485 123.657 238.601 123.597 238.708 123.63C238.813 123.665 238.875 123.782 238.838 123.889C238.713 124.28 238.581 124.672 238.443 125.061C238.412 125.146 238.334 125.198 238.25 125.198ZM152.685 125.109C152.599 125.109 152.521 125.057 152.489 124.974C152.354 124.585 152.222 124.196 152.098 123.802C152.064 123.695 152.121 123.581 152.227 123.545C152.338 123.513 152.45 123.572 152.486 123.678C152.609 124.068 152.739 124.452 152.876 124.836C152.913 124.943 152.855 125.058 152.75 125.098C152.728 125.104 152.705 125.109 152.685 125.109ZM239.007 122.854C238.989 122.854 238.97 122.851 238.947 122.847C238.841 122.814 238.779 122.702 238.81 122.593C238.924 122.204 239.033 121.81 239.137 121.415C239.167 121.306 239.28 121.244 239.388 121.272C239.496 121.3 239.561 121.411 239.532 121.519C239.429 121.92 239.316 122.313 239.202 122.708C239.177 122.798 239.094 122.855 239.006 122.855L239.007 122.854ZM151.934 122.77C151.844 122.77 151.762 122.711 151.735 122.624C151.622 122.229 151.512 121.834 151.406 121.435C151.379 121.327 151.443 121.214 151.554 121.185C151.664 121.157 151.772 121.222 151.806 121.331C151.906 121.727 152.014 122.119 152.128 122.509C152.161 122.617 152.098 122.73 151.989 122.762C151.971 122.766 151.952 122.769 151.934 122.769V122.77ZM239.634 120.479C239.619 120.479 239.603 120.477 239.587 120.474C239.477 120.448 239.407 120.338 239.434 120.228C239.526 119.831 239.616 119.436 239.698 119.036C239.72 118.925 239.829 118.851 239.936 118.878C240.052 118.899 240.118 119.007 240.094 119.116C240.015 119.52 239.926 119.922 239.83 120.321C239.81 120.416 239.724 120.477 239.633 120.479H239.634ZM151.311 120.396C151.22 120.396 151.132 120.334 151.111 120.239C151.018 119.839 150.929 119.436 150.848 119.034C150.825 118.922 150.898 118.817 151.005 118.792C151.116 118.771 151.225 118.842 151.248 118.953C151.329 119.352 151.417 119.747 151.511 120.144C151.535 120.253 151.465 120.365 151.358 120.39C151.341 120.393 151.327 120.395 151.311 120.395V120.396ZM240.13 118.075C240.117 118.075 240.105 118.075 240.094 118.072C239.983 118.053 239.908 117.946 239.929 117.836C240 117.435 240.064 117.033 240.126 116.63C240.141 116.517 240.246 116.441 240.358 116.456C240.468 116.474 240.548 116.577 240.53 116.69C240.468 117.098 240.401 117.504 240.331 117.908C240.313 118.006 240.225 118.075 240.13 118.075ZM150.819 117.992C150.723 117.992 150.636 117.921 150.618 117.822C150.545 117.417 150.479 117.012 150.421 116.604C150.403 116.493 150.479 116.39 150.592 116.373C150.702 116.356 150.806 116.432 150.824 116.544C150.883 116.948 150.949 117.349 151.019 117.75C151.039 117.862 150.966 117.969 150.855 117.987C150.842 117.99 150.828 117.991 150.819 117.991V117.992ZM240.496 115.648C240.485 115.648 240.478 115.648 240.468 115.645C240.355 115.633 240.277 115.531 240.289 115.417C240.339 115.014 240.385 114.61 240.422 114.203C240.434 114.091 240.54 114.014 240.645 114.019C240.757 114.029 240.842 114.129 240.831 114.242C240.79 114.652 240.744 115.06 240.693 115.467C240.683 115.572 240.596 115.647 240.495 115.647L240.496 115.648ZM150.461 115.562C150.358 115.562 150.269 115.487 150.258 115.383C150.208 114.978 150.164 114.566 150.124 114.157C150.112 114.044 150.199 113.945 150.309 113.935C150.421 113.928 150.523 114.008 150.531 114.12C150.568 114.525 150.613 114.931 150.663 115.335C150.675 115.446 150.597 115.549 150.483 115.561C150.476 115.563 150.468 115.563 150.461 115.563V115.562ZM240.63 105.78C240.527 105.78 240.437 105.702 240.427 105.594C240.387 105.187 240.345 104.783 240.294 104.38C240.281 104.269 240.363 104.166 240.474 104.152C240.586 104.138 240.689 104.218 240.702 104.33C240.753 104.737 240.796 105.146 240.833 105.556C240.843 105.669 240.763 105.768 240.647 105.778C240.647 105.778 240.64 105.778 240.63 105.778V105.78ZM150.334 105.762C150.329 105.762 150.32 105.762 150.314 105.762C150.201 105.751 150.118 105.652 150.129 105.54C150.166 105.129 150.212 104.72 150.264 104.313C150.274 104.202 150.376 104.122 150.491 104.136C150.602 104.15 150.682 104.251 150.668 104.362C150.619 104.766 150.575 105.171 150.536 105.577C150.526 105.683 150.437 105.762 150.334 105.763V105.762ZM240.334 103.343C240.236 103.343 240.149 103.269 240.131 103.168C240.071 102.765 240.007 102.363 239.935 101.964C239.913 101.852 239.988 101.746 240.102 101.726C240.213 101.707 240.318 101.78 240.338 101.892C240.409 102.296 240.473 102.701 240.535 103.109C240.55 103.221 240.473 103.324 240.366 103.341C240.353 103.344 240.344 103.344 240.334 103.344V103.343ZM150.629 103.324C150.619 103.324 150.61 103.322 150.601 103.321C150.488 103.305 150.41 103.201 150.426 103.089C150.49 102.683 150.555 102.275 150.625 101.871C150.647 101.762 150.75 101.686 150.861 101.707C150.973 101.726 151.048 101.833 151.029 101.943C150.96 102.342 150.892 102.745 150.83 103.15C150.818 103.249 150.732 103.322 150.629 103.323V103.324ZM239.908 100.926C239.812 100.926 239.726 100.86 239.704 100.764C239.625 100.363 239.538 99.9645 239.444 99.5695C239.42 99.4588 239.489 99.3492 239.597 99.3238C239.711 99.2964 239.818 99.3654 239.843 99.4761C239.936 99.8751 240.025 100.277 240.107 100.679C240.13 100.79 240.062 100.899 239.95 100.921C239.935 100.923 239.922 100.925 239.908 100.925V100.926ZM151.056 100.907C151.046 100.907 151.032 100.905 151.014 100.903C150.906 100.879 150.833 100.773 150.858 100.661C150.94 100.258 151.028 99.8558 151.122 99.4568C151.147 99.3461 151.259 99.2791 151.368 99.3045C151.479 99.3299 151.543 99.4396 151.52 99.5492C151.427 99.9442 151.338 100.342 151.259 100.742C151.238 100.84 151.154 100.905 151.056 100.905V100.907ZM239.348 98.5349C239.258 98.5349 239.175 98.475 239.151 98.3826C239.046 97.9886 238.938 97.5946 238.825 97.2058C238.793 97.0971 238.856 96.9844 238.965 96.9519C239.073 96.9204 239.184 96.9824 239.216 97.091C239.333 97.486 239.44 97.882 239.546 98.28C239.573 98.3887 239.508 98.4993 239.4 98.5288C239.384 98.5339 239.366 98.5349 239.348 98.5349ZM151.62 98.5176C151.599 98.5176 151.585 98.5156 151.567 98.5105C151.456 98.4821 151.392 98.3704 151.421 98.2607C151.524 97.8627 151.634 97.4667 151.75 97.0728C151.784 96.9651 151.898 96.9022 152.003 96.9337C152.112 96.9661 152.174 97.0789 152.143 97.1875C152.029 97.5784 151.92 97.9703 151.815 98.3653C151.791 98.4557 151.708 98.5166 151.62 98.5176ZM238.66 96.1792C238.577 96.1792 238.495 96.1234 238.464 96.0361C238.342 95.6482 238.213 95.2624 238.077 94.8796C238.04 94.773 238.094 94.6562 238.2 94.6186C238.308 94.5811 238.422 94.6369 238.463 94.7435C238.597 95.1304 238.728 95.5203 238.855 95.9132C238.89 96.0208 238.832 96.1346 238.724 96.1691C238.705 96.1762 238.681 96.1803 238.66 96.1803V96.1792ZM152.306 96.1569C152.288 96.1569 152.266 96.1539 152.244 96.1478C152.138 96.1122 152.079 95.9975 152.111 95.8899C152.239 95.4959 152.37 95.106 152.511 94.7171C152.545 94.6115 152.663 94.5557 152.771 94.5933C152.877 94.6298 152.931 94.7476 152.893 94.8532C152.758 95.238 152.629 95.6259 152.502 96.0148C152.476 96.1011 152.394 96.1559 152.306 96.1559V96.1569ZM237.845 93.8632C237.763 93.8632 237.685 93.8135 237.652 93.7312C237.509 93.3505 237.358 92.9738 237.202 92.5971C237.159 92.4935 237.206 92.3747 237.312 92.331C237.417 92.2874 237.535 92.3361 237.58 92.4407C237.736 92.8205 237.889 93.2022 238.035 93.586C238.077 93.6916 238.022 93.8104 237.917 93.85C237.895 93.8602 237.87 93.8632 237.844 93.8632H237.845ZM153.127 93.8348C153.105 93.8348 153.077 93.8307 153.054 93.8206C152.949 93.781 152.894 93.6632 152.935 93.5576C153.085 93.1718 153.24 92.789 153.395 92.4092C153.438 92.3046 153.559 92.2559 153.663 92.2975C153.768 92.3412 153.815 92.462 153.773 92.5656C153.615 92.9423 153.463 93.321 153.316 93.7038C153.285 93.785 153.208 93.8358 153.126 93.8358L153.127 93.8348ZM236.908 91.6C236.83 91.6 236.753 91.5543 236.718 91.4781C236.552 91.1075 236.383 90.739 236.207 90.3724C236.16 90.2709 236.203 90.1501 236.303 90.1003C236.402 90.0506 236.528 90.0932 236.576 90.1957C236.754 90.5643 236.927 90.937 237.095 91.3116C237.14 91.4142 237.095 91.534 236.991 91.5807C236.964 91.5919 236.935 91.6 236.909 91.6H236.908ZM154.074 91.5624C154.042 91.5624 154.017 91.5573 153.99 91.5452C153.887 91.4985 153.838 91.3776 153.887 91.2751C154.054 90.8984 154.227 90.5247 154.407 90.1521C154.456 90.0506 154.578 90.0099 154.681 90.0577C154.782 90.1074 154.825 90.2282 154.775 90.3298C154.599 90.6973 154.428 91.0679 154.262 91.4406C154.228 91.5157 154.153 91.5614 154.075 91.5614L154.074 91.5624ZM235.849 89.3916C235.773 89.3916 235.701 89.352 235.664 89.2809C235.478 88.9194 235.291 88.56 235.094 88.2046C235.041 88.1051 235.073 87.9802 235.172 87.9254C235.27 87.8726 235.399 87.9082 235.453 88.0066C235.649 88.3661 235.84 88.7286 236.03 89.0931C236.081 89.1936 236.041 89.3175 235.941 89.3692C235.909 89.3835 235.877 89.3906 235.848 89.3906L235.849 89.3916ZM155.14 89.3449C155.11 89.3449 155.074 89.3378 155.045 89.3225C154.943 89.2708 154.906 89.1469 154.957 89.0474C155.147 88.6808 155.339 88.3173 155.537 87.9559C155.593 87.8574 155.713 87.8208 155.816 87.8757C155.913 87.9295 155.952 88.0544 155.897 88.1529C155.698 88.5103 155.508 88.8707 155.321 89.2332C155.285 89.3022 155.214 89.3439 155.139 89.3439L155.14 89.3449ZM234.67 87.2461C234.599 87.2461 234.531 87.2096 234.493 87.1446C234.289 86.7913 234.075 86.444 233.863 86.0988C233.804 86.0023 233.834 85.8774 233.929 85.8165C234.024 85.7576 234.151 85.7871 234.21 85.8825C234.425 86.2308 234.639 86.5821 234.845 86.9365C234.903 87.0339 234.87 87.1588 234.771 87.2177C234.739 87.236 234.705 87.2451 234.669 87.2451L234.67 87.2461ZM156.327 87.1903C156.291 87.1903 156.254 87.1812 156.223 87.1629C156.127 87.106 156.094 86.9811 156.149 86.8826C156.355 86.5283 156.568 86.1749 156.787 85.8257C156.847 85.7302 156.973 85.7028 157.068 85.7607C157.164 85.8196 157.194 85.9465 157.133 86.0419C156.917 86.3892 156.707 86.7364 156.502 87.0908C156.461 87.1548 156.395 87.1913 156.326 87.1913L156.327 87.1903ZM233.379 85.1636C233.311 85.1636 233.248 85.1312 233.206 85.0723C232.98 84.7311 232.754 84.395 232.521 84.062C232.457 83.9696 232.478 83.8427 232.571 83.7777C232.664 83.7137 232.791 83.735 232.856 83.8285C233.091 84.1645 233.321 84.5047 233.547 84.8479C233.608 84.9413 233.583 85.0682 233.49 85.1301C233.455 85.1525 233.416 85.1636 233.379 85.1647V85.1636ZM157.626 85.1037C157.585 85.1037 157.548 85.0936 157.515 85.0702C157.42 85.0073 157.394 84.8814 157.455 84.788C157.684 84.4438 157.915 84.1036 158.152 83.7665C158.216 83.6741 158.341 83.6528 158.434 83.7157C158.528 83.7807 158.552 83.9087 158.484 84.0011C158.248 84.3351 158.021 84.6722 157.796 85.0113C157.756 85.0712 157.693 85.1037 157.626 85.1037ZM231.972 83.1543C231.911 83.1543 231.849 83.1258 231.808 83.071C231.565 82.7441 231.317 82.4202 231.067 82.1003C231.001 82.011 231.016 81.883 231.105 81.813C231.19 81.7439 231.32 81.7571 231.389 81.8475C231.641 82.1714 231.89 82.4983 232.136 82.8273C232.202 82.9177 232.184 83.0456 232.094 83.1126C232.055 83.139 232.013 83.1532 231.97 83.1532L231.972 83.1543ZM159.036 83.0923C158.994 83.0923 158.951 83.0791 158.914 83.0517C158.823 82.9847 158.803 82.8557 158.872 82.7654C159.117 82.4354 159.367 82.1095 159.622 81.7856C159.689 81.6972 159.818 81.681 159.905 81.75C159.994 81.8211 160.011 81.948 159.942 82.0374C159.691 82.3582 159.441 82.6821 159.198 83.0091C159.158 83.0639 159.097 83.0923 159.034 83.0923H159.036ZM230.461 81.222C230.404 81.222 230.342 81.1967 230.305 81.1479C230.043 80.8342 229.779 80.5245 229.513 80.2168C229.437 80.1326 229.447 80.0026 229.535 79.9285C229.617 79.8554 229.747 79.8635 229.822 79.9488C230.091 80.2575 230.36 80.5712 230.62 80.888C230.691 80.9753 230.677 81.1043 230.592 81.1753C230.555 81.2068 230.509 81.222 230.462 81.222H230.461ZM160.553 81.1591C160.506 81.1601 160.461 81.1449 160.422 81.1134C160.335 81.0413 160.325 80.9134 160.396 80.826C160.66 80.5093 160.925 80.1965 161.195 79.8868C161.269 79.8026 161.399 79.7934 161.486 79.8675C161.569 79.9417 161.58 80.0716 161.505 80.1569C161.236 80.4636 160.973 80.7732 160.712 81.087C160.67 81.1357 160.614 81.1611 160.554 81.1611L160.553 81.1591ZM225.33 75.9473C225.284 75.9473 225.237 75.932 225.199 75.8975C224.892 75.6295 224.58 75.3655 224.268 75.1055C224.18 75.0334 224.17 74.9055 224.241 74.8172C224.31 74.7309 224.441 74.7197 224.528 74.7898C224.844 75.0527 225.157 75.3188 225.468 75.5899C225.554 75.664 225.561 75.7929 225.487 75.8782C225.445 75.9229 225.391 75.9462 225.332 75.9462L225.33 75.9473ZM165.693 75.8935C165.634 75.8935 165.58 75.8701 165.538 75.8224C165.462 75.7381 165.474 75.6081 165.558 75.535C165.866 75.2649 166.179 74.9999 166.497 74.737C166.586 74.6649 166.714 74.6781 166.787 74.7654C166.859 74.8527 166.845 74.9796 166.758 75.0527C166.443 75.3117 166.135 75.5756 165.826 75.8427C165.789 75.8762 165.743 75.8924 165.693 75.8924V75.8935ZM223.44 74.3816C223.395 74.3816 223.352 74.3684 223.314 74.3389C222.991 74.0861 222.667 73.8404 222.342 73.5967C222.249 73.5297 222.233 73.4018 222.299 73.3104C222.365 73.221 222.494 73.2007 222.584 73.2677C222.915 73.5135 223.243 73.7632 223.566 74.0181C223.655 74.0861 223.669 74.2151 223.603 74.3054C223.558 74.3562 223.5 74.3816 223.439 74.3826L223.44 74.3816ZM167.585 74.3318C167.523 74.3318 167.462 74.3054 167.423 74.2526C167.351 74.1643 167.37 74.0364 167.458 73.9653C167.782 73.7135 168.109 73.4647 168.438 73.22C168.53 73.153 168.657 73.1733 168.725 73.2627C168.792 73.353 168.773 73.481 168.68 73.548C168.353 73.7906 168.03 74.0374 167.71 74.2872C167.673 74.3166 167.629 74.3308 167.585 74.3308V74.3318ZM221.466 72.9185C221.424 72.9185 221.383 72.9063 221.347 72.8809C221.017 72.6474 220.676 72.4179 220.335 72.1925C220.243 72.1305 220.216 72.0036 220.277 71.9102C220.34 71.8148 220.467 71.7904 220.561 71.8513C220.904 72.0777 221.243 72.3103 221.582 72.5458C221.676 72.6108 221.696 72.7377 221.633 72.8311C221.592 72.887 221.528 72.9185 221.465 72.9185H221.466ZM169.559 72.8748C169.494 72.8748 169.427 72.8443 169.389 72.7875C169.326 72.6951 169.348 72.5671 169.44 72.5032C169.776 72.2686 170.115 72.0381 170.459 71.8127C170.554 71.7508 170.679 71.7772 170.741 71.8706C170.806 71.964 170.777 72.092 170.683 72.1539C170.345 72.3773 170.007 72.6057 169.674 72.8372C169.64 72.8636 169.598 72.8748 169.558 72.8748H169.559ZM219.414 71.563C219.376 71.563 219.341 71.5528 219.307 71.5325C218.961 71.3162 218.61 71.1061 218.258 70.8999C218.159 70.8431 218.128 70.7172 218.184 70.6197C218.241 70.5222 218.365 70.4897 218.463 70.5466C218.821 70.7547 219.173 70.9669 219.519 71.1842C219.618 71.2441 219.645 71.37 219.586 71.4665C219.546 71.5284 219.482 71.563 219.413 71.563H219.414ZM171.605 71.5264C171.534 71.5264 171.47 71.4929 171.43 71.4299C171.373 71.3345 171.401 71.2076 171.497 71.1497C171.845 70.9334 172.197 70.7212 172.552 70.5141C172.648 70.4582 172.774 70.4897 172.83 70.5882C172.887 70.6847 172.854 70.8106 172.757 70.8685C172.404 71.0736 172.056 71.2827 171.71 71.497C171.677 71.5173 171.642 71.5274 171.604 71.5274L171.605 71.5264ZM217.292 70.3222C217.26 70.3222 217.222 70.3131 217.192 70.2958C216.836 70.0998 216.475 69.9079 216.112 69.7211C216.014 69.6693 215.973 69.5465 216.023 69.4459C216.074 69.3444 216.2 69.3068 216.3 69.3576C216.666 69.5465 217.029 69.7394 217.391 69.9374C217.487 69.9922 217.527 70.1161 217.473 70.2156C217.434 70.2836 217.363 70.3212 217.292 70.3222ZM173.722 70.2917C173.65 70.2917 173.579 70.2542 173.541 70.1861C173.487 70.0876 173.523 69.9638 173.622 69.9089C173.982 69.711 174.342 69.5211 174.709 69.3322C174.81 69.2804 174.934 69.3211 174.985 69.4195C175.036 69.5211 174.997 69.6439 174.893 69.6957C174.534 69.8815 174.173 70.0714 173.818 70.2663C173.787 70.2836 173.754 70.2907 173.721 70.2907L173.722 70.2917ZM215.107 69.1951C215.073 69.1951 215.044 69.1901 215.017 69.1748C214.649 68.9982 214.278 68.8276 213.903 68.659C213.801 68.6134 213.755 68.4925 213.801 68.389C213.847 68.2864 213.966 68.2407 214.07 68.2874C214.446 68.456 214.822 68.6296 215.193 68.8073C215.295 68.856 215.337 68.9779 215.29 69.0794C215.253 69.1525 215.18 69.1951 215.106 69.1951H215.107ZM175.901 69.1738C175.826 69.1738 175.751 69.1322 175.717 69.0581C175.666 68.9555 175.71 68.8347 175.812 68.786C176.179 68.6093 176.552 68.4357 176.928 68.2702C177.032 68.2224 177.152 68.2702 177.197 68.3727C177.243 68.4753 177.197 68.5961 177.094 68.6428C176.722 68.8093 176.354 68.9799 175.988 69.1545C175.958 69.1688 175.928 69.1738 175.899 69.1738H175.901ZM212.857 68.1899C212.833 68.1899 212.805 68.1859 212.778 68.1747C212.401 68.0184 212.021 67.8671 211.639 67.7198C211.534 67.6792 211.483 67.5614 211.521 67.4569C211.562 67.3513 211.68 67.2985 211.788 67.3381C212.172 67.4863 212.554 67.6386 212.934 67.797C213.039 67.8407 213.089 67.9605 213.045 68.064C213.013 68.1422 212.939 68.1899 212.856 68.1899H212.857ZM178.136 68.1767C178.054 68.1788 177.978 68.1311 177.946 68.0519C177.903 67.9473 177.956 67.8285 178.057 67.7838C178.437 67.6274 178.818 67.4751 179.204 67.3279C179.31 67.2873 179.427 67.3401 179.468 67.4457C179.51 67.5503 179.455 67.6691 179.349 67.7097C178.967 67.8559 178.59 68.0062 178.214 68.1615C178.186 68.1727 178.163 68.1767 178.136 68.1767ZM210.558 67.3086C210.537 67.3086 210.512 67.3056 210.492 67.2974C210.106 67.1614 209.718 67.0314 209.329 66.9065C209.221 66.871 209.163 66.7563 209.198 66.6486C209.231 66.543 209.348 66.4821 209.455 66.5166C209.849 66.6436 210.242 66.7756 210.627 66.9126C210.734 66.9502 210.791 67.068 210.751 67.1736C210.722 67.2568 210.645 67.3086 210.56 67.3086H210.558ZM180.431 67.2995C180.344 67.2995 180.266 67.2477 180.235 67.1624C180.198 67.0568 180.255 66.94 180.36 66.9025C180.748 66.7664 181.138 66.6354 181.53 66.5095C181.64 66.475 181.755 66.5339 181.788 66.6425C181.823 66.7492 181.763 66.8649 181.655 66.8994C181.268 67.0243 180.88 67.1543 180.498 67.2883C180.476 67.2975 180.452 67.3005 180.431 67.3005V67.2995ZM208.214 66.5542C208.196 66.5542 208.176 66.5522 208.154 66.5471C207.764 66.4324 207.373 66.3227 206.977 66.2202C206.868 66.1917 206.801 66.08 206.831 65.9704C206.859 65.8617 206.97 65.7957 207.081 65.8252C207.479 65.9298 207.874 66.0394 208.27 66.1552C208.377 66.1866 208.44 66.3004 208.41 66.408C208.384 66.4963 208.302 66.5552 208.214 66.5552V66.5542ZM182.769 66.5491C182.678 66.5491 182.598 66.4902 182.572 66.4009C182.538 66.2922 182.602 66.1795 182.709 66.1481C183.105 66.0333 183.499 65.9237 183.899 65.8191C184.008 65.7917 184.12 65.8556 184.149 65.9643C184.177 66.075 184.112 66.1856 183.999 66.2141C183.605 66.3166 183.214 66.4253 182.821 66.54C182.805 66.5461 182.788 66.5491 182.769 66.5491ZM205.839 65.9287C205.82 65.9287 205.804 65.9288 205.789 65.9247C205.393 65.8313 204.996 65.745 204.596 65.6617C204.486 65.6394 204.415 65.5317 204.437 65.4201C204.458 65.3104 204.565 65.2383 204.678 65.2606C205.084 65.3439 205.484 65.4322 205.884 65.5267C205.994 65.5521 206.064 65.6617 206.037 65.7724C206.012 65.8658 205.931 65.9287 205.84 65.9287H205.839ZM185.143 65.9267C185.051 65.9267 184.965 65.8628 184.942 65.7693C184.919 65.6597 184.985 65.549 185.096 65.5246C185.496 65.4302 185.899 65.3429 186.3 65.2596C186.41 65.2363 186.518 65.3084 186.542 65.418C186.564 65.5297 186.496 65.6373 186.384 65.6597C185.984 65.7419 185.585 65.8282 185.192 65.9216C185.174 65.9247 185.161 65.9257 185.144 65.9257L185.143 65.9267ZM203.434 65.4373C203.421 65.4373 203.407 65.4373 203.398 65.4343C202.996 65.3632 202.594 65.2972 202.191 65.2363C202.079 65.22 202.002 65.1165 202.018 65.0058C202.037 64.8931 202.141 64.818 202.251 64.8332C202.656 64.8931 203.064 64.9591 203.469 65.0312C203.581 65.0505 203.654 65.1571 203.633 65.2678C203.617 65.3662 203.531 65.4363 203.435 65.4363L203.434 65.4373ZM187.548 65.4353C187.451 65.4353 187.364 65.3662 187.348 65.2667C187.328 65.155 187.402 65.0505 187.515 65.0302C187.919 64.9591 188.32 64.8931 188.733 64.8332C188.842 64.8129 188.947 64.8931 188.962 65.0048C188.979 65.1165 188.903 65.22 188.791 65.2373C188.387 65.2972 187.984 65.3622 187.584 65.4333C187.571 65.4353 187.561 65.4363 187.549 65.4363L187.548 65.4353ZM201.005 65.0758C200.994 65.0758 200.985 65.0759 200.977 65.0748C200.575 65.0251 200.17 64.9814 199.761 64.9439C199.649 64.9327 199.565 64.8342 199.579 64.7215C199.589 64.6098 199.688 64.5276 199.798 64.5377C200.207 64.5753 200.62 64.62 201.025 64.6707C201.139 64.6839 201.218 64.7855 201.205 64.8982C201.193 65.0007 201.102 65.0779 201.004 65.0779L201.005 65.0758ZM189.978 65.0738C189.875 65.0738 189.788 64.9977 189.777 64.8941C189.761 64.7824 189.842 64.6799 189.951 64.6656C190.36 64.6169 190.768 64.5733 191.179 64.5337C191.289 64.5245 191.393 64.6068 191.401 64.7184C191.412 64.8312 191.329 64.9307 191.216 64.9408C190.809 64.9794 190.404 65.0231 190.002 65.0718C189.992 65.0718 189.985 65.0718 189.976 65.0718L189.978 65.0738Z" fill="#88CEFC"/>
<path d="M222.331 89.9041C222.57 89.9376 222.784 90.0675 222.924 90.2635C224.344 92.2475 225.548 94.3889 226.509 96.6278C227.668 99.3357 228.466 102.189 228.881 105.105C229.294 108.013 229.324 110.975 228.971 113.907C228.678 116.333 228.124 118.725 227.32 121.022C227.241 121.25 227.072 121.434 226.853 121.535C226.703 121.6 226.542 121.627 226.38 121.609C226.303 121.598 226.228 121.58 226.157 121.549L213.418 116.438C212.989 116.266 212.767 115.794 212.905 115.355C213.241 114.279 213.48 113.171 213.614 112.059C213.806 110.476 213.788 108.873 213.563 107.291C213.339 105.719 212.908 104.173 212.275 102.703C211.833 101.666 211.292 100.67 210.674 99.7388C210.418 99.355 210.501 98.8382 210.864 98.5539L221.658 90.0848C221.844 89.9406 222.076 89.8736 222.31 89.9031C222.315 89.9051 222.324 89.9051 222.33 89.9061L222.331 89.9041Z" fill="#E24E4F"/>
<path d="M209.181 79.0944C209.271 79.1045 209.358 79.1289 209.441 79.1675C211.663 80.1737 213.777 81.4287 215.723 82.8918C217.672 84.356 219.466 86.0343 221.057 87.8823C221.214 88.0671 221.29 88.3047 221.267 88.5453C221.244 88.7839 221.123 89.0043 220.931 89.1535L210.136 97.6246C209.945 97.7759 209.709 97.8338 209.485 97.8074C209.282 97.782 209.089 97.6876 208.94 97.5272C208.183 96.7057 207.341 95.9452 206.44 95.267C205.54 94.5908 204.573 93.9947 203.572 93.4992C203.157 93.2952 202.97 92.8047 203.141 92.3773L208.257 79.6417C208.348 79.4163 208.521 79.2406 208.748 79.1502C208.887 79.0944 209.039 79.0761 209.182 79.0924L209.181 79.0944Z" fill="#1C6F73"/>
<path d="M189.488 76.7218C189.632 76.7401 189.776 76.7939 189.896 76.8813C190.092 77.0214 190.222 77.2336 190.256 77.4742L192.195 91.0607C192.26 91.5176 191.964 91.9471 191.513 92.0496C190.42 92.2923 189.338 92.6406 188.303 93.0833C186.829 93.7169 185.446 94.5322 184.201 95.509C183.322 96.1994 182.499 96.9792 181.755 97.826C181.555 98.0534 181.266 98.155 180.984 98.1215C180.834 98.1042 180.688 98.0463 180.56 97.9519L169.576 89.7153C169.384 89.5722 169.26 89.3539 169.231 89.1143C169.202 88.8746 169.274 88.635 169.427 88.4482C170.975 86.5688 172.736 84.8528 174.653 83.3481C176.97 81.5275 179.523 80.0167 182.231 78.8571C184.47 77.8986 186.822 77.1828 189.218 76.73C189.309 76.7127 189.4 76.7117 189.488 76.7218Z" fill="#FFBD66"/>
<path d="M199.515 76.3938C201.941 76.6852 204.335 77.2416 206.631 78.0417C206.86 78.1219 207.045 78.2915 207.145 78.5098C207.244 78.7301 207.249 78.9809 207.161 79.2063L202.045 91.9419C201.892 92.3176 201.511 92.5359 201.121 92.4882C201.069 92.4821 201.014 92.4699 200.961 92.4537C199.888 92.1166 198.779 91.8759 197.665 91.7439C196.551 91.6089 195.417 91.5785 194.295 91.6505C194.238 91.6526 194.186 91.6516 194.131 91.6455C193.741 91.5988 193.42 91.2952 193.361 90.8931L191.422 77.3056C191.39 77.068 191.455 76.8253 191.604 76.6355C191.752 76.4466 191.973 76.3258 192.214 76.3024C194.633 76.0689 197.09 76.0983 199.514 76.3918L199.515 76.3938Z" fill="#FFA53D"/>
<path d="M181.477 121.938C181.677 121.962 181.873 122.057 182.022 122.218C182.777 123.039 183.618 123.8 184.519 124.478C185.42 125.154 186.386 125.747 187.391 126.245C187.804 126.449 187.992 126.938 187.821 127.365L182.703 140.102C182.615 140.324 182.438 140.504 182.213 140.594C182.077 140.65 181.924 140.67 181.777 140.651C181.688 140.637 181.603 140.614 181.519 140.58C179.3 139.572 177.184 138.315 175.236 136.852C173.287 135.388 171.494 133.707 169.905 131.859C169.748 131.678 169.67 131.438 169.696 131.2C169.718 130.958 169.84 130.739 170.031 130.59L180.826 122.12C181.017 121.97 181.252 121.908 181.478 121.937L181.477 121.938Z" fill="#20759E"/>
<path d="M176.453 108.174C176.912 108.23 177.251 108.629 177.229 109.09C177.182 110.21 177.238 111.343 177.396 112.453C177.622 114.03 178.054 115.574 178.682 117.045C179.127 118.082 179.666 119.078 180.288 120.009C180.544 120.393 180.461 120.907 180.098 121.193L169.302 129.663C169.119 129.807 168.883 129.875 168.652 129.846H168.632C168.392 129.81 168.178 129.68 168.038 129.481C166.618 127.5 165.411 125.357 164.454 123.118C163.294 120.408 162.495 117.559 162.082 114.642C161.738 112.233 161.658 109.78 161.843 107.343C161.86 107.102 161.974 106.881 162.162 106.726C162.351 106.575 162.59 106.506 162.829 106.532L176.455 108.174H176.453Z" fill="#88CEFC"/>
<path d="M168.442 90.486C168.597 90.5043 168.743 90.5631 168.87 90.6576L179.851 98.8931C180.221 99.1703 180.316 99.6861 180.066 100.074C179.463 101.024 178.944 102.033 178.53 103.072C178.111 104.113 177.785 105.201 177.568 106.299C177.475 106.752 177.054 107.06 176.594 107.005L162.97 105.363C162.73 105.335 162.515 105.209 162.368 105.016C162.223 104.823 162.164 104.578 162.206 104.342C162.603 101.931 163.266 99.5643 164.168 97.3081C165.078 95.0449 166.235 92.8792 167.611 90.8647C167.747 90.6657 167.957 90.5296 168.198 90.491C168.28 90.4778 168.362 90.4768 168.444 90.486H168.442Z" fill="#65BCEB"/>
<path d="M212.758 117.474C212.833 117.48 212.908 117.5 212.98 117.531L225.721 122.646C225.943 122.734 226.122 122.911 226.211 123.136C226.302 123.358 226.294 123.61 226.195 123.83C225.187 126.051 223.934 128.161 222.47 130.11C220.702 132.466 218.627 134.579 216.306 136.4C214.389 137.904 212.304 139.204 210.109 140.263C209.954 140.337 209.786 140.364 209.616 140.344C209.549 140.337 209.48 140.318 209.415 140.293C209.187 140.211 209.007 140.036 208.912 139.815L203.519 127.193C203.339 126.769 203.515 126.276 203.922 126.061C204.925 125.541 205.877 124.926 206.754 124.235C208.004 123.26 209.122 122.113 210.089 120.829C210.767 119.93 211.36 118.965 211.857 117.959C212.028 117.616 212.394 117.431 212.757 117.475L212.758 117.474Z" fill="#3A8F92"/>
<path d="M201.729 127.126C202.036 127.164 202.309 127.358 202.437 127.655L207.831 140.28C207.924 140.501 207.925 140.749 207.829 140.972C207.736 141.194 207.554 141.369 207.329 141.454C205.046 142.315 202.664 142.922 200.251 143.264C197.342 143.677 194.378 143.708 191.444 143.355C189.019 143.064 186.625 142.508 184.328 141.706C184.1 141.625 183.914 141.456 183.817 141.234C183.717 141.014 183.709 140.766 183.799 140.54L188.916 127.805C189.067 127.428 189.45 127.208 189.84 127.255C189.894 127.261 189.946 127.272 189.999 127.292C191.071 127.627 192.181 127.867 193.296 128.001C194.879 128.19 196.482 128.172 198.062 127.948C199.172 127.791 200.271 127.529 201.341 127.166C201.469 127.122 201.604 127.109 201.729 127.124V127.126Z" fill="#398FB9"/>
<path d="M126.779 319.168L121.727 319.244L120.25 306.894H126.985L126.779 319.168Z" fill="#A76B63"/>
<path d="M126.687 318.118C126.168 317.38 125.195 317.141 124.28 317.276C123.203 317.433 121.556 318.621 120.532 320.829C119.77 322.467 119.146 324.508 120.063 326.12C120.571 327.011 121.458 327.552 122.456 327.721C123.413 327.878 124.615 327.874 125.486 327.398C126.386 326.905 126.948 325.963 127.109 324.973C127.302 323.787 127.35 322.523 127.386 321.322C127.417 320.236 127.335 319.04 126.688 318.119L126.687 318.118Z" fill="#14232F"/>
<path d="M143.698 319.721L148.545 320.994L152.907 309.466L146.42 307.864L143.698 319.721Z" fill="#A76B63"/>
<path d="M153.385 324.087C152.647 323.238 151.777 322.52 150.919 321.797C150.27 321.256 149.476 320.696 148.893 320.08C147.126 320.284 143.923 318.766 143.923 318.766C143.509 319.868 141.888 323.566 143.117 324.889C144.364 326.229 147.555 327 149.527 327.381C151.104 327.681 154.226 328.483 154.547 326.622C154.714 325.652 153.989 324.772 153.386 324.087H153.385Z" fill="#14232F"/>
<path d="M162.125 178.722L168.317 180.086C168.317 180.086 168.946 175.032 169.229 173.391C171.504 171.536 172.543 167.312 172.672 166.708C172.787 166.178 172.965 165.614 172.923 165.067C172.88 164.513 172.45 161.277 169.806 161.878L170.065 161.176C170.331 160.474 170.632 159.77 170.807 159.039C170.895 158.662 171.102 157.932 170.718 157.635C170.336 157.337 169.917 157.68 169.704 157.995C169.324 158.559 169.007 159.176 168.697 159.779C168.13 160.881 167.648 162.024 167.236 163.192C167.339 162.56 167.354 161.919 167.246 161.287C167.183 160.916 167.079 160.417 166.646 160.322C166.338 160.252 166.121 160.421 166.041 160.711C165.952 161.034 165.969 161.406 165.904 161.735C165.824 162.131 165.707 162.515 165.571 162.895C165.069 164.29 164.656 165.574 164.63 167.073C164.612 168.44 164.538 170.605 164.753 171.954C163.92 174.51 163.152 176.436 162.124 178.723L162.125 178.722Z" fill="#A76B63"/>
<path d="M152.778 233.115H110.816C110.98 244.27 115.8 264.479 115.8 277.048C115.8 291.788 118.873 310.585 119.629 316.282L127.678 316.554C130.677 295.948 132.444 258.404 134.252 249.772C136.064 253.17 143.518 270.04 146.344 277.218C145.107 289.825 143.518 304.176 142.952 316.799L151.228 318.766C151.228 318.766 161.877 284.589 161.877 274.114C161.877 263.64 154.573 239.576 152.779 233.114L152.778 233.115Z" fill="#30617A"/>
<path d="M134.18 164.569L134.127 161.666C135.379 162.098 137.406 162.207 138.493 161.249C140.604 159.396 141.293 155.382 140.408 150.929C139.982 148.806 139.806 145.138 139.112 143.802C138.409 141.752 136.98 140.929 132.642 141.831C130.726 142.229 127.227 154.181 127.064 154.164C127.039 155.928 126.043 157.1 126.043 157.1C125.952 159.818 125.678 164.149 125.678 164.149C129.226 165.445 134.18 164.57 134.18 164.57V164.569Z" fill="#A76B63"/>
<path d="M162.413 176.778C160.785 179.703 159.443 182.769 158.381 185.937C156.443 181.184 151.618 172.614 149.455 170.26C146.364 166.896 140.787 165.537 134.174 164.346L125.119 164.148C118.059 165.138 110.85 168.486 108.712 172.261C106.016 177.023 106.619 189.156 108.692 195.807C109.482 198.343 110.904 202 111.021 202.225C111.979 215.056 110.199 226.246 110.072 238.593C110.072 238.721 124.769 240.661 131.781 238.711C135.198 237.761 138.347 236.086 141.672 234.88C145.351 233.547 153.412 233.494 153.415 233.343C153.631 222.797 150.179 216.04 151.071 199.88C151.575 200.172 154.75 204.365 157.24 204.941C159.546 205.476 162.017 204.928 163.619 202.409C165.614 199.273 166.653 195.026 167.342 191.447C168.147 187.274 168.675 183.028 169.141 178.801C166.714 178.308 164.717 177.687 162.415 176.779L162.413 176.778Z" fill="#FFBD66"/>
<path d="M134.48 249.926C135.008 246.099 135.536 242.275 136.063 238.451C136.09 238.245 135.773 238.156 135.744 238.363C135.217 242.188 134.691 246.014 134.161 249.838C134.134 250.044 134.451 250.132 134.48 249.926Z" fill="#224A5F"/>
<path d="M111.02 202.226C112.353 204.445 114.207 206.162 116.994 205.467C119.902 204.745 121.899 201.825 123.075 199.267C124.512 196.147 125.071 192.568 125.808 189.233C126.614 185.566 127.302 181.872 127.659 178.131C127.677 177.922 127.351 177.922 127.33 178.131C127.022 181.368 126.464 184.566 125.792 187.746C125.158 190.756 124.544 193.821 123.66 196.769C122.829 199.541 121.298 202.537 118.866 204.236C117.562 205.148 115.875 205.609 114.325 205.064C112.892 204.556 112.05 203.305 111.301 202.063C111.192 201.882 110.91 202.046 111.02 202.228V202.226Z" fill="#FFA53D"/>
<path d="M112.266 193.742C113.886 187.43 117.212 181.783 120.514 176.229C120.624 176.047 120.34 175.88 120.235 176.062C116.911 181.644 113.576 187.313 111.947 193.657C111.898 193.861 112.212 193.948 112.266 193.741V193.742Z" fill="#FFA53D"/>
<path d="M151.04 199.727C151.26 189.711 150.299 183.198 148.177 173.406C148.132 173.202 147.811 173.276 147.856 173.482C149.971 183.245 150.932 189.727 150.713 199.714C150.709 199.925 151.036 199.935 151.04 199.727Z" fill="#FFA53D"/>
<path d="M158.334 185.659C156.975 188.937 156.128 192.402 155.814 195.939C155.796 196.149 156.122 196.149 156.143 195.939C156.454 192.434 157.303 188.999 158.65 185.747C158.732 185.551 158.414 185.467 158.334 185.659Z" fill="#FFA53D"/>
<path d="M136.729 232.165C137.701 224.84 138.499 217.494 139.121 210.129C139.14 209.919 138.809 209.92 138.792 210.129C138.17 217.493 137.372 224.84 136.401 232.165C136.373 232.376 136.705 232.372 136.729 232.165Z" fill="#FFA53D"/>
<path d="M141.017 219.586C142.519 213.262 143.559 206.842 144.135 200.37C144.154 200.159 143.826 200.159 143.807 200.37C143.234 206.813 142.195 213.205 140.701 219.499C140.651 219.705 140.968 219.792 141.017 219.587V219.586Z" fill="#FFA53D"/>
<path d="M141.306 142.743C140.961 142.296 140.536 141.858 140.388 141.295C140.251 140.759 140.445 140.208 140.321 139.673C140.153 138.962 139.509 138.673 138.935 138.329C138.093 137.829 137.815 136.837 136.957 136.353C136.239 135.945 135.42 135.903 134.65 136.182C133.953 136.439 133.458 136.736 132.709 136.397C132.255 136.19 131.86 135.953 131.361 135.85C129.716 135.498 128.143 136.188 127.204 137.465C126.18 137.418 124.917 138.062 124.365 138.692C123.751 139.392 124.003 140.403 123.358 141.078C122.76 141.706 121.893 141.907 121.361 142.632C120.471 143.845 120.063 145.803 120.893 147.132C121.161 147.557 121.566 147.898 121.791 148.35C122.166 149.096 121.957 149.829 121.85 150.601C121.748 151.329 121.726 152.018 122.134 152.659C122.507 153.252 123.12 153.632 123.59 154.137C124.174 154.77 124.243 155.351 124.201 156.215C124.178 156.668 124.081 157.137 124.227 157.584C124.345 157.942 124.524 158.107 124.781 158.357C125.173 158.739 125.525 159.104 125.799 159.578C126.132 160.147 126.389 160.529 127.085 160.67C128.513 160.959 129.534 159.672 129.623 158.363C129.701 157.176 129.091 156.172 130.126 155.243C130.671 154.752 130.99 154.282 131.099 153.532C131.279 152.308 130.406 150.425 131.504 149.503C131.824 149.234 132.121 149.193 132.376 148.81C132.598 148.478 132.688 148.073 132.737 147.681C132.89 146.512 132.5 145.171 133.705 144.45C133.952 144.302 134.18 144.205 134.366 143.97C134.678 143.573 134.741 143.076 134.986 142.643C135.431 142.457 135.932 142.453 136.353 142.734C136.733 142.987 136.924 143.427 137.295 143.689C137.451 143.798 137.647 143.894 137.845 143.905C138.196 143.921 138.415 143.641 138.751 143.729C139.218 143.851 139.268 144.646 139.346 145.096C139.426 145.562 139.491 146.032 139.565 146.499C139.719 147.52 139.869 147.909 140.026 148.929C140.037 149.012 140.183 149.723 140.183 149.723C140.781 149.511 141.067 148.898 141.076 148.288C141.08 147.588 140.803 146.916 141.15 146.247C141.387 145.795 141.778 145.437 141.949 144.951C142.244 144.134 141.795 143.375 141.307 142.742L141.306 142.743Z" fill="#14232F"/>
<path d="M128.214 154.132C128.843 155.149 129.896 155.634 130.57 155.218C131.242 154.804 131.28 153.644 130.652 152.627C130.026 151.61 129.089 151.312 128.413 151.728C127.742 152.144 127.589 153.114 128.213 154.131L128.214 154.132Z" fill="#A76B63"/>
<path d="M132.489 158.224C131.768 157.828 130.787 157.808 129.984 157.721C129.025 157.616 127.963 157.463 126.998 157.584C125.283 157.8 125.045 160.114 124.853 161.451C124.612 163.138 124.375 164.826 124.135 166.511C122.882 170.201 121.853 172.291 120.599 175.983L127.329 178.129C128.144 174.578 128.623 172.359 129.227 168.767C130.051 167.731 130.557 166.458 130.67 165.139C131.881 164.347 132.808 163.173 133.262 161.787C133.639 160.624 133.745 158.914 132.489 158.223V158.224Z" fill="#A76B63"/>
<path d="M128.935 157.848C129.73 157.872 130.526 157.896 131.303 158.061C131.68 158.142 132.058 158.251 132.407 158.421C132.831 158.625 133.008 158.991 133.168 159.411C133.472 160.209 133.431 160.992 133.149 161.788C132.882 162.547 132.479 163.301 131.921 163.885C131.776 164.038 132.008 164.27 132.153 164.118C132.754 163.491 133.174 162.689 133.466 161.877C133.782 160.983 133.796 160.101 133.443 159.215C133.308 158.88 133.159 158.538 132.864 158.314C132.527 158.055 132.07 157.918 131.665 157.811C130.775 157.58 129.848 157.549 128.935 157.521C128.726 157.514 128.726 157.842 128.935 157.849V157.848Z" fill="#8B5348"/>
<path d="M130.785 165.017C131.006 163.7 130.954 162.36 130.622 161.064C130.57 160.859 130.253 160.946 130.307 161.153C130.621 162.385 130.679 163.675 130.468 164.932C130.431 165.137 130.751 165.227 130.784 165.017H130.785Z" fill="#8B5348"/>
<path fill-rule="evenodd" clip-rule="evenodd" d="M543.907 106.806H518.219C518.219 92.5079 529.723 80.915 543.907 80.915C558.091 80.915 569.594 92.5079 569.594 106.806H543.907Z" fill="#EBEBEB"/>
<path fill-rule="evenodd" clip-rule="evenodd" d="M462.114 106.806H447C447 98.3927 453.766 91.5725 462.114 91.5725C470.461 91.5725 477.228 98.3927 477.228 106.806H462.114Z" fill="#EBEBEB"/>
<path fill-rule="evenodd" clip-rule="evenodd" d="M505.304 106.806H472.762C472.762 88.6911 487.333 74 505.304 74C523.276 74 537.846 88.6843 537.846 106.806H505.304Z" fill="#EBEBEB"/>
<path fill-rule="evenodd" clip-rule="evenodd" d="M96.9068 119.806H71.2193C71.2193 105.508 82.7227 93.915 96.9068 93.915C111.091 93.915 122.594 105.508 122.594 119.806H96.9068Z" fill="#EBEBEB"/>
<path fill-rule="evenodd" clip-rule="evenodd" d="M15.1139 119.806H0C0 111.393 6.7663 104.573 15.1139 104.573C23.4615 104.573 30.2278 111.393 30.2278 119.806H15.1139Z" fill="#EBEBEB"/>
<path fill-rule="evenodd" clip-rule="evenodd" d="M58.3044 119.806H25.7624C25.7624 101.691 40.3333 87 58.3044 87C76.2755 87 90.8465 101.684 90.8465 119.806H58.3044Z" fill="#EBEBEB"/>
</svg>
