<svg width="176" height="187" viewBox="0 0 176 187" fill="none" xmlns="http://www.w3.org/2000/svg">
<path d="M59.1723 96.7808H40.0131V102.107H59.1723V96.7808Z" fill="#494E5B"/>
<path d="M145.485 170.959V99.4419H158.179C163.645 99.4419 166.385 92.8763 162.528 89.0263L136.466 63.0449L125.046 51.6609L88.7798 15.501C88.7798 15.501 72.9228 31.3106 57.8718 46.3177V28.2326H35.4748V68.6489C27.2821 76.8161 15.032 89.0297 15.032 89.0297C11.171 92.8763 13.9143 99.4453 19.3807 99.4453H32.0744V170.963H145.485V170.959Z" fill="#747474"/>
<path d="M171.78 86.8458L88.7528 6.34516L67.0162 26.8106L63.3652 22.9336L86.9544 0.724264C87.9908 -0.250927 89.613 -0.240769 90.6325 0.751353L175.486 83.023L171.777 86.8458H171.78Z" fill="#5FC4E9"/>
<path d="M26.7722 57.4478L0.29126 82.3794L3.94357 86.257L30.4245 61.3255L26.7722 57.4478Z" fill="#5FC4E9"/>
<path d="M108.881 76.5356L89.972 98.4605V140.37L123.308 105.653C120.538 95.5078 114.821 85.2548 108.881 76.5356Z" fill="#208E64"/>
<path d="M89.972 53.2017V98.46L108.881 76.5351C99.6989 63.0585 90.016 53.2491 89.972 53.205V53.2017Z" fill="#2BCE8F"/>
<path d="M89.972 140.369V157.456C90.2531 157.459 90.5308 157.472 90.8153 157.472C109.883 157.317 125.235 140.383 125.046 117.236C125.015 113.453 124.375 109.563 123.308 105.652L89.972 140.369Z" fill="#25A473"/>
<path d="M89.972 53.2016L89.9686 53.1982C89.9686 53.1982 70.4335 73.6569 60.9944 96.0796L89.972 119.315V53.2016Z" fill="#25A473"/>
<path d="M60.9944 96.0796C57.9462 103.322 55.9446 110.765 55.9988 117.795C56.1851 140.6 71.2937 157.117 89.9719 157.452V119.315L60.9944 96.0796Z" fill="#2BCE8F"/>
<path d="M20.3323 170.959V186.19H91.4893H122.76H156.462V170.959H20.3323Z" fill="#966D5F"/>
</svg>
