<svg width="198" height="152" viewBox="0 0 198 152" fill="none" xmlns="http://www.w3.org/2000/svg">
<path d="M27.7916 76.8859H10.9897V128.947H27.7916V76.8859Z" fill="#E24E4F"/>
<path d="M52.9941 63.1534H36.1923V128.947H52.9941V63.1534Z" fill="#E24E4F"/>
<path d="M78.1967 48.9896H61.3949V128.972H78.1967V48.9896Z" fill="#FFB733"/>
<path d="M103.425 35.2573H86.6232V128.972H103.425V35.2573Z" fill="#FFB733"/>
<path d="M166.318 136.486H0V141.41H166.318V136.486Z" fill="#384146"/>
<path d="M128.628 17.6414H111.826V128.972H128.628V17.6414Z" fill="#5FC4E9"/>
<path d="M153.83 0H137.029V128.947H153.83V0Z" fill="#5FC4E9"/>
<path d="M150.845 83.2935L144.603 87.8302L154.213 101.053L160.454 96.5166L150.845 83.2935Z" fill="#A5A5A5"/>
<path fill-rule="evenodd" clip-rule="evenodd" d="M118.222 44.9791C107.283 52.9241 104.872 68.2555 112.816 79.1957C120.76 90.1359 136.09 92.5473 147.003 84.6023C157.942 76.6574 160.354 61.3259 152.41 50.3857C144.465 39.4455 129.136 37.0342 118.222 44.9791Z" fill="white"/>
<path fill-rule="evenodd" clip-rule="evenodd" d="M163.983 61.4781C165.81 78.7895 153.247 94.324 135.937 96.1516C118.628 97.9792 103.095 85.4145 101.268 68.1032C99.4404 50.7918 112.004 35.2573 129.313 33.4297C146.623 31.6021 162.155 44.1668 163.983 61.4781ZM155.912 62.3412C154.567 49.4972 143.019 40.1562 130.151 41.5015C117.308 42.8468 107.968 54.3962 109.313 67.2655C110.659 80.1094 122.207 89.4504 135.074 88.1051C147.917 86.7598 157.257 75.2104 155.912 62.3665V62.3412Z" fill="#A19898"/>
<path fill-rule="evenodd" clip-rule="evenodd" d="M154.491 94.8316C150.531 97.7253 149.643 103.335 152.511 107.295L181.876 147.679C184.769 151.639 190.379 152.528 194.338 149.659C198.297 146.766 199.186 141.156 196.318 137.196L166.952 96.8115C164.059 92.8517 158.45 91.9633 154.491 94.8316Z" fill="#A5A5A5"/>
<path fill-rule="evenodd" clip-rule="evenodd" d="M154.491 94.8316C150.531 97.7253 149.643 103.335 152.511 107.295L166.952 96.8115C164.059 92.8517 158.45 91.9633 154.491 94.8316ZM154.795 110.442L169.237 99.9336L194.033 134.049L179.592 144.557L154.795 110.442ZM181.876 147.705C184.769 151.665 190.379 152.553 194.338 149.685C198.297 146.791 199.186 141.181 196.318 137.222L181.876 147.73V147.705Z" fill="white"/>
<path d="M140.277 72.4185C140.328 74.8045 139.668 76.6575 138.272 77.9774C137.435 78.7643 136.394 79.2466 135.176 79.475V81.4041H131.648V79.3734C129.998 78.9419 128.704 77.952 127.816 76.429C127.054 75.1091 126.623 73.5607 126.521 71.8093L130.506 71.53C130.684 73.1546 131.09 74.3222 131.75 75.0075C132.257 75.5406 132.816 75.8198 133.475 75.769C134.389 75.7437 135.125 75.2868 135.658 74.4237C135.937 73.9922 136.064 73.383 136.064 72.5961C136.064 71.4539 135.557 70.337 134.516 69.1694C133.678 68.3825 132.435 67.2149 130.785 65.6665C129.516 64.4481 128.577 63.3312 128.019 62.3159C127.308 61.0468 126.927 59.6761 126.927 58.2038C126.927 56.7316 127.257 55.4879 127.943 54.2948C128.755 52.848 129.998 51.9088 131.623 51.528V49.7512H135.151V51.528C136.267 51.7819 137.181 52.2388 137.917 52.9241C139.211 54.1171 139.922 55.7163 140.074 57.6708L136.064 58.4069C135.937 57.2901 135.633 56.4016 135.1 55.7417C134.744 55.3102 134.211 55.0817 133.475 55.0817C132.739 55.0817 132.13 55.4117 131.724 56.097C131.394 56.6301 131.242 57.3154 131.242 58.1277C131.242 59.3969 131.775 60.6914 132.866 62.0113C133.272 62.4682 133.882 63.052 134.694 63.7628C135.658 64.5497 136.318 65.1335 136.623 65.4634C137.663 66.5295 138.425 67.5449 138.983 68.5094C139.795 69.9563 140.201 71.2762 140.252 72.4438L140.277 72.4185Z" fill="#E24E4F"/>
</svg>
