<svg width="220" height="221" viewBox="0 0 220 221" fill="none" xmlns="http://www.w3.org/2000/svg">
<path d="M165 213.89H54.9999V220.765H165V213.89Z" fill="#474E5D"/>
<path d="M130.625 158.89H89.375V213.89H130.625V158.89Z" fill="#474E5D"/>
<path d="M130.625 158.89H89.375V165.765H130.625V158.89Z" fill="#2E3544"/>
<path d="M213.125 0.764648H6.87506V158.89H213.125V0.764648Z" fill="white"/>
<path d="M220 152.015H0V158.89H220V152.015Z" fill="#474E5D"/>
<path d="M201.094 136.976H18.9064V138.695H201.094V136.976Z" fill="#D8DBE1"/>
<path d="M201.094 113.772H18.9064V115.491H201.094V113.772Z" fill="#D8DBE1"/>
<path d="M201.094 90.5698H18.9064V92.2886H201.094V90.5698Z" fill="#D8DBE1"/>
<path d="M201.094 67.3667H18.9064V69.0854H201.094V67.3667Z" fill="#D8DBE1"/>
<path d="M201.094 44.1631H18.9064V45.8818H201.094V44.1631Z" fill="#D8DBE1"/>
<path d="M201.094 20.9604H18.9063V22.6792H201.094V20.9604Z" fill="#D8DBE1"/>
<path d="M20.6251 20.9604H18.9063V138.695H20.6251V20.9604Z" fill="#D8DBE1"/>
<path d="M56.7189 20.9604H55.0002V138.695H56.7189V20.9604Z" fill="#D8DBE1"/>
<path d="M92.8126 20.9604H91.0939V138.695H92.8126V20.9604Z" fill="#D8DBE1"/>
<path d="M128.906 20.9604H127.188V138.695H128.906V20.9604Z" fill="#D8DBE1"/>
<path d="M165 20.9604H163.281V138.695H165V20.9604Z" fill="#D8DBE1"/>
<path d="M201.094 20.9604H199.375V138.695H201.094V20.9604Z" fill="#D8DBE1"/>
<path d="M213.125 7.63965H6.87506V11.0771H213.125V7.63965Z" fill="#D8DBE1"/>
<path d="M220 0.764648H0V7.63965H220V0.764648Z" fill="#474E5D"/>
<path d="M21.1234 115.689L18.4078 113.575L55.4683 65.931L91.5621 89.1341L127.656 42.7278L163.75 65.931L198.876 20.7622L201.592 22.8763L164.532 70.52L128.438 47.3169L92.3441 93.7231L56.2504 70.52L21.1234 115.689Z" fill="#F93B2A"/>
<path d="M128.047 48.46C129.945 48.46 131.484 46.9209 131.484 45.0225C131.484 43.124 129.945 41.585 128.047 41.585C126.148 41.585 124.609 43.124 124.609 45.0225C124.609 46.9209 126.148 48.46 128.047 48.46Z" fill="#F93B2A"/>
<path d="M164.141 71.6631C166.039 71.6631 167.578 70.1241 167.578 68.2256C167.578 66.3271 166.039 64.7881 164.141 64.7881C162.242 64.7881 160.703 66.3271 160.703 68.2256C160.703 70.1241 162.242 71.6631 164.141 71.6631Z" fill="#F93B2A"/>
<path d="M200.234 25.2568C202.133 25.2568 203.672 23.7178 203.672 21.8193C203.672 19.9209 202.133 18.3818 200.234 18.3818C198.336 18.3818 196.797 19.9209 196.797 21.8193C196.797 23.7178 198.336 25.2568 200.234 25.2568Z" fill="#F93B2A"/>
<path d="M91.9531 94.8662C93.8516 94.8662 95.3906 93.3272 95.3906 91.4287C95.3906 89.5302 93.8516 87.9912 91.9531 87.9912C90.0546 87.9912 88.5156 89.5302 88.5156 91.4287C88.5156 93.3272 90.0546 94.8662 91.9531 94.8662Z" fill="#F93B2A"/>
<path d="M55.8594 71.6631C57.7579 71.6631 59.2969 70.1241 59.2969 68.2256C59.2969 66.3271 57.7579 64.7881 55.8594 64.7881C53.9609 64.7881 52.4219 66.3271 52.4219 68.2256C52.4219 70.1241 53.9609 71.6631 55.8594 71.6631Z" fill="#F93B2A"/>
<path d="M19.7656 118.069C21.6641 118.069 23.2031 116.53 23.2031 114.632C23.2031 112.733 21.6641 111.194 19.7656 111.194C17.8671 111.194 16.3281 112.733 16.3281 114.632C16.3281 116.53 17.8671 118.069 19.7656 118.069Z" fill="#F93B2A"/>
<path d="M92.7393 142.424L56.6456 119.221L41.194 139.085L35.7671 134.866L55.0729 110.043L91.1667 133.246L127.26 86.8396L163.354 110.043L197.523 66.1157L202.946 70.3353L164.927 119.221L128.833 96.0177L92.7393 142.424Z" fill="#5FC4E9"/>
<path d="M192.943 94.7497L200.234 68.2251L176.327 81.8204" stroke="#5FC4E9" stroke-width="16" stroke-miterlimit="10"/>
<path d="M128.047 101.741C133.742 101.741 138.359 97.1241 138.359 91.4287C138.359 85.7333 133.742 81.1162 128.047 81.1162C122.351 81.1162 117.734 85.7333 117.734 91.4287C117.734 97.1241 122.351 101.741 128.047 101.741Z" fill="#0399AF"/>
<path d="M128.047 96.585C130.895 96.585 133.203 94.2764 133.203 91.4287C133.203 88.581 130.895 86.2725 128.047 86.2725C125.199 86.2725 122.891 88.581 122.891 91.4287C122.891 94.2764 125.199 96.585 128.047 96.585Z" fill="#5FC4E9"/>
<path d="M128.047 86.272L121.172 68.2251H134.922L128.047 86.272Z" fill="#5FC4E9"/>
<path d="M128.047 72.5225C143.235 72.5225 155.547 60.2103 155.547 45.0225C155.547 29.8346 143.235 17.5225 128.047 17.5225C112.859 17.5225 100.547 29.8346 100.547 45.0225C100.547 60.2103 112.859 72.5225 128.047 72.5225Z" fill="#5FC4E9"/>
<path d="M125.804 65.647V60.7571C122.624 60.654 119.449 59.7474 117.636 58.5399L118.998 53.7962C120.966 54.9563 123.789 56.0134 126.865 56.0134C129.942 56.0134 132.211 54.4536 132.211 52.0302C132.211 49.7614 130.449 48.2962 126.715 46.9384C121.421 45.022 117.992 42.6028 117.992 37.9149C117.992 33.5751 121.017 30.2493 126.109 29.3427V24.397H130.243V29.0849C133.422 29.188 135.588 29.9442 137.204 30.7521L135.841 35.3884C134.63 34.8341 132.413 33.6782 128.984 33.6782C125.555 33.6782 124.193 35.4915 124.193 37.2103C124.193 39.2771 126.006 40.4372 130.294 42.1517C135.94 44.27 138.463 46.9942 138.463 51.4802C138.463 55.9661 135.489 59.5497 129.942 60.4563V65.6513H125.808L125.804 65.647Z" fill="white"/>
</svg>
